<svg xmlns="http://www.w3.org/2000/svg" width="93.959" height="93.959" viewBox="0 0 93.959 93.959">
  <g id="Grupo_1162380" data-name="Grupo 1162380" transform="translate(-735.051 -1481)">
    <g id="Grupo_1158189" data-name="Grupo 1158189" transform="translate(524 391)">
      <g id="Grupo_1153772" data-name="Grupo 1153772" transform="translate(211.051 1090)">
        <g id="Grupo_1103990" data-name="Grupo 1103990" transform="translate(0)">
          <g id="Trazado_874102" data-name="Trazado 874102" transform="translate(0)" fill="#f9f7f4">
            <path d="M 46.97949600219727 91.45897674560547 C 40.97370910644531 91.45897674560547 35.14888000488281 90.28328704833984 29.66683959960938 87.96457672119141 C 24.37055397033691 85.72444915771484 19.61348152160645 82.51696014404297 15.52775287628174 78.43122863769531 C 11.44202423095703 74.34550476074219 8.234539031982422 69.58843231201172 5.994410514831543 64.29214477539062 C 3.675695896148682 58.81010437011719 2.500010251998901 52.98527526855469 2.500010251998901 46.97948837280273 C 2.500010251998901 40.97369003295898 3.675695896148682 35.14887237548828 5.994410514831543 29.66683197021484 C 8.234539031982422 24.37054634094238 11.44202423095703 19.61346054077148 15.52775287628174 15.52774524688721 C 19.61348152160645 11.4420166015625 24.37055397033691 8.234531402587891 29.66683959960938 5.994388580322266 C 35.14888000488281 3.67568826675415 40.97370910644531 2.50000262260437 46.97949600219727 2.50000262260437 C 52.98529434204102 2.50000262260437 58.81011199951172 3.67568826675415 64.29215240478516 5.994388580322266 C 69.58843994140625 8.234531402587891 74.34552764892578 11.4420166015625 78.43123626708984 15.52774524688721 C 82.5169677734375 19.61346054077148 85.72445678710938 24.37054634094238 87.964599609375 29.66683197021484 C 90.28329467773438 35.14887237548828 91.458984375 40.97369003295898 91.458984375 46.97948837280273 C 91.458984375 52.98527526855469 90.28329467773438 58.81010437011719 87.964599609375 64.29214477539062 C 85.72445678710938 69.58843231201172 82.5169677734375 74.34550476074219 78.43123626708984 78.43122863769531 C 74.34552764892578 82.51696014404297 69.58843994140625 85.72444915771484 64.29215240478516 87.96457672119141 C 58.81011199951172 90.28328704833984 52.98529434204102 91.45897674560547 46.97949600219727 91.45897674560547 Z" stroke="none"/>
            <path d="M 46.97949600219727 5.000007629394531 C 41.31009674072266 5.000007629394531 35.81294631958008 6.109237670898438 30.64072799682617 8.296905517578125 C 25.64242553710938 10.41100311279297 21.1524658203125 13.43856811523438 17.29550933837891 17.29550170898438 C 13.43857574462891 21.15245819091797 10.4110107421875 25.64241790771484 8.296913146972656 30.64072036743164 C 6.109245300292969 35.81293869018555 5.000015258789062 41.31008911132812 5.000015258789062 46.97948837280273 C 5.000015258789062 52.64888763427734 6.109245300292969 58.14603805541992 8.296913146972656 63.31825256347656 C 10.4110107421875 68.31653594970703 13.43857574462891 72.8065185546875 17.29550933837891 76.6634521484375 C 21.1524658203125 80.52040100097656 25.64242553710938 83.5479736328125 30.64072799682617 85.66207122802734 C 35.81294631958008 87.84973907470703 41.31009674072266 88.95896911621094 46.97949600219727 88.95896911621094 C 52.64889526367188 88.95896911621094 58.14604568481445 87.84973907470703 63.31826019287109 85.66207122802734 C 68.31655883789062 83.5479736328125 72.80653381347656 80.52040100097656 76.66348266601562 76.6634521484375 C 80.52041625976562 72.8065185546875 83.54798126220703 68.31653594970703 85.66207885742188 63.31825256347656 C 87.84974670410156 58.14603805541992 88.95897674560547 52.64888763427734 88.95897674560547 46.97948837280273 C 88.95897674560547 41.31008911132812 87.84974670410156 35.81293869018555 85.66207885742188 30.64072036743164 C 83.54798126220703 25.64241790771484 80.52041625976562 21.15245819091797 76.66348266601562 17.29550170898438 C 72.80653381347656 13.43856811523438 68.31655883789062 10.41100311279297 63.31826019287109 8.296905517578125 C 58.14604568481445 6.109237670898438 52.64889526367188 5.000007629394531 46.97949600219727 5.000007629394531 M 46.97949600219727 7.62939453125e-06 C 72.92554473876953 7.62939453125e-06 93.95897674560547 21.03343963623047 93.95897674560547 46.97948837280273 C 93.95897674560547 72.92552185058594 72.92554473876953 93.95896911621094 46.97949600219727 93.95896911621094 C 21.033447265625 93.95896911621094 1.52587890625e-05 72.92552185058594 1.52587890625e-05 46.97948837280273 C 1.52587890625e-05 21.03343963623047 21.033447265625 7.62939453125e-06 46.97949600219727 7.62939453125e-06 Z" stroke="none" fill="#fff"/>
          </g>
        </g>
      </g>
    </g>
    <g id="ingenieria_1_" data-name="ingenieria (1)" transform="translate(750.051 1496)">
      <path id="Trazado_990433" data-name="Trazado 990433" d="M49,59H9V17.961L19.158,8H49Z" fill="#d1e7f8"/>
      <path id="Trazado_990434" data-name="Trazado 990434" d="M19,18V8L9,18Z" fill="#2488ff"/>
      <path id="Trazado_990435" data-name="Trazado 990435" d="M56.75,17a7.807,7.807,0,0,1-.86,2.06l3.01,3.01L56.07,24.9l-3.01-3.01a7.807,7.807,0,0,1-2.06.86V27H47V22.75a7.807,7.807,0,0,1-2.06-.86L41.93,24.9,39.1,22.07l3.01-3.01A7.807,7.807,0,0,1,41.25,17H37V13h4.25a7.807,7.807,0,0,1,.86-2.06L39.1,7.93,41.93,5.1l3.01,3.01A7.807,7.807,0,0,1,47,7.25V3h4V7.25a7.807,7.807,0,0,1,2.06.86L56.07,5.1,58.9,7.93l-3.01,3.01A7.807,7.807,0,0,1,56.75,13H61v4Z" fill="#ffb655"/>
      <circle id="Elipse_11765" data-name="Elipse 11765" cx="4" cy="4" r="4" transform="translate(45 11)" fill="#df2a47"/>
      <circle id="Elipse_11766" data-name="Elipse 11766" cx="2" cy="2" r="2" transform="translate(47 13)" fill="#ff3051"/>
      <g id="Grupo_1162379" data-name="Grupo 1162379">
        <path id="Trazado_990436" data-name="Trazado 990436" d="M17,22v4h4V22Z" fill="#7ed63e"/>
        <path id="Trazado_990437" data-name="Trazado 990437" d="M41,48V44H37v4Z" fill="#7ed63e"/>
        <path id="Trazado_990438" data-name="Trazado 990438" d="M26,31h6v6H26Z" fill="#7ed63e"/>
      </g>
      <path id="Trazado_990439" data-name="Trazado 990439" d="M49,38V59H27C39.16,59,49,49.607,49,38Z" fill="#96c8ef"/>
      <path id="Trazado_990440" data-name="Trazado 990440" d="M33,57H32V56A13.015,13.015,0,0,0,22,43.35V43a2,2,0,0,0-2-2H18a2,2,0,0,0-2,2v.35A13,13,0,0,0,6,56v1H5a2,2,0,0,0,0,4H33a2,2,0,0,0,0-4Z" fill="#ffcd00"/>
      <path id="Trazado_990441" data-name="Trazado 990441" d="M49,20a5,5,0,1,1,5-5,5,5,0,0,1-5,5Zm0-8a3,3,0,1,0,3,3A3,3,0,0,0,49,12Z"/>
      <path id="Trazado_990442" data-name="Trazado 990442" d="M19,39a1,1,0,0,1-1-1V33a1,1,0,0,1,2,0v5A1,1,0,0,1,19,39Z"/>
      <path id="Trazado_990443" data-name="Trazado 990443" d="M33,23H22V22a1,1,0,0,0-1-1H17a1,1,0,0,0-1,1v4a1,1,0,0,0,1,1h1v2a1,1,0,0,0,2,0V27h1a1,1,0,0,0,1-1V25H33a1,1,0,0,0,0-2ZM20,25H18V23h2Z"/>
      <path id="Trazado_990444" data-name="Trazado 990444" d="M39,25H37V22a1,1,0,0,0-2,0v4a1,1,0,0,0,1,1h2v9a1,1,0,0,0,2,0V26A1,1,0,0,0,39,25Z"/>
      <path id="Trazado_990445" data-name="Trazado 990445" d="M29,55H21a1,1,0,0,0-1,1v1H18V56a1,1,0,0,0-1-1H10a1,1,0,0,0,0,2h6v1a1,1,0,0,0,1,1h4a1,1,0,0,0,1-1V57h7a1,1,0,0,0,0-2Z"/>
      <path id="Trazado_990446" data-name="Trazado 990446" d="M61,12H57.489a8.969,8.969,0,0,0-.365-.879l2.483-2.484a1,1,0,0,0,0-1.414l-2.83-2.83a1,1,0,0,0-1.414,0L52.879,6.876A8.97,8.97,0,0,0,52,6.511V3a1,1,0,0,0-1-1H47a1,1,0,0,0-1,1V6.511a8.97,8.97,0,0,0-.879.365L42.637,4.393a1,1,0,0,0-1.414,0L38.616,7H19a1,1,0,0,0-.707.293l-10,10A1,1,0,0,0,8,18V47.311A13.986,13.986,0,0,0,5,56a3,3,0,0,0,0,6H33a3,3,0,0,0,2.816-2H49a1,1,0,0,0,1-1V28h1a1,1,0,0,0,1-1V23.489a8.97,8.97,0,0,0,.879-.365l2.484,2.483a1,1,0,0,0,1.414,0l2.83-2.83a1,1,0,0,0,0-1.414l-2.483-2.484A8.968,8.968,0,0,0,57.489,18H61a1,1,0,0,0,1-1V13a1,1,0,0,0-1-1ZM18,10.414V17H11.414ZM33,60H5a1,1,0,0,1,0-2,1,1,0,0,0,2,0V56a11.937,11.937,0,0,1,8-11.31V51a1,1,0,0,0,2,0V43a1,1,0,0,1,1-1h2a1,1,0,0,1,1,1v8a1,1,0,0,0,2,0V44.7A11.955,11.955,0,0,1,31,56v2a1,1,0,0,0,2,0,1,1,0,0,1,0,2Zm15-2H35.816A3,3,0,0,0,33,56,14,14,0,0,0,22.957,42.575,3,3,0,0,0,20,40H18a3,3,0,0,0-2.959,2.6A13.966,13.966,0,0,0,10,45.27V19h9a1,1,0,0,0,1-1V9H38.756l2.12,2.121a8.969,8.969,0,0,0-.365.879H37a1,1,0,0,0-1,1v4a1,1,0,0,0,1,1h3.511a8.969,8.969,0,0,0,.365.879l-2.483,2.484a1,1,0,0,0,0,1.414l2.83,2.83a1,1,0,0,0,1.414,0l2.484-2.483a8.97,8.97,0,0,0,.879.365V27a1,1,0,0,0,1,1h1ZM60,16H56.75a1,1,0,0,0-.968.748,6.736,6.736,0,0,1-.748,1.8,1,1,0,0,0,.149,1.224l2.3,2.3L56.07,23.486l-2.3-2.3a1,1,0,0,0-1.224-.149,6.736,6.736,0,0,1-1.8.748A1,1,0,0,0,50,22.75V26H48V22.75a1,1,0,0,0-.748-.968,6.736,6.736,0,0,1-1.8-.748,1,1,0,0,0-1.224.149l-2.3,2.3L40.514,22.07l2.3-2.3a1,1,0,0,0,.149-1.224,6.736,6.736,0,0,1-.748-1.795A1,1,0,0,0,41.25,16H38V14h3.25a1,1,0,0,0,.968-.748,6.736,6.736,0,0,1,.748-1.8,1,1,0,0,0-.149-1.224l-2.3-2.3L41.93,6.514l2.3,2.3a1,1,0,0,0,1.224.149,6.736,6.736,0,0,1,1.8-.748A1,1,0,0,0,48,7.25V4h2V7.25a1,1,0,0,0,.748.968,6.736,6.736,0,0,1,1.8.748,1,1,0,0,0,1.224-.149l2.3-2.3L57.486,7.93l-2.3,2.3a1,1,0,0,0-.149,1.224,6.736,6.736,0,0,1,.748,1.8A1,1,0,0,0,56.75,14H60Z"/>
      <path id="Trazado_990447" data-name="Trazado 990447" d="M41,43H40V40a1,1,0,0,0-2,0v3H37a1,1,0,0,0-1,1v1H32a1,1,0,0,0,0,2h4v1a1,1,0,0,0,1,1h4a1,1,0,0,0,1-1V44A1,1,0,0,0,41,43Zm-1,4H38V45h2Z"/>
      <path id="Trazado_990448" data-name="Trazado 990448" d="M32,38H26a1,1,0,0,1-1-1V31a1,1,0,0,1,1-1h6a1,1,0,0,1,1,1v6A1,1,0,0,1,32,38Zm-5-2h4V32H27Z"/>
    </g>
  </g>
</svg>
