<svg xmlns="http://www.w3.org/2000/svg" width="187.105" height="104.955" viewBox="0 0 187.105 104.955">
  <g id="Grupo_1162382" data-name="Grupo 1162382" transform="translate(-7265.276 9526.003)">
    <path id="Trazado_990698" data-name="Trazado 990698" d="M3511.948,1888.7l12.161.01c.084.374-.211.443-.444.467a5.693,5.693,0,0,1-2.3-.038c1.464,1.765,3.245,3.467,4.983,5.211a47.8,47.8,0,0,0,7.68,6.214,8.223,8.223,0,0,0,2.032,1.028c.311.1.691.172.877-.179.164-.31-.121-.546-.329-.735-1.449-1.315-2.96-2.559-4.408-3.876-1.93-1.755-3.914-3.449-5.806-5.247a3.142,3.142,0,0,1-1.062-2.494c.043-2.828.008-5.656.018-8.485.005-1.547.165-1.713,1.662-1.715q7.616-.011,15.232,0a2.222,2.222,0,0,1,1.271.208.843.843,0,0,1,.212.319,5.911,5.911,0,0,1,.119,1.724c0,5.167,0,10.333.006,15.5a2.275,2.275,0,0,0,.515,1.915c.582.274,1.05-.045,1.514-.314a74.2,74.2,0,0,0,12.717-9.152,1.147,1.147,0,0,1,.644-.371l9.525.035c.421.41.309.945.311,1.438q.015,6.686,0,13.372c0,1.673-.192,1.877-1.875,1.881-6.886.015-13.772,0-20.659.007-.4,0-.8.021-1.2,0-.78-.04-1.036.284-1.083,1.085-.3,5.1-.152,10.213-.19,15.32,0,.218-.008.435-.009.652,0,.832-.274,1.419-1.236,1.422a3.494,3.494,0,0,0-.633.152c-5.2.354-10.411.36-15.622.3a1.638,1.638,0,0,1-.933-.243,1.461,1.461,0,0,1-.333-1.1c0-1.93-.071-3.862.036-5.789a1.889,1.889,0,0,1,.854-1.32c2.236-1.837,4.473-3.673,6.65-5.582,1.728-1.641,3.642-3.071,5.451-4.734a2.159,2.159,0,0,0-1.331-.189q-11.57-.011-23.14-.014c-.629,0-1.321.171-1.839-.4a2.132,2.132,0,0,1-.2-1.059c.037-4.53-.043-9.057-.216-13.583A1.913,1.913,0,0,1,3511.948,1888.7Z" transform="translate(3818.227 -11371.825)" fill="#6694af"/>
    <path id="Trazado_990699" data-name="Trazado 990699" d="M3536.12,1055.992c-1.846-.012-3.693-.021-5.539-.037a6.365,6.365,0,0,1-6.491-6.343c-.058-2.679-.04-5.359-.018-8.039a6.3,6.3,0,0,1,2.025-4.85c.594.05.383.509.394.823.058,1.6.75,2.342,2.33,2.355,2.974.024,5.948,0,8.922.014a2.315,2.315,0,0,0,1.818-.775,4.226,4.226,0,0,1,6.356-.051,2.625,2.625,0,0,0,2.019.829q6.2-.028,12.4,0a2.16,2.16,0,0,0,1.9-.823,4.155,4.155,0,0,1,6.085-.136,2.867,2.867,0,0,0,2.421.963c2.575-.04,5.15,0,7.725-.018,1.909-.011,2.531-.5,3.125-2.346.093-.29.1-.685.575-.637a6,6,0,0,1,1.85,4.377c.037,2.754.041,5.51,0,8.263a6.331,6.331,0,0,1-6.457,6.379q-3.152.027-6.3.044a24.919,24.919,0,0,0-3.582-.156q-14.53,0-29.06,0A15.12,15.12,0,0,0,3536.12,1055.992Z" transform="translate(3806.194 -10561.005)" fill="#23364e"/>
    <path id="Trazado_990700" data-name="Trazado 990700" d="M5569.334,1833.165c-.114,3.613-.106,7.227-.051,10.841.006.389.014.728.552.7a32.1,32.1,0,0,0,3.569-.1c.336,4.143,1.021,8.271.749,12.445-.54,8.271-4.04,14.818-11.679,18.508a17.012,17.012,0,0,1-16.287-.655,19.139,19.139,0,0,1-3.139-2.145,52.2,52.2,0,0,0-7.469-5.242,2.15,2.15,0,0,1-1.233-2.2c.155-2.177-.239-4.339-.2-6.513.008-.463-.184-1.042.434-1.326.594.509.374,1.206.4,1.833.053,1.23.114,1.342,1.285,1.344q9.3.014,18.6,0a6.487,6.487,0,0,0,6.321-6.19c.016-2.673.1-5.356.151-8.036a2.287,2.287,0,0,1,.259-1.365,2.006,2.006,0,0,1,1.347-.295c1.266-.014,2.532,0,3.8-.006a5.754,5.754,0,0,0,1.083-.053c.352-.068.791-.123.755-.6-.033-.439-.466-.4-.771-.4a27.755,27.755,0,0,0-3.359.092,6.278,6.278,0,0,1-3.411-.167c.523-2.074.224-4.187.291-6.283a3.5,3.5,0,0,1,.064-1.174,7.409,7.409,0,0,1,3.19-.012c.935.053,1.862.242,2.8.327,1.32.12,1.34.074,1.377-1.22a3.985,3.985,0,0,1,.248-2.12A.226.226,0,0,1,5569.334,1833.165Z" transform="translate(1870.861 -11327.754)" fill="#4b7190"/>
    <path id="Trazado_990701" data-name="Trazado 990701" d="M1982.885,2144.558l4.356-.006c2.525.141,5.054.037,7.579.157a.977.977,0,0,1,.5.2,2.256,2.256,0,0,1,.311,1.56c.011,2.571.136,5.15-.026,7.711-.246,3.891,3.336,6.4,6.372,6.381,5.722-.036,11.444-.013,17.166-.007a4.572,4.572,0,0,1,1.719.157c.415.237.421.654.429,1.049.029,1.415.009,2.831.01,4.247a1.612,1.612,0,0,1-.867,1.516,68.134,68.134,0,0,0-8.38,6.046c-7.021,5.629-18.6,4.715-24.725-2.993a21.119,21.119,0,0,1-4.791-13.021,93.5,93.5,0,0,1,.471-11.383A9.636,9.636,0,0,0,1982.885,2144.558Z" transform="translate(5290.41 -11627.642)" fill="#4a7190"/>
    <path id="Trazado_990702" data-name="Trazado 990702" d="M1784.764,2046.044c.922.5.446,1.354.383,1.993-.2,2.013-.293,4.029-.42,6.046a46.316,46.316,0,0,0,.272,8.2,17.062,17.062,0,0,0,2.18,6.209c2.642,4.834,6.484,8.29,11.971,9.414s10.63.274,15.078-3.475a52.2,52.2,0,0,1,7.923-5.669,1.317,1.317,0,0,0,.745-1.383c-.037-1.668-.014-3.337-.015-5.006a6.007,6.007,0,0,1-.281-3.711c.275-2.593.034-5.2.335-7.789.132-1.138.22-2.3.243-3.453.017-.859.321-1.356,1.218-1.39.679-2.647,2.2-4.08,4.392-3.7a7.575,7.575,0,0,0,4.2,0,2.807,2.807,0,0,1,2.287.452,1.1,1.1,0,0,0,1.109.139c2.964-1.315,4.969-.13,5.26,3.076q.107,8.174.213,16.347c.575.939.3,1.978.315,2.972.044,2.138.015,2.14,2.169,2.141,5.537,0,11.074-.011,16.611.017.549,0,1.265-.247,1.569.55l-7.186,6.1a3.459,3.459,0,0,1-1.537,1.574c-3.7.005-7.4.021-11.107,0-.643,0-.994.032-1.161.843a3.262,3.262,0,0,1-4.889,2.245.976.976,0,0,0-1.075.009,4.3,4.3,0,0,1-4.174.129,1.437,1.437,0,0,0-1.32.007c-2.63,1.1-4.622.163-5.5-2.567-.143-.446-.311-.71-.814-.636a1.839,1.839,0,0,1-.435,0,11.327,11.327,0,0,0-7.922,2.151c-8.242,5.676-19.676,4.736-27.2-1.782a3.672,3.672,0,0,0-3.514-.031,3.323,3.323,0,0,1-5.235-.787,16.768,16.768,0,0,1-2.151-6.686,46.889,46.889,0,0,1,.7-18.047,15.388,15.388,0,0,1,1.5-3.84C1780.773,2044.43,1782.962,2044.16,1784.764,2046.044Z" transform="translate(5488.531 -11529.128)" fill="#324d6f"/>
    <path id="Trazado_990703" data-name="Trazado 990703" d="M4627.427,2058.429c-.142,2.86.364,5.706.2,8.567a.861.861,0,0,0,.525.862,80.146,80.146,0,0,1,9.128,6.4,17.37,17.37,0,0,0,13.06,3.422,17.166,17.166,0,0,0,10.647-5.488,21.83,21.83,0,0,0,4.761-8.064c1.392-4,1.155-8.09.913-12.211-.108-1.84-.516-3.644-.513-5.493a1.51,1.51,0,0,1,.229-.884,2.915,2.915,0,0,1,4.843.237c-.123.514-.429.209-.633.111a3.222,3.222,0,0,0-1.112-.4c-1.312-.121-1.622.189-1.514,1.493a104.166,104.166,0,0,1,.506,10.95c-.019.837-.171,1.657-.207,2.487-.041.935.056,1.848,1.053,2.3a2.344,2.344,0,0,0,2.5-.91,4.878,4.878,0,0,0,.983-3.266,30.334,30.334,0,0,0-.967-10.329c-.116-.364-.418-.826.2-1.082a23.993,23.993,0,0,1,2.154,8.492,42.644,42.644,0,0,1-.832,15.341,16.083,16.083,0,0,1-1.206,3.257c-1.294,2.475-3.636,2.989-5.854,1.283a4.522,4.522,0,0,0-3.481.108c-7.427,7.024-21.121,7.429-29.65.273a2.431,2.431,0,0,0-1.764-.629c-1.414.043-2.83.036-4.244,0-.555-.014-.785.124-.946.712a3.657,3.657,0,0,1-5.356,2.509,1.352,1.352,0,0,0-1.314-.012,4.391,4.391,0,0,1-4.086.011,1.381,1.381,0,0,0-1.312-.015,3.268,3.268,0,0,1-4.773-2.217c-.229-.848-.623-.961-1.351-.959-2.393.007-4.785-.037-7.177-.061a78.287,78.287,0,0,0-8.138-6.993c-.326-.249-1.148-.61-.149-1.121,2.14-.187,4.28-.066,6.42-.083,2.757-.023,5.515,0,8.273-.007,1.656,0,1.653-.071,1.745-1.7.373-6.664.2-13.333.239-20a1.393,1.393,0,0,1,.076-.641c.567-2.416,2.586-3.438,4.778-2.376a1.321,1.321,0,0,0,1.394-.031,3.622,3.622,0,0,1,3.638-.009,1.331,1.331,0,0,0,1.386.049,4.028,4.028,0,0,1,5.83,2.777c.071.257.11.5.42.554.495.2.535.651.55,1.085.113,3.388.448,6.766.45,10.158A2.083,2.083,0,0,1,4627.427,2058.429Z" transform="translate(2777.892 -11528.681)" fill="#334d6f"/>
    <path id="Trazado_990704" data-name="Trazado 990704" d="M3568.315,3390.506c.015.9.075,1.811.03,2.712-.037.738.173,1.017.961.986,1.59-.063,3.185-.028,4.777-.024,3.9.01,6.02,1.833,6.643,5.707.634,1.42-.073,2.629-.767,3.722a4.464,4.464,0,0,1-3.4,2.361c-4.532.2-9.066.068-13.6.077q-17.522.037-35.043,0c-.761,0-1.522-.053-2.283-.081a5.635,5.635,0,0,1-4.577-4.839,1.224,1.224,0,0,1,.175-1.034,9.751,9.751,0,0,1,.684-2.6,5.578,5.578,0,0,1,5.077-3.294c1.694-.057,3.392-.009,5.088-.027.384,0,.8.127,1.146-.164a1.964,1.964,0,0,1,1.444-.346c5.944.121,11.885-.169,17.824-.292,4.3-.09,8.626.081,12.918-.388,1.183-.483,2.406-.921,2.6-2.453A.226.226,0,0,1,3568.315,3390.506Z" transform="translate(3809.115 -12827.222)" fill="#22354d"/>
    <path id="Trazado_990705" data-name="Trazado 990705" d="M5525.412,2144.669c.036-4-.375-7.979-.468-11.971a1.521,1.521,0,0,0-.216-.821q3.587-.022,7.174-.042c.433,0,.892.079,1.049-.495a1.037,1.037,0,0,1,.361.181,1.453,1.453,0,0,0,1.041.2c3.187-.033,6.374-.053,9.559,0,2.531.044,5.057.275,7.593.217a1.252,1.252,0,0,1,1.1.355c0,2.429.136,4.867-.03,7.285-.132,1.936.14,4-1.227,5.713a6.776,6.776,0,0,1-5.355,2.859c-6.455.049-12.91,0-19.365.036-.833,0-1.047-.269-1.039-1.062A4.991,4.991,0,0,0,5525.412,2144.669Z" transform="translate(1879.907 -11614.921)" fill="#6794af"/>
    <path id="Trazado_990706" data-name="Trazado 990706" d="M2352.167,2138.019a1.329,1.329,0,0,0-.887,1.334c-.372,5-.526,10-.627,15.009-6.412,0-12.825-.017-19.238.011-3.134.014-6.732-2.874-6.508-6.447.2-3.139.048-6.3.051-9.452.436-.442,1-.338,1.535-.358,5.527-.214,11.055-.292,16.586-.2a9.015,9.015,0,0,0,1.071-.143,1,1,0,0,0,.888.273Q2348.6,2138.032,2352.167,2138.019Z" transform="translate(4960.761 -11621.119)" fill="#6794ae"/>
    <path id="Trazado_990707" data-name="Trazado 990707" d="M1844.9,3649.65a6.034,6.034,0,0,0,4.4,5.872c-8,0-16.008.069-24.01-.05-2.094-.031-4.2-.086-6.294-.15-5.211-.157-10.423-.264-15.632-.466-3.937-.153-7.875-.345-11.8-.66a78.609,78.609,0,0,1-10.746-1.244c-.345-.076-.856-.073-.865-.465-.009-.416.528-.41.857-.5a28.407,28.407,0,0,1,5.458-.775c4.726-.321,9.456-.582,14.194-.734,4.921-.158,9.845-.247,14.763-.443,5.184-.206,10.37.037,15.544-.215C1835.484,3649.593,1840.194,3649.772,1844.9,3649.65Z" transform="translate(5485.44 -13076.776)" fill="#b3d0dd"/>
    <path id="Trazado_990708" data-name="Trazado 990708" d="M5014.68,3650.118a6.092,6.092,0,0,0,4.172-6.083,1.735,1.735,0,0,0,1.044.223c.617-.008,1.234,0,1.852,0,6.854.014,13.708.208,20.562.271,5.286.049,10.573.282,15.861.415,4.375.11,8.749.353,13.116.65a64.308,64.308,0,0,1,8.073.889c.43.084,1.163.1,1.179.57.02.57-.719.471-1.139.556a62.636,62.636,0,0,1-8.057.993c-6.282.444-12.567.795-18.865.94-1.441.033-2.892.109-4.338.156-3.985.131-7.978.108-11.957.282-4.208.184-8.41.1-12.615.149-1.378.017-2.745.207-4.119.19C5017.858,3650.3,5016.27,3650.189,5014.68,3650.118Z" transform="translate(2370.99 -13071.37)" fill="#b4d1dd"/>
    <path id="Trazado_990709" data-name="Trazado 990709" d="M3635.169,992.338c-.353.209-.243.565-.287.878a2.745,2.745,0,0,1-2.741,2.424c-3.082.022-6.163-.009-9.244.022a1.551,1.551,0,0,1-1.391-.673,3.91,3.91,0,0,0-6.445.236c-.244.435-.628.423-1.032.422q-6.906,0-13.812.006a1.292,1.292,0,0,1-1.212-.55,3.971,3.971,0,0,0-6.471-.054,1.3,1.3,0,0,1-1.271.6c-3.19-.012-6.38,0-9.57-.005a2.3,2.3,0,0,1-2.486-2.94c.033-.221.132-.418-.113-.569a5.767,5.767,0,0,1,4.522-1.722q17.958.005,35.916.005c3.773,0,7.546-.008,11.319.016A5.315,5.315,0,0,1,3635.169,992.338Z" transform="translate(3753.197 -10516.419)" fill="#445673"/>
    <path id="Trazado_990710" data-name="Trazado 990710" d="M4362.1,2119.77q.01,10.883.031,21.766c0,.927-.538.94-1.21.939q-8-.01-16,0c-.522.321-.888-.074-1.245-.319-.911-.625-1.819-1.256-2.7-1.927a12.351,12.351,0,0,1-1.112-.974c-.123-.117-.172.1-.093-.017.391.308.762.639,1.137.967,1.705,1.592,3.313,3.281,4.967,4.924a1.867,1.867,0,0,1,.623,1.218,9.259,9.259,0,0,1,.022,1.29,2.367,2.367,0,0,0,.995,2.423c.708.476.733,1.354.882,2.128a3.322,3.322,0,0,1-2.611,3.181,20.149,20.149,0,0,1-4.077.465c-1.652.115-3.316-.035-4.969.214a1.5,1.5,0,0,1-1.421-.315c1.547-.485,1.546-.485,1.546-2.282,0-2.066-.019-4.133,0-6.2.036-3.218.112-6.435.139-9.652,0-.391.133-.535.47-.558.289-.02.58-.012.87-.012,7.469,0,14.938-.015,22.406.015.881,0,1.184-.211,1.175-1.14-.046-5.075-.026-10.151-.03-15.226C4361.987,2120.381,4361.869,2120.039,4362.1,2119.77Z" transform="translate(3025.091 -11603.781)" fill="#4a708f"/>
    <path id="Trazado_990711" data-name="Trazado 990711" d="M5504.975,1540.6a2.3,2.3,0,0,1,1.375-.2q19.094-.009,38.189,0a2.559,2.559,0,0,1,1.483.182c1.869,1.495,2.135,3.7.632,5.142a3.28,3.28,0,0,1-1.959.849,12.434,12.434,0,0,1-1.523.05H5508c-.145,0-.291-.007-.435,0a3.269,3.269,0,0,1-3.445-1.79,3.566,3.566,0,0,1,.637-3.867A1.033,1.033,0,0,0,5504.975,1540.6Z" transform="translate(1900.062 -11045.932)" fill="#435572"/>
    <path id="Trazado_990712" data-name="Trazado 990712" d="M1864.917,1545.876a5.338,5.338,0,0,1,3.925,5.948,5.161,5.161,0,0,1-5.042,4.762c-2.025.063-4.052.052-6.077.073a3.9,3.9,0,0,0-1.887-.395q-11.679.01-23.357,0a2.915,2.915,0,0,0-1.675.347.514.514,0,0,1-.4,0c-1.915-.015-3.833.038-5.744-.061a5.275,5.275,0,0,1-4.894-4.461,5.512,5.512,0,0,1,3.154-6.055,4.982,4.982,0,0,1,.728-.18c.911-.053.476.475.286.768a3.814,3.814,0,0,0-.758,2.222,2.027,2.027,0,0,0,1.791,2.228,6.816,6.816,0,0,0,1.621.149q17.625,0,35.25,0c.254,0,.508,0,.761-.023,2.573-.21,3.563-2.19,2.189-4.376C1864.3,1546.051,1864.3,1546.051,1864.917,1545.876Z" transform="translate(5447.19 -11051.209)" fill="#22364d"/>
    <path id="Trazado_990713" data-name="Trazado 990713" d="M1944.382,1540.438c-.819.354.007.558.117.69a3.206,3.206,0,0,1,.464,3.351c-.631,1.394-1.852,1.629-3.163,1.632q-9.745.022-19.49.007h-16.224c-.145,0-.291,0-.436,0-1.254-.037-2.608-.065-3.145-1.432a3.246,3.246,0,0,1,.712-3.713c.267-.261.375-.452-.107-.548a2.129,2.129,0,0,1,1.269-.185q19.153-.012,38.306-.005A3,3,0,0,1,1944.382,1540.438Z" transform="translate(5367.725 -11045.771)" fill="#435572"/>
    <path id="Trazado_990714" data-name="Trazado 990714" d="M5434.7,1545.874c.829.339.009.549-.1.691a3.18,3.18,0,0,0,.282,4.389,2.549,2.549,0,0,0,1.8.6h37.232a2.81,2.81,0,0,0,2.96-1.764,3.377,3.377,0,0,0-.986-3.554c-.109-.1-.387-.144-.143-.38a5.438,5.438,0,0,1,4.067,6.083,5.22,5.22,0,0,1-5.284,4.643c-1.557.025-3.114.024-4.672.035l-.264-.046a5.43,5.43,0,0,0-2.023-.31q-11.465.01-22.93.005a3.334,3.334,0,0,0-1.9.33.484.484,0,0,1-.4.013c-2.1-.006-4.2.043-6.292-.032a5.434,5.434,0,0,1-5.166-4.6,5.513,5.513,0,0,1,3.291-5.991A3.13,3.13,0,0,1,5434.7,1545.874Z" transform="translate(1970.333 -11051.207)" fill="#22354d"/>
    <path id="Trazado_990715" data-name="Trazado 990715" d="M3883.34,3093.2l-.237.006a1.373,1.373,0,0,1-1,.344c-1.236-.021-2.463.218-3.688.206-4.533-.045-9.062.49-13.588.221-4.568-.271-9.134-.1-13.7-.209a5.586,5.586,0,0,1-2.846-.531c-.089-3.855-.1-7.71,0-11.566.648.044.976.613,1.479.9a3.588,3.588,0,0,0,2.243.715c5.006.017,10.02.167,15.018-.048,3.737-.161,7.468-.075,11.2-.158a7,7,0,0,1,1.521.062,3.464,3.464,0,0,0,3.074-.67.583.583,0,0,1,.505-.141C3883.433,3085.949,3883.4,3089.573,3883.34,3093.2Z" transform="translate(3494.09 -12529.912)" fill="#729eb9"/>
    <path id="Trazado_990716" data-name="Trazado 990716" d="M3896.182,1819.127a31.492,31.492,0,0,1-5.262,4.5,71.358,71.358,0,0,1-8.16,5.371,1.9,1.9,0,0,1-1.216.4c-.447-.78.187-1.14.641-1.5,1.19-.949,2.457-1.794,3.63-2.772,1.21-1.008,2.105-2.3,3.212-3.392a1.747,1.747,0,0,0,.459-1.305c-.046-3.01.367-6.006.239-9.019-.052-1.221-.077-1.217-1.305-1.3-2.316-.165-4.632-.244-6.953-.214a1.351,1.351,0,0,1-1.014-.309h0a2.312,2.312,0,0,0-1.173-.1c-5.325-.008-10.65,0-15.975-.009-1.381,0-1.915-.645-1.771-2.066.353-.628.977-.522,1.541-.553a30.9,30.9,0,0,0,4.543-.162,95.941,95.941,0,0,1,9.781.085c2.17.177,4.35.033,6.526.064a16.439,16.439,0,0,1,2.5.087,13.726,13.726,0,0,0,3.665.161c1.264,0,2.529-.036,3.793.013a2.262,2.262,0,0,1,2.245,1.4Q3896.152,1813.812,3896.182,1819.127Z" transform="translate(3481.284 -11302.263)" fill="#304b6c"/>
    <path id="Trazado_990717" data-name="Trazado 990717" d="M5741.08,1833.8l.241-.049c.489.554.316,1.234.332,1.867.037,1.407.039,1.433,1.4,1.282a105.127,105.127,0,0,1,12.868-.654c1.339.016,2.659.281,4,.261a.886.886,0,0,1,.768.332,2.655,2.655,0,0,1,.226,1.672c.018,1.507-.026,3.015.023,4.521a1.04,1.04,0,0,1-.68,1.16c-.393.43-.923.362-1.419.365-4.981.036-9.953.357-14.933.441-.842.014-1.708.476-2.533-.082-.037-.034-.074-.067-.112-.1C5741.308,1841.143,5741.232,1837.471,5741.08,1833.8Z" transform="translate(1671.599 -11328.398)" fill="#6694af"/>
    <path id="Trazado_990718" data-name="Trazado 990718" d="M2336.288,1901.19q.006,3.711.011,7.422a1.606,1.606,0,0,1-1.238.252c-2.5-.113-4.987-.39-7.486-.331-3.12.073-6.223-.354-9.342-.242a1.145,1.145,0,0,1-1.439-1.41c-.02-1.667-.015-3.334,0-5,0-.7.175-1.3.941-1.529a48.2,48.2,0,0,1,9.088-.31c2.667.169,5.342.268,8,.6A1.931,1.931,0,0,1,2336.288,1901.19Z" transform="translate(4968.575 -11392.135)" fill="#6694ae"/>
    <path id="Trazado_990719" data-name="Trazado 990719" d="M3885.254,1599.294a3.882,3.882,0,0,0-3.131-1.121,44.7,44.7,0,0,1-6.471-.147c.608-.579,1.373-.321,2.073-.374,1.075-.08,1.273-.235,1.305-1.3.034-1.125.031-2.251,0-3.375-.031-1.164-.238-1.379-1.443-1.393-2.686-.031-5.372-.009-8.059-.011q-5.064,0-10.128,0c-.145,0-.29,0-.436,0-2.361.045-2.555.238-2.556,2.539a11.434,11.434,0,0,0,.319,3.651c-1.511.4-3.053.068-4.575.189-.444.036-.939-.169-1.315.241-.344.329-.172.743-.192,1.128-.019.337.108.761-.427.841q0-4.913,0-9.825a1.478,1.478,0,0,1,1.153-.519c2.752-.138,5.5-.415,8.253-.444,5.336-.056,10.674-.086,16.008.012,2.823.052,5.655.148,8.471.431a1.569,1.569,0,0,1,1.145.541C3885.36,1593.339,3885.34,1596.317,3885.254,1599.294Z" transform="translate(3492.154 -11093.06)" fill="#739fba"/>
    <path id="Trazado_990720" data-name="Trazado 990720" d="M3910.961,2681.026a3.384,3.384,0,0,1-3.26,1.222,119.47,119.47,0,0,0-12.16.012c-.867.047-1.738.056-2.607.056q-6.74,0-13.481-.023a2.569,2.569,0,0,1-2.469-1.052c-.167-.463-.011-.6.444-.444,5.514.1,11.025-.047,16.535-.231,3.348-.22,6.725-.029,10.043-.613,1.864-.328,2.509-1.137,2.82-3.065a1.106,1.106,0,0,1,.352-1.353c.484-.415.364-.8.073-1.227a16.294,16.294,0,0,0-1.614-2.029,3.3,3.3,0,0,1-.759-1.277c-.02-.5-.424-.73-.717-1.03q-2.367-2.427-4.752-4.837c-.048-.216.031-.3.251-.252a23.886,23.886,0,0,1,2.752,1.858,2.892,2.892,0,0,0,1.15.566c1.527,1.233,3.063,2.457,4.581,3.7a39.435,39.435,0,0,1,3.812,3.483.935.935,0,0,1,.321.658c-1.08-.148-1.349.337-1.287,1.375C3911.076,2678.02,3910.979,2679.525,3910.961,2681.026Z" transform="translate(3466.448 -12128.613)" fill="#2a4464"/>
    <path id="Trazado_990721" data-name="Trazado 990721" d="M2139.127,1820.365c-2.064-.376-4.161-.444-6.244-.622a80.382,80.382,0,0,0-12.247,0c-2.487.887-5.14.685-7.689,1.169-.683.13-1-.135-.932-.887a29.539,29.539,0,0,1,.117-3.35c-.043-.86.6-.648,1.06-.649q7-.014,14-.006c3.655,0,7.31,0,10.965,0,.546,0,1.045-.007,1.015.744Q2139.152,1818.562,2139.127,1820.365Z" transform="translate(5165.736 -11311.31)" fill="#324c6d"/>
    <path id="Trazado_990722" data-name="Trazado 990722" d="M6625.191,2133.006a.432.432,0,0,0-.095.583,17.065,17.065,0,0,1,1.172,6.338,25.632,25.632,0,0,1-.164,6.057,3.506,3.506,0,0,1-2.089,2.832c-1.583.691-2.8-.111-2.918-1.839-.052-.767.171-1.508.188-2.261a79.123,79.123,0,0,0-.605-12.422c-.11-.816.264-1.15,1.065-1.292a4.767,4.767,0,0,1,2.64.65A2.714,2.714,0,0,1,6625.191,2133.006Z" transform="translate(824.724 -11614.56)" fill="#517a9c"/>
    <path id="Trazado_990723" data-name="Trazado 990723" d="M3883.721,1543.893a14.616,14.616,0,0,0-3.55-.38c-7.75-.41-15.508-.4-23.262-.209a68.763,68.763,0,0,0-8.218.568l-.063-2.294c.068-.579.506-.513.9-.513q16.575,0,33.151,0c.449,0,.885,0,1.083.511Q3883.742,1542.733,3883.721,1543.893Z" transform="translate(3493.687 -11046.591)" fill="#334d70"/>
    <path id="Trazado_990724" data-name="Trazado 990724" d="M3766.953,1828.62c.338-.511.151-1.089.192-1.635.024-.323.092-.468.428-.334.048,1.5.546,1.974,2.053,1.974q7.776,0,15.552.009c.383,0,.806-.134,1.137.2-5.513,0-11.027.029-16.54-.017-1.014-.009-1.38.213-1.352,1.3.076,2.972.046,5.948.014,8.921a2.1,2.1,0,0,0,.694,1.721c3.2,2.986,6.448,5.909,9.8,8.721a11.593,11.593,0,0,1,1.011.988c.205.22.588.4.344.8a.953.953,0,0,1-.931.439,4.619,4.619,0,0,1-2.281-.949,57.421,57.421,0,0,1-12.243-10.8c-.333-.378-.685-.739-1.092-1.177,1.084-.4,2.21.194,3.179-.378Q3766.934,1833.51,3766.953,1828.62Z" transform="translate(3575.42 -11321.514)" fill="#4a7190"/>
    <path id="Trazado_990725" data-name="Trazado 990725" d="M2108.2,1834.06c0,.941,0,1.882,0,2.823,0,1.3,0,1.3,1.338,1.052,2.371-.433,4.779-.55,7.171-.807a1.015,1.015,0,0,0-.684,1.06c.052,2.1.031,4.2.038,6.3-.394.435-.926.347-1.419.352-1.589.017-3.18.052-4.766-.014a2.407,2.407,0,0,0-1.857.558q-.024-5.044-.049-10.087c0-.4-.029-.794-.045-1.191Z" transform="translate(5169.67 -11328.694)" fill="#4b7191"/>
    <path id="Trazado_990726" data-name="Trazado 990726" d="M3881.946,3424.8q-16.327.556-32.663.662.008-.982.017-1.964a2.478,2.478,0,0,1,1.769-.345c6.487-.055,12.969.378,19.456.206,3.114-.083,6.225-.3,9.343-.211.326.009.653-.006.979.014C3882.136,3423.242,3882.34,3423.548,3881.946,3424.8Z" transform="translate(3493.055 -12858.68)" fill="#4c7393"/>
    <path id="Trazado_990727" data-name="Trazado 990727" d="M3882.374,3394.633c.21-1.062-.241-1.317-1.282-1.325-5.326-.039-10.643.353-15.97.243-5.131-.106-10.263-.149-15.4-.22l.013-1.5c4.664.3,9.34.057,14,.274,5.434.253,10.853-.075,16.277-.131,1.513-.016,3.028-.21,4.548-.173-.066.928.187,2.039-1.345,2.041C3882.8,3393.843,3882.708,3394.417,3882.374,3394.633Z" transform="translate(3492.627 -12828.511)" fill="#2e4768"/>
    <path id="Trazado_990728" data-name="Trazado 990728" d="M2109.609,2114.9c.1-.736.448-.942,1.237-.913,2.266.083,4.537.021,6.806.017,6.385.161,12.775.2,19.148.684a.345.345,0,0,1,.037.182c-.258.563-.774.439-1.227.442-2.888.02-5.777.008-8.664.049-3.1.044-6.2.135-9.3.206q-2.938-.011-5.877-.02a4.934,4.934,0,0,1-2.19-.425C2109.587,2115.051,2109.6,2114.978,2109.609,2114.9Z" transform="translate(5168.075 -11598.215)" fill="#2d4665"/>
    <path id="Trazado_990729" data-name="Trazado 990729" d="M3850.576,2907.238a.423.423,0,0,0-.443.444,3.821,3.821,0,0,1-1.061-.875q-.021-2.589-.042-5.179a5.869,5.869,0,0,1,1.537-1.574Q3850.572,2903.646,3850.576,2907.238Z" transform="translate(3493.299 -12355.053)" fill="#4a708f"/>
    <path id="Trazado_990730" data-name="Trazado 990730" d="M4370.8,1886.281c2.927-.054,5.849.082,8.772.209.6.026.8.22.819.825.116,3.4-.285,6.785-.234,10.182a1.538,1.538,0,0,1-.441,1.081,31.029,31.029,0,0,1-5.768,5.36c-.485.311-.954.65-1.41,1-.373.288-.751.594-.648,1.159-1.043-.11-1.1-.857-1.1-1.668Q4370.806,1895.355,4370.8,1886.281Z" transform="translate(2990.933 -11378.961)" fill="#4a7190"/>
    <path id="Trazado_990731" data-name="Trazado 990731" d="M3547.537,2588.187c-.354-.388-.818-.209-1.229-.209-6.041-.011-12.081-.03-18.121.014-1.054.007-1.407-.32-1.347-1.363.079-1.37.028-2.747.032-4.121q12.825.012,25.649.035c.406,0,1.009-.24,1.181.2.165.422-.481.54-.758.784C3551.16,2585.1,3549.343,2586.638,3547.537,2588.187Z" transform="translate(3803.515 -12049.284)" fill="#4a7190"/>
    <path id="Trazado_990732" data-name="Trazado 990732" d="M4039.306,1982.037c-.68-.642-1.352-1.293-2.044-1.921a1.412,1.412,0,0,1-.353-1.195q.005-4.007,0-8.013c0-2.441,0-2.441,2.4-2.358a1.953,1.953,0,0,1,.342,1.438q.014,5.31,0,10.619A1.839,1.839,0,0,1,4039.306,1982.037Z" transform="translate(3312.406 -11458.161)" fill="#96b9cd"/>
    <path id="Trazado_990733" data-name="Trazado 990733" d="M4101.4,1982.13l.009-13.487a1.2,1.2,0,0,1,1.493,1.3c.05,3.8.043,7.6.01,11.4C4102.9,1982.3,4102.241,1982.6,4101.4,1982.13Z" transform="translate(3250.312 -11458.254)" fill="#bad2e0"/>
    <path id="Trazado_990734" data-name="Trazado 990734" d="M4590.356,2381.041c-2.033,0-4.066,0-6.1-.007a2.9,2.9,0,0,1-.953-.132.615.615,0,0,1-.43-.683c.053-.345.315-.463.629-.487.181-.014.362-.008.544-.012,2.85-.062,5.7-.155,8.549-.175,1.445-.01,2.891.113,4.337.172.412.017.881.033.864.579-.016.513-.415.736-.907.738-1.524.007-3.049.005-4.573.006Z" transform="translate(2786.749 -11853.897)" fill="#a1c1d4"/>
    <path id="Trazado_990735" data-name="Trazado 990735" d="M4529.636,1150.395c-1.28-1.923-.711-3.742,1.5-4.793,1.363-.174,2.722-.253,3.578,1.113a3.26,3.26,0,0,1-.949,4.592C4532.547,1152.186,4530.918,1151.826,4529.636,1150.395Z" transform="translate(2838.647 -10665.743)" fill="#a5c2d5"/>
    <path id="Trazado_990736" data-name="Trazado 990736" d="M3934.115,1146.869a3.045,3.045,0,0,1,1.51-1.125c2.4-.328,3.167.109,3.749,2.144-.149,2.189-1.1,3.118-3,2.944a2,2,0,0,1-1.871-2.125c.019-.466.45-1.056-.423-1.262C3933.92,1147.408,3933.968,1147.059,3934.115,1146.869Z" transform="translate(3411.507 -10665.877)" fill="#aec9da"/>
    <path id="Trazado_990737" data-name="Trazado 990737" d="M4547.08,1146.734c.366.228.723.473,1.1.68a2.479,2.479,0,0,0,3.1-.168,2.931,2.931,0,0,0,.96-3.393,2.646,2.646,0,0,0-2.691-1.926c-.324,0-.648.008-.972.013a4.076,4.076,0,0,1,4.525,1.375,3.616,3.616,0,0,1,.052,3.866,3.141,3.141,0,0,1-3.336,1.289A2.924,2.924,0,0,1,4547.08,1146.734Z" transform="translate(2821.204 -10662.083)" fill="#486a8a"/>
    <path id="Trazado_990738" data-name="Trazado 990738" d="M3965.155,1143.961c-.68-1.9-1.2-2.22-3.508-2.165a3.734,3.734,0,0,1,4.53,1.476,3.371,3.371,0,0,1-.636,4.329,3.551,3.551,0,0,1-4.535-.141.707.707,0,0,1,.7-.109A2.937,2.937,0,0,0,3965.155,1143.961Z" transform="translate(3385.486 -10661.928)" fill="#496b8c"/>
    <path id="Trazado_990739" data-name="Trazado 990739" d="M3924.249,1179.583a2.3,2.3,0,0,1-.708,2.789c-.821.727-1.652,1.58-2.917.8a1.514,1.514,0,0,0-.522-.094c-1.755-1.4-2.051-2.949-.87-4.54.216.615.216.615,1.054.45.2.3-.131.438-.216.635a1.941,1.941,0,0,0,.809,2.526,2.226,2.226,0,0,0,2.855-.949C3923.936,1180.677,3924.354,1180.209,3924.249,1179.583Z" transform="translate(3426.391 -10697.55)" fill="#92b3c9"/>
    <path id="Trazado_990740" data-name="Trazado 990740" d="M5766.908,1819.651c-3.112-.136-6.227-.377-9.341-.213a81.986,81.986,0,0,0-9.181.75c-.654.109-.849-.05-.831-.688.027-.978-.005-1.958-.013-2.937-.034-.865.616-.636,1.071-.637q8.2-.015,16.4-.006,4.291,0,8.582,0c.463,0,1.007-.108.953.652,0,1.08-.013,2.161,0,3.241,0,.512-.138.645-.708.573C5771.535,1820.1,5769.22,1819.889,5766.908,1819.651Z" transform="translate(1665.378 -11311.209)" fill="#314b6c"/>
    <path id="Trazado_990741" data-name="Trazado 990741" d="M5748.91,2109.846c2.808-.324,5.633-.353,8.453-.462,3.476-.134,6.955-.179,10.432-.262,2.312.17,4.6-.326,6.914-.184.476.029,1.117-.272,1.177.659s-.54,1.03-1.153,1.044c-2.094.049-4.19.041-6.286.054-6.128-.106-12.255-.317-18.385-.284C5749.633,2110.415,5748.961,2110.7,5748.91,2109.846Z" transform="translate(1664.06 -11593.326)" fill="#2e4665"/>
    <path id="Trazado_990742" data-name="Trazado 990742" d="M1810.584,2143.87c.181-3.428.327-6.864,1.549-10.129.315-.843.675-1.708,1.778-1.831,1.9-.211,2.8.6,2.525,2.622-.578,4.187-.364,8.385-.4,12.58a2.908,2.908,0,0,1-.576,2.034c-1.239,1.413-3.662.723-4.385-1.314A11.186,11.186,0,0,1,1810.584,2143.87Z" transform="translate(5455.954 -11615.438)" fill="#517b9c"/>
    <path id="Trazado_990743" data-name="Trazado 990743" d="M3239.984,2092.638c-.265-5.677-.208-11.358-.195-17.039a2.01,2.01,0,0,1,1.662-2.112,2.587,2.587,0,0,1,2.921,1.494,1.083,1.083,0,0,1,.1.632q0,8.241,0,16.483a1.578,1.578,0,0,1-.061.536A6.127,6.127,0,0,1,3239.984,2092.638Z" transform="translate(4079.9 -11559.169)" fill="#c2d8e2"/>
    <path id="Trazado_990744" data-name="Trazado 990744" d="M3383.75,2093.016c-.324-4.3-.168-8.613-.265-12.919-.032-1.447-.1-2.9-.066-4.342.031-1.33.66-1.933,1.826-1.918a1.971,1.971,0,0,1,2.013,1.99c.053,1.337.012,2.679,0,4.019-.007,1.05-.027,2.1-.042,3.149-.218,2.128-.043,4.261-.1,6.392-.014.579.025,1.16-.01,1.738C3386.992,2093.181,3385.662,2093.924,3383.75,2093.016Z" transform="translate(3941.605 -11559.556)" fill="#c2d8e2"/>
    <path id="Trazado_990745" data-name="Trazado 990745" d="M3111.8,2091.389a3.2,3.2,0,0,1,.284,1.9c-.013,3.585-.088,7.171-.142,10.756-.2,1.621-.013,3.251-.1,4.875a.472.472,0,0,1-.247.306,1.4,1.4,0,0,1-.309.1c-2.678.385-3.36-.193-3.361-2.865q0-6.572,0-13.144a2.478,2.478,0,0,1,1.362-2.5A1.7,1.7,0,0,1,3111.8,2091.389Z" transform="translate(4206.845 -11575.591)" fill="#c4dae4"/>
    <path id="Trazado_990746" data-name="Trazado 990746" d="M3392.55,2330.153c3.022.052,3.242-.16,3.256-3.161.009-1.944.01-3.888.027-5.832,0-.348-.1-.728.188-1.028.007,3.369.021,6.738.021,10.106,0,4.24-.015,8.48-.012,12.72a2.385,2.385,0,0,1-.615,1.9c-.454.429-.9.881-1.612.6a1.655,1.655,0,0,1-1.056-1.51,46.844,46.844,0,0,1-.174-4.883Q3392.561,2334.608,3392.55,2330.153Z" transform="translate(3932.806 -11796.693)" fill="#88afc8"/>
    <path id="Trazado_990747" data-name="Trazado 990747" d="M3250.661,2132.638q.016-8.812.033-17.625c.287.348.179.766.179,1.153q0,13.83-.019,27.66a20.98,20.98,0,0,1-.16,2.277,2.118,2.118,0,0,1-2.311,1.831,1.983,1.983,0,0,1-2.017-1.987c-.029-2.685-.019-5.371-.025-8.057a17.06,17.06,0,0,0,2.845-.677,1.681,1.681,0,0,0,1.219-1.8A4.968,4.968,0,0,1,3250.661,2132.638Z" transform="translate(4073.579 -11599.2)" fill="#86aec8"/>
    <path id="Trazado_990748" data-name="Trazado 990748" d="M3086.291,2587.779c.133,4.528-.125,9.051-.153,13.577a1.614,1.614,0,0,1-2.377,1.47,3.727,3.727,0,0,1-2.222-2.625.88.88,0,0,1-.243-.587c.15-2.875.063-5.754.173-8.629a1.2,1.2,0,0,1,.113-.413c.471-.509.79-.032,1.073.221a6.749,6.749,0,0,0,2.446,1.376c.526.172.737.026.72-.537-.025-.87-.014-1.741,0-2.612a1.683,1.683,0,0,1,.295-1.237h0Q3086.2,2587.644,3086.291,2587.779Z" transform="translate(4232.487 -12054.324)" fill="#87aec7"/>
    <path id="Trazado_990749" data-name="Trazado 990749" d="M3076.315,2095.8c0,1.3-.065,2.611.019,3.909.067,1.021-.336,1.015-1.119.788a7.928,7.928,0,0,1-3.24-2.087c-.47-.474-.343-1.083-.35-1.648a35.645,35.645,0,0,0-.393-7.26,71.018,71.018,0,0,1,.075-9.214,1.889,1.889,0,0,1,.206-.834c.729-1.929,2.16-2.962,3.654-2.677.777.148,1.262.5,1.2,1.363a1.957,1.957,0,0,0-2.459-.284,2.194,2.194,0,0,0-1.092,2.269c.033,4.63.015,9.261.019,13.892,0,1.51.27,1.781,1.746,1.787C3075.158,2095.8,3075.736,2095.8,3076.315,2095.8Z" transform="translate(4242.284 -11562.339)" fill="#9fbfd2"/>
    <path id="Trazado_990750" data-name="Trazado 990750" d="M3249.765,2589.05c.006.867.015,1.733.016,2.6,0,1.737.016,1.791-1.643,2.349-.851.286-1.729.826-2.693.3q-.017-2.61-.035-5.22Z" transform="translate(4074.475 -12055.612)" fill="#9fc1d4"/>
    <path id="Trazado_990751" data-name="Trazado 990751" d="M3059.186,2416.4a18.89,18.89,0,0,1,.468,5.778c-.008,1.044,0,2.089,0,3.133-.123,3.268.105,6.545-.234,9.808-.589-.048-.635-.458-.656-.927-.233-5.183-.535-10.364-.413-15.556.018-.752.135-1.5.206-2.253A.431.431,0,0,1,3059.186,2416.4Z" transform="translate(4254.603 -11889.242)" fill="#527b9c"/>
    <path id="Trazado_990752" data-name="Trazado 990752" d="M3064.523,2160.031l-.627-.018a77.165,77.165,0,0,1,.207-8.994c.05-.393-.017-.813.428-1.033C3064.491,2153.334,3064.283,2156.682,3064.523,2160.031Z" transform="translate(4249.266 -11632.873)" fill="#7196b3"/>
    <path id="Trazado_990753" data-name="Trazado 990753" d="M3210.574,2459.982q-.089,0-.179,0c.115-1.667-.213-3.35.192-5.006Q3210.581,2457.481,3210.574,2459.982Z" transform="translate(4108.204 -11926.528)" fill="#9fbfd2"/>
    <path id="Trazado_990754" data-name="Trazado 990754" d="M5211.208,2075.573a2.685,2.685,0,0,1,3.081-1.162,2.139,2.139,0,0,1,1.541,2.337c-.019,5.573,0,11.146-.223,16.715a6.27,6.27,0,0,1-4.4.018,25.877,25.877,0,0,1-.063-3.359q-.019-6.682,0-13.364A3.471,3.471,0,0,1,5211.208,2075.573Z" transform="translate(2181.857 -11560)" fill="#c2d8e2"/>
    <path id="Trazado_990755" data-name="Trazado 990755" d="M5087.511,2084.236c-.052-2.351-.113-4.7-.147-7.052a6.026,6.026,0,0,1,.146-1.5,1.923,1.923,0,0,1,2.135-1.443,1.625,1.625,0,0,1,1.534,1.779q.013,3.365-.032,6.73c-.043,3.545-.1,7.089-.158,10.634a2.4,2.4,0,0,1-2.186.2,1.492,1.492,0,0,1-1.082-1.562c-.119-2.242-.083-4.483-.1-6.725A1.837,1.837,0,0,0,5087.511,2084.236Z" transform="translate(2301.01 -11559.923)" fill="#c1d8e2"/>
    <path id="Trazado_990756" data-name="Trazado 990756" d="M5355.511,2111.679q-.114-6.826-.228-13.652a3.523,3.523,0,0,1,.254-1.59,1.639,1.639,0,0,1,1.9-.93,2.208,2.208,0,0,1,1.819,1.38,5.088,5.088,0,0,1,.279,1.925c.137,3.123-.292,6.231-.239,9.353.025,1.511.389,3.007.032,4.542-.269,1.156-.425,1.424-1.6,1.472a5.807,5.807,0,0,1-1.732-.09.785.785,0,0,1-.322-.209C5355.479,2113.156,5355.742,2112.4,5355.511,2111.679Z" transform="translate(2043.053 -11580.396)" fill="#c4dae4"/>
    <path id="Trazado_990757" data-name="Trazado 990757" d="M5090.13,2343.64c.229.185.2.446.209.7.046,2.28-.057,4.56.2,6.838.138,1.224.422,1.607,1.654,1.622.472.006.943-.01,1.415-.016q-.018,6.478-.039,12.957a3.819,3.819,0,0,1-.088.645c-.144.81-.314,1.656-1.355,1.676a1.821,1.821,0,0,1-1.816-1.575,4.092,4.092,0,0,1-.153-1.07q-.047-10.672-.073-21.344A3.684,3.684,0,0,1,5090.13,2343.64Z" transform="translate(2298.392 -11819.327)" fill="#8ab0c9"/>
    <path id="Trazado_990758" data-name="Trazado 990758" d="M5207.715,2108.57q.025,8.937.048,17.874a3.977,3.977,0,0,1,.262,2.515,1.924,1.924,0,0,0,1.27,2,11.331,11.331,0,0,0,2.79.721c-.022,2.717.115,5.438-.152,8.147a2.053,2.053,0,0,1-2.119,1.9,2.094,2.094,0,0,1-2.126-1.779,5.917,5.917,0,0,1-.108-1.077q-.042-14.469-.064-28.937C5207.515,2109.477,5207.384,2108.985,5207.715,2108.57Z" transform="translate(2185.35 -11592.997)" fill="#82abc5"/>
    <path id="Trazado_990759" data-name="Trazado 990759" d="M5365.352,2600.155a5.2,5.2,0,0,1-1.308,2.195,2.1,2.1,0,0,1-2.136.345c-.771-.283-.928-.908-.918-1.665.055-4.423-.3-8.841-.161-13.265q.1-.142.184.008l0,0c.592.979.177,2.057.305,3.081.052.418-.212.981.192,1.221.435.259.9-.133,1.29-.367a3.189,3.189,0,0,0,1.861-2.963c-.012-.353-.162-.91.51-.959a1.676,1.676,0,0,1,.325,1.228c.051,3.582-.05,7.165.012,10.747A.557.557,0,0,1,5365.352,2600.155Z" transform="translate(2037.744 -12054.308)" fill="#84acc6"/>
    <path id="Trazado_990760" data-name="Trazado 990760" d="M5366.247,2096.429c-.065,2.884-.8,3.984-3.082,4.716-.624.2-.9.189-.866-.593.055-1.366.012-2.736.01-4.1a2,2,0,0,0,.217,0c.955-.116,2.268.471,2.793-.274a5.241,5.241,0,0,0,.439-3.562,33.344,33.344,0,0,1-.024-6.474,42.65,42.65,0,0,0,.02-5.858c-.125-1.914-1.938-2.494-3.612-1.255.383-1.477,1.271-1.957,2.643-1.406a3.464,3.464,0,0,1,1.883,1.838,22.477,22.477,0,0,1,.29,6.241c-.131,3.027-.391,6.048-.378,9.082A2.182,2.182,0,0,1,5366.247,2096.429Z" transform="translate(2036.448 -11562.98)" fill="#9cbdd1"/>
    <path id="Trazado_990761" data-name="Trazado 990761" d="M5471.539,2149.757c-.223-5.235.586-10.442.428-15.675-.013-.433,0-.867-.007-1.3a3.883,3.883,0,0,1,.613,2.784c.052,7.295.063,14.59-.011,21.884-.013,1.33-.135,2.672-.17,4.01-.008.32.049.692-.452.7a6.561,6.561,0,0,1-.193-1.711q.013-4.774-.015-9.548C5471.73,2150.513,5471.851,2150.095,5471.539,2149.757Z" transform="translate(1931.156 -11616.31)" fill="#5c84a4"/>
    <path id="Trazado_990762" data-name="Trazado 990762" d="M5219.028,2594.524c-1.018.344-3.675-.426-4.221-1.262a1.446,1.446,0,0,1-.1-.732c-.008-1.082,0-2.164,0-3.247l4.351.017Q5219.043,2591.912,5219.028,2594.524Z" transform="translate(2178.406 -12055.837)" fill="#9dbfd2"/>
    <path id="Trazado_990763" data-name="Trazado 990763" d="M5361.639,2533.291c-.061,0-.122,0-.183-.008q0-1.087-.008-2.174C5361.831,2531.808,5361.557,2532.565,5361.639,2533.291Z" transform="translate(2037.116 -11999.825)" fill="#9cbdd1"/>
    <path id="Trazado_990764" data-name="Trazado 990764" d="M3653,3585.222q11.87,0,23.74-.01a2.1,2.1,0,0,1,2.159,1.319,1.715,1.715,0,0,1-.529,2.062,2.119,2.119,0,0,1-1.824.51c-1.745-.373-3.458.066-5.186.055-8.151-.053-16.3-.012-24.454-.033-1.76,0-3.522-.218-5.279-.17-2.564.07-5.122.1-7.687,0-1.62-.064-3.242.245-4.876.188s-2.309-.574-2.319-1.917c-.01-1.292.836-2,2.4-2.005Q3641.072,3585.219,3653,3585.222Z" transform="translate(3707.32 -13014.734)" fill="#415470"/>
    <path id="Trazado_990765" data-name="Trazado 990765" d="M5609.235,2384.247c1.847,0,3.694,0,5.542,0,.465,0,1.033-.072,1.057.615.026.771-.584.69-1.087.69q-5.435,0-10.868-.005a2.269,2.269,0,0,1-.646-.045c-.368-.112-.667-.345-.609-.778.055-.407.4-.473.742-.474q2.5-.008,5-.01h.87Z" transform="translate(1804.914 -11858.421)" fill="#a2c2d5"/>
    <path id="Trazado_990766" data-name="Trazado 990766" d="M4628.422,2829.83a32.439,32.439,0,0,1,2.65,3.224c.366.556.737,1.1-.239,1.518-.385.166-.474.691-.462,1.143-.3-.994-.585-1.99-1.71-2.418-.329-.125-.246-.488-.247-.767C4628.411,2831.63,4628.418,2830.73,4628.422,2829.83Z" transform="translate(2742.902 -12287.439)" fill="#334d6f"/>
    <path id="Trazado_990767" data-name="Trazado 990767" d="M4439.655,2632.782l-.251.252c-.615-.418-1.022-1.065-1.636-1.507A5.1,5.1,0,0,1,4439.655,2632.782Z" transform="translate(2926.451 -12096.511)" fill="#334d6f"/>
    <path id="Trazado_990768" data-name="Trazado 990768" d="M4018.4,3147.808c-3.227,0-6.455-.022-9.682.013-1.03.011-1.443-.383-1.41-1.415.049-1.558.009-3.118.02-4.677.008-1.081.56-1.763,1.619-1.749,4.019.052,8.04-.2,12.06.139,2.234.191,4.483.185,6.725.288.684.031,1.367.118,2.048.2a.978.978,0,0,1,.907.932,21.425,21.425,0,0,1-.045,5.395c-.073.572-.476.618-.944.669-2.964.321-5.937.1-8.905.175-.8.021-1.6,0-2.393,0C4018.4,3147.791,4018.4,3147.8,4018.4,3147.808Z" transform="translate(3340.907 -12586.015)" fill="#c1d8e2"/>
    <path id="Trazado_990769" data-name="Trazado 990769" d="M4007.531,1646.98a1.5,1.5,0,0,1-.684-1.472c.048-1.157.035-2.317.008-3.475-.02-.855.231-1.359,1.2-1.428.609-.044,1.216-.136,1.832-.137q9.341-.013,18.683-.028c1.49,0,1.63.145,1.634,1.607,0,1.3-.011,2.607,0,3.91.01.869-.4,1.25-1.26,1.238-.831-.012-1.662.028-2.493.045Z" transform="translate(3341.353 -11142.273)" fill="#c2d9e3"/>
    <path id="Trazado_990770" data-name="Trazado 990770" d="M4582.982,1178.43a1.4,1.4,0,0,1,1.405,1.349c-.024.7-.98,1.714-1.636,1.636a1.327,1.327,0,0,1-1.21-1.517A1.566,1.566,0,0,1,4582.982,1178.43Z" transform="translate(2788.023 -10697.442)" fill="#f7f9fa"/>
    <path id="Trazado_990771" data-name="Trazado 990771" d="M3977.7,1184.709c-.038-.9.459-1.2,1.28-1.173.8.03,1.3.387,1.335,1.219a1.661,1.661,0,0,1-1.3,1.612C3978.24,1186.368,3977.686,1185.669,3977.7,1184.709Z" transform="translate(3369.419 -10702.356)" fill="#fafbfb"/>
  </g>
</svg>
