<svg xmlns="http://www.w3.org/2000/svg" width="93.959" height="93.959" viewBox="0 0 93.959 93.959">
  <g id="Grupo_1162384" data-name="Grupo 1162384" transform="translate(-623.333 -639)">
    <g id="Grupo_1158384" data-name="Grupo 1158384" transform="translate(1 330)">
      <g id="Grupo_1158054" data-name="Grupo 1158054" transform="translate(622.333 309)">
        <g id="Grupo_1103990" data-name="Grupo 1103990" transform="translate(0)">
          <g id="Trazado_874102" data-name="Trazado 874102" transform="translate(0)" fill="#f0f7e8">
            <path d="M 46.97949600219727 91.45897674560547 C 40.97370910644531 91.45897674560547 35.14888000488281 90.28328704833984 29.66683959960938 87.96457672119141 C 24.37055397033691 85.72444915771484 19.61348152160645 82.51696014404297 15.52775287628174 78.43122863769531 C 11.44202423095703 74.34550476074219 8.234539031982422 69.58843231201172 5.994410514831543 64.29214477539062 C 3.675695896148682 58.81010437011719 2.500010251998901 52.98527526855469 2.500010251998901 46.97948837280273 C 2.500010251998901 40.97369003295898 3.675695896148682 35.14887237548828 5.994410514831543 29.66683197021484 C 8.234539031982422 24.37054634094238 11.44202423095703 19.61346054077148 15.52775287628174 15.52774524688721 C 19.61348152160645 11.4420166015625 24.37055397033691 8.234531402587891 29.66683959960938 5.994388580322266 C 35.14888000488281 3.67568826675415 40.97370910644531 2.50000262260437 46.97949600219727 2.50000262260437 C 52.98529434204102 2.50000262260437 58.81011199951172 3.67568826675415 64.29215240478516 5.994388580322266 C 69.58843994140625 8.234531402587891 74.34552764892578 11.4420166015625 78.43123626708984 15.52774524688721 C 82.5169677734375 19.61346054077148 85.72445678710938 24.37054634094238 87.964599609375 29.66683197021484 C 90.28329467773438 35.14887237548828 91.458984375 40.97369003295898 91.458984375 46.97948837280273 C 91.458984375 52.98527526855469 90.28329467773438 58.81010437011719 87.964599609375 64.29214477539062 C 85.72445678710938 69.58843231201172 82.5169677734375 74.34550476074219 78.43123626708984 78.43122863769531 C 74.34552764892578 82.51696014404297 69.58843994140625 85.72444915771484 64.29215240478516 87.96457672119141 C 58.81011199951172 90.28328704833984 52.98529434204102 91.45897674560547 46.97949600219727 91.45897674560547 Z" stroke="none"/>
            <path d="M 46.97949600219727 5.000007629394531 C 41.31009674072266 5.000007629394531 35.81294631958008 6.109237670898438 30.64072799682617 8.296905517578125 C 25.64242553710938 10.41100311279297 21.1524658203125 13.43856811523438 17.29550933837891 17.29550170898438 C 13.43857574462891 21.15245819091797 10.4110107421875 25.64241790771484 8.296913146972656 30.64072036743164 C 6.109245300292969 35.81293869018555 5.000015258789062 41.31008911132812 5.000015258789062 46.97948837280273 C 5.000015258789062 52.64888763427734 6.109245300292969 58.14603805541992 8.296913146972656 63.31825256347656 C 10.4110107421875 68.31653594970703 13.43857574462891 72.8065185546875 17.29550933837891 76.6634521484375 C 21.1524658203125 80.52040100097656 25.64242553710938 83.5479736328125 30.64072799682617 85.66207122802734 C 35.81294631958008 87.84973907470703 41.31009674072266 88.95896911621094 46.97949600219727 88.95896911621094 C 52.64889526367188 88.95896911621094 58.14604568481445 87.84973907470703 63.31826019287109 85.66207122802734 C 68.31655883789062 83.5479736328125 72.80653381347656 80.52040100097656 76.66348266601562 76.6634521484375 C 80.52041625976562 72.8065185546875 83.54798126220703 68.31653594970703 85.66207885742188 63.31825256347656 C 87.84974670410156 58.14603805541992 88.95897674560547 52.64888763427734 88.95897674560547 46.97948837280273 C 88.95897674560547 41.31008911132812 87.84974670410156 35.81293869018555 85.66207885742188 30.64072036743164 C 83.54798126220703 25.64241790771484 80.52041625976562 21.15245819091797 76.66348266601562 17.29550170898438 C 72.80653381347656 13.43856811523438 68.31655883789062 10.41100311279297 63.31826019287109 8.296905517578125 C 58.14604568481445 6.109237670898438 52.64889526367188 5.000007629394531 46.97949600219727 5.000007629394531 M 46.97949600219727 7.62939453125e-06 C 72.92554473876953 7.62939453125e-06 93.95897674560547 21.03343963623047 93.95897674560547 46.97948837280273 C 93.95897674560547 72.92552185058594 72.92554473876953 93.95896911621094 46.97949600219727 93.95896911621094 C 21.033447265625 93.95896911621094 1.52587890625e-05 72.92552185058594 1.52587890625e-05 46.97948837280273 C 1.52587890625e-05 21.03343963623047 21.033447265625 7.62939453125e-06 46.97949600219727 7.62939453125e-06 Z" stroke="none" fill="#fff"/>
          </g>
        </g>
      </g>
    </g>
    <g id="ambiental_1_" data-name="ambiental (1)" transform="translate(633.331 631.218)">
      <path id="Trazado_990772" data-name="Trazado 990772" d="M256.868,196.471a17.055,17.055,0,0,1,16.983,15.5H239.885A17.055,17.055,0,0,1,256.868,196.471Z" transform="translate(-205.185 -149.345)" fill="#2a92fa" fill-rule="evenodd"/>
      <path id="Trazado_990773" data-name="Trazado 990773" d="M270.727,215.98H239.885a17.068,17.068,0,0,1,12.168-14.815,17.241,17.241,0,0,1,1.756-.09A17.056,17.056,0,0,1,270.727,215.98Z" transform="translate(-205.185 -153.35)" fill="#4eb1fc" fill-rule="evenodd"/>
      <path id="Trazado_990774" data-name="Trazado 990774" d="M316.1,71.231a8.122,8.122,0,1,1-8.122,8.122A8.122,8.122,0,0,1,316.1,71.231Z" transform="translate(-264.414 -40.404)" fill="#fdb0a0" fill-rule="evenodd"/>
      <path id="Trazado_990775" data-name="Trazado 990775" d="M315,87.895a8.122,8.122,0,1,1,7.025-8.048A8.123,8.123,0,0,1,315,87.895Z" transform="translate(-264.415 -40.898)" fill="#ffcec0" fill-rule="evenodd"/>
      <path id="Trazado_990776" data-name="Trazado 990776" d="M319.882,46.993V45.652a8.885,8.885,0,1,0-17.77,0v1.341Z" transform="translate(-259.314 -10.425)" fill="#fdc72e" fill-rule="evenodd"/>
      <path id="Trazado_990777" data-name="Trazado 990777" d="M309.941,37.256a8.916,8.916,0,0,0-7.828,8.821v1.341H317.77V46.077a8.916,8.916,0,0,0-7.828-8.821Z" transform="translate(-259.315 -10.851)" fill="#fcdb35" fill-rule="evenodd"/>
      <path id="Trazado_990778" data-name="Trazado 990778" d="M298.93,112.647v-.679h18.6v.679a21.765,21.765,0,0,1-18.6,0Z" transform="translate(-256.546 -75.84)" fill="#f19a00" fill-rule="evenodd"/>
      <path id="Trazado_990779" data-name="Trazado 990779" d="M298.93,111.969h18.6a21.765,21.765,0,0,1-18.6,0Z" transform="translate(-256.546 -75.84)" fill="#f9ac00" fill-rule="evenodd"/>
      <path id="Trazado_990780" data-name="Trazado 990780" d="M290.328,203.913l3.72,3.72a2.764,2.764,0,0,0,3.9,0l3.72-3.72a17.056,17.056,0,0,1,5.459,3.161v11.4H284.869v-11.4a17.055,17.055,0,0,1,5.459-3.161Z" transform="translate(-244.315 -155.819)" fill="#fcdb35" fill-rule="evenodd"/>
      <path id="Trazado_990781" data-name="Trazado 990781" d="M403.806,205.235l1.321-1.321a17.059,17.059,0,0,1,5.459,3.161v4.063a17.125,17.125,0,0,0-6.78-5.9Z" transform="translate(-347.773 -155.82)" fill="#fdc72e" fill-rule="evenodd"/>
      <path id="Trazado_990782" data-name="Trazado 990782" d="M55.185,194.666a12.344,12.344,0,0,0,12.689,12.689C67.874,199.6,63.822,192.818,55.185,194.666Z" transform="translate(-44.522 -147.508)" fill="#43f043" fill-rule="evenodd"/>
      <path id="Trazado_990783" data-name="Trazado 990783" d="M55.185,196.718a12.344,12.344,0,0,0,12.689,12.689c6.857,0-12.689-12.689-12.689-12.689Z" transform="translate(-44.522 -149.56)" fill="#2dd62d" fill-rule="evenodd"/>
      <path id="Trazado_990784" data-name="Trazado 990784" d="M122.7,82.706a10.532,10.532,0,0,1,0,17.247,10.532,10.532,0,0,1,0-17.247Z" transform="translate(-99.353 -50.386)" fill="#96ff96" fill-rule="evenodd"/>
      <path id="Trazado_990785" data-name="Trazado 990785" d="M152.687,82.706a10.532,10.532,0,0,1,0,17.247Z" transform="translate(-129.335 -50.386)" fill="#43f043" fill-rule="evenodd"/>
      <path id="Trazado_990786" data-name="Trazado 990786" d="M37.928,351.778l2.146,1.439a.866.866,0,0,0,1.1-.108l3.322-3.322a.866.866,0,0,0,.108-1.1l-1.439-2.146,1.826-4.407,2.535-.5a.866.866,0,0,0,.7-.856v-2.349H40.2v.011a10.384,10.384,0,1,1-20.768,0v-.011H11.4v2.349a.866.866,0,0,0,.7.856l2.535.5,1.826,4.407-1.439,2.146a.866.866,0,0,0,.108,1.1l3.322,3.322a.865.865,0,0,0,1.1.108l2.146-1.439,4.407,1.826.5,2.535a.866.866,0,0,0,.856.7h4.7a.866.866,0,0,0,.856-.7l.5-2.535,4.407-1.826Z" transform="translate(-6.437 -272.828)" fill="#909cd1" fill-rule="evenodd"/>
      <path id="Trazado_990787" data-name="Trazado 990787" d="M37.928,351.778l1.558,1.044,3.542-3.542-1.839-2.742,1.826-4.407,3.239-.639v-3.066H40.2v.011a10.384,10.384,0,1,1-20.768,0v-.011H11.4v2.349a.866.866,0,0,0,.7.856l2.535.5,1.826,4.407-1.439,2.146a.866.866,0,0,0,.108,1.1l2.764,2.764,2.167-1.453,1.64.68,4.407,1.826.5,2.535a.866.866,0,0,0,.856.7H30.9l.836-4.24,4.584-1.9,1.6,1.075Z" transform="translate(-6.437 -272.828)" fill="#bdc7f2" fill-rule="evenodd"/>
      <path id="Trazado_990788" data-name="Trazado 990788" d="M73.874,348.8a10.384,10.384,0,0,1-9.715-10.362v-.011H62.821v.011a10.384,10.384,0,0,0,10.384,10.384C73.43,348.822,73.653,348.815,73.874,348.8Z" transform="translate(-51.164 -272.827)" fill="#909cd1" fill-rule="evenodd"/>
      <path id="Trazado_990789" data-name="Trazado 990789" d="M165.376,194.666a12.344,12.344,0,0,1-12.689,12.689C152.687,199.6,156.739,192.818,165.376,194.666Z" transform="translate(-129.335 -147.508)" fill="#43f043" fill-rule="evenodd"/>
      <path id="Trazado_990790" data-name="Trazado 990790" d="M155.628,196.718a12.344,12.344,0,0,1-12.689,12.689c-6.857,0,12.689-12.689,12.689-12.689Z" transform="translate(-119.588 -149.56)" fill="#2dd62d" fill-rule="evenodd"/>
      <path id="Trazado_990791" data-name="Trazado 990791" d="M109.083,338.514a7.671,7.671,0,1,1-15.343,0Z" transform="translate(-78.06 -272.903)" fill="#a34f41" fill-rule="evenodd"/>
      <path id="Trazado_990792" data-name="Trazado 990792" d="M100.607,346.143a7.672,7.672,0,0,1-6.866-7.629h13.732a7.672,7.672,0,0,1-6.866,7.629Z" transform="translate(-78.06 -272.903)" fill="#c86f5c" fill-rule="evenodd"/>
      <path id="Trazado_990793" data-name="Trazado 990793" d="M63.719,61.745V53.38a16.051,16.051,0,0,1,3.936,8.365ZM39.652,53.38v8.365H35.716A16.069,16.069,0,0,1,39.652,53.38Zm4.816-14.424c0-.151.006-.3.016-.45a23.54,23.54,0,0,0,7.2,1.305h.013a23.543,23.543,0,0,0,7.195-1.305c.009.15.016.3.016.45a7.217,7.217,0,0,1-14.435,0Zm12.97-1.912a20.51,20.51,0,0,1-5.752.945,20.51,20.51,0,0,1-5.752-.945h11.5ZM48.81,27.792l-.166,4.463a.911.911,0,0,0,1.82.067l.211-5.651a7.572,7.572,0,0,1,2.021,0l.21,5.651a.911.911,0,0,0,.91.878h.034a.91.91,0,0,0,.877-.943l-.166-4.463a8.044,8.044,0,0,1,5.105,7.431H43.7a8.046,8.046,0,0,1,5.105-7.431ZM52.6,53.425a3.646,3.646,0,0,0,1.683-.959l3.316-3.316a15.99,15.99,0,0,1,4.3,2.5v10.1H52.6Zm-.911-1.709a1.833,1.833,0,0,0,1.305-.539l2.648-2.648a16.569,16.569,0,0,0-7.908,0l2.648,2.648a1.833,1.833,0,0,0,1.305.539Zm-10.212-.069a16,16,0,0,1,4.3-2.5l3.316,3.317a3.653,3.653,0,0,0,1.683.959v8.32h-9.3ZM69.588,62.574A17.986,17.986,0,0,0,56.177,46.8a9.046,9.046,0,0,0,4.548-7.84,9.23,9.23,0,0,0-.064-1.054c.212-.076.426-.154.647-.236a.908.908,0,0,0,.595-.854v-.679a.91.91,0,0,0-.414-.763v-.139a9.877,9.877,0,0,0-7-9.391.91.91,0,0,0-.7-.822,9.421,9.421,0,0,0-4.193,0,.91.91,0,0,0-.7.822,9.878,9.878,0,0,0-7,9.391v.139a.909.909,0,0,0-.415.763v.679a.91.91,0,0,0,.595.854c.22.082.435.16.647.236a9.26,9.26,0,0,0-.064,1.054,9.044,9.044,0,0,0,4.548,7.84A17.986,17.986,0,0,0,33.782,62.574a.91.91,0,0,0,.907.993H68.681a.91.91,0,0,0,.907-.993ZM18.5,49.466c2.331,1.884,3.737,5.292,3.92,9.438A11.3,11.3,0,0,1,11.6,47.91,8.43,8.43,0,0,1,18.5,49.466Zm1.277-8.523a9.633,9.633,0,0,0,2.664,6.642V41.594a.911.911,0,0,1,1.822,0v5.992a9.615,9.615,0,0,0-.911-14.125,9.642,9.642,0,0,0-3.575,7.483Zm8.427,8.523a7.845,7.845,0,0,1,5.082-1.706,11.627,11.627,0,0,1,1.825.15A11.3,11.3,0,0,1,24.285,58.9c.184-4.146,1.59-7.554,3.92-9.438Zm-4.852,22.9a6.77,6.77,0,0,1-6.7-5.849h13.4A6.771,6.771,0,0,1,23.353,72.371ZM13.809,57.055a13.616,13.616,0,0,0,8.633,3.674V64.7h-6.76a.911.911,0,0,0-.911.911,8.582,8.582,0,1,0,17.164,0,.911.911,0,0,0-.912-.911h-6.76V60.729A13.612,13.612,0,0,0,32.9,57.055a13.476,13.476,0,0,0,4.055-9.9.912.912,0,0,0-.719-.892c-3.605-.772-6.778-.153-9.174,1.785a10.968,10.968,0,0,0-2.8,3.511V50.027a11.442,11.442,0,0,0-.387-18.453.912.912,0,0,0-1.048,0,11.441,11.441,0,0,0-.388,18.453v1.534a10.951,10.951,0,0,0-2.794-3.511c-2.4-1.939-5.569-2.555-9.174-1.785a.912.912,0,0,0-.721.892,13.481,13.481,0,0,0,4.055,9.9ZM40.885,67.932v-1.41H34.641a11.323,11.323,0,0,1-22.573,0H5.824v1.41l2.509.494A.917.917,0,0,1,9,68.972l1.828,4.414a.914.914,0,0,1-.086.856L9.317,76.365,12.6,79.649l2.124-1.425a.909.909,0,0,1,.855-.085l4.413,1.828a.907.907,0,0,1,.546.665l.494,2.509h4.644l.494-2.509a.913.913,0,0,1,.545-.665l4.413-1.828a.912.912,0,0,1,.857.085l2.124,1.425,3.283-3.284-1.425-2.123a.914.914,0,0,1-.085-.856l1.828-4.414a.913.913,0,0,1,.665-.545l2.509-.494ZM41.8,64.7h-8.03a.91.91,0,0,0-.911.911,9.5,9.5,0,0,1-19,0,.911.911,0,0,0-.911-.911H4.913A.911.911,0,0,0,4,65.611v2.35a1.792,1.792,0,0,0,1.441,1.753l2.059.406,1.455,3.512L7.788,75.375a1.79,1.79,0,0,0,.22,2.258l3.325,3.325a1.791,1.791,0,0,0,2.258.22l1.743-1.169,3.512,1.455.406,2.059A1.792,1.792,0,0,0,21,84.964h4.7a1.79,1.79,0,0,0,1.752-1.441l.406-2.059,3.512-1.455,1.744,1.169a1.791,1.791,0,0,0,2.258-.22L38.7,77.633a1.791,1.791,0,0,0,.22-2.258l-1.169-1.743,1.455-3.512,2.059-.406a1.792,1.792,0,0,0,1.441-1.753v-2.35A.911.911,0,0,0,41.8,64.7Z" transform="translate(0 0)" fill-rule="evenodd"/>
    </g>
  </g>
</svg>
