<svg xmlns="http://www.w3.org/2000/svg" xmlns:xlink="http://www.w3.org/1999/xlink" width="295" height="180" viewBox="0 0 295 180">
  <defs>
    <clipPath id="clip-path">
      <rect id="Rect치ngulo_411779" data-name="Rect치ngulo 411779" width="295" height="146" transform="translate(1125.333 296)" fill="#fff" stroke="#707070" stroke-width="1" opacity="0.69"/>
    </clipPath>
  </defs>
  <g id="Grupo_1162398" data-name="Grupo 1162398" transform="translate(-1125.333 -273)">
    <g id="Grupo_1158386" data-name="Grupo 1158386" transform="translate(0 -331)">
      <g id="Grupo_1149082" data-name="Grupo 1149082" transform="translate(1125.333 604)">
        <rect id="Rect치ngulo_403520" data-name="Rect치ngulo 403520" width="295" height="180" fill="#e2e2e2"/>
      </g>
    </g>
    <g id="Enmascarar_grupo_1098800" data-name="Enmascarar grupo 1098800" clip-path="url(#clip-path)">
      <g id="Grupo_1162387" data-name="Grupo 1162387" transform="translate(12005.213 9442.277)">
        <g id="Grupo_1162386" data-name="Grupo 1162386" transform="translate(-10894.506 -9156.537)">
          <path id="Trazado_990794" data-name="Trazado 990794" d="M286.981,353.029c0,3.788-63.182,6.858-141.122,6.858S4.737,356.817,4.737,353.029s63.182-6.857,141.122-6.857,141.122,3.07,141.122,6.857" transform="translate(14.699 -209.849)" fill="#d6beb9"/>
          <path id="Trazado_990795" data-name="Trazado 990795" d="M519.848,109.033a4.308,4.308,0,0,0-4.924,1.478c-1.891,2.633-1.669,14-1.669,14l8.218.466-.486-12.58Z" transform="translate(-311.13 -65.942)" fill="#fcad4f"/>
          <path id="Trazado_990796" data-name="Trazado 990796" d="M506.572,191.311l-1.857,5.807,2.783.327,1.108-4.866Z" transform="translate(-305.957 -115.972)" fill="#232e56"/>
          <path id="Trazado_990797" data-name="Trazado 990797" d="M548.273,312.774l-1.468,7.708-5.051,2.834-4.663-1.587.747-8.955Z" transform="translate(-325.584 -189.603)" fill="#ed7d5f"/>
          <path id="Trazado_990798" data-name="Trazado 990798" d="M543.965,322.842h-10.9l-1.837,4.99,12.022-1.247Z" transform="translate(-322.031 -195.706)" fill="#5e5edd"/>
          <path id="Trazado_990799" data-name="Trazado 990799" d="M533.857,331.249l2.87,5.482,1.816,3.472s17.907.68,18.815,0a2.462,2.462,0,0,0,0-3.4c-.908-.792-11.562-6.573-11.562-6.573s0-1.588-.663-1.741-5.08,1.741-5.08,1.741l-5.152-1.748Z" transform="translate(-323.623 -199.123)" fill="#e55348"/>
          <path id="Trazado_990800" data-name="Trazado 990800" d="M541.145,349.409l1.816,3.472s17.907.681,18.815,0a2.462,2.462,0,0,0,0-3.4s-12.29.908-19.125,0a7.06,7.06,0,0,0-1.506-.071" transform="translate(-328.042 -211.802)" fill="#f4e7e6"/>
          <path id="Trazado_990801" data-name="Trazado 990801" d="M524.451,315.173l-1.163,8.01h-8.6l-.363-8.01Z" transform="translate(-311.781 -191.058)" fill="#f48c6c"/>
          <path id="Trazado_990802" data-name="Trazado 990802" d="M523.567,329.348l.582-4h-9.367l.181,4Z" transform="translate(-312.06 -197.223)" fill="#6e69e2"/>
          <path id="Trazado_990803" data-name="Trazado 990803" d="M508.53,339.928c0,.983.6,2.343,2.72,2.8s12.666-.358,13.01-.736a2.307,2.307,0,0,0,.882-1.362,3.383,3.383,0,0,0-.537-2.18l-4.53-6.906a4.652,4.652,0,0,0-3.676-1.058,8.277,8.277,0,0,0-3.645,1.058s-1.126-1.139-1.656-.758c-.439.316-1.915,5.723-2.408,8.121a6.705,6.705,0,0,0-.16,1.027" transform="translate(-308.27 -200.322)" fill="#ef6354"/>
          <path id="Trazado_990804" data-name="Trazado 990804" d="M527.079,191.348a198,198,0,0,1,4.384,20.993c1.309,9.625,1.384,26.549.526,27.13s-10.275,0-10.275,0a25.788,25.788,0,0,1-9.252,1.169,33.5,33.5,0,0,1-7.709-1.133s.66-42.757,3.872-49.363c2.514-5.169,18.455,1.205,18.455,1.205" transform="translate(-305.98 -114.038)" fill="#fcad4f"/>
          <path id="Trazado_990805" data-name="Trazado 990805" d="M531.115,159.606v2.464a46.025,46.025,0,0,1-11.373,1.063c-5.127-.368-7.042-1.268-7.042-1.268l-2.179-12.513,6.549-9.217,5.356-.434,13.059,9.467-3.189,8.649Z" transform="translate(-309.477 -84.687)" fill="#6e69e2"/>
          <path id="Trazado_990806" data-name="Trazado 990806" d="M535.572,164.591,533.148,153.3h-8.427l1.9,11.953Z" transform="translate(-318.086 -92.934)" fill="#fff"/>
          <path id="Trazado_990807" data-name="Trazado 990807" d="M528.327,177.106a2.869,2.869,0,0,0,2.609,0,44.506,44.506,0,0,0,5.436-12.373c.029-.11.055-.221.081-.331a30.863,30.863,0,0,0,.788-4.413c.015-.1.022-.195.033-.294.166-1.785.265-3.272.309-4.509H536.21l-.4-1.88h-.983c-.037.589-.085,1.218-.151,1.88-.121,1.226-.3,2.562-.552,3.957a38.19,38.19,0,0,1-1.546,5.87q-.111.32-.232.64c-3.11,8.182-4.633,9.161-4.633,9.161a1.811,1.811,0,0,0,.618,2.293" transform="translate(-319.786 -92.934)" fill="#2d386b"/>
          <path id="Trazado_990808" data-name="Trazado 990808" d="M527.156,153.305l1.9,11.954,3.294-.247,3.8-.28,1.859-.14-.122-.559-.868-4.045-1.031-4.8-.4-1.881Z" transform="translate(-319.561 -92.934)" fill="#ef6354"/>
          <path id="Trazado_990809" data-name="Trazado 990809" d="M548.646,165.933l-2.127-7.851h-7.21l2.038,9.468Z" transform="translate(-326.928 -95.829)" fill="#ebdad3"/>
          <path id="Trazado_990810" data-name="Trazado 990810" d="M542.109,158.081l.85,3.956,1.185,5.513,1.148-.254,1.656-.368,4.5-1-2.127-7.85Z" transform="translate(-328.626 -95.828)" fill="#fff"/>
          <path id="Trazado_990811" data-name="Trazado 990811" d="M552.53,174.68s-2.7-.28-3.277-.28-1.343,1.344-1.343,1.344l-1.715.5,1.961,5.516s4.08.53,5.766-1.431c.633-.736-1.392-5.643-1.392-5.643" transform="translate(-331.103 -105.721)" fill="#ed7d5f"/>
          <path id="Trazado_990812" data-name="Trazado 990812" d="M540.753,140.325a18.348,18.348,0,0,1,10.32,4.457c5.193,4.335,7.443,8.628,6.379,12.39s-7.729,3.926-7.729,3.926l-1.963-7.77,5.132-3.353Z" transform="translate(-327.804 -85.065)" fill="#6e69e2"/>
          <path id="Trazado_990813" data-name="Trazado 990813" d="M532.666,176.565a16.386,16.386,0,0,1,2.372-1.055,4.474,4.474,0,0,1,1.29-.156l.246,1.145a22.319,22.319,0,0,1,4.352,1.457c1.8.9,1.472,1.717,1.472,1.717s1.145.736.654,1.227-2.371,0-2.371,0,2.371.9,1.39,1.431a7.661,7.661,0,0,1-3.143.368s-4.708.818-6.262-.818,0-5.316,0-5.316" transform="translate(-322.482 -106.297)" fill="#f48f73"/>
          <path id="Trazado_990814" data-name="Trazado 990814" d="M507.667,140.325s-8.874.327-13.331,7.483-.94,13.617,6.052,14.926,10.632-.614,10.632-.614l-1.666-8.137-3.586-.532-3.506-4.274Z" transform="translate(-298.465 -85.065)" fill="#6e69e2"/>
          <path id="Trazado_990815" data-name="Trazado 990815" d="M546.053,145.934h.983l.4,1.881h1.373a23.5,23.5,0,0,0-.239-5.38,1.3,1.3,0,0,0-1.028-1.01l-1.438-.279a42.6,42.6,0,0,1-.055,4.788" transform="translate(-331.016 -85.562)" fill="#2d386b"/>
          <path id="Trazado_990816" data-name="Trazado 990816" d="M550.338,176.981a.138.138,0,0,1-.026-.274l2.576-.491a.137.137,0,0,1,.161.11.139.139,0,0,1-.11.161l-2.576.491-.026,0" transform="translate(-333.53 -106.821)"/>
          <path id="Trazado_990817" data-name="Trazado 990817" d="M541.233,177.538a.137.137,0,0,1-.039-.006l-1.435-.424a.138.138,0,0,1,.078-.265l1.435.425a.138.138,0,0,1-.039.27" transform="translate(-327.141 -107.198)"/>
          <path id="Trazado_990818" data-name="Trazado 990818" d="M552.8,184.431a.134.134,0,0,1-.039-.005l-3.349-.968a.138.138,0,0,1,.077-.265l3.349.968a.138.138,0,0,1-.039.271" transform="translate(-332.992 -111.048)"/>
          <path id="Trazado_990819" data-name="Trazado 990819" d="M550.967,188.48a.137.137,0,0,1-.039-.006l-2.289-.671a.138.138,0,0,1,.078-.265l2.29.671a.138.138,0,0,1-.039.271" transform="translate(-332.524 -113.683)"/>
          <path id="Trazado_990820" data-name="Trazado 990820" d="M514.395,172.1a.125.125,0,0,1-.027,0,52.87,52.87,0,0,0-7.643-.958.138.138,0,0,1,0-.276,53.078,53.078,0,0,1,7.7.964.138.138,0,0,1-.027.273" transform="translate(-307.093 -103.579)" fill="#fff"/>
          <path id="Trazado_990821" data-name="Trazado 990821" d="M511.134,168.605a.137.137,0,0,1-.052-.01c-.729-.3-3.11-1.333-3.143-1.992a.345.345,0,0,1,.215-.33c1-.53,2.878,1.837,3.089,2.109a.138.138,0,0,1-.109.223m-2.651-2.135a.414.414,0,0,0-.2.046c-.071.038-.07.064-.07.073.015.29,1.2.97,2.451,1.526-.684-.786-1.622-1.645-2.182-1.645" transform="translate(-307.911 -100.747)" fill="#fff"/>
          <path id="Trazado_990822" data-name="Trazado 990822" d="M563.3,166.833a.138.138,0,0,1-.1-.234,8.411,8.411,0,0,1,3.245-2.114.138.138,0,1,1,.065.268,8.29,8.29,0,0,0-3.11,2.038.139.139,0,0,1-.1.042" transform="translate(-341.386 -99.708)" fill="#fff"/>
          <path id="Trazado_990823" data-name="Trazado 990823" d="M567.332,163.568a.143.143,0,0,1-.061-.014.138.138,0,0,1-.075-.142c.056-.418.274-1.795.732-1.98a.337.337,0,0,1,.344.063.47.47,0,0,1,.179.355c.034.614-.913,1.571-1.02,1.678a.141.141,0,0,1-.1.04m.713-1.883c-.187.073-.38.673-.5,1.313a2.268,2.268,0,0,0,.632-1.133.2.2,0,0,0-.075-.154.094.094,0,0,0-.054-.026" transform="translate(-343.832 -97.846)" fill="#fff"/>
          <path id="Trazado_990824" data-name="Trazado 990824" d="M547.74,251.757a.13.13,0,0,1-.03,0,.137.137,0,0,1-.1-.165c2.16-9.645,1.818-39.24,1.814-39.538a.137.137,0,0,1,.082-.128l3.354-1.492a.138.138,0,1,1,.112.252l-3.271,1.456c.02,1.83.284,30.1-1.822,39.51a.138.138,0,0,1-.135.108" transform="translate(-331.956 -127.556)" fill="#fff"/>
          <path id="Trazado_990825" data-name="Trazado 990825" d="M513.867,308.118a35.459,35.459,0,0,1-8.627-.892.138.138,0,1,1,.07-.267c5.9,1.566,14.87.574,14.961.563a.141.141,0,0,1,.152.122.139.139,0,0,1-.121.153c-.051.006-2.9.321-6.435.321" transform="translate(-306.214 -186.076)" fill="#fff"/>
          <path id="Trazado_990826" data-name="Trazado 990826" d="M530.154,211.632s.608,9.4.148,9.895-2.755.655-2.755.655l-1.309-4.825,2.787-7.1Z" transform="translate(-319.004 -127.459)" fill="#232e56"/>
          <path id="Trazado_990827" data-name="Trazado 990827" d="M558.761,309.248a85.457,85.457,0,0,1-9.523-.577.138.138,0,0,1,.037-.274,85.119,85.119,0,0,0,9.486.575.138.138,0,1,1,0,.276" transform="translate(-332.874 -186.949)" fill="#fff"/>
          <path id="Trazado_990828" data-name="Trazado 990828" d="M511.821,204.825s-.8,6.584-1.213,6.584-14.23-2.535-14.558-2.863.818-7.115,1.391-7.279,13.494,2.208,13.494,2.208Z" transform="translate(-300.67 -122.003)" fill="#2d386b"/>
          <path id="Trazado_990829" data-name="Trazado 990829" d="M496.877,218.1s-1.261,5.725-.957,5.97,12.642,2.863,13.22,2.863,1.477-7.116,1.477-7.116Z" transform="translate(-300.597 -132.213)" fill="#2d386b"/>
          <path id="Trazado_990830" data-name="Trazado 990830" d="M508.819,222.364a.129.129,0,0,1-.027,0L498.6,220.308a.138.138,0,1,1,.055-.271l10.192,2.054a.138.138,0,0,1-.027.273" transform="translate(-302.183 -133.384)" fill="#6e69e2"/>
          <path id="Trazado_990831" data-name="Trazado 990831" d="M530.906,209.89a.785.785,0,1,1,.785-.785.786.786,0,0,1-.785.785m0-1.294a.509.509,0,1,0,.509.51.51.51,0,0,0-.509-.51" transform="translate(-321.358 -126.284)" fill="#6424c9"/>
          <path id="Trazado_990832" data-name="Trazado 990832" d="M508.53,352.229c0,.983.6,2.343,2.72,2.8s12.463.337,13.4-.613a2.817,2.817,0,0,0,.49-1.485,3.383,3.383,0,0,0-.537-2.18s-.708,1.129-7.468,1.364a24.85,24.85,0,0,1-8.447-.908,6.706,6.706,0,0,0-.16,1.027" transform="translate(-308.27 -212.622)" fill="#fff"/>
          <path id="Trazado_990833" data-name="Trazado 990833" d="M523.256,342.965a.138.138,0,0,1-.039-.271,12.234,12.234,0,0,1,5.523,0,.138.138,0,1,1-.065.268,12.173,12.173,0,0,0-5.38,0,.146.146,0,0,1-.038.005" transform="translate(-317.114 -207.541)" fill="#fcad4f"/>
          <path id="Trazado_990834" data-name="Trazado 990834" d="M522.188,338.952a.138.138,0,0,1-.039-.271,12.235,12.235,0,0,1,5.523,0,.138.138,0,1,1-.065.268,12.175,12.175,0,0,0-5.38,0,.147.147,0,0,1-.039.005" transform="translate(-316.466 -205.108)" fill="#fcad4f"/>
          <path id="Trazado_990835" data-name="Trazado 990835" d="M569.128,339.469H564.8a.138.138,0,1,1,0-.276h4.329a.138.138,0,1,1,0,.276" transform="translate(-342.297 -205.619)" fill="#fcad4f"/>
          <path id="Trazado_990836" data-name="Trazado 990836" d="M561.544,335.062a.138.138,0,0,1-.014-.275l2.374-.245a.136.136,0,0,1,.152.123.138.138,0,0,1-.123.152l-2.374.245h-.014" transform="translate(-340.324 -202.798)" fill="#fcad4f"/>
          <path id="Trazado_990837" data-name="Trazado 990837" d="M531.164,131.548l-.111,3.575s.574.8,2.619,1.041c1.523.182,2.034-.5,2.034-.5l-.249-2.976-3.675-.978Z" transform="translate(-321.924 -79.745)" fill="#f48c6c"/>
          <path id="Trazado_990838" data-name="Trazado 990838" d="M532.9,131.966a1.259,1.259,0,0,0,.091.357c.727,1.858,2.859,2.326,3.738,2.439l-.154-1.818Z" transform="translate(-323.045 -79.998)"/>
          <path id="Trazado_990839" data-name="Trazado 990839" d="M532.947,111.095s1.7,4.659.891,7.188-3.019,2.013-4.332,1.45a4.471,4.471,0,0,1-1.894-1.451,1.841,1.841,0,0,1-2.047-.876,2.031,2.031,0,0,1,.527-2.908,1.9,1.9,0,0,1,1.55.3l-.6-1.36s3.1-6.6,5.909-2.341" transform="translate(-318.372 -66.478)" fill="#f48c6c"/>
          <path id="Trazado_990840" data-name="Trazado 990840" d="M539.662,129.356a1.341,1.341,0,0,1-1.046-.583.138.138,0,1,1,.215-.173c.5.626.984.464,1,.457a.138.138,0,0,1,.1.258.8.8,0,0,1-.271.041" transform="translate(-326.49 -77.926)"/>
          <path id="Trazado_990841" data-name="Trazado 990841" d="M528.539,125.671a.138.138,0,0,1-.109-.054l-1.344-1.747a.138.138,0,1,1,.218-.169l1.343,1.748a.138.138,0,0,1-.024.193.14.14,0,0,1-.084.029" transform="translate(-319.501 -74.955)"/>
          <path id="Trazado_990842" data-name="Trazado 990842" d="M527.93,126.973h-.9a.138.138,0,0,1,0-.276h.9a.138.138,0,1,1,0,.276" transform="translate(-319.399 -76.803)"/>
          <path id="Trazado_990843" data-name="Trazado 990843" d="M528.347,113.235a3.863,3.863,0,0,0,2.568-1.35,10.947,10.947,0,0,0,1.546-2.593,1.894,1.894,0,0,1,1.031.707c.286.413.617,1.007.617,1.007a4.51,4.51,0,0,0-.724-2.8c-.846-.953-1.624-.677-1.624-.677a3.337,3.337,0,0,0-3.966.477c-2.07,1.737-1.3,5.116-1.3,5.116a2.451,2.451,0,0,1,1.847.111" transform="translate(-319.078 -64.917)" fill="#fcad4f"/>
          <path id="Trazado_990844" data-name="Trazado 990844" d="M544.816,117.2a.132.132,0,0,1-.03,0l-.747-.168a.138.138,0,0,1,.061-.269l.746.169a.138.138,0,0,1-.03.273" transform="translate(-329.73 -70.777)"/>
          <path id="Trazado_990845" data-name="Trazado 990845" d="M538.723,117.258a.138.138,0,0,1-.031-.273l.968-.227a.138.138,0,0,1,.063.269l-.968.227a.146.146,0,0,1-.032,0" transform="translate(-326.489 -70.777)"/>
          <path id="Trazado_990846" data-name="Trazado 990846" d="M531.851,142.9c-.024,0-.049,0-.073,0-.85-.085-1.05-2.328-1.082-2.776a.137.137,0,0,1,.084-.137.139.139,0,0,1,.157.035,4.219,4.219,0,0,0,2.219,1.066,2.371,2.371,0,0,0,2.251-.526.142.142,0,0,1,.113-.046.138.138,0,0,1,.105.062c.078.119.754,1.176.552,1.8a.307.307,0,0,1-.207.206c-.481.152-1.722-.717-2.158-1.037-.3.346-1.239,1.355-1.961,1.355M531,140.451c.108.974.4,2.134.8,2.174.517.054,1.344-.749,1.75-1.2a3.768,3.768,0,0,1-.454-.063,4.951,4.951,0,0,1-2.1-.907m3.1.966c.656.467,1.531.986,1.785.9a.035.035,0,0,0,.028-.028,2.364,2.364,0,0,0-.433-1.425,2.508,2.508,0,0,1-1.38.548" transform="translate(-321.707 -84.853)" fill="#fff"/>
          <path id="Trazado_990847" data-name="Trazado 990847" d="M543.493,125.1a.136.136,0,0,1-.035,0,.138.138,0,0,1-.1-.168,1.988,1.988,0,0,0-.379-1.64.138.138,0,1,1,.211-.178,2.243,2.243,0,0,1,.436,1.887.138.138,0,0,1-.133.1" transform="translate(-329.133 -74.597)"/>
          <path id="Trazado_990848" data-name="Trazado 990848" d="M545.372,121.387a.138.138,0,0,1-.134-.106l-.2-.836a.139.139,0,0,1,.033-.126l.272-.291a.138.138,0,1,1,.2.188l-.221.238.181.764a.138.138,0,0,1-.1.166.129.129,0,0,1-.032,0" transform="translate(-330.4 -72.734)"/>
          <path id="Trazado_990849" data-name="Trazado 990849" d="M539.7,121.365a.138.138,0,0,1-.136-.114l-.15-.846a.137.137,0,0,1,.043-.126l.4-.361a.138.138,0,0,1,.186.2l-.339.31.137.771a.138.138,0,0,1-.111.16l-.024,0" transform="translate(-326.993 -72.672)"/>
          <path id="Trazado_990893" data-name="Trazado 990893" d="M321.844,112.923a2.423,2.423,0,1,1-2.481-2.363,2.423,2.423,0,0,1,2.481,2.363" transform="translate(-192.165 -67.021)"/>
          <path id="Trazado_990894" data-name="Trazado 990894" d="M328.258,121.62a2,2,0,1,1-2.045-1.948,2,2,0,0,1,2.045,1.948" transform="translate(-196.569 -72.544)"/>
          <path id="Trazado_990895" data-name="Trazado 990895" d="M329.606,130.662a2,2,0,1,1-2.045-1.948,2,2,0,0,1,2.045,1.948" transform="translate(-197.385 -78.026)"/>
          <path id="Trazado_990896" data-name="Trazado 990896" d="M329.039,139.365a1.628,1.628,0,1,1-1.667-1.588,1.628,1.628,0,0,1,1.667,1.588" transform="translate(-197.49 -83.52)"/>
          <path id="Trazado_990897" data-name="Trazado 990897" d="M296.491,164.814l13.486-1.025a4.348,4.348,0,0,0,4.006-4.665l-1.392-18.308a4.347,4.347,0,0,0-4.665-4.005l-13.487,1.025a4.348,4.348,0,0,0-4.005,4.665l1.392,18.308a4.348,4.348,0,0,0,4.665,4.005" transform="translate(-176.053 -82.927)" fill="#6e69e2"/>
          <path id="Trazado_990898" data-name="Trazado 990898" d="M307.969,332.686l-.2,4.648-8.466,1.871L298.877,336l.668-4.172Z" transform="translate(-181.179 -201.153)" fill="#f48c6c"/>
          <path id="Trazado_990899" data-name="Trazado 990899" d="M288.536,202.686s-2.181,15.612-2.757,29.158-.952,23.331-.952,23.331l16.088.506.677-26.9-.369-24.516Z" transform="translate(-172.662 -122.868)" fill="#2d386b"/>
          <path id="Trazado_990900" data-name="Trazado 990900" d="M353.948,233.169l-3.152,3.315,6.842,6.628,3.3-3.5Z" transform="translate(-212.652 -141.347)" fill="#f48c6c"/>
          <path id="Trazado_990901" data-name="Trazado 990901" d="M323.246,197.448s2.711,8.769,3.669,13.159,2.392,10.272,2.392,10.272,5.344,13.337-4.4,15.248c-12.082,2.369-12.63-10.521-12.63-10.521L313.5,198.46Z" transform="translate(-189.301 -119.693)" fill="#2d386b"/>
          <path id="Trazado_990902" data-name="Trazado 990902" d="M284.426,347.343a1.2,1.2,0,0,0,1.187-1.148c.1-2.528.667-8.182.176-8.2-.627-.026-6.99,1.328-6.99,1.328s-.037-3.511-2.66-2.989c-2.014.4-4.415,2.534-5.423,3.5a2.278,2.278,0,0,1-1.155.6c-1.874.359-7.043,1.579-7.221,4.148-.217,3.14,1.141,2.836,1.769,2.862.538.022,15.961-.074,20.318-.1" transform="translate(-159.016 -203.851)" fill="#6e69e2"/>
          <path id="Trazado_990903" data-name="Trazado 990903" d="M363.6,218.39a1.168,1.168,0,0,0-1.618.005c-1.865,1.72-6.058,6.441-5.74,6.79.406.445,4.7,3.072,4.7,3.072s-1.7,2.155.441,3.571c1.647,1.087,4.784,1.209,6.155,1.208a2.152,2.152,0,0,1,1.207.362c1.523,1.022,5.884,3.674,7.828,1.975,2.376-2.076,1.242-2.785.836-3.23-.349-.382-10.847-10.808-13.813-13.753" transform="translate(-215.945 -132.192)" fill="#6e69e2"/>
          <path id="Trazado_990904" data-name="Trazado 990904" d="M357.589,246.156l-9.886-7.012-2.44,3.981,2.105,17.276s2.592-.461,10.22-14.245" transform="translate(-209.298 -144.969)" fill="#2d386b"/>
          <path id="Trazado_990905" data-name="Trazado 990905" d="M309.283,248.833a.141.141,0,0,1-.079-.024c-.113-.074-2.788-1.9-4.783-9.212-1.888-6.915-1.872-17.021-1.864-18.1l-3.961-1.8a.144.144,0,0,1,.119-.262l4.046,1.843a.143.143,0,0,1,.084.133c0,.108-.122,10.879,1.853,18.116,1.967,7.205,4.637,9.03,4.664,9.048a.144.144,0,0,1,.041.2.145.145,0,0,1-.12.065" transform="translate(-180.957 -133.01)" fill="#fcad4f"/>
          <path id="Trazado_990906" data-name="Trazado 990906" d="M347.848,244.9a.425.425,0,0,1-.4-.193c-.4-.665,1.394-3.012,1.756-3.476a.144.144,0,0,1,.256.079c.009.134.208,3.3-1.45,3.575a.99.99,0,0,1-.164.015m1.337-3.168c-.8,1.075-1.685,2.5-1.489,2.829.04.068.186.055.268.042,1.09-.183,1.219-2.037,1.221-2.87" transform="translate(-210.589 -146.199)" fill="#fcad4f"/>
          <path id="Trazado_990907" data-name="Trazado 990907" d="M333.152,211.126c-.042,0-3.144-.28-3.978-4.394a.144.144,0,0,1,.282-.057c.79,3.892,3.589,4.155,3.707,4.164a.144.144,0,0,1-.01.287" transform="translate(-199.543 -125.216)" fill="#fcad4f"/>
          <path id="Trazado_990908" data-name="Trazado 990908" d="M276.524,163.672s-7.225,8.607-2.433,11.864c5.61,3.813,10.735-8.078,10.735-8.078Z" transform="translate(-165.159 -99.218)" fill="#f48c6c"/>
          <path id="Trazado_990909" data-name="Trazado 990909" d="M278.9,149.837s3.247-9.259,10.175-11.066c5.144-1.341-1.722,13.613-1.722,13.613Z" transform="translate(-169.07 -84.071)" fill="#fcad4f"/>
          <path id="Trazado_990910" data-name="Trazado 990910" d="M291.48,164.047s-2.593-18.448,2.188-23.974c3.7-4.275,11.8-1.973,11.8-1.973l5.863,24.171s-12.24,3.772-19.853,1.776" transform="translate(-176.269 -83.341)" fill="#fcad4f"/>
          <path id="Trazado_990911" data-name="Trazado 990911" d="M310.108,128.166l.1,4.112a3.2,3.2,0,0,1-2.526,1.352,1.976,1.976,0,0,1-2-.591l.156-3.212,3.539-1.027Z" transform="translate(-185.307 -77.694)" fill="#f48c6c"/>
          <path id="Trazado_990912" data-name="Trazado 990912" d="M309.484,129.776a1.256,1.256,0,0,1-.076.357c-.645,1.862-2.7,2.358-3.551,2.483l.089-1.813Z" transform="translate(-185.41 -78.67)"/>
          <path id="Trazado_990913" data-name="Trazado 990913" d="M300.886,109.121s-1.657,4.691-.756,7.194,3.2,1.932,4.556,1.337a4.626,4.626,0,0,0,1.941-1.5,2.091,2.091,0,0,0,1.5-3.814,2.05,2.05,0,0,0-1.611.336l.6-1.372s-3.4-6.5-6.223-2.186" transform="translate(-181.776 -65.251)" fill="#f48c6c"/>
          <path id="Trazado_990914" data-name="Trazado 990914" d="M326.265,139.053a15.8,15.8,0,0,1,5.072,3.78,48.6,48.6,0,0,1,4.85,7.007L325.082,157l.3-10.656a23.247,23.247,0,0,1,.528-4.637Z" transform="translate(-197.064 -84.294)" fill="#fcad4f"/>
          <path id="Trazado_990915" data-name="Trazado 990915" d="M306.987,118.786a.137.137,0,0,1-.1-.235,1.085,1.085,0,0,1,.722-.322.6.6,0,0,1,.445.258.137.137,0,1,1-.219.166.332.332,0,0,0-.245-.149.833.833,0,0,0-.509.242.137.137,0,0,1-.1.04" transform="translate(-186.012 -71.669)"/>
          <path id="Trazado_990916" data-name="Trazado 990916" d="M301.541,118.762a.139.139,0,0,1-.118-.066.482.482,0,0,0-.643-.2.137.137,0,0,1-.127-.244.749.749,0,0,1,1.005.3.138.138,0,0,1-.118.208" transform="translate(-182.211 -71.629)"/>
          <path id="Trazado_990917" data-name="Trazado 990917" d="M303.669,121.8a.138.138,0,0,1-.135-.114,4.556,4.556,0,0,1,.283-2.064.138.138,0,0,1,.256.1,4.375,4.375,0,0,0-.269,1.917.138.138,0,0,1-.112.159l-.024,0" transform="translate(-183.98 -72.461)"/>
          <path id="Trazado_990918" data-name="Trazado 990918" d="M306.818,126.5a.138.138,0,0,1-.041-.269c.008,0,.811-.264,1-.871a.138.138,0,0,1,.263.081,1.891,1.891,0,0,1-1.177,1.052.126.126,0,0,1-.041.007" transform="translate(-185.91 -75.932)"/>
          <path id="Trazado_990919" data-name="Trazado 990919" d="M317.266,122.875a.137.137,0,0,1-.1-.237l1.371-1.317a.138.138,0,0,1,.191.2l-1.371,1.317a.137.137,0,0,1-.1.038" transform="translate(-192.243 -73.521)"/>
          <path id="Trazado_990920" data-name="Trazado 990920" d="M319.532,124.018a.134.134,0,0,1-.05-.01l-.952-.376a.137.137,0,1,1,.1-.256l.952.376a.137.137,0,0,1-.05.265" transform="translate(-193.039 -74.785)"/>
          <path id="Trazado_990921" data-name="Trazado 990921" d="M307.388,111.064a4.113,4.113,0,0,1-2.713-1.282A10.8,10.8,0,0,1,303,107.235a1.991,1.991,0,0,0-1.059.732c-.289.419-.62,1.02-.62,1.02a4.343,4.343,0,0,1,.688-2.81,1.7,1.7,0,0,1,1.678-.717,3.61,3.61,0,0,1,4.151.375c2.2,1.681,1.476,5.071,1.476,5.071a2.666,2.666,0,0,0-1.925.158" transform="translate(-182.651 -63.637)"/>
          <path id="Trazado_990922" data-name="Trazado 990922" d="M322.319,177.1a.244.244,0,0,1-.244-.241l-.052-4.241a.244.244,0,1,1,.488-.006l.052,4.241a.244.244,0,0,1-.241.247Z" transform="translate(-195.211 -104.492)" fill="#fff"/>
          <path id="Trazado_990923" data-name="Trazado 990923" d="M320.855,153.376s-.348-6.9-.426-9.425-.077-6.286-.077-6.286a6.287,6.287,0,0,1,2.136.168l.74.287a82.024,82.024,0,0,0,.9,14.875c1.2,6.486-3.276.382-3.276.382" transform="translate(-194.197 -83.437)" fill="#6e69e2"/>
          <path id="Trazado_990924" data-name="Trazado 990924" d="M287,153.55s.8-4.427,1.49-6.857A38.868,38.868,0,0,1,291,140.1a7.031,7.031,0,0,1,1.183-.734,3.12,3.12,0,0,1,1.8-.479s-3.433,9.77-4.016,14.344c-.063.492-2.97.322-2.97.322" transform="translate(-173.979 -84.185)" fill="#6e69e2"/>
          <path id="Trazado_990925" data-name="Trazado 990925" d="M329.083,177.117s7.606,2.643,10.062.415-1.018-10.411-1.018-10.411l-7.663,4.976Z" transform="translate(-199.489 -101.309)" fill="#f48c6c"/>
          <path id="Trazado_990926" data-name="Trazado 990926" d="M322.518,178.483a4.047,4.047,0,0,0-1.825-3.9c-.258-.167-.5-.32-.709-.436-.884-.5-4.613.623-4.613.623s-2.675.821-2.136,1.6,1.739.553,2.052.8-1.071,3.14-.517,3.617c.889.767,4.357,1.239,6.1.6l.052-.019c1.024-.39,1.44-1.665,1.6-2.892" transform="translate(-189.839 -105.489)" fill="#f48c6c"/>
          <path id="Trazado_990927" data-name="Trazado 990927" d="M319.672,182.107l-1.344-.146a.138.138,0,0,1-.122-.152.141.141,0,0,1,.152-.122l1.33.146a.137.137,0,0,1-.015.274" transform="translate(-192.896 -110.138)"/>
          <path id="Trazado_990928" data-name="Trazado 990928" d="M324.219,175.084a.13.13,0,0,1-.027,0l-1.521-.308a.137.137,0,1,1,.055-.269l1.521.308a.138.138,0,0,1-.027.273" transform="translate(-195.535 -105.782)"/>
          <path id="Trazado_990929" data-name="Trazado 990929" d="M279.208,178.483a4.047,4.047,0,0,1,1.825-3.9c.258-.167.5-.32.709-.436.884-.5,4.613.623,4.613.623s2.675.821,2.136,1.6-1.739.553-2.052.8,1.071,3.14.517,3.617c-.889.767-4.357,1.239-6.1.6l-.052-.019c-1.024-.39-1.44-1.665-1.6-2.892" transform="translate(-169.236 -105.489)" fill="#f48c6c"/>
          <path id="Trazado_990930" data-name="Trazado 990930" d="M294.033,182.106a.137.137,0,0,1-.015-.274l1.329-.146a.137.137,0,1,1,.03.273l-1.329.146h-.015" transform="translate(-178.159 -110.137)"/>
          <path id="Trazado_990931" data-name="Trazado 990931" d="M289.192,175.084a.138.138,0,0,1-.027-.272l1.521-.308a.136.136,0,0,1,.163.108.138.138,0,0,1-.108.162l-1.522.308a.127.127,0,0,1-.027,0" transform="translate(-175.224 -105.782)"/>
          <path id="Trazado_990932" data-name="Trazado 990932" d="M300.825,116.111a.138.138,0,0,1-.022-.273l.781-.125a.133.133,0,0,1,.158.114.138.138,0,0,1-.114.158l-.781.125-.022,0" transform="translate(-182.277 -70.144)"/>
          <path id="Trazado_990933" data-name="Trazado 990933" d="M307.773,116.242a.144.144,0,0,1-.036,0l-.955-.256a.137.137,0,1,1,.072-.265l.955.256a.137.137,0,0,1-.036.27" transform="translate(-185.909 -70.145)"/>
          <path id="Trazado_990934" data-name="Trazado 990934" d="M307.1,139.783a2.886,2.886,0,0,1-1.711-.521.138.138,0,0,1,.175-.213c.072.059,1.794,1.415,4.344-.76a.137.137,0,1,1,.178.209,4.612,4.612,0,0,1-2.987,1.284" transform="translate(-185.095 -83.811)" fill="#fff"/>
          <path id="Trazado_990935" data-name="Trazado 990935" d="M401.2,314.651a.585.585,0,0,1-.56-.415l-9.068-29.767-11.318,29.789a.585.585,0,0,1-1.094-.415l11.925-31.39a.575.575,0,0,1,.567-.377.586.586,0,0,1,.54.414l9.567,31.405a.586.586,0,0,1-.56.756" transform="translate(-229.823 -170.993)" fill="#c1907a"/>
          <path id="Trazado_990936" data-name="Trazado 990936" d="M370.121,207.79s-10.759,4.263-8.739,19.883c1.854,14.347,15.009,18.923,26.137,15.547s9.273-13.113,9.273-13.113Z" transform="translate(-218.916 -125.962)" fill="#cea18a"/>
          <path id="Trazado_990937" data-name="Trazado 990937" d="M385.771,260.286c-.178,1.42,3.365,3.031,7.914,3.6s8.379-.121,8.557-1.541-3.365-3.032-7.914-3.6-8.379.121-8.557,1.541" transform="translate(-233.85 -156.731)" fill="#c1907a"/>
          <path id="Trazado_990938" data-name="Trazado 990938" d="M370,268.011a.143.143,0,0,1-.1-.039c-2.838-2.625-3.364-7.582-3.386-7.792a.145.145,0,0,1,.13-.159.142.142,0,0,1,.159.129c0,.05.538,5.059,3.294,7.608a.145.145,0,0,1-.1.252" transform="translate(-222.179 -157.624)" fill="#eac89f"/>
          <path id="Trazado_990939" data-name="Trazado 990939" d="M394.954,198.828l-11.628,1.423a3.924,3.924,0,0,1-4.371-3.418l-2.087-17.056a3.924,3.924,0,0,1,3.418-4.371l11.628-1.423a3.924,3.924,0,0,1,4.371,3.418l2.087,17.056a3.924,3.924,0,0,1-3.418,4.371" transform="translate(-228.439 -105.45)" fill="#fcad4f"/>
          <path id="Trazado_990940" data-name="Trazado 990940" d="M461.721,138.721a6.72,6.72,0,0,1-1.563,3.745,8.494,8.494,0,0,1-2.661,2.374l-2.433-1.09,1.142-8.818Z" transform="translate(-275.859 -81.795)" fill="#f79674"/>
          <path id="Trazado_990941" data-name="Trazado 990941" d="M458.364,113.76l9.259,9.17-6.193,5.594-9.035-9.319Z" transform="translate(-274.241 -68.961)" fill="#dfbcac"/>
          <path id="Trazado_990942" data-name="Trazado 990942" d="M455.314,116.519l9.259,9.17-6.193,5.594-9.035-9.319Z" transform="translate(-272.392 -70.633)" fill="#fff"/>
          <path id="Trazado_990943" data-name="Trazado 990943" d="M452.722,141.249s-.09-5.249.025-6.135,1.975-3.542,2.765-3.355-.328,2.655-.328,2.655,1.22,2.877,1.057,4.324a3.836,3.836,0,0,1-1.47,2.384Z" transform="translate(-274.419 -79.866)" fill="#f79674"/>
          <path id="Trazado_990944" data-name="Trazado 990944" d="M459.372,144.648a.147.147,0,0,1-.074-.02.145.145,0,0,1-.05-.2c1.265-2.126-.412-4.571-.429-4.6a.145.145,0,1,1,.237-.166c.018.026,1.8,2.621.44,4.91a.145.145,0,0,1-.125.071" transform="translate(-278.12 -84.629)"/>
          <path id="Trazado_990945" data-name="Trazado 990945" d="M393.942,160.093s.282,2.221-.52,3.045-4.926,4.682-1.856,7.956,11.177,4.183,13.475-1.04a7.159,7.159,0,0,0-1.982-8.519Z" transform="translate(-236.687 -97.048)"/>
          <path id="Trazado_990946" data-name="Trazado 990946" d="M513.393,273.206a.145.145,0,0,1-.13-.08c-.093-.185-2.279-4.56-1.731-5.915a.665.665,0,0,1,.99-.332c.6.364,1.064,1.688,1.378,2.924a3.354,3.354,0,0,1,.618-2.385.849.849,0,0,1,.888-.089,1.194,1.194,0,0,1,.786.823c.333,1.265-1.3,3.266-1.365,3.351a.145.145,0,1,1-.224-.184c.016-.02,1.6-1.971,1.309-3.094a.907.907,0,0,0-.61-.625.57.57,0,0,0-.6.044c-.726.586-.5,3.311-.337,4.446.009.057.014.093.016.107a.145.145,0,0,1-.287.043c0-.028-.011-.073-.019-.13-.2-1.328-.848-4.465-1.7-4.984a.375.375,0,0,0-.339-.044.383.383,0,0,0-.231.238c-.415,1.024,1.1,4.445,1.721,5.676a.145.145,0,0,1-.065.195.147.147,0,0,1-.065.015" transform="translate(-310.037 -161.715)" fill="#ef6354"/>
          <path id="Trazado_990947" data-name="Trazado 990947" d="M489.683,293.176a.388.388,0,0,0,.533.06l17.539-14.661a.378.378,0,0,0,.017-.539l-1.5-1.744-.02-.021a.394.394,0,0,0-.5-.068.362.362,0,0,1-.354.034.405.405,0,0,1-.171-.13,5.739,5.739,0,0,0-2.8-1.949c-1.862-.482-6.786,1.852-9.187,2.657-1.562.527-3.454-.311-4.585-.959a1.578,1.578,0,0,0-1.849.124c-1.909,1.744-6.413,5.857-6.633,6.194-.28.423,2.888,4.376,4.41,5.648s3.414,2.647,3.414,2.647l-.505.332Z" transform="translate(-291.068 -166.155)" fill="#2d386b"/>
          <path id="Trazado_990948" data-name="Trazado 990948" d="M500.976,296.328a.388.388,0,0,0,.533.06l17.539-14.661a.379.379,0,0,0,.016-.539l-1.5-1.744-.02-.021a.394.394,0,0,0-.5-.068.362.362,0,0,1-.354.034c-4.863,4.193-17.4,14.232-17.4,14.232l-.505.332Z" transform="translate(-302.362 -169.306)" fill="#2d386b"/>
          <path id="Trazado_990949" data-name="Trazado 990949" d="M499.843,293.692a.145.145,0,0,1-.092-.257l17.4-14.233a.145.145,0,1,1,.184.224l-17.4,14.233a.144.144,0,0,1-.092.033" transform="translate(-302.916 -169.232)" fill="#ef6354"/>
          <path id="Trazado_990950" data-name="Trazado 990950" d="M470.133,330.635a.134.134,0,0,1-.032,0,.144.144,0,0,1-.109-.173c.046-.2,1.145-4.967,2.43-5.664a.665.665,0,0,1,.975.374c.231.664-.254,1.98-.8,3.132.633-.762,1.372-1.446,1.985-1.446a.849.849,0,0,1,.75.5,1.193,1.193,0,0,1,.083,1.135c-.549,1.188-3.078,1.694-3.186,1.715a.145.145,0,1,1-.056-.284c.025,0,2.492-.5,2.979-1.553a.907.907,0,0,0-.073-.87.571.571,0,0,0-.492-.349c-.941,0-2.5,2.238-3.09,3.216l-.056.092a.145.145,0,0,1-.248-.149l.068-.113c.688-1.154,2.188-3.983,1.86-4.926a.38.38,0,0,0-.234-.251.384.384,0,0,0-.329.037c-.972.526-1.98,4.129-2.286,5.473a.145.145,0,0,1-.141.113" transform="translate(-284.907 -196.832)" fill="#ef6354"/>
          <path id="Trazado_990951" data-name="Trazado 990951" d="M437.272,340.048a.388.388,0,0,0,.373.386l22.859-.142a.378.378,0,0,0,.356-.4l-.044-2.3,0-.03a.393.393,0,0,0-.345-.373.362.362,0,0,1-.294-.2.409.409,0,0,1-.049-.209,5.741,5.741,0,0,0-.92-3.287c-1.129-1.557-6.413-2.891-8.777-3.8-1.54-.588-2.465-2.439-2.925-3.659A1.578,1.578,0,0,0,446,324.953c-2.582.13-8.674.434-9.058.555-.485.148-.559,5.213-.194,7.164s.947,4.215.947,4.215l-.6-.065Z" transform="translate(-264.615 -196.985)" fill="#2d386b"/>
          <path id="Trazado_990952" data-name="Trazado 990952" d="M438.159,358.319a.388.388,0,0,0,.373.386l22.859-.142a.378.378,0,0,0,.356-.4l-.044-2.3,0-.029a.393.393,0,0,0-.344-.373.362.362,0,0,1-.294-.2c-6.419.138-22.481-.1-22.481-.1l-.6-.065Z" transform="translate(-265.502 -215.256)" fill="#2d386b"/>
          <path id="Trazado_990953" data-name="Trazado 990953" d="M461.763,355.28l-22.482-.1a.145.145,0,0,1,0-.29l22.482.1a.145.145,0,0,1,0,.29" transform="translate(-266.205 -215.133)" fill="#ef6354"/>
          <path id="Trazado_990954" data-name="Trazado 990954" d="M442.179,274.276v17.849H427.753l-2.69-24.632,11.492-1.286Z" transform="translate(-257.673 -161.374)" fill="#6e69e2"/>
          <path id="Trazado_990955" data-name="Trazado 990955" d="M438.216,250.723s-11.736-13.937-18.827-16.138-29.1-1.467-29.1-1.467-2.2,10.27,3.667,12.959,17.195,2.2,19.111,3.179,13.654,12.47,13.654,12.47Z" transform="translate(-236.349 -141.245)" fill="#6e69e2"/>
          <path id="Trazado_990956" data-name="Trazado 990956" d="M441.667,278.993a.142.142,0,0,1-.1-.046c-.055-.06-5.536-5.987-7.278-6.377-1.774-.4-9.146-1.047-9.22-1.053a.143.143,0,0,1-.13-.154.139.139,0,0,1,.154-.13c.3.027,7.465.658,9.258,1.06,1.827.409,7.2,6.215,7.425,6.462a.142.142,0,0,1-.008.2.14.14,0,0,1-.1.038" transform="translate(-257.594 -164.42)" fill="#fff"/>
          <path id="Trazado_990957" data-name="Trazado 990957" d="M448.538,268.928a.141.141,0,0,1-.142-.147c.017-.528.135-3.181.791-3.521a.388.388,0,0,1,.41.036c.946.622-.744,3.267-.94,3.567a.143.143,0,0,1-.119.065m.819-3.425a.082.082,0,0,0-.039.011c-.32.166-.532,1.551-.61,2.727.606-1.037,1.194-2.4.733-2.706a.157.157,0,0,0-.084-.032" transform="translate(-271.817 -160.776)" fill="#fff"/>
          <path id="Trazado_990958" data-name="Trazado 990958" d="M476.8,282.113a.142.142,0,0,1-.1-.246l11.213-10.6a.142.142,0,0,1,.2.207l-11.213,10.6a.139.139,0,0,1-.1.039" transform="translate(-288.947 -164.421)" fill="#fff"/>
          <path id="Trazado_990959" data-name="Trazado 990959" d="M445.659,323.019h-14a.142.142,0,0,1,0-.285h14a.142.142,0,0,1,0,.285" transform="translate(-261.587 -195.641)" fill="#fff"/>
          <path id="Trazado_990960" data-name="Trazado 990960" d="M411.425,154.111s.068,6.1-2.377,8.057c-2.462,1.972-6.959.981-8,.9a40.468,40.468,0,0,0-5.278-.272c-2.066.03-4.429-.234-6.155.614-4.419,2.169-1.47,11.736-1.47,11.736a38.813,38.813,0,0,1,.388,5.354,32.66,32.66,0,0,0,.26,4.763,73.412,73.412,0,0,0,11.217.9c5.312-.081,7.464-1.274,7.464-1.274s.091-1.671.134-4.565.128-5.661.128-5.661,10.209-.623,12.719-6.929-.379-13.939-.379-13.939Z" transform="translate(-234.71 -93.229)" fill="#ef6354"/>
          <path id="Trazado_990961" data-name="Trazado 990961" d="M445.663,175.987c-.983,0-1.913-2.049-2.022-2.3a.136.136,0,0,1,.2-.17c.562.357,2.388,1.568,2.3,2.158a.347.347,0,0,1-.287.281.692.692,0,0,1-.191.026m-1.559-1.965c.4.758,1.1,1.839,1.675,1.677.032-.009.087-.029.091-.058.037-.249-.828-.98-1.766-1.619" transform="translate(-268.927 -105.175)" fill="#fcad4f"/>
          <path id="Trazado_990962" data-name="Trazado 990962" d="M378.3,194.211s-9.756,3.927-12.389,1.11c-6.86-7.339,9.806-17.1,9.806-17.1l-.015,8.228.439.048Z" transform="translate(-220.81 -108.035)" fill="#ef6354"/>
          <path id="Trazado_990963" data-name="Trazado 990963" d="M378.486,199.721a.681.681,0,0,1-.391-.091.353.353,0,0,1-.142-.349c.111-.972,3.479-1.05,4.153-1.056a.136.136,0,0,1,.059.26,13.079,13.079,0,0,1-3.68,1.236m2.948-1.2c-1.473.07-3.157.329-3.209.794-.008.069.016.086.03.1.31.224,1.882-.325,3.18-.89" transform="translate(-229.113 -120.164)" fill="#fcad4f"/>
          <path id="Trazado_990964" data-name="Trazado 990964" d="M382.088,179.586a50.563,50.563,0,0,1,4.777,7.686c1.5,3.421-2.77,9.821-2.77,9.821l.959,3.427s8.516-9.421,3.41-17.692a28.491,28.491,0,0,0-3.99-5.357s-1.468,1.294-2.386,2.114" transform="translate(-231.621 -107.583)" fill="#fcad4f"/>
          <path id="Trazado_990965" data-name="Trazado 990965" d="M407.73,169.925l.093,3.414a3.436,3.436,0,0,0,2.686,1.1,3.633,3.633,0,0,0,2.037-.25l-.258-1.726-.254-1.683-3.686-.731Z" transform="translate(-247.166 -103.008)" fill="#f79674"/>
          <path id="Trazado_990966" data-name="Trazado 990966" d="M409.3,170.251a1.236,1.236,0,0,0,.108.349c.815,1.8,3,2.113,3.874,2.175l-.3-1.793Z" transform="translate(-248.117 -103.206)"/>
          <path id="Trazado_990967" data-name="Trazado 990967" d="M408.774,149.058s1.918,4.522,1.254,7.074-2.88,2.167-4.207,1.684a4.391,4.391,0,0,1-1.947-1.331,1.813,1.813,0,0,1-2.069-.752,2.024,2.024,0,0,1,.369-2.912,1.867,1.867,0,0,1,1.548.206l-.667-1.313s2.726-6.717,5.719-2.657" transform="translate(-243.309 -89.568)" fill="#f79674"/>
          <path id="Trazado_990968" data-name="Trazado 990968" d="M404.858,164.1a.134.134,0,0,1-.1-.045l-1.174-1.305a.136.136,0,1,1,.2-.182l1.175,1.305a.136.136,0,0,1-.01.193.134.134,0,0,1-.091.035" transform="translate(-244.63 -98.519)"/>
          <path id="Trazado_990969" data-name="Trazado 990969" d="M403.51,165.02a.136.136,0,0,1-.022-.271l.812-.129a.134.134,0,0,1,.156.113.136.136,0,0,1-.113.156l-.812.129-.022,0" transform="translate(-244.524 -99.791)"/>
          <path id="Trazado_990970" data-name="Trazado 990970" d="M415.581,167.174a.448.448,0,0,1-.176-.035c-.4-.166-.736-.911-.773-1a.136.136,0,0,1,.163-.186l1.6.473a.137.137,0,0,1,.063.223c-.054.059-.484.52-.881.52m-.56-.865a1.462,1.462,0,0,0,.49.579c.151.063.4-.1.588-.261Z" transform="translate(-251.342 -100.6)"/>
          <path id="Trazado_990971" data-name="Trazado 990971" d="M418.681,161.564a.142.142,0,0,1-.047-.008.136.136,0,0,1-.08-.175,1.371,1.371,0,0,0-.308-1.4.136.136,0,0,1,.189-.2,1.629,1.629,0,0,1,.375,1.69.135.135,0,0,1-.128.089" transform="translate(-253.514 -96.839)"/>
          <path id="Trazado_990972" data-name="Trazado 990972" d="M412.314,155.705a.136.136,0,0,1-.118-.205,1.01,1.01,0,0,1,1.11-.371.136.136,0,0,1-.072.263c-.024-.007-.572-.148-.8.245a.138.138,0,0,1-.118.067" transform="translate(-249.862 -94.016)"/>
          <path id="Trazado_990973" data-name="Trazado 990973" d="M420.037,155.316a.137.137,0,0,1-.12-.071.521.521,0,0,0-.281-.23.472.472,0,0,0-.365.07.136.136,0,1,1-.137-.235.732.732,0,0,1,.578-.1.8.8,0,0,1,.445.361.136.136,0,0,1-.055.185.132.132,0,0,1-.065.017" transform="translate(-254.038 -93.797)"/>
          <path id="Trazado_990974" data-name="Trazado 990974" d="M410.521,179.685a3.388,3.388,0,0,1-2.877-1.224.136.136,0,0,1,.227-.152c.049.074,1.255,1.788,4.57.794a.136.136,0,1,1,.078.261,6.969,6.969,0,0,1-2,.321" transform="translate(-247.1 -108.054)" fill="#fcad4f"/>
          <path id="Trazado_990975" data-name="Trazado 990975" d="M439.171,203.518a.136.136,0,0,1-.136-.136v-2.075a.136.136,0,1,1,.272,0v2.075a.136.136,0,0,1-.136.136" transform="translate(-266.142 -121.949)" fill="#ffb700"/>
          <path id="Trazado_990976" data-name="Trazado 990976" d="M387.636,195.909c.5-.809,4.433-1.895,4.433-1.895s2.562-.539,2.475.347-1.174,1.24-1.317,1.585,2.3,2.087,2.06,2.728c-.381,1.031-3.008,2.987-4.724,3.255l-.052.007c-2.128.3-3.7-2.1-3.574-4.25a6.315,6.315,0,0,1,.7-1.778" transform="translate(-234.557 -117.513)" fill="#f79674"/>
          <path id="Trazado_990977" data-name="Trazado 990977" d="M400.112,199.819a.136.136,0,0,1-.079-.248l1.023-.721a.136.136,0,1,1,.157.223l-1.023.721a.139.139,0,0,1-.078.024" transform="translate(-242.464 -120.528)"/>
          <path id="Trazado_990978" data-name="Trazado 990978" d="M393.082,196.125a.136.136,0,0,1-.089-.24l1.106-.941a.136.136,0,0,1,.177.208l-1.106.941a.137.137,0,0,1-.089.033" transform="translate(-238.203 -118.155)"/>
          <path id="Trazado_990979" data-name="Trazado 990979" d="M421.295,158.485a.136.136,0,0,1-.136-.124l-.091-.994a.135.135,0,0,1,.03-.1l.336-.415a.136.136,0,0,1,.212.172l-.3.372.086.938a.137.137,0,0,1-.124.148h-.012" transform="translate(-255.25 -95.054)"/>
          <path id="Trazado_990980" data-name="Trazado 990980" d="M414.925,158.706a.136.136,0,0,1-.136-.126l-.071-.989a.135.135,0,0,1,.03-.1l.306-.372a.136.136,0,1,1,.211.173l-.271.33.067.934a.136.136,0,0,1-.126.146h-.01" transform="translate(-251.401 -95.217)"/>
          <path id="Trazado_990981" data-name="Trazado 990981" d="M402.478,150.832l.615.787-.308-1.322a11.206,11.206,0,0,0,2.02-1.149,5.541,5.541,0,0,0,1.821-2.623s.556.662,1.022,1.3a4.238,4.238,0,0,1,.61,1.1s.946-4.611-1.5-4.784-5.3,1.994-6.217,3.23a7.013,7.013,0,0,0-1.218,3.046,2.085,2.085,0,0,0,.816,1.544s.556-2.069,2.341-1.129" transform="translate(-242.066 -87.372)"/>
          <path id="Trazado_990982" data-name="Trazado 990982" d="M414.452,211.74h17.621l5.033-11.384H420.179a1.067,1.067,0,0,0-.975.635Z" transform="translate(-251.24 -121.456)" fill="#fff"/>
          <path id="Trazado_990983" data-name="Trazado 990983" d="M418.339,211.74H435.96l4.491-10.16a.871.871,0,0,0-.8-1.224H423.372Z" transform="translate(-253.597 -121.456)" fill="#dfbcac"/>
          <path id="Trazado_990984" data-name="Trazado 990984" d="M398.345,230.7h24.879a.719.719,0,1,0,0-1.438H398.345a.719.719,0,1,0,0,1.438" transform="translate(-241.04 -138.979)" fill="#2d386b"/>
          <path id="Trazado_990985" data-name="Trazado 990985" d="M442.71,212.505a1.5,1.5,0,1,0,1.5-1.5,1.5,1.5,0,0,0-1.5,1.5" transform="translate(-268.37 -127.913)" fill="#fff"/>
          <path id="Trazado_990986" data-name="Trazado 990986" d="M656.352,313.028a.59.59,0,0,1-.558-.785l10.318-29.669a.591.591,0,0,1,1.1-.041L680.08,312.2a.591.591,0,0,1-1.084.47l-12.266-28.28-9.82,28.239a.591.591,0,0,1-.558.4" transform="translate(-397.522 -171.056)" fill="#c1907a"/>
          <path id="Trazado_990987" data-name="Trazado 990987" d="M670.388,218.26a15.694,15.694,0,0,1,6.557,16.107c-2.158,12.729-14.848,16.856-25.856,13.848s-9.174-11.68-9.174-11.68Z" transform="translate(-389.059 -132.309)" fill="#cea18a"/>
          <path id="Trazado_990988" data-name="Trazado 990988" d="M718.419,264.812a.146.146,0,0,1-.1-.254c2.726-2.521,3.253-7.474,3.258-7.524a.141.141,0,0,1,.16-.131.146.146,0,0,1,.131.16c-.021.208-.542,5.113-3.35,7.709a.144.144,0,0,1-.1.039" transform="translate(-435.416 -155.733)" fill="#eac89f"/>
          <path id="Trazado_990989" data-name="Trazado 990989" d="M687.91,258.1c1.638.784-1.477,3.824-5.894,5.2s-9.246,2.534-9.675,1.155,1.2-3.243,5.615-4.616,8.652-2.359,9.955-1.735" transform="translate(-407.532 -156.346)" fill="#c1907a"/>
          <path id="Trazado_990990" data-name="Trazado 990990" d="M600.818,174.893s-1.784-3.787-2.9-3.623.481,3.261.481,3.261l-3.222-.471s-3.588-.186-4.194.258.745,1.292.745,1.292-2.566-.184-1.967.913a3.8,3.8,0,0,0,2.4,1.4s-2.537-.307-1.7.948c.453.678,6.323,2.652,9.781,1.761s1.467-3.267,1.467-3.267Z" transform="translate(-357.458 -103.82)" fill="#f48c6c"/>
          <path id="Trazado_990991" data-name="Trazado 990991" d="M599.538,183.977a.138.138,0,0,1-.11-.221l2.366-3.154a.138.138,0,1,1,.221.166l-2.366,3.154a.137.137,0,0,1-.11.055" transform="translate(-363.355 -109.447)"/>
          <path id="Trazado_990992" data-name="Trazado 990992" d="M612.118,183.051a2.052,2.052,0,0,1-1.564-.864c-.415-.673-.343-1.648.219-2.9a.138.138,0,1,1,.252.113,2.888,2.888,0,0,0-.236,2.638,1.8,1.8,0,0,0,1.336.735.138.138,0,0,1-.006.276" transform="translate(-369.957 -108.635)"/>
          <path id="Trazado_990993" data-name="Trazado 990993" d="M664.844,325.634l-.041,4.973,9.621-.946v-4.027Z" transform="translate(-403.003 -197.399)" fill="#f48c6c"/>
          <path id="Trazado_990994" data-name="Trazado 990994" d="M627.237,323.986l-.042,4.973,9.923-.945v-4.027Z" transform="translate(-380.204 -196.4)" fill="#f48c6c"/>
          <path id="Trazado_990995" data-name="Trazado 990995" d="M605.786,333.569s-12.009,6.4-12.6,8.019,1.093,2.295,1.885,2.383,20.567-.959,20.567-.959l1.781-5.983a49.808,49.808,0,0,0-.386-5.254c-.2-.155-10.856-.183-10.856-.183Z" transform="translate(-359.51 -201.01)" fill="#5e5edd"/>
          <path id="Trazado_990996" data-name="Trazado 990996" d="M650.028,331.525a8.815,8.815,0,0,1-1.547,2c-2.5,2.334-7.114,6.205-7.333,7.361a2.193,2.193,0,0,0,1.172,2.614c.567.226,11.761.113,14.837,0s3.619-2.173,3.914-3.977-.838-7.992-.838-7.992Z" transform="translate(-388.628 -200.97)" fill="#6e69e2"/>
          <path id="Trazado_990997" data-name="Trazado 990997" d="M596.428,354.68a.138.138,0,0,1-.005-.276l17.518-.686a.138.138,0,0,1,.01.276l-17.518.686Z" transform="translate(-361.47 -214.423)" fill="#fff"/>
          <path id="Trazado_990998" data-name="Trazado 990998" d="M655.428,351.027c-4.569,0-10.817-.155-11.861-.181a.138.138,0,0,1-.134-.141.131.131,0,0,1,.142-.135c6.386.163,16.081.3,16.615.017a11.888,11.888,0,0,0,1.63-1.146.138.138,0,0,1,.178.211,11.863,11.863,0,0,1-1.677,1.179,29.122,29.122,0,0,1-4.891.2" transform="translate(-390.048 -211.81)" fill="#fff"/>
          <path id="Trazado_990999" data-name="Trazado 990999" d="M613.736,333.933c-.143,0-3.435-.114-4.488-1.336a1.263,1.263,0,0,1-.318-1.008.541.541,0,0,1,.326-.475c.484-.2,1.449.267,2.3.793-.867-.871-1.792-1.945-1.745-2.519a.438.438,0,0,1,.215-.352c1.019-.625,3.652,3.238,4.169,4.019a.138.138,0,1,1-.23.152c-1.225-1.848-3.215-4.29-3.795-3.935a.167.167,0,0,0-.084.139c-.054.659,1.808,2.523,3.073,3.615a.138.138,0,0,1-.175.213c-1.091-.852-3.036-2.117-3.623-1.871-.058.024-.137.077-.159.253a.984.984,0,0,0,.253.795c.974,1.131,4.251,1.239,4.283,1.24a.138.138,0,0,1,0,.276" transform="translate(-369.126 -199.42)" fill="#fff"/>
          <path id="Trazado_991000" data-name="Trazado 991000" d="M664.145,337.684c-1.04,0-3.485-.078-3.98-.793a.539.539,0,0,1-.051-.533.824.824,0,0,1,.551-.513,2.209,2.209,0,0,1,1.384.227,2.531,2.531,0,0,1-.712-1.223.857.857,0,0,1,.176-.675.525.525,0,0,1,.469-.217c.972.053,2.536,2.508,2.711,2.788a.138.138,0,1,1-.234.146c-.455-.726-1.789-2.62-2.492-2.659a.261.261,0,0,0-.237.112.584.584,0,0,0-.119.466c.119.845,1.554,1.886,1.568,1.9a.138.138,0,0,1-.16.224c-.015-.011-1.492-1.049-2.277-.821a.555.555,0,0,0-.372.351.267.267,0,0,0,.022.273c.435.627,3.163.7,4.181.669a.13.13,0,0,1,.141.135.138.138,0,0,1-.134.141c-.066,0-.221.005-.434.005" transform="translate(-400.131 -202.444)" fill="#fff"/>
          <path id="Trazado_991001" data-name="Trazado 991001" d="M657.45,174.368a14.765,14.765,0,0,1,5.075-1.421c2.354-.072,1.129,6.412,1.129,6.412h-6.89Z" transform="translate(-398.129 -104.84)" fill="#fcad4f"/>
          <path id="Trazado_991002" data-name="Trazado 991002" d="M612.683,176.37l-5.377,8.189a20.78,20.78,0,0,0,9.581,5.737c5.259,1.585,14.117.473,14.117.473l-3.536-14.325a22.066,22.066,0,0,1-6.578,1.785c-3.828.435-8.208-1.858-8.208-1.858" transform="translate(-368.148 -106.915)" fill="#fcad4f"/>
          <path id="Trazado_991003" data-name="Trazado 991003" d="M641.2,184.684a.705.705,0,0,1-.582-.312c-.566-.821.014-3.1.039-3.2a.138.138,0,0,1,.122-.1.13.13,0,0,1,.138.082c.119.273,1.156,2.685.67,3.345a.457.457,0,0,1-.387.186m-.37-3.025a4.426,4.426,0,0,0,.016,2.556.413.413,0,0,0,.307.19c.132.015.182-.03.212-.071.259-.351-.144-1.692-.535-2.675" transform="translate(-388.191 -109.763)" fill="#fff"/>
          <path id="Trazado_991004" data-name="Trazado 991004" d="M664.413,172.59s4.246-.106,6.716,1.218c3.067,1.643,2.324,22.9,2.249,23.23-.139.612-4.778,1.841-11.353,1.505s-7.409.011-7.42-1.452c0-.232-.191-8.97,1.4-15.267a37.055,37.055,0,0,1,3.543-8.733s1.291,2.256,4.86-.5" transform="translate(-396.816 -104.622)" fill="#fcad4f"/>
          <path id="Trazado_991005" data-name="Trazado 991005" d="M633.693,233.008s-11.832,9.039-13.281,11.814c-1.319,2.527.373,25.256.373,25.256l13,.653,1.188-17.45,9.207-17.775Z" transform="translate(-375.789 -141.249)" fill="#ef6354"/>
          <path id="Trazado_991006" data-name="Trazado 991006" d="M670.568,234.675s.6,7.306.44,8.982-3.726,5.289-3.726,5.289l.517,22.862-13.831-.059s-3.427-24.679-3.225-26.439,9.708-10.635,9.708-10.635Z" transform="translate(-394.475 -142.259)" fill="#ef6354"/>
          <path id="Trazado_991007" data-name="Trazado 991007" d="M691.145,270.069a.135.135,0,0,1-.067-.017l-.908-.5a.137.137,0,0,1-.054-.187.136.136,0,0,1,.187-.054l.908.5a.138.138,0,0,1-.066.259" transform="translate(-418.337 -163.244)" fill="#fcad4f"/>
          <path id="Trazado_991008" data-name="Trazado 991008" d="M652.96,207.809l-.024,0a.138.138,0,0,1-.111-.16c0-.016.292-1.644.577-3.686a.133.133,0,0,1,.156-.117.137.137,0,0,1,.117.156c-.286,2.048-.575,3.68-.578,3.7a.138.138,0,0,1-.136.114" transform="translate(-395.739 -123.568)" fill="#fff"/>
          <path id="Trazado_991009" data-name="Trazado 991009" d="M650.883,210.886s-7.014-1.438-8.387-1.438c-.506,0-5.737,3.983-4.02,4.722.837.36,2.784-1.828,2.784-1.828s-2.319,2.192-2.165,2.787,1.118.37,1.118.37-.764.855.038,1.107,3.641-1.3,3.641-1.3,2.573,1.853,4.612.942a6.5,6.5,0,0,0,2.612-1.74Z" transform="translate(-386.835 -126.967)" fill="#f48c6c"/>
          <path id="Trazado_991010" data-name="Trazado 991010" d="M642.288,216.709a.138.138,0,0,1-.094-.239l2.644-2.444a.138.138,0,1,1,.187.2l-2.644,2.444a.138.138,0,0,1-.094.036" transform="translate(-389.27 -129.721)"/>
          <path id="Trazado_991011" data-name="Trazado 991011" d="M643.818,220.709a.138.138,0,0,1-.09-.243l2.855-2.426a.138.138,0,1,1,.179.21l-2.854,2.426a.138.138,0,0,1-.089.033" transform="translate(-390.198 -132.155)"/>
          <path id="Trazado_991012" data-name="Trazado 991012" d="M676.5,173.636s8.7,1.482,11.355,10.107-4.507,11.358-12.015,11.586-8.359-.511-8.359-.511l.613-6.74,5.445-1.793Z" transform="translate(-404.628 -105.258)" fill="#fcad4f"/>
          <path id="Trazado_991013" data-name="Trazado 991013" d="M681.216,203.525a.138.138,0,0,1-.05-.267,32.809,32.809,0,0,1,8.251-1.737.133.133,0,0,1,.148.127.138.138,0,0,1-.127.148,32.523,32.523,0,0,0-8.174,1.72.147.147,0,0,1-.05.009" transform="translate(-412.869 -122.161)" fill="#fff"/>
          <path id="Trazado_991014" data-name="Trazado 991014" d="M696.8,199.251a.138.138,0,0,1-.115-.215c.134-.2,1.329-1.947,2.168-2.089a.539.539,0,0,1,.43.094.366.366,0,0,1,.161.345c-.073.675-2.168,1.661-2.587,1.852a.144.144,0,0,1-.057.012m2.165-2.038a.4.4,0,0,0-.066.006c-.479.081-1.211.925-1.673,1.535.9-.455,1.908-1.076,1.943-1.4,0-.018.006-.052-.052-.095a.247.247,0,0,0-.153-.049" transform="translate(-422.314 -119.383)" fill="#fff"/>
          <path id="Trazado_991015" data-name="Trazado 991015" d="M672.571,164.407l.1,3.224a3.271,3.271,0,0,1-2.5,1.168,3.5,3.5,0,0,1-1.955-.135l.153-1.64.151-1.6,3.473-.871Z" transform="translate(-405.069 -99.663)" fill="#f48c6c"/>
          <path id="Trazado_991016" data-name="Trazado 991016" d="M672.183,164.8a1.249,1.249,0,0,1-.083.35c-.669,1.819-2.738,2.3-3.569,2.4l.186-1.834Z" transform="translate(-405.263 -99.902)"/>
          <path id="Trazado_991017" data-name="Trazado 991017" d="M663.989,144.718s-1.615,4.93-.787,7.421,2.976,1.64,4.329,1.086a4.559,4.559,0,0,0,1.951-1.429,2.062,2.062,0,0,0,1.567-3.725,2.022,2.022,0,0,0-1.6.292l.621-1.339s-3.2-6.5-6.085-2.307" transform="translate(-401.889 -86.874)" fill="#f48c6c"/>
          <path id="Trazado_991018" data-name="Trazado 991018" d="M666.27,157.489a.138.138,0,0,1-.13-.09,1.619,1.619,0,0,1,.372-1.679.138.138,0,0,1,.192.2,1.341,1.341,0,0,0-.305,1.385.138.138,0,0,1-.13.186" transform="translate(-403.752 -94.374)"/>
          <path id="Trazado_991019" data-name="Trazado 991019" d="M679.983,158.937a.138.138,0,0,1-.106-.227l1.149-1.359a.139.139,0,0,1,.2-.016.138.138,0,0,1,.016.194l-1.15,1.36a.138.138,0,0,1-.106.049" transform="translate(-412.122 -95.356)"/>
          <path id="Trazado_991020" data-name="Trazado 991020" d="M681.906,159.843l-.864-.082a.137.137,0,0,1-.124-.151.136.136,0,0,1,.15-.124l.851.082a.138.138,0,0,1-.013.275" transform="translate(-412.771 -96.679)"/>
          <path id="Trazado_991021" data-name="Trazado 991021" d="M671.463,155.225a.14.14,0,0,1-.138-.148l.071-.98a.136.136,0,0,1,.148-.128.139.139,0,0,1,.128.148l-.071.981a.138.138,0,0,1-.138.128" transform="translate(-406.957 -93.335)"/>
          <path id="Trazado_991022" data-name="Trazado 991022" d="M665.119,155.07a.141.141,0,0,1-.137-.151l.091-.985a.138.138,0,1,1,.274.025l-.09.985a.138.138,0,0,1-.138.125" transform="translate(-403.11 -93.238)"/>
          <path id="Trazado_991023" data-name="Trazado 991023" d="M671.787,151.68a.139.139,0,0,1-.119-.068c-.228-.39-.787-.243-.792-.242a.138.138,0,1,1-.073-.266,1,1,0,0,1,1.1.368.139.139,0,0,1-.05.189.141.141,0,0,1-.07.019" transform="translate(-406.577 -91.575)"/>
          <path id="Trazado_991024" data-name="Trazado 991024" d="M663.921,151.547a.138.138,0,0,1-.105-.227,1.119,1.119,0,0,1,1.12-.35.138.138,0,1,1-.08.264.842.842,0,0,0-.831.265.139.139,0,0,1-.1.048" transform="translate(-402.385 -91.491)"/>
          <path id="Trazado_991025" data-name="Trazado 991025" d="M668.28,162.189a.138.138,0,0,1,0-.276,1.577,1.577,0,0,0,1.119-.636.138.138,0,0,1,.219.168,1.854,1.854,0,0,1-1.33.744Z" transform="translate(-405.027 -97.733)"/>
          <path id="Trazado_991026" data-name="Trazado 991026" d="M671.24,146.125c-.732-.076-1.375.271-1.394.434-.068.566-.7.792-.766.16a1.237,1.237,0,0,1,.726-1.4,4.428,4.428,0,0,1-2.552-1.205,11.585,11.585,0,0,1-1.553-1.63l-1.61,1.181s-2.041-3.6,2.616-3.6,4.94,4.066,4.94,4.066,1.306.274,1.262,1.021a3.3,3.3,0,0,1-.78,1.578.986.986,0,0,0-.889-.6" transform="translate(-402.301 -84.906)"/>
          <path id="Trazado_991027" data-name="Trazado 991027" d="M668.856,174.13a1.7,1.7,0,0,1-1.4-.588.138.138,0,0,1,.216-.173c1.14,1.422,4.552-.729,4.586-.751a.137.137,0,0,1,.19.042.138.138,0,0,1-.042.191,8.252,8.252,0,0,1-3.552,1.279" transform="translate(-404.594 -104.628)" fill="#fff"/>
          <path id="Trazado_991028" data-name="Trazado 991028" d="M653.629,269.595a.139.139,0,0,1-.138-.122c-.014-.128-1.414-12.789-1.448-16.975-.025-3.031,3.7-7.556,4.508-8.507l-3.049-.734a.138.138,0,0,1,.065-.268l3.269.788a.137.137,0,0,1,.071.225c-.046.052-4.615,5.271-4.588,8.495.034,4.172,1.433,16.82,1.447,16.946a.138.138,0,0,1-.122.153h-.015" transform="translate(-395.268 -147.296)" fill="#fcad4f"/>
          <path id="Trazado_991029" data-name="Trazado 991029" d="M231.085,212.7l2.463,11.3s1.778,6.387,1.778,7.919-2.791,3.66-2.791,3.66L232,233.059a6.561,6.561,0,0,0-.107-2.5c-.334-1.095-.945.236-.945.236l-2.5-2.963-4.323-12.983Z" transform="translate(-135.867 -128.939)" fill="#f48c6c"/>
          <path id="Trazado_991030" data-name="Trazado 991030" d="M199.177,316.728a.591.591,0,0,1-.558-.4l-10.394-29.89-12.982,29.931a.591.591,0,0,1-1.084-.47l13.584-31.32a.583.583,0,0,1,.564-.355.592.592,0,0,1,.536.4l10.892,31.32a.591.591,0,0,1-.558.785" transform="translate(-105.545 -172.297)" fill="#c1907a"/>
          <path id="Trazado_991031" data-name="Trazado 991031" d="M163.533,201.531s-7.772,3.592-6.871,17.772c1.185,18.658,17.034,22.729,28.262,19.662s9.356-11.913,9.356-11.913Z" transform="translate(-94.924 -122.168)" fill="#d8ab98"/>
          <path id="Trazado_991032" data-name="Trazado 991032" d="M167.524,266.485a.147.147,0,0,1-.1-.04c-2.854-2.64-4.231-7.789-4.244-7.841a.149.149,0,1,1,.288-.076c.013.051,1.369,5.117,4.159,7.7a.149.149,0,0,1-.1.259" transform="translate(-98.916 -156.653)" fill="#eac89f"/>
          <path id="Trazado_991033" data-name="Trazado 991033" d="M179.849,261.885c-.437,1.406,2.861,3.682,7.367,5.083s8.513,1.4,8.95-.011-2.861-3.682-7.367-5.083-8.513-1.4-8.95.011" transform="translate(-109.001 -158.112)" fill="#c1907a"/>
          <path id="Trazado_991034" data-name="Trazado 991034" d="M242.761,251.07a.131.131,0,0,1-.036-.005.136.136,0,0,1-.1-.167c.009-.033.878-3.284-.518-4.337a.137.137,0,1,1,.165-.218c1.544,1.164.656,4.487.617,4.627a.137.137,0,0,1-.132.1" transform="translate(-146.734 -149.315)"/>
          <path id="Trazado_991035" data-name="Trazado 991035" d="M222.889,324.9v6.639l-5.056,1.913-3.186-3.573-.524-6.142Z" transform="translate(-129.802 -196.249)" fill="#f48c6c"/>
          <path id="Trazado_991036" data-name="Trazado 991036" d="M246.036,321.4v6.639l-5.388,1.913-3.395-3.573-.558-6.142Z" transform="translate(-143.484 -194.13)" fill="#ef8265"/>
          <path id="Trazado_991037" data-name="Trazado 991037" d="M219.455,233.492s13.383,8.622,15.089,11.5-.135,26.31-.135,26.31l-12.3.149-1.722-13.1-10.022-23.588Z" transform="translate(-127.524 -141.542)" fill="#ef6354"/>
          <path id="Trazado_991038" data-name="Trazado 991038" d="M188.516,236.873s-.32,7.639-.117,9.7,6.628,6.935,6.628,6.935l.346,20.13,14.221.665s.277-23,.036-25.17-10.87-12.77-10.87-12.77Z" transform="translate(-114.167 -143.285)" fill="#ef6354"/>
          <path id="Trazado_991039" data-name="Trazado 991039" d="M234.4,343.032s.237-10.674,1.9-10.452a7.385,7.385,0,0,1,3.317,1.779s3.791-2,5.45-.89a8.744,8.744,0,0,1,2.612,3.558l9.236,6s1.117,1.779.8,2.668c-.251.694-14.3.305-20.46.1a2.856,2.856,0,0,1-2.846-2.769" transform="translate(-142.093 -201.607)" fill="#f79b37"/>
          <path id="Trazado_991040" data-name="Trazado 991040" d="M225.262,342.007s-2.316-5.668-3.811-6.646-5.236,2.127-5.236,2.127-3.133-3.3-3.9-1.568-1.144,7.926-.56,9.294,4.881,3.645,10.526,3.629c2.66-.007,6.5-.829,6.5-1.743,0-1.437-2.608-4.147-3.515-5.094" transform="translate(-128.19 -203.179)" fill="#fcad4f"/>
          <path id="Trazado_991041" data-name="Trazado 991041" d="M234.445,279.586a.142.142,0,0,1-.14-.148c.012-.211,1.176-21.181.628-23.774-.374-1.768-5.986-7.281-6.043-7.337a.141.141,0,0,1,.076-.239l4.046-.659a.141.141,0,0,1,.046.278l-3.773.615c1.026,1.019,5.57,5.608,5.924,7.285.555,2.629-.575,22.983-.623,23.847a.141.141,0,0,1-.141.133" transform="translate(-138.727 -149.99)" fill="#fcad4f"/>
          <path id="Trazado_991042" data-name="Trazado 991042" d="M205.274,276.645a.142.142,0,0,1-.141-.146c.012-.3.142-2.922.952-3.213.242-.086.5.021.771.322.547.611-1.134,2.6-1.476,2.989a.141.141,0,0,1-.106.048m.975-3.106a.2.2,0,0,0-.068.012c-.418.15-.659,1.5-.741,2.539.792-.969,1.433-2.041,1.207-2.294a.617.617,0,0,0-.4-.256" transform="translate(-124.352 -165.648)" fill="#fcad4f"/>
          <path id="Trazado_991043" data-name="Trazado 991043" d="M230.135,348.6a.137.137,0,0,1-.032-.269l2.258-.551-3.7-.521a.136.136,0,0,1-.016-.267l4.4-1.164a.136.136,0,1,1,.07.264l-3.746.992,3.73.527a.137.137,0,0,1,.013.268l-2.948.72a.133.133,0,0,1-.032,0" transform="translate(-138.546 -209.639)" fill="#fff"/>
          <path id="Trazado_991044" data-name="Trazado 991044" d="M264.36,346.955a.136.136,0,0,1-.113-.213l.865-1.266-3.932.4a.14.14,0,0,1-.141-.085.137.137,0,0,1,.043-.158l2.651-2.067a.137.137,0,1,1,.168.215l-2.278,1.776,3.753-.378a.139.139,0,0,1,.131.066.136.136,0,0,1,0,.147l-.853,1.248,2.924-.459a.135.135,0,0,1,.157.114.137.137,0,0,1-.114.156l-3.236.507-.021,0" transform="translate(-158.236 -208.25)" fill="#fff"/>
          <path id="Trazado_991045" data-name="Trazado 991045" d="M216.748,152.6c.2,1.09.983,1.86,1.75,1.719s1.228-1.138,1.029-2.227-.983-1.859-1.751-1.719-1.227,1.138-1.028,2.227" transform="translate(-131.364 -91.143)" fill="#6e69e2"/>
          <path id="Trazado_991046" data-name="Trazado 991046" d="M166.241,186.619s2.607-9.849,8.159-13.7,15.844-2.984,18.358-.821c2.385,2.052,5.666,13.174,5.666,13.174l-4.306,4.306.7,6.567-20.115,1.3.037-10.609Z" transform="translate(-100.775 -103.206)" fill="#6e69e2"/>
          <path id="Trazado_991047" data-name="Trazado 991047" d="M206.813,162.4l-.046,3.443a3.354,3.354,0,0,0,2.62,1.189,1.854,1.854,0,0,0,1.962-.84l-.117-1.1-.183-1.7-3.627-.849Z" transform="translate(-125.342 -98.444)" fill="#f48c6c"/>
          <path id="Trazado_991048" data-name="Trazado 991048" d="M208.43,162.758a1.131,1.131,0,0,0,.1.334c.747,1.731,2.849,2.13,3.714,2.219l-.183-1.7Z" transform="translate(-126.35 -98.664)"/>
          <path id="Trazado_991049" data-name="Trazado 991049" d="M208.278,143s1.749,4.342,1,6.731-2.928,1.946-4.228,1.442a4.349,4.349,0,0,1-1.886-1.327,1.967,1.967,0,0,1-1.561-3.523,1.925,1.925,0,0,1,1.527.25l-.617-1.265s2.93-6.253,5.76-2.309" transform="translate(-121.697 -85.896)" fill="#f48c6c"/>
          <path id="Trazado_991050" data-name="Trazado 991050" d="M203.854,156.634a.127.127,0,0,1-.076-.025l-1.536-1.137a.127.127,0,1,1,.151-.2l1.537,1.136a.127.127,0,0,1-.076.23" transform="translate(-122.568 -94.109)"/>
          <path id="Trazado_991051" data-name="Trazado 991051" d="M202.63,157.9a.127.127,0,0,1-.03-.251l1.025-.249a.127.127,0,1,1,.06.247l-1.025.249a.136.136,0,0,1-.03,0" transform="translate(-122.757 -95.415)"/>
          <path id="Trazado_991052" data-name="Trazado 991052" d="M212.493,148.619a.131.131,0,0,1-.046-.008.137.137,0,0,1-.083-.174,1.062,1.062,0,0,1,1.178-.753.137.137,0,0,1-.048.269.793.793,0,0,0-.872.575.137.137,0,0,1-.129.091" transform="translate(-128.73 -89.517)"/>
          <path id="Trazado_991053" data-name="Trazado 991053" d="M219.953,148.354a.137.137,0,0,1-.088-.032,1.185,1.185,0,0,0-.387-.258.136.136,0,0,1-.148-.219c.169-.191.577.155.711.269a.136.136,0,0,1-.088.241" transform="translate(-132.937 -89.589)"/>
          <path id="Trazado_991054" data-name="Trazado 991054" d="M218.652,154.77a.136.136,0,0,1-.068-.255.476.476,0,0,0,.26-.354c.076-.5-.517-1.258-.752-1.509a.137.137,0,0,1,.2-.186c.038.041.933,1.009.822,1.737a.744.744,0,0,1-.395.55.135.135,0,0,1-.067.018" transform="translate(-132.185 -92.398)"/>
          <path id="Trazado_991055" data-name="Trazado 991055" d="M220.342,151.784a.136.136,0,0,1-.132-.1l-.205-.792a.137.137,0,0,1,.1-.167.135.135,0,0,1,.166.1l.2.792a.136.136,0,0,1-.1.167.129.129,0,0,1-.034,0" transform="translate(-133.364 -91.364)"/>
          <path id="Trazado_991056" data-name="Trazado 991056" d="M214.808,152.144a.136.136,0,0,1-.132-.1l-.2-.793a.136.136,0,0,1,.264-.069l.2.793a.137.137,0,0,1-.1.167.129.129,0,0,1-.034,0" transform="translate(-130.009 -91.583)"/>
          <path id="Trazado_991057" data-name="Trazado 991057" d="M207.33,207.394l7.792,4.756a.846.846,0,0,0,.985-.162l10.528-10.613a.481.481,0,0,0-.041-.788L218.8,195.83a.846.846,0,0,0-.985.162l-10.528,10.613a.481.481,0,0,0,.041.788" transform="translate(-125.547 -118.655)" fill="#fff"/>
          <path id="Trazado_991058" data-name="Trazado 991058" d="M209.644,208.8l7.792,4.756a.845.845,0,0,0,.984-.162l10.528-10.612a.481.481,0,0,0-.041-.788l-7.792-4.756a.845.845,0,0,0-.984.162L209.6,208.01a.481.481,0,0,0,.041.788" transform="translate(-126.949 -119.507)" fill="#d8b4a7"/>
          <path id="Trazado_991059" data-name="Trazado 991059" d="M206.107,202.528a1.987,1.987,0,0,1,1.654-.722,15.875,15.875,0,0,1,2.967.353,14.517,14.517,0,0,1,1.808,1.266l-.517.732s4.773,2.492,4.387,3.474c-.263.669-2.381-.289-2.381-.289s2.117,1.174,1.75,1.907-3.1-.421-3.1-.421,2.1,1.35.988,1.682-8.722-1.758-9.12-4c-.262-1.473.8-3.066,1.562-3.985" transform="translate(-123.971 -122.331)" fill="#f48c6c"/>
          <path id="Trazado_991060" data-name="Trazado 991060" d="M221.965,206.379a.135.135,0,0,1-.072-.021l-1.216-.756a.136.136,0,0,1,.144-.232l1.216.756a.137.137,0,0,1-.072.252" transform="translate(-133.735 -124.482)"/>
          <path id="Trazado_991061" data-name="Trazado 991061" d="M224.516,213.5a.141.141,0,0,1-.065-.016l-3.185-1.709a.137.137,0,0,1,.129-.241l3.185,1.709a.136.136,0,0,1-.065.257" transform="translate(-134.088 -128.222)"/>
          <path id="Trazado_991062" data-name="Trazado 991062" d="M221.61,217.806a.139.139,0,0,1-.065-.017l-2.856-1.552a.137.137,0,1,1,.131-.24l2.856,1.553a.137.137,0,0,1-.065.256" transform="translate(-132.525 -130.927)"/>
          <path id="Trazado_991063" data-name="Trazado 991063" d="M167.467,206.044s-1.758,6.679,4.362,7.586,11.628-5.2,11.628-5.2l.762-6.158-12.107,3.9Z" transform="translate(-101.376 -122.614)" fill="#f48c6c"/>
          <path id="Trazado_991064" data-name="Trazado 991064" d="M214.859,159.141l-.021,0a1.686,1.686,0,0,1-1.164-.834.136.136,0,0,1,.242-.126,1.422,1.422,0,0,0,.964.69.136.136,0,0,1-.02.271" transform="translate(-129.52 -95.843)"/>
          <path id="Trazado_991065" data-name="Trazado 991065" d="M202.742,143.307s-.363-1.717-.408-1.876a4.5,4.5,0,0,1,3.271-2.365c2.047-.28,2.007.29,2.007.29s.521-2.892.173-3.118-.575.2-.575.2-.41-1.442-1.494-1.272a1.351,1.351,0,0,0-1.044,1.018,1.054,1.054,0,0,0-1.477-.707c-1.159.452-2.234,3.28-2.234,3.28s-1.244-.2-1.47.848.689,3.386.689,3.386a1.183,1.183,0,0,1,1.264-.558,1.768,1.768,0,0,1,1.3.877" transform="translate(-120.909 -81.927)" fill="#ea594e"/>
          <path id="Trazado_991066" data-name="Trazado 991066" d="M209.28,172.164a4.307,4.307,0,0,1-2.811-1.129.137.137,0,0,1,.176-.209,3.685,3.685,0,0,0,4.875.3.136.136,0,1,1,.177.208,4.06,4.06,0,0,1-2.418.828" transform="translate(-125.132 -103.535)" fill="#2d386b"/>
          <path id="Trazado_991067" data-name="Trazado 991067" d="M201.662,153.939c.2,1.09.983,1.86,1.75,1.719s1.228-1.138,1.029-2.227-.983-1.86-1.751-1.719-1.227,1.138-1.028,2.227" transform="translate(-122.219 -91.957)" fill="#6e69e2"/>
          <path id="Trazado_991068" data-name="Trazado 991068" d="M200.706,154.114c.2,1.09.983,1.86,1.75,1.719s1.228-1.138,1.029-2.227-.983-1.86-1.751-1.719-1.227,1.138-1.028,2.227" transform="translate(-121.64 -92.064)" fill="#fff"/>
          <path id="Trazado_991069" data-name="Trazado 991069" d="M202.634,141.955a7.474,7.474,0,0,0-.07,4.381c.731,2.105-.814,1.1-.814,1.1s-.832-3.443.885-5.477" transform="translate(-122.178 -86.053)" fill="#fff"/>
          <path id="Trazado_991070" data-name="Trazado 991070" d="M193.531,204.018a.137.137,0,0,1-.137-.137v-2.29a.137.137,0,0,1,.273,0v2.29a.137.137,0,0,1-.137.137" transform="translate(-117.236 -122.122)" fill="#2d386b"/>
          <path id="Trazado_991071" data-name="Trazado 991071" d="M483.518,196.715h-4.139a.76.76,0,0,1-.76-.76v-2.444a.76.76,0,0,1,.76-.76h4.139a.76.76,0,0,1,.76.76v2.444a.76.76,0,0,1-.76.76" transform="translate(-290.138 -116.846)" fill="#fff"/>
          <path id="Trazado_991072" data-name="Trazado 991072" d="M483.521,206.779h-4.139a.76.76,0,0,1-.76-.76v-2.444a.76.76,0,0,1,.76-.76h4.139a.76.76,0,0,1,.76.76v2.444a.76.76,0,0,1-.76.76" transform="translate(-290.14 -122.947)" fill="#fff"/>
          <path id="Trazado_991073" data-name="Trazado 991073" d="M483.521,216.843h-4.139a.76.76,0,0,1-.76-.76V213.64a.76.76,0,0,1,.76-.76h4.139a.76.76,0,0,1,.76.76v2.444a.76.76,0,0,1-.76.76" transform="translate(-290.14 -129.048)" fill="#fff"/>
          <path id="Trazado_991074" data-name="Trazado 991074" d="M483.518,226.907h-4.139a.76.76,0,0,1-.76-.76V223.7a.76.76,0,0,1,.76-.76h4.139a.76.76,0,0,1,.76.76v2.444a.76.76,0,0,1-.76.76" transform="translate(-290.138 -135.149)" fill="#fff"/>
          <rect id="Rect치ngulo_411776" data-name="Rect치ngulo 411776" width="2.653" height="1.684" transform="translate(189.983 74.519)" fill="#fff"/>
          <path id="Trazado_991075" data-name="Trazado 991075" d="M481.588,202.946a.146.146,0,0,1-.146-.146v-8.323a.146.146,0,0,1,.292,0V202.8a.146.146,0,0,1-.146.146" transform="translate(-291.849 -117.804)" fill="#eac89f"/>
          <path id="Trazado_991076" data-name="Trazado 991076" d="M484.636,187.59H482.06a.31.31,0,0,1-.31-.31v-1.264a.309.309,0,0,1,.31-.309h2.576a.309.309,0,0,1,.31.309v1.264a.31.31,0,0,1-.31.31" transform="translate(-292.036 -112.576)" fill="#6e69e2"/>
          <path id="Trazado_991077" data-name="Trazado 991077" d="M601.728,211.332H583.943l-5.08-11.49h17.084a1.077,1.077,0,0,1,.985.641Z" transform="translate(-350.905 -121.144)" fill="#fff"/>
          <path id="Trazado_991078" data-name="Trazado 991078" d="M598.528,211.332H580.743l-4.534-10.254a.88.88,0,0,1,.8-1.236h16.434Z" transform="translate(-349.251 -121.144)" fill="#2d386b"/>
          <path id="Trazado_991079" data-name="Trazado 991079" d="M612.292,230.469h-25.11a.726.726,0,1,1,0-1.451h25.11a.726.726,0,1,1,0,1.451" transform="translate(-355.509 -138.83)" fill="#6e69e2"/>
          <path id="Trazado_991080" data-name="Trazado 991080" d="M603.752,212.1a1.511,1.511,0,1,1-1.511-1.511,1.511,1.511,0,0,1,1.511,1.511" transform="translate(-364.162 -127.661)" fill="#fff"/>
          <path id="Trazado_991081" data-name="Trazado 991081" d="M373.276,46.429a9.606,9.606,0,1,1-9.606-9.606,9.606,9.606,0,0,1,9.606,9.606" transform="translate(-214.633 -22.322)" fill="#d7ac93"/>
          <path id="Trazado_991082" data-name="Trazado 991082" d="M374.392,49.617a7.535,7.535,0,1,1-7.535-7.535,7.535,7.535,0,0,1,7.535,7.535" transform="translate(-217.821 -25.51)" fill="#eac89f"/>
          <path id="Trazado_991083" data-name="Trazado 991083" d="M375.7,56.887a.395.395,0,0,1-.385-.31L374.41,52.4a.394.394,0,1,1,.77-.167l.78,3.586,4.915-3.606a.394.394,0,1,1,.466.635l-5.4,3.965a.394.394,0,0,1-.233.076" transform="translate(-226.961 -31.474)" fill="#ebdad3"/>
          <path id="Trazado_991084" data-name="Trazado 991084" d="M543.28,227.314H526.209a1.65,1.65,0,0,1-1.6-1.665v-.23a1.605,1.605,0,0,1,1.605-1.605h17.071a.571.571,0,0,1,.571.571v2.3a.633.633,0,0,1-.581.631" transform="translate(-318.02 -135.676)" fill="#dfbcac"/>
          <path id="Trazado_991085" data-name="Trazado 991085" d="M549.888,227.348H532.817a1.605,1.605,0,0,1-1.605-1.605v-.23a1.605,1.605,0,0,1,1.605-1.605h17.071a.571.571,0,0,1,.571.571v2.3a.572.572,0,0,1-.571.571" transform="translate(-322.02 -135.732)" fill="#eacdc1"/>
          <path id="Trazado_991086" data-name="Trazado 991086" d="M551.665,227.594H534.293a1.092,1.092,0,0,1,0-2.185h17.372Z" transform="translate(-323.226 -136.642)" fill="#fff"/>
          <path id="Trazado_991087" data-name="Trazado 991087" d="M522.474,218.68h19.2a1.72,1.72,0,0,0,0-3.441h-19.2a.045.045,0,0,0-.045.045v3.351a.045.045,0,0,0,.045.045" transform="translate(-316.696 -130.477)" fill="#6e69e2"/>
          <path id="Trazado_991088" data-name="Trazado 991088" d="M520.563,218.68h14.846a1.72,1.72,0,1,0,0-3.441H520.563a.539.539,0,0,0-.539.538v2.364a.539.539,0,0,0,.539.538" transform="translate(-315.238 -130.477)" fill="#99f"/>
          <path id="Trazado_991089" data-name="Trazado 991089" d="M520.024,218.926H535.34a1.092,1.092,0,1,0,0-2.184H520.024Z" transform="translate(-315.238 -131.389)" fill="#fff"/>
          <path id="Trazado_991090" data-name="Trazado 991090" d="M526.232,210.012h15.432a1.72,1.72,0,1,0,0-3.441H526.232a.2.2,0,0,0-.2.2v3.048a.2.2,0,0,0,.2.2" transform="translate(-318.882 -125.223)" fill="#ef6354"/>
          <path id="Trazado_991091" data-name="Trazado 991091" d="M524.538,210.012H536.48a1.72,1.72,0,0,0,0-3.441H524.538a.49.49,0,0,0-.49.49v2.461a.49.49,0,0,0,.49.49" transform="translate(-317.677 -125.223)" fill="#f78781"/>
          <path id="Trazado_991092" data-name="Trazado 991092" d="M524.047,210.258h12.484a1.092,1.092,0,1,0,0-2.184H524.047Z" transform="translate(-317.676 -126.135)" fill="#fff"/>
          <path id="Trazado_991093" data-name="Trazado 991093" d="M241.881,227.34h17.071a1.605,1.605,0,0,0,1.605-1.605v-.23a1.605,1.605,0,0,0-1.605-1.605H241.881a.571.571,0,0,0-.571.571v2.3a.572.572,0,0,0,.571.571" transform="translate(-146.281 -135.727)" fill="#fcad4f"/>
          <path id="Trazado_991094" data-name="Trazado 991094" d="M235.282,227.432h17.071a1.605,1.605,0,0,0,1.605-1.605v-.23a1.605,1.605,0,0,0-1.605-1.605H235.282a.571.571,0,0,0-.571.571v2.3a.571.571,0,0,0,.571.571" transform="translate(-142.281 -135.783)" fill="#fcc486"/>
          <path id="Trazado_991095" data-name="Trazado 991095" d="M234.711,227.678h17.372a1.092,1.092,0,0,0,0-2.185H234.711Z" transform="translate(-142.281 -136.693)" fill="#fff"/>
          <path id="Trazado_991096" data-name="Trazado 991096" d="M260.048,218.764h-19.2a1.72,1.72,0,1,1,0-3.441h19.2a.045.045,0,0,1,.045.045v3.351a.045.045,0,0,1-.045.045" transform="translate(-144.957 -130.528)" fill="#6e69e2"/>
          <path id="Trazado_991097" data-name="Trazado 991097" d="M267.906,218.764H253.061a1.72,1.72,0,1,1,0-3.441h14.846a.539.539,0,0,1,.539.538v2.364a.539.539,0,0,1-.539.539" transform="translate(-152.362 -130.528)" fill="#99f"/>
          <path id="Trazado_991098" data-name="Trazado 991098" d="M269.517,219.01H254.2a1.092,1.092,0,0,1,0-2.185h15.316Z" transform="translate(-153.434 -131.439)" fill="#fff"/>
          <path id="Trazado_991099" data-name="Trazado 991099" d="M261.859,210.1H246.427a1.72,1.72,0,1,1,0-3.441h15.432a.2.2,0,0,1,.2.2V209.9a.2.2,0,0,1-.2.2" transform="translate(-148.341 -125.274)" fill="#ef6354"/>
          <path id="Trazado_991100" data-name="Trazado 991100" d="M268.476,210.1H256.534a1.72,1.72,0,0,1,0-3.441h11.942a.49.49,0,0,1,.49.49v2.461a.49.49,0,0,1-.49.49" transform="translate(-154.468 -125.274)" fill="#f78781"/>
          <path id="Trazado_991101" data-name="Trazado 991101" d="M269.852,210.342H257.368a1.092,1.092,0,0,1,0-2.185h12.484Z" transform="translate(-155.354 -126.185)" fill="#fff"/>
          <path id="Trazado_991102" data-name="Trazado 991102" d="M564.26,293.343h-.314a1.42,1.42,0,0,1-1.42-1.42V238.5h3.154v53.426a1.42,1.42,0,0,1-1.42,1.42" transform="translate(-341.002 -144.576)" fill="#e5c9c3"/>
          <path id="Trazado_991103" data-name="Trazado 991103" d="M219.138,292.881h-.314a1.42,1.42,0,0,1-1.42-1.42V238.035h3.153v53.426a1.419,1.419,0,0,1-1.419,1.42" transform="translate(-131.79 -144.297)" fill="#e5c9c3"/>
          <path id="Trazado_991104" data-name="Trazado 991104" d="M316.562,235.774H82.524a1.536,1.536,0,0,1,0-3.07H316.562a1.536,1.536,0,0,1,0,3.07" transform="translate(-39.569 -141.065)" fill="#e5c9c3"/>
          <path id="Trazado_991105" data-name="Trazado 991105" d="M377.171,108.358c0,3.611-4.243,6.538-9.477,6.538s-9.478-2.927-9.478-6.538,4.243-6.538,9.478-6.538,9.477,2.927,9.477,6.538" transform="translate(-217.15 -61.723)" fill="#dfbcac"/>
          <path id="Trazado_991106" data-name="Trazado 991106" d="M382.283,130.2l7.75,5.212-3.2-6.09Z" transform="translate(-231.739 -78.392)" fill="#dfbcac"/>
          <path id="Trazado_991107" data-name="Trazado 991107" d="M547.512,81.037c0,3.611,4.243,6.538,9.477,6.538s9.478-2.927,9.478-6.538-4.243-6.538-9.478-6.538-9.477,2.927-9.477,6.538" transform="translate(-331.901 -45.161)" fill="#fff"/>
          <path id="Trazado_991108" data-name="Trazado 991108" d="M559.649,102.875l-7.75,5.212,3.2-6.09Z" transform="translate(-334.561 -61.831)" fill="#fff"/>
          <path id="Trazado_991109" data-name="Trazado 991109" d="M636.345,118.416c0,3.228-3.793,5.844-8.472,5.844s-8.472-2.616-8.472-5.844,3.793-5.844,8.472-5.844,8.472,2.616,8.472,5.844" transform="translate(-375.48 -68.241)" fill="#dfbcac"/>
          <path id="Trazado_991110" data-name="Trazado 991110" d="M640.914,137.937l6.927,4.659-2.861-5.444Z" transform="translate(-388.521 -83.142)" fill="#dfbcac"/>
          <path id="Trazado_991113" data-name="Trazado 991113" d="M264.769,84.413c0,3.611-4.243,6.538-9.477,6.538s-9.478-2.927-9.478-6.538,4.243-6.538,9.478-6.538,9.477,2.927,9.477,6.538" transform="translate(-149.012 -47.208)" fill="#fff"/>
          <path id="Trazado_991114" data-name="Trazado 991114" d="M269.88,106.251l7.75,5.212-3.2-6.09Z" transform="translate(-163.601 -63.876)" fill="#fff"/>
          <path id="Trazado_991115" data-name="Trazado 991115" d="M142.722,196.27h-4.139a.76.76,0,0,1-.76-.76v-2.444a.76.76,0,0,1,.76-.76h4.139a.76.76,0,0,1,.76.76v2.444a.76.76,0,0,1-.76.76" transform="translate(-83.548 -116.576)" fill="#fff"/>
          <path id="Trazado_991116" data-name="Trazado 991116" d="M142.725,206.334h-4.139a.76.76,0,0,1-.76-.76v-2.444a.76.76,0,0,1,.76-.76h4.139a.76.76,0,0,1,.76.76v2.444a.76.76,0,0,1-.76.76" transform="translate(-83.55 -122.677)" fill="#fff"/>
          <path id="Trazado_991117" data-name="Trazado 991117" d="M142.725,216.4h-4.139a.76.76,0,0,1-.76-.76v-2.444a.76.76,0,0,1,.76-.76h4.139a.76.76,0,0,1,.76.76v2.444a.76.76,0,0,1-.76.76" transform="translate(-83.55 -128.778)" fill="#fff"/>
          <path id="Trazado_991118" data-name="Trazado 991118" d="M142.722,226.462h-4.139a.76.76,0,0,1-.76-.76v-2.444a.76.76,0,0,1,.76-.76h4.139a.76.76,0,0,1,.76.76V225.7a.76.76,0,0,1-.76.76" transform="translate(-83.548 -134.879)" fill="#fff"/>
          <rect id="Rect치ngulo_411777" data-name="Rect치ngulo 411777" width="2.653" height="1.684" transform="translate(55.778 74.344)" fill="#fff"/>
          <path id="Trazado_991119" data-name="Trazado 991119" d="M140.791,202.5a.146.146,0,0,1-.146-.146v-8.323a.146.146,0,0,1,.293,0v8.323a.146.146,0,0,1-.146.146" transform="translate(-85.259 -117.534)" fill="#eac89f"/>
          <path id="Trazado_991120" data-name="Trazado 991120" d="M143.84,187.145h-2.576a.31.31,0,0,1-.31-.31v-1.264a.31.31,0,0,1,.31-.309h2.576a.309.309,0,0,1,.31.309v1.264a.31.31,0,0,1-.31.31" transform="translate(-85.446 -112.306)" fill="#6e69e2"/>
          <rect id="Rect치ngulo_411778" data-name="Rect치ngulo 411778" width="309.293" height="157.521" fill="none"/>
        </g>
      </g>
    </g>
  </g>
</svg>
