<svg xmlns="http://www.w3.org/2000/svg" width="87.781" height="87.781" viewBox="0 0 87.781 87.781">
  <g id="Grupo_1162047" data-name="Grupo 1162047" transform="translate(-284.051 -2279)">
    <g id="Grupo_1158429" data-name="Grupo 1158429" transform="translate(0 1064.057)">
      <g id="Grupo_1148222" data-name="Grupo 1148222" transform="translate(284.051 1214.943)">
        <g id="Grupo_1103990" data-name="Grupo 1103990" transform="translate(0 0)">
          <g id="Trazado_874102" data-name="Trazado 874102" fill="#f3d02c">
            <path d="M 43.8906364440918 85.28125762939453 C 38.30183792114258 85.28125762939453 32.88154220581055 84.18724060058594 27.78030395507812 82.02960205078125 C 22.85183715820312 79.94503021240234 18.42508888244629 76.96026611328125 14.62304973602295 73.15821838378906 C 10.82099628448486 69.35617828369141 7.836236476898193 64.92942810058594 5.751663208007812 60.00096130371094 C 3.59402322769165 54.89972305297852 2.500009775161743 49.47942733764648 2.500009775161743 43.89062881469727 C 2.500009775161743 38.30183029174805 3.59402322769165 32.88153457641602 5.751663208007812 27.78029632568359 C 7.836236476898193 22.85182952880859 10.82099628448486 18.42508125305176 14.62304973602295 14.62304210662842 C 18.42508888244629 10.82098865509033 22.85183715820312 7.836228847503662 27.78030395507812 5.751655578613281 C 32.88154220581055 3.594015598297119 38.30183792114258 2.500002145767212 43.8906364440918 2.500002145767212 C 49.47943496704102 2.500002145767212 54.89973068237305 3.594015598297119 60.00096893310547 5.751655578613281 C 64.92943572998047 7.836228847503662 69.35618591308594 10.82098865509033 73.15822601318359 14.62304210662842 C 76.96027374267578 18.42508125305176 79.94503784179688 22.85182952880859 82.02960968017578 27.78029632568359 C 84.18724822998047 32.88153457641602 85.28126525878906 38.30183029174805 85.28126525878906 43.89062881469727 C 85.28126525878906 49.47942733764648 84.18724822998047 54.89972305297852 82.02960968017578 60.00096130371094 C 79.94503784179688 64.92942810058594 76.96027374267578 69.35617828369141 73.15822601318359 73.15821838378906 C 69.35618591308594 76.96026611328125 64.92943572998047 79.94503021240234 60.00096893310547 82.02960205078125 C 54.89973068237305 84.18724060058594 49.47943496704102 85.28125762939453 43.8906364440918 85.28125762939453 Z" stroke="none"/>
            <path d="M 43.8906364440918 4.999992370605469 C 38.63823699951172 4.999992370605469 33.54560470581055 6.027565002441406 28.75418472290039 8.054161071777344 C 24.12371826171875 10.0126953125 19.96407318115234 12.81754302978516 16.39080047607422 16.39079284667969 C 12.81755065917969 19.96406555175781 10.01270294189453 24.12371063232422 8.054168701171875 28.75417709350586 C 6.027572631835938 33.54559707641602 5 38.63822937011719 5 43.89062881469727 C 5 49.14302825927734 6.027572631835938 54.23566055297852 8.054168701171875 59.02707672119141 C 10.01270294189453 63.65754699707031 12.81755065917969 67.81719970703125 16.39080047607422 71.39046478271484 C 19.96407318115234 74.96371459960938 24.12371826171875 77.76856231689453 28.75418472290039 79.72709655761719 C 33.54560470581055 81.75369262695312 38.63823699951172 82.78126525878906 43.8906364440918 82.78126525878906 C 49.14303588867188 82.78126525878906 54.23566818237305 81.75369262695312 59.02708435058594 79.72709655761719 C 63.65755462646484 77.76856231689453 67.81719970703125 74.96371459960938 71.39047241210938 71.39046478271484 C 74.96372222900391 67.81719970703125 77.76856994628906 63.65754699707031 79.72710418701172 59.02707672119141 C 81.75370025634766 54.23566055297852 82.78127288818359 49.14302825927734 82.78127288818359 43.89062881469727 C 82.78127288818359 38.63822937011719 81.75370025634766 33.54559707641602 79.72710418701172 28.75417709350586 C 77.76856994628906 24.12371063232422 74.96372222900391 19.96406555175781 71.39047241210938 16.39079284667969 C 67.81719970703125 12.81754302978516 63.65755462646484 10.0126953125 59.02708435058594 8.054161071777344 C 54.23566818237305 6.027565002441406 49.14303588867188 4.999992370605469 43.8906364440918 4.999992370605469 M 43.8906364440918 -7.62939453125e-06 C 68.13075256347656 -7.62939453125e-06 87.78127288818359 19.6505126953125 87.78127288818359 43.89062881469727 C 87.78127288818359 68.13074493408203 68.13075256347656 87.78126525878906 43.8906364440918 87.78126525878906 C 19.65052032470703 87.78126525878906 0 68.13074493408203 0 43.89062881469727 C 0 19.6505126953125 19.65052032470703 -7.62939453125e-06 43.8906364440918 -7.62939453125e-06 Z" stroke="none" fill="#fff"/>
          </g>
        </g>
      </g>
    </g>
    <g id="automatizacion_1_" data-name="automatizacion (1)" transform="translate(299.051 2294)">
      <path id="Trazado_989573" data-name="Trazado 989573" d="M45.855,6.571V26.213H3V6.571A3.57,3.57,0,0,1,6.571,3H42.284A3.57,3.57,0,0,1,45.855,6.571Z" transform="translate(-0.107 -0.107)" fill="#edfcfc"/>
      <path id="Trazado_989574" data-name="Trazado 989574" d="M9,7H41.142V26.642H9Z" transform="translate(-0.75 -0.536)" fill="#d5dbdb"/>
      <path id="Trazado_989575" data-name="Trazado 989575" d="M9,7H41.142v7.143H9Z" transform="translate(-0.75 -0.536)" fill="#fda22e"/>
      <path id="Trazado_989576" data-name="Trazado 989576" d="M26.241,45.321l.366-.339a13.468,13.468,0,0,1-.723-2.678l-2.795-.652a15.991,15.991,0,0,1,0-3.375l2.795-.652a12.969,12.969,0,0,1,.527-2.125c.062-.187.125-.375.2-.554l-2.089-1.955a16.339,16.339,0,0,1,1.687-2.92l2.723.821a14.584,14.584,0,0,1,1.964-1.964l-.17-.571-.652-2.152a16.94,16.94,0,0,1,2.92-1.7l1.955,2.1a13.468,13.468,0,0,1,2.678-.723l.652-2.795a15.991,15.991,0,0,1,3.375,0l.652,2.795a13.468,13.468,0,0,1,2.678.723l1.955-2.089c.366.161.714.339,1.062.527a15.376,15.376,0,0,1,1.857,1.161l-.821,2.723A14.584,14.584,0,0,1,51,30.893l2.723-.821a16.94,16.94,0,0,1,1.7,2.92l-2.1,1.955a13.468,13.468,0,0,1,.723,2.678l2.795.652a15.991,15.991,0,0,1,0,3.375l-2.795.652a13.467,13.467,0,0,1-.723,2.678l2.089,1.955a16.339,16.339,0,0,1-1.687,2.92L51,49.035A14.584,14.584,0,0,1,49.035,51l.821,2.723a16.94,16.94,0,0,1-2.92,1.7l-1.955-2.1a13.468,13.468,0,0,1-2.678.723l-.652,2.795a15.991,15.991,0,0,1-3.375,0l-.652-2.795a13.467,13.467,0,0,1-2.678-.723l-1.955,2.089a16.339,16.339,0,0,1-2.92-1.687L30.893,51a14.584,14.584,0,0,1-1.964-1.964l-2.723.821c-.223-.312-.446-.634-.643-.964a17.12,17.12,0,0,1-1.054-1.955Zm19.08-5.357a5.357,5.357,0,1,0-5.357,5.357A5.361,5.361,0,0,0,45.321,39.964Z" transform="translate(-2.251 -2.251)" fill="#f82f45"/>
      <path id="Trazado_989577" data-name="Trazado 989577" d="M41.143,34a7.143,7.143,0,1,0,7.143,7.143A7.143,7.143,0,0,0,41.143,34Zm0,12.5A5.357,5.357,0,1,1,46.5,41.143,5.357,5.357,0,0,1,41.143,46.5Z" transform="translate(-3.43 -3.43)" fill="#d22435"/>
      <path id="Trazado_989578" data-name="Trazado 989578" d="M24.74,48l-1.732,1.616a17.119,17.119,0,0,0,1.054,1.955H12.571A3.57,3.57,0,0,1,9,48Z" transform="translate(-0.75 -4.93)" fill="#4bbee5"/>
      <path id="Trazado_989579" data-name="Trazado 989579" d="M25.026,43.8a13.468,13.468,0,0,0,.723,2.678l-.366.339H15L18.571,37h6.982a12.969,12.969,0,0,0-.527,2.125l-2.795.652a15.991,15.991,0,0,0,0,3.375Z" transform="translate(-1.393 -3.751)" fill="#3c7eb0"/>
      <path id="Trazado_989580" data-name="Trazado 989580" d="M3,29H28.579l.17.571a14.584,14.584,0,0,0-1.964,1.964l-2.723-.821a16.339,16.339,0,0,0-1.687,2.92l2.089,1.955c-.071.179-.134.366-.2.554H6.571A3.57,3.57,0,0,1,3,32.571Z" transform="translate(-0.107 -2.894)" fill="#4bbee5"/>
      <g id="Grupo_1162046" data-name="Grupo 1162046" transform="translate(2 2)">
        <path id="Trazado_989581" data-name="Trazado 989581" d="M54.794,35.157l-2.233-.521a15.131,15.131,0,0,0-.452-1.688l1.663-1.56a.894.894,0,0,0,.2-1.02A17.9,17.9,0,0,0,52.2,27.3a.892.892,0,0,0-.985-.332l-2.164.657A15.147,15.147,0,0,0,47.8,26.377l.659-2.163a.893.893,0,0,0-.332-.984q-.721-.52-1.489-.965V6.464A4.469,4.469,0,0,0,42.177,2H6.464A4.469,4.469,0,0,0,2,6.464V29.677a4.469,4.469,0,0,0,4.464,4.464H15.9l-2.922,8.035H8.25a.893.893,0,0,0-.893.893,4.469,4.469,0,0,0,4.464,4.464H22.843c.13.2.247.4.386.6a.891.891,0,0,0,.985.332l2.164-.657a15.147,15.147,0,0,0,1.245,1.244l-.659,2.163a.893.893,0,0,0,.332.984,17.781,17.781,0,0,0,3.073,1.78.89.89,0,0,0,1.02-.2l1.559-1.664a14.941,14.941,0,0,0,1.689.452l.521,2.234a.893.893,0,0,0,.782.686c.6.06,1.2.09,1.773.09s1.171-.03,1.774-.089a.893.893,0,0,0,.782-.686l.521-2.234a14.992,14.992,0,0,0,1.689-.452l1.559,1.664a.892.892,0,0,0,1.02.2,17.851,17.851,0,0,0,3.071-1.78.893.893,0,0,0,.333-.985L47.8,49.047A15.289,15.289,0,0,0,49.049,47.8l2.164.658a.894.894,0,0,0,.985-.332,17.894,17.894,0,0,0,1.779-3.072.892.892,0,0,0-.2-1.02l-1.663-1.56a15.1,15.1,0,0,0,.452-1.689l2.233-.521a.892.892,0,0,0,.686-.781c.058-.6.088-1.2.088-1.773s-.03-1.173-.09-1.775a.891.891,0,0,0-.685-.781ZM6.464,3.786H42.177a2.682,2.682,0,0,1,2.678,2.678V21.393a.887.887,0,0,0-.817.259L42.48,23.316a14.942,14.942,0,0,0-1.689-.452l-.521-2.234a.893.893,0,0,0-.782-.686,17.722,17.722,0,0,0-3.549,0,.893.893,0,0,0-.782.686l-.521,2.234a14.993,14.993,0,0,0-1.689.452l-1.559-1.664a.894.894,0,0,0-1.02-.2,17.852,17.852,0,0,0-3.071,1.78.893.893,0,0,0-.333.985l.305,1H9.143V14.5h8.928V12.714H9.143V7.357H39.5V18.071h1.786V6.464a.893.893,0,0,0-.893-.893H8.25a.893.893,0,0,0-.893.893V25.213H3.786V6.464A2.682,2.682,0,0,1,6.464,3.786ZM27,27c-.207.207-.428.4-.622.621L24.331,27ZM3.786,29.677V27H23.614a.881.881,0,0,0-.386.3,17.894,17.894,0,0,0-1.779,3.072.892.892,0,0,0,.2,1.02l1.034.969H6.464a2.682,2.682,0,0,1-2.678-2.678ZM17.8,34.142h5.178c-.04.164-.083.328-.117.494l-2.233.521a.892.892,0,0,0-.686.781c-.059.6-.089,1.2-.089,1.775s.03,1.172.09,1.775a.892.892,0,0,0,.686.781l2.233.521c.1.469.23.929.371,1.387H14.882ZM11.821,45.748A2.684,2.684,0,0,1,9.3,43.963H21.733l-.081.076a.894.894,0,0,0-.2,1.02c.106.235.238.46.355.69Zm41.932-7.069-2.167.506a.893.893,0,0,0-.678.724,13.333,13.333,0,0,1-.671,2.51.893.893,0,0,0,.226.965L52.076,44.9a16.047,16.047,0,0,1-.967,1.67l-2.1-.638a.89.89,0,0,0-.949.287,13.478,13.478,0,0,1-1.847,1.847.894.894,0,0,0-.287.949l.638,2.1a16.339,16.339,0,0,1-1.67.968l-1.511-1.613a.892.892,0,0,0-.965-.225,13.35,13.35,0,0,1-2.511.671.893.893,0,0,0-.724.678l-.505,2.167a15.5,15.5,0,0,1-1.932,0l-.505-2.167a.891.891,0,0,0-.724-.678,13.437,13.437,0,0,1-2.511-.671.892.892,0,0,0-.965.225l-1.511,1.613a15.976,15.976,0,0,1-1.67-.968l.639-2.1a.9.9,0,0,0-.287-.949,13.477,13.477,0,0,1-1.847-1.847.893.893,0,0,0-.949-.287l-2.1.637a16.149,16.149,0,0,1-.968-1.67l1.613-1.512a.893.893,0,0,0,.226-.965,13.36,13.36,0,0,1-.671-2.511.891.891,0,0,0-.678-.724l-2.167-.506c-.021-.327-.032-.65-.032-.965s.011-.638.03-.966l2.167-.506a.893.893,0,0,0,.678-.724,13.3,13.3,0,0,1,.671-2.51.892.892,0,0,0-.225-.966L23.35,30.529a16.142,16.142,0,0,1,.967-1.67l2.1.637a.9.9,0,0,0,.949-.287,13.527,13.527,0,0,1,1.847-1.847.894.894,0,0,0,.287-.949l-.638-2.1a16.338,16.338,0,0,1,1.67-.968l1.511,1.613a.892.892,0,0,0,.965.225,13.351,13.351,0,0,1,2.511-.671.893.893,0,0,0,.724-.678l.505-2.167a15.5,15.5,0,0,1,1.932,0l.505,2.167a.891.891,0,0,0,.724.678,13.437,13.437,0,0,1,2.511.671.9.9,0,0,0,.965-.225l1.511-1.613a15.976,15.976,0,0,1,1.67.968l-.639,2.1a.9.9,0,0,0,.287.949,13.477,13.477,0,0,1,1.847,1.847.89.89,0,0,0,.949.287l2.1-.637a16.149,16.149,0,0,1,.968,1.67L50.462,32.04a.893.893,0,0,0-.226.965,13.36,13.36,0,0,1,.671,2.511.891.891,0,0,0,.678.724l2.167.506c.021.329.032.652.032.967s-.011.638-.03.966Z" transform="translate(-2 -2)" fill="#171526"/>
        <path id="Trazado_989582" data-name="Trazado 989582" d="M47.5,41.25a6.25,6.25,0,1,0-6.25,6.25A6.257,6.257,0,0,0,47.5,41.25Zm-6.25,4.464a4.464,4.464,0,1,1,4.464-4.464A4.469,4.469,0,0,1,41.25,45.714Z" transform="translate(-5.537 -5.537)" fill="#171526"/>
        <path id="Trazado_989583" data-name="Trazado 989583" d="M33.6,36.016l-1.445-1.047a10.685,10.685,0,0,0-.983,1.65l1.61.772A8.938,8.938,0,0,1,33.6,36.016Z" transform="translate(-5.127 -5.534)" fill="#171526"/>
        <path id="Trazado_989584" data-name="Trazado 989584" d="M41.283,31.8,41.2,30.014a10.817,10.817,0,0,0-1.9.261l.4,1.74A9.034,9.034,0,0,1,41.283,31.8Z" transform="translate(-5.997 -5.002)" fill="#171526"/>
        <path id="Trazado_989585" data-name="Trazado 989585" d="M49.318,32.593l-1.111,1.4a9.054,9.054,0,0,1,1.162,1.1l1.339-1.18A10.934,10.934,0,0,0,49.318,32.593Z" transform="translate(-6.952 -5.279)" fill="#171526"/>
        <path id="Trazado_989586" data-name="Trazado 989586" d="M32.157,44.681l-1.721.475a10.53,10.53,0,0,0,.678,1.8l1.608-.778A8.85,8.85,0,0,1,32.157,44.681Z" transform="translate(-5.048 -6.574)" fill="#171526"/>
        <path id="Trazado_989587" data-name="Trazado 989587" d="M36.944,33.016l-.853-1.57a10.861,10.861,0,0,0-1.6,1.062L35.612,33.9a8.942,8.942,0,0,1,1.332-.886Z" transform="translate(-5.483 -5.156)" fill="#171526"/>
        <path id="Trazado_989588" data-name="Trazado 989588" d="M51.841,43.59l1.758.317A10.817,10.817,0,0,0,53.769,42v-.038L51.983,42A9.021,9.021,0,0,1,51.841,43.59Z" transform="translate(-7.342 -6.283)" fill="#171526"/>
        <path id="Trazado_989589" data-name="Trazado 989589" d="M42.459,51.964l.08,1.784a10.81,10.81,0,0,0,1.9-.257l-.4-1.741a9.006,9.006,0,0,1-1.587.214Z" transform="translate(-6.336 -7.332)" fill="#171526"/>
        <path id="Trazado_989590" data-name="Trazado 989590" d="M50.094,47.71l1.444,1.051a10.713,10.713,0,0,0,.986-1.648l-1.608-.775A9.072,9.072,0,0,1,50.094,47.71Z" transform="translate(-7.155 -6.752)" fill="#171526"/>
        <path id="Trazado_989591" data-name="Trazado 989591" d="M51.563,39.028l1.721-.478a10.5,10.5,0,0,0-.683-1.8l-1.6.782A8.724,8.724,0,0,1,51.563,39.028Z" transform="translate(-7.251 -5.725)" fill="#171526"/>
        <path id="Trazado_989592" data-name="Trazado 989592" d="M46.745,50.7l.847,1.571a10.667,10.667,0,0,0,1.6-1.06l-1.114-1.395a9.034,9.034,0,0,1-1.334.883Z" transform="translate(-6.796 -7.125)" fill="#171526"/>
        <path id="Trazado_989593" data-name="Trazado 989593" d="M37.295,52.846a10.638,10.638,0,0,0,1.829.591l.392-1.742A8.782,8.782,0,0,1,38,51.2Z" transform="translate(-5.783 -7.273)" fill="#171526"/>
        <path id="Trazado_989594" data-name="Trazado 989594" d="M34.318,48.59l-1.343,1.177a10.775,10.775,0,0,0,1.39,1.325l1.111-1.4a8.85,8.85,0,0,1-1.158-1.1Z" transform="translate(-5.32 -6.993)" fill="#171526"/>
        <path id="Trazado_989595" data-name="Trazado 989595" d="M46.416,30.877a10.588,10.588,0,0,0-1.83-.587l-.391,1.742a8.786,8.786,0,0,1,1.521.489Z" transform="translate(-6.522 -5.032)" fill="#171526"/>
        <path id="Trazado_989596" data-name="Trazado 989596" d="M31.924,40.2l-1.758-.313A10.773,10.773,0,0,0,30,41.773v.02l1.786-.02A9.1,9.1,0,0,1,31.924,40.2Z" transform="translate(-5.001 -6.06)" fill="#171526"/>
        <path id="Trazado_989597" data-name="Trazado 989597" d="M35.916,11.293l-1.262,1.262L36.7,14.6H25.464A4.469,4.469,0,0,0,21,19.067v5.357h1.786V19.067a2.682,2.682,0,0,1,2.678-2.678H36.7l-2.047,2.047L35.916,19.7l3.571-3.571a.892.892,0,0,0,0-1.262Z" transform="translate(-4.036 -2.996)" fill="#171526"/>
        <path id="Trazado_989598" data-name="Trazado 989598" d="M12,10h1.786v1.786H12Z" transform="translate(-3.072 -2.857)" fill="#171526"/>
        <path id="Trazado_989599" data-name="Trazado 989599" d="M16,10h1.786v1.786H16Z" transform="translate(-3.5 -2.857)" fill="#171526"/>
        <path id="Trazado_989600" data-name="Trazado 989600" d="M20,10h1.786v1.786H20Z" transform="translate(-3.929 -2.857)" fill="#171526"/>
      </g>
    </g>
  </g>
</svg>
