<svg xmlns="http://www.w3.org/2000/svg" xmlns:xlink="http://www.w3.org/1999/xlink" width="105.781" height="105.781" viewBox="0 0 105.781 105.781">
  <defs>
    <filter id="Trazado_874102" x="0" y="0" width="105.781" height="105.781" filterUnits="userSpaceOnUse">
      <feOffset dy="3" input="SourceAlpha"/>
      <feGaussianBlur stdDeviation="3" result="blur"/>
      <feFlood flood-opacity="0.161"/>
      <feComposite operator="in" in2="blur"/>
      <feComposite in="SourceGraphic"/>
    </filter>
  </defs>
  <g id="Grupo_1162051" data-name="Grupo 1162051" transform="translate(-905.051 -2273)">
    <g id="Grupo_1158431" data-name="Grupo 1158431" transform="translate(0.051 1064.057)">
      <g id="Grupo_1148225" data-name="Grupo 1148225" transform="translate(914 1214.943)">
        <g id="Grupo_1103990" data-name="Grupo 1103990" transform="translate(0 0)">
          <g transform="matrix(1, 0, 0, 1, -9, -6)" filter="url(#Trazado_874102)">
            <g id="Trazado_874102-2" data-name="Trazado 874102" transform="translate(9 6)" fill="#f3d02c">
              <path d="M 43.8906364440918 85.28125762939453 C 38.30183792114258 85.28125762939453 32.88154220581055 84.18724060058594 27.78030395507812 82.02960205078125 C 22.85183715820312 79.94503021240234 18.42508888244629 76.96026611328125 14.62304973602295 73.15821838378906 C 10.82099628448486 69.35617828369141 7.836236476898193 64.92942810058594 5.751663208007812 60.00096130371094 C 3.59402322769165 54.89972305297852 2.500009775161743 49.47942733764648 2.500009775161743 43.89062881469727 C 2.500009775161743 38.30183029174805 3.59402322769165 32.88153457641602 5.751663208007812 27.78029632568359 C 7.836236476898193 22.85182952880859 10.82099628448486 18.42508125305176 14.62304973602295 14.62304210662842 C 18.42508888244629 10.82098865509033 22.85183715820312 7.836228847503662 27.78030395507812 5.751655578613281 C 32.88154220581055 3.594015598297119 38.30183792114258 2.500002145767212 43.8906364440918 2.500002145767212 C 49.47943496704102 2.500002145767212 54.89973068237305 3.594015598297119 60.00096893310547 5.751655578613281 C 64.92943572998047 7.836228847503662 69.35618591308594 10.82098865509033 73.15822601318359 14.62304210662842 C 76.96027374267578 18.42508125305176 79.94503784179688 22.85182952880859 82.02960968017578 27.78029632568359 C 84.18724822998047 32.88153457641602 85.28126525878906 38.30183029174805 85.28126525878906 43.89062881469727 C 85.28126525878906 49.47942733764648 84.18724822998047 54.89972305297852 82.02960968017578 60.00096130371094 C 79.94503784179688 64.92942810058594 76.96027374267578 69.35617828369141 73.15822601318359 73.15821838378906 C 69.35618591308594 76.96026611328125 64.92943572998047 79.94503021240234 60.00096893310547 82.02960205078125 C 54.89973068237305 84.18724060058594 49.47943496704102 85.28125762939453 43.8906364440918 85.28125762939453 Z" stroke="none"/>
              <path d="M 43.8906364440918 4.999992370605469 C 38.63823699951172 4.999992370605469 33.54560470581055 6.027565002441406 28.75418472290039 8.054161071777344 C 24.12371826171875 10.0126953125 19.96407318115234 12.81754302978516 16.39080047607422 16.39079284667969 C 12.81755065917969 19.96406555175781 10.01270294189453 24.12371063232422 8.054168701171875 28.75417709350586 C 6.027572631835938 33.54559707641602 5 38.63822937011719 5 43.89062881469727 C 5 49.14302825927734 6.027572631835938 54.23566055297852 8.054168701171875 59.02707672119141 C 10.01270294189453 63.65754699707031 12.81755065917969 67.81719970703125 16.39080047607422 71.39046478271484 C 19.96407318115234 74.96371459960938 24.12371826171875 77.76856231689453 28.75418472290039 79.72709655761719 C 33.54560470581055 81.75369262695312 38.63823699951172 82.78126525878906 43.8906364440918 82.78126525878906 C 49.14303588867188 82.78126525878906 54.23566818237305 81.75369262695312 59.02708435058594 79.72709655761719 C 63.65755462646484 77.76856231689453 67.81719970703125 74.96371459960938 71.39047241210938 71.39046478271484 C 74.96372222900391 67.81719970703125 77.76856994628906 63.65754699707031 79.72710418701172 59.02707672119141 C 81.75370025634766 54.23566055297852 82.78127288818359 49.14302825927734 82.78127288818359 43.89062881469727 C 82.78127288818359 38.63822937011719 81.75370025634766 33.54559707641602 79.72710418701172 28.75417709350586 C 77.76856994628906 24.12371063232422 74.96372222900391 19.96406555175781 71.39047241210938 16.39079284667969 C 67.81719970703125 12.81754302978516 63.65755462646484 10.0126953125 59.02708435058594 8.054161071777344 C 54.23566818237305 6.027565002441406 49.14303588867188 4.999992370605469 43.8906364440918 4.999992370605469 M 43.8906364440918 -7.62939453125e-06 C 68.13075256347656 -7.62939453125e-06 87.78127288818359 19.6505126953125 87.78127288818359 43.89062881469727 C 87.78127288818359 68.13074493408203 68.13075256347656 87.78126525878906 43.8906364440918 87.78126525878906 C 19.65052032470703 87.78126525878906 0 68.13074493408203 0 43.89062881469727 C 0 19.6505126953125 19.65052032470703 -7.62939453125e-06 43.8906364440918 -7.62939453125e-06 Z" stroke="none" fill="#fff"/>
            </g>
          </g>
        </g>
      </g>
    </g>
    <g id="reduccion" transform="translate(919.031 2248.649)">
      <g id="Grupo_1162050" data-name="Grupo 1162050" transform="translate(14.738 54.071)">
        <circle id="Elipse_11709" data-name="Elipse 11709" cx="6.785" cy="6.785" r="6.785" transform="translate(35.206 0)" fill="#ffc338"/>
        <path id="Trazado_989636" data-name="Trazado 989636" d="M117.96,71.992a2.43,2.43,0,0,1,.633-.084h10a2.42,2.42,0,0,1,.822.143l1.271-2.85a.5.5,0,0,0-.037-.512.85.85,0,0,0-.257-.274,25.932,25.932,0,0,1-13.5,0,.713.713,0,0,0-.269.274.511.511,0,0,0-.026.528Z" transform="translate(-107.131 -68.41)" fill="#78b62e"/>
        <path id="Trazado_989637" data-name="Trazado 989637" d="M60.377,160.518l-8.257-6.4a.86.86,0,0,1-.152-1.206l1.422-1.833a.86.86,0,0,1,1.206-.152l3.1,2.406c-1.728-3.45-4.218-6.64-7.611-7.077H40.868c-5.221.689-9.554,8.235-11.69,20.482a10.608,10.608,0,0,0,2.167,8.58,7.727,7.727,0,0,0,5.956,2.891H51.788v-17.18a.86.86,0,0,1,.86-.86h4.367a.86.86,0,0,1,.86.86v15.857A8.333,8.333,0,0,0,59,175.962V164.956a.86.86,0,0,1,.86-.86h1.4c-.266-1.242-.56-2.441-.878-3.579Z" transform="translate(-29.012 -137.885)" fill="#78b62e"/>
      </g>
      <path id="Trazado_989638" data-name="Trazado 989638" d="M28.54,75.279c0,1.528.778,1.836,2.838,2.27,1.773.373,4.2.884,4.2,3.949a4.1,4.1,0,0,1-3.518,3.895v1.13a.86.86,0,1,1-1.719,0v-1.13A4.1,4.1,0,0,1,26.821,81.5a.86.86,0,1,1,1.719,0A2.486,2.486,0,0,0,31.2,83.751,2.484,2.484,0,0,0,33.859,81.5c0-1.526-.778-1.834-2.836-2.267-1.774-.373-4.2-.885-4.2-3.952a4.1,4.1,0,0,1,3.521-3.892v-1.13a.86.86,0,1,1,1.719,0v1.13a4.1,4.1,0,0,1,3.518,3.892.86.86,0,0,1-1.719,0,2.483,2.483,0,0,0-2.658-2.25,2.484,2.484,0,0,0-2.661,2.25ZM65.233,78.03v4.477a.86.86,0,0,1-.86.86H59.9a.86.86,0,0,1-.607-1.468l.794-.792-6.4-6.068-3.712,3.709a.86.86,0,0,1-1.134.071l-.508-.393q.218.912.415,1.857h1.213a.86.86,0,0,1,.86.86v14.11a.86.86,0,0,1-.86.86H45.585a.86.86,0,0,1-.86-.86v-.869a9.535,9.535,0,0,1-1.126.688v.182a.86.86,0,0,1-.86.86H23.026a9.419,9.419,0,0,1-7.271-3.5,12.346,12.346,0,0,1-2.544-9.982c.733-4.2,2.156-10.2,4.772-14.919,1.794-3.236,3.864-5.366,6.179-6.37a2.426,2.426,0,0,1-.005-2.658l-1.5-3.043a2.225,2.225,0,0,1,.107-2.19A1.971,1.971,0,0,1,24.892,52.4a23.913,23.913,0,0,0,12.673.009,1.936,1.936,0,0,1,2.134,1,2.209,2.209,0,0,1,.165,2.152l-1.491,3.343a2.429,2.429,0,0,1-.143,2.442c3.18,1.392,5.92,4.909,8.041,10.376l2.823,2.189,3.917-3.92a.86.86,0,0,1,1.2-.016l8.715,8.259.849-.824a.86.86,0,0,1,1.458.617ZM24.2,54.88l1.364,2.773a2.43,2.43,0,0,1,.633-.084h10a2.421,2.421,0,0,1,.822.143l1.271-2.85a.5.5,0,0,0-.037-.512A.85.85,0,0,0,38,54.077a25.932,25.932,0,0,1-13.5,0,.713.713,0,0,0-.269.274.511.511,0,0,0-.026.527Zm2.268,5.841a8.189,8.189,0,0,1,.91-.052h7.635a7.994,7.994,0,0,1,.9.052H36.2a.725.725,0,0,0,.715-.715.717.717,0,0,0-.715-.718h-10a.717.717,0,1,0,0,1.433Zm15.41,17.352H39.233v16.32h2.648ZM49.093,82H46.445V94.393h2.648ZM46.1,76.7l-8.257-6.4a.86.86,0,0,1-.152-1.206l1.422-1.833a.86.86,0,0,1,1.206-.152l3.1,2.406c-1.728-3.45-4.218-6.64-7.611-7.077H26.594c-5.221.689-9.554,8.235-11.69,20.482a10.608,10.608,0,0,0,2.167,8.58,7.727,7.727,0,0,0,5.956,2.891H37.514V77.213a.86.86,0,0,1,.86-.86H42.74a.86.86,0,0,1,.86.86V93.07a8.331,8.331,0,0,0,1.126-.922V81.142a.86.86,0,0,1,.86-.86h1.4c-.266-1.242-.56-2.441-.878-3.579Zm17.41,3.357a.86.86,0,0,1-1.172-.01L53.636,71.8l-3.861,3.864a.86.86,0,0,1-1.135.072L39.948,69l-.369.475L49.287,77l3.768-3.765a.86.86,0,0,1,1.2-.016l7.654,7.252a.86.86,0,0,1,.064,1.181h1.543Zm-5.493,3.453V95.252a.86.86,0,0,1-.86.86H52.8a.86.86,0,0,1-.86-.86V83.514a.86.86,0,0,1,.86-.86h4.364A.86.86,0,0,1,58.021,83.514Zm-1.719.86H53.657V94.393H56.3Zm8.931,1.86v9.018a.86.86,0,0,1-.86.86H60.006a.86.86,0,0,1-.86-.86V86.234a.86.86,0,0,1,.86-.86h4.367a.86.86,0,0,1,.86.86Zm-1.719.86H60.865v7.3h2.648ZM48.225,60.855a8.5,8.5,0,1,1,8.5,8.5,8.5,8.5,0,0,1-8.5-8.5Zm1.719,0a6.785,6.785,0,1,0,6.785-6.785,6.785,6.785,0,0,0-6.785,6.785Zm6.745,2.259a1.084,1.084,0,0,1-1.039-.791.86.86,0,1,0-1.655.463,2.811,2.811,0,0,0,1.875,1.921v.349a.86.86,0,1,0,1.719,0v-.345a2.546,2.546,0,0,0,1.906-2.374c.005-1.114-.855-2.322-2.756-2.341-.512-.006-1.059-.17-1.056-.615,0-.38.382-.784,1.083-.784a1.085,1.085,0,0,1,1.042.791.86.86,0,1,0,1.656-.462A2.809,2.809,0,0,0,57.588,57v-.348a.86.86,0,1,0-1.719,0V57a2.545,2.545,0,0,0-1.906,2.372c-.006,1.114.854,2.322,2.757,2.344.511.005,1.057.169,1.055.612,0,.382-.384.788-1.086.788Z" transform="translate(0 0)"/>
      <path id="Trazado_989639" data-name="Trazado 989639" d="M458.331,375.716h2.648v7.3h-2.648Z" transform="translate(-397.466 -288.622)" fill="#fe646f"/>
      <path id="Trazado_989640" data-name="Trazado 989640" d="M391.236,350.4h2.645v10.019h-2.645Z" transform="translate(-337.579 -266.028)" fill="#ffe177"/>
      <path id="Trazado_989641" data-name="Trazado 989641" d="M256.989,308.074h2.648v-16.32h-2.648Z" transform="translate(-217.756 -213.681)" fill="#6cf5c2"/>
      <path id="Trazado_989642" data-name="Trazado 989642" d="M324.113,328.321h2.648v12.391h-2.648Z" transform="translate(-277.668 -246.319)" fill="#8ac9fe"/>
      <path id="Trazado_989643" data-name="Trazado 989643" d="M260.215,207.75l9.707,7.525,3.768-3.765a.86.86,0,0,1,1.2-.016l7.654,7.252a.859.859,0,0,1,.064,1.181h1.543V218.34a.86.86,0,0,1-1.172-.01l-8.706-8.25-3.861,3.864a.86.86,0,0,1-1.135.072l-8.692-6.74Z" transform="translate(-220.636 -138.279)" fill="#ffe177"/>
      <path id="Trazado_989644" data-name="Trazado 989644" d="M129.736,116.915a.717.717,0,1,0,0,1.433h.271a8.188,8.188,0,0,1,.91-.052h7.635a7.993,7.993,0,0,1,.9.052h.283a.725.725,0,0,0,.715-.715.717.717,0,0,0-.715-.718Z" transform="translate(-103.536 -57.627)" fill="#837683"/>
    </g>
  </g>
</svg>
