<svg xmlns="http://www.w3.org/2000/svg" xmlns:xlink="http://www.w3.org/1999/xlink" width="105.781" height="105.781" viewBox="0 0 105.781 105.781">
  <defs>
    <filter id="Trazado_874102" x="0" y="0" width="105.781" height="105.781" filterUnits="userSpaceOnUse">
      <feOffset dy="3" input="SourceAlpha"/>
      <feGaussianBlur stdDeviation="3" result="blur"/>
      <feFlood flood-opacity="0.161"/>
      <feComposite operator="in" in2="blur"/>
      <feComposite in="SourceGraphic"/>
    </filter>
  </defs>
  <g id="Grupo_1162052" data-name="Grupo 1162052" transform="translate(-1220.051 -2273)">
    <g id="Grupo_1158432" data-name="Grupo 1158432" transform="translate(0.051 1064.057)">
      <g id="Grupo_1148226" data-name="Grupo 1148226" transform="translate(1229 1214.943)">
        <g id="Grupo_1103990" data-name="Grupo 1103990" transform="translate(0 0)">
          <g transform="matrix(1, 0, 0, 1, -9, -6)" filter="url(#Trazado_874102)">
            <g id="Trazado_874102-2" data-name="Trazado 874102" transform="translate(9 6)" fill="#f3d02c">
              <path d="M 43.8906364440918 85.28125762939453 C 38.30183792114258 85.28125762939453 32.88154220581055 84.18724060058594 27.78030395507812 82.02960205078125 C 22.85183715820312 79.94503021240234 18.42508888244629 76.96026611328125 14.62304973602295 73.15821838378906 C 10.82099628448486 69.35617828369141 7.836236476898193 64.92942810058594 5.751663208007812 60.00096130371094 C 3.59402322769165 54.89972305297852 2.500009775161743 49.47942733764648 2.500009775161743 43.89062881469727 C 2.500009775161743 38.30183029174805 3.59402322769165 32.88153457641602 5.751663208007812 27.78029632568359 C 7.836236476898193 22.85182952880859 10.82099628448486 18.42508125305176 14.62304973602295 14.62304210662842 C 18.42508888244629 10.82098865509033 22.85183715820312 7.836228847503662 27.78030395507812 5.751655578613281 C 32.88154220581055 3.594015598297119 38.30183792114258 2.500002145767212 43.8906364440918 2.500002145767212 C 49.47943496704102 2.500002145767212 54.89973068237305 3.594015598297119 60.00096893310547 5.751655578613281 C 64.92943572998047 7.836228847503662 69.35618591308594 10.82098865509033 73.15822601318359 14.62304210662842 C 76.96027374267578 18.42508125305176 79.94503784179688 22.85182952880859 82.02960968017578 27.78029632568359 C 84.18724822998047 32.88153457641602 85.28126525878906 38.30183029174805 85.28126525878906 43.89062881469727 C 85.28126525878906 49.47942733764648 84.18724822998047 54.89972305297852 82.02960968017578 60.00096130371094 C 79.94503784179688 64.92942810058594 76.96027374267578 69.35617828369141 73.15822601318359 73.15821838378906 C 69.35618591308594 76.96026611328125 64.92943572998047 79.94503021240234 60.00096893310547 82.02960205078125 C 54.89973068237305 84.18724060058594 49.47943496704102 85.28125762939453 43.8906364440918 85.28125762939453 Z" stroke="none"/>
              <path d="M 43.8906364440918 4.999992370605469 C 38.63823699951172 4.999992370605469 33.54560470581055 6.027565002441406 28.75418472290039 8.054161071777344 C 24.12371826171875 10.0126953125 19.96407318115234 12.81754302978516 16.39080047607422 16.39079284667969 C 12.81755065917969 19.96406555175781 10.01270294189453 24.12371063232422 8.054168701171875 28.75417709350586 C 6.027572631835938 33.54559707641602 5 38.63822937011719 5 43.89062881469727 C 5 49.14302825927734 6.027572631835938 54.23566055297852 8.054168701171875 59.02707672119141 C 10.01270294189453 63.65754699707031 12.81755065917969 67.81719970703125 16.39080047607422 71.39046478271484 C 19.96407318115234 74.96371459960938 24.12371826171875 77.76856231689453 28.75418472290039 79.72709655761719 C 33.54560470581055 81.75369262695312 38.63823699951172 82.78126525878906 43.8906364440918 82.78126525878906 C 49.14303588867188 82.78126525878906 54.23566818237305 81.75369262695312 59.02708435058594 79.72709655761719 C 63.65755462646484 77.76856231689453 67.81719970703125 74.96371459960938 71.39047241210938 71.39046478271484 C 74.96372222900391 67.81719970703125 77.76856994628906 63.65754699707031 79.72710418701172 59.02707672119141 C 81.75370025634766 54.23566055297852 82.78127288818359 49.14302825927734 82.78127288818359 43.89062881469727 C 82.78127288818359 38.63822937011719 81.75370025634766 33.54559707641602 79.72710418701172 28.75417709350586 C 77.76856994628906 24.12371063232422 74.96372222900391 19.96406555175781 71.39047241210938 16.39079284667969 C 67.81719970703125 12.81754302978516 63.65755462646484 10.0126953125 59.02708435058594 8.054161071777344 C 54.23566818237305 6.027565002441406 49.14303588867188 4.999992370605469 43.8906364440918 4.999992370605469 M 43.8906364440918 -7.62939453125e-06 C 68.13075256347656 -7.62939453125e-06 87.78127288818359 19.6505126953125 87.78127288818359 43.89062881469727 C 87.78127288818359 68.13074493408203 68.13075256347656 87.78126525878906 43.8906364440918 87.78126525878906 C 19.65052032470703 87.78126525878906 0 68.13074493408203 0 43.89062881469727 C 0 19.6505126953125 19.65052032470703 -7.62939453125e-06 43.8906364440918 -7.62939453125e-06 Z" stroke="none" fill="#fff"/>
            </g>
          </g>
        </g>
      </g>
    </g>
    <g id="confiar" transform="translate(1243.051 2293)">
      <path id="Trazado_989645" data-name="Trazado 989645" d="M57.2,38.662l-.219-.194a1.856,1.856,0,0,0-2.468,0l-8.739,7.8A9.305,9.305,0,0,1,43.05,47.95l-6.673,2.695a1.856,1.856,0,0,1-2.011-.415l-1.927-1.939,7.234-3.058a5.306,5.306,0,0,0,1.845-1.856,1.873,1.873,0,0,0-1.92-2.81l-10.035,1.78a9.282,9.282,0,0,0-3.32,1.282l-3.653,2.3a9.273,9.273,0,0,1-4.94,1.426H11V57.669l7.547-.76a9.273,9.273,0,0,1,3.488.314l3.559,1.023a9.3,9.3,0,0,0,2.557.36h5.066a9.273,9.273,0,0,0,3.855-.843l9.2-4.2a9.322,9.322,0,0,0,3.4-2.652l7.745-9.662a1.883,1.883,0,0,0-.22-2.582Z" transform="translate(-0.57 -2.281)" fill="#ffcf94"/>
      <path id="Trazado_989646" data-name="Trazado 989646" d="M3,46h7.493V60.049H3Z" transform="translate(-0.063 -2.788)" fill="#65788f"/>
      <path id="Trazado_989647" data-name="Trazado 989647" d="M16,10H45.972V34.352H16Z" transform="translate(-0.887 -0.507)" fill="#628ec5"/>
      <path id="Trazado_989648" data-name="Trazado 989648" d="M39.859,18.093l-.772-.13A14.081,14.081,0,0,1,31.43,14a14.081,14.081,0,0,1-7.658,3.963l-.772.13A16.717,16.717,0,0,0,30.014,29.82l1.415,1.04L33.2,29.494A16.689,16.689,0,0,0,39.859,18.1Z" transform="translate(-1.331 -0.76)" fill="#ffe66d"/>
      <path id="Trazado_989649" data-name="Trazado 989649" d="M57.029,37.7a2.8,2.8,0,0,0-3.712.007l-8.74,7.8a8.336,8.336,0,0,1-2.447,1.516l-6.673,2.685a.919.919,0,0,1-1-.206l-.95-.953,5.954-2.517a1.1,1.1,0,0,0,.115-.058,6.227,6.227,0,0,0,2.169-2.181,2.789,2.789,0,0,0-.1-3.046,2.761,2.761,0,0,0-2.788-1.167l-10.035,1.78a10.168,10.168,0,0,0-3.653,1.412l-3.653,2.3a8.327,8.327,0,0,1-4.443,1.282H11.366V45.43a.937.937,0,0,0-.937-.937H2.937A.937.937,0,0,0,2,45.43V59.479a.937.937,0,0,0,.937.937H10.43a.937.937,0,0,0,.937-.937v-1.03l6.7-.675a8.281,8.281,0,0,1,3.136.281l3.559,1.022a10.184,10.184,0,0,0,2.819.4h5.066A10.143,10.143,0,0,0,36.9,58.55l9.2-4.205a10.309,10.309,0,0,0,3.741-2.918l7.745-9.661a2.816,2.816,0,0,0-.329-3.873ZM9.493,58.543H3.873V46.366h5.62ZM56.117,40.6l-7.745,9.662a8.444,8.444,0,0,1-3.059,2.386l-9.2,4.2a8.284,8.284,0,0,1-3.466.755H27.581a8.284,8.284,0,0,1-2.3-.325l-3.559-1.022a10.184,10.184,0,0,0-3.84-.347l-6.517.656V48.225h5.713a10.211,10.211,0,0,0,5.441-1.569l3.651-2.3A8.312,8.312,0,0,1,29.155,43.2l10.034-1.78a.906.906,0,0,1,.92.387.937.937,0,0,1,.03,1.03,4.351,4.351,0,0,1-1.465,1.5L31.5,47.363a.937.937,0,0,0-.3,1.523l1.928,1.94a2.792,2.792,0,0,0,3.025.624l6.673-2.685a10.216,10.216,0,0,0,3-1.861l8.739-7.8a.923.923,0,0,1,1.224,0l.22.195a.944.944,0,0,1,.108,1.3Z" transform="translate(0 -2.218)"/>
      <path id="Trazado_989650" data-name="Trazado 989650" d="M6,56H7.873v1.873H6Z" transform="translate(-0.253 -3.422)"/>
      <path id="Trazado_989651" data-name="Trazado 989651" d="M53,22h3.747v1.873H53Z" transform="translate(-3.232 -1.267)"/>
      <path id="Trazado_989652" data-name="Trazado 989652" d="M7,22h3.747v1.873H7Z" transform="translate(-0.317 -1.267)"/>
      <path id="Trazado_989653" data-name="Trazado 989653" d="M31,2h1.873V5.747H31Z" transform="translate(-1.838)"/>
      <path id="Trazado_989654" data-name="Trazado 989654" d="M0,0H1.873V3.747H0Z" transform="translate(8.441 5.085) rotate(-45)"/>
      <path id="Trazado_989655" data-name="Trazado 989655" d="M0,0H3.747V1.873H0Z" transform="translate(47.776 6.413) rotate(-45)"/>
      <path id="Trazado_989656" data-name="Trazado 989656" d="M39.95,17.106l-.772-.129a13.069,13.069,0,0,1-7.148-3.7.965.965,0,0,0-1.328,0,13.07,13.07,0,0,1-7.147,3.7l-.773.129a.937.937,0,0,0-.776,1.03A17.616,17.616,0,0,0,29.4,30.516l1.415,1.041a.937.937,0,0,0,1.124-.014l1.769-1.37a17.658,17.658,0,0,0,7.017-12.02V18.14a.937.937,0,0,0-.775-1.034ZM32.559,28.69l-1.207.937L30.508,29a15.864,15.864,0,0,1-6.514-10.2,14.925,14.925,0,0,0,7.372-3.578A14.924,14.924,0,0,0,38.736,18.8,15.906,15.906,0,0,1,32.559,28.69Z" transform="translate(-1.267 -0.698)"/>
      <path id="Trazado_989657" data-name="Trazado 989657" d="M29.524,23.012,28.4,24.51l2.42,1.808a.937.937,0,0,0,1.357-.259l3.629-5.879L34.215,19.2l-3.091,5.009Z" transform="translate(-1.673 -1.09)"/>
      <path id="Trazado_989658" data-name="Trazado 989658" d="M15,9.937V34.289a.937.937,0,0,0,.937.937H45.909a.937.937,0,0,0,.937-.937V9.937A.937.937,0,0,0,45.909,9H15.937A.937.937,0,0,0,15,9.937Zm1.873.937h28.1V33.352h-28.1Z" transform="translate(-0.824 -0.444)"/>
    </g>
  </g>
</svg>
