<svg xmlns="http://www.w3.org/2000/svg" width="27.298" height="27.703" viewBox="0 0 27.298 27.703">
  <g id="Industry" transform="translate(-4.26 -3.848)">
    <path id="Trazado_990014" data-name="Trazado 990014" d="M16.8,35.911a.492.492,0,0,0-.492-.492h-.418v-2.89a4.451,4.451,0,0,0-4.234-4.045.406.406,0,0,1-.26-.112L9.424,26.505a1.785,1.785,0,0,0-1.014-.474l-.482-1.163a.813.813,0,0,1-.013-.568,3.78,3.78,0,0,0-1.939-4.661.853.853,0,0,0-1.223.606,29.754,29.754,0,0,0-.247,9.218,2.53,2.53,0,0,0,.733,1.476C9.379,35,9.459,34.91,9.473,35.4v.017H8.888a.492.492,0,0,0-.492.492v3.123a.492.492,0,0,0,.492.492H16.3a.492.492,0,0,0,.492-.492Zm-6.34-.537c-.028-.95-.258-.948-4.528-5.138a1.542,1.542,0,0,1-.446-.9A28.767,28.767,0,0,1,5.689,20.6a2.787,2.787,0,0,1,1.292,3.389,1.8,1.8,0,0,0,.037,1.257l.392.946A1.588,1.588,0,0,0,7.125,28.7l2.456,2.773a.492.492,0,1,0,.737-.653L7.862,28.051c-.256-.289-.374-.829,0-.989a.814.814,0,0,1,.882.157l1.968,1.867a1.393,1.393,0,0,0,.891.381,3.483,3.483,0,0,1,3.3,3.074v2.878H10.458Zm5.356,3.168H9.38V36.4h6.433Z" transform="translate(0 -7.974)"/>
    <path id="Trazado_990015" data-name="Trazado 990015" d="M34.261,39.034a.492.492,0,0,0,.492.492H42.17a.492.492,0,0,0,.492-.492V35.911a.492.492,0,0,0-.492-.492h-.586V35.4c.014-.492.094-.4,4.233-4.463a2.53,2.53,0,0,0,.733-1.476,29.754,29.754,0,0,0-.247-9.218.853.853,0,0,0-1.223-.606A3.78,3.78,0,0,0,43.143,24.3a.813.813,0,0,1-.013.568l-.482,1.163a1.785,1.785,0,0,0-1.014.474l-1.968,1.866a.406.406,0,0,1-.26.112,4.451,4.451,0,0,0-4.234,4.045v2.89h-.418a.492.492,0,0,0-.492.492ZM40.6,35.419H36.155V32.541a3.483,3.483,0,0,1,3.3-3.074,1.393,1.393,0,0,0,.891-.381l1.968-1.867a.814.814,0,0,1,.882-.157c.376.16.258.7,0,.989L40.74,30.824a.492.492,0,0,0,.737.653L43.932,28.7a1.588,1.588,0,0,0-.285-2.514l.392-.946a1.8,1.8,0,0,0,.037-1.257A2.787,2.787,0,0,1,45.369,20.6a28.768,28.768,0,0,1,.207,8.737,1.542,1.542,0,0,1-.446.9c-4.269,4.189-4.5,4.188-4.528,5.138Zm-5.355.984h6.433v2.139H35.245Z" transform="translate(-15.239 -7.974)"/>
    <path id="Trazado_990016" data-name="Trazado 990016" d="M25.153,19.569a3.934,3.934,0,1,1,2.783,1.154A3.936,3.936,0,0,1,25.153,19.569Zm.7-4.871h0a2.951,2.951,0,1,0,2.088-.865,2.952,2.952,0,0,0-2.088.865Z" transform="translate(-10.027 -4.572)"/>
    <path id="Trazado_990017" data-name="Trazado 990017" d="M27.722,20.049a2.463,2.463,0,0,1,0-3.479h0a2.46,2.46,0,1,1,0,3.479Zm.7-2.784a1.476,1.476,0,1,0,2.088,0,1.476,1.476,0,0,0-2.088,0Z" transform="translate(-11.552 -6.096)"/>
    <path id="Trazado_990018" data-name="Trazado 990018" d="M27.2,10.512a5.848,5.848,0,0,1,.6-.259.492.492,0,1,1,.337.925,4.758,4.758,0,0,0-.5.216.492.492,0,1,1-.439-.881Z" transform="translate(-11.512 -3.238)"/>
    <path id="Trazado_990019" data-name="Trazado 990019" d="M21.675,14.641a5.874,5.874,0,0,1,1.6-2.269.492.492,0,1,1,.649.74A4.889,4.889,0,0,0,22.59,15a.492.492,0,1,1-.916-.36Z" transform="translate(-8.828 -4.268)"/>
    <path id="Trazado_990020" data-name="Trazado 990020" d="M24.974,19.967l.325-1.3a6.667,6.667,0,0,0,1.2-.49l1.168.7a.806.806,0,0,0,.985-.122l1.211-1.211a.806.806,0,0,0,.121-.986L29.3,15.408a6.7,6.7,0,0,0,.5-1.2l1.32-.33a.806.806,0,0,0,.611-.783V11.387a.806.806,0,0,0-.611-.783l-1.3-.325a6.7,6.7,0,0,0-.49-1.2l.7-1.166a.8.8,0,0,0-.121-.986L28.694,5.713a.8.8,0,0,0-.985-.12l-1.149.689a6.7,6.7,0,0,0-1.2-.5l-.33-1.319a.806.806,0,0,0-.783-.612H22.538a.806.806,0,0,0-.783.612l-.325,1.3a6.717,6.717,0,0,0-1.2.49l-1.166-.7a.806.806,0,0,0-.986.122l-1.211,1.21a.8.8,0,0,0-.122.986l.689,1.149a6.694,6.694,0,0,0-.5,1.2l-1.32.331a.806.806,0,0,0-.611.783V13.04a.805.805,0,0,0,.611.783l1.3.325a6.7,6.7,0,0,0,.49,1.2l-.7,1.166a.806.806,0,0,0,.121.986l1.21,1.21a.8.8,0,0,0,.986.122l1.149-.689a6.722,6.722,0,0,0,1.2.5l.33,1.319a.806.806,0,0,0,.783.611h1.713A.806.806,0,0,0,24.974,19.967Zm-.56-1.817-.361,1.444H22.617l-.365-1.461a.492.492,0,0,0-.352-.356,5.72,5.72,0,0,1-1.484-.624.492.492,0,0,0-.506,0l-1.277.766L17.617,16.9l.774-1.291a.492.492,0,0,0,0-.5,5.725,5.725,0,0,1-.607-1.491.491.491,0,0,0-.358-.357L15.984,12.9V11.466l1.461-.366a.492.492,0,0,0,.357-.352,5.706,5.706,0,0,1,.623-1.483.493.493,0,0,0,0-.506l-.766-1.277,1.016-1.015,1.291.774a.49.49,0,0,0,.5,0,5.732,5.732,0,0,1,1.491-.607.492.492,0,0,0,.357-.358l.361-1.445h1.436l.366,1.462a.493.493,0,0,0,.353.357,5.683,5.683,0,0,1,1.483.623.492.492,0,0,0,.506,0L28.1,6.508l1.015,1.015-.774,1.291a.492.492,0,0,0,0,.5,5.719,5.719,0,0,1,.608,1.491.491.491,0,0,0,.358.357l1.445.361v1.436l-1.461.366a.492.492,0,0,0-.357.352,5.7,5.7,0,0,1-.623,1.484.493.493,0,0,0,0,.506l.766,1.277-1.016,1.016-1.292-.775a.5.5,0,0,0-.5,0,5.718,5.718,0,0,1-1.49.608.492.492,0,0,0-.357.358Z" transform="translate(-5.455 0)"/>
  </g>
</svg>
