<svg xmlns="http://www.w3.org/2000/svg" xmlns:xlink="http://www.w3.org/1999/xlink" width="105.781" height="105.781" viewBox="0 0 105.781 105.781">
  <defs>
    <filter id="Trazado_985594" x="0" y="0" width="105.781" height="105.781" filterUnits="userSpaceOnUse">
      <feOffset dy="3" input="SourceAlpha"/>
      <feGaussianBlur stdDeviation="3" result="blur"/>
      <feFlood flood-opacity="0.161"/>
      <feComposite operator="in" in2="blur"/>
      <feComposite in="SourceGraphic"/>
    </filter>
  </defs>
  <g id="Grupo_1162283" data-name="Grupo 1162283" transform="translate(-327.051 -3190)">
    <g id="Grupo_1159830" data-name="Grupo 1159830" transform="translate(-1 2081.332)">
      <g transform="matrix(1, 0, 0, 1, 328.05, 1108.67)" filter="url(#Trazado_985594)">
        <g id="Trazado_985594-2" data-name="Trazado 985594" transform="translate(9 6)" fill="#f3d02c">
          <path d="M 43.8906364440918 85.28125762939453 C 38.30183792114258 85.28125762939453 32.88154220581055 84.18724060058594 27.78030395507812 82.02960205078125 C 22.85183715820312 79.94503021240234 18.42508888244629 76.96026611328125 14.62304973602295 73.15821838378906 C 10.82099628448486 69.35617828369141 7.836236476898193 64.92942810058594 5.751663208007812 60.00096130371094 C 3.59402322769165 54.89972305297852 2.500009775161743 49.47942733764648 2.500009775161743 43.89062881469727 C 2.500009775161743 38.30183029174805 3.59402322769165 32.88153457641602 5.751663208007812 27.78029632568359 C 7.836236476898193 22.85182952880859 10.82099628448486 18.42508125305176 14.62304973602295 14.62304210662842 C 18.42508888244629 10.82098865509033 22.85183715820312 7.836228847503662 27.78030395507812 5.751655578613281 C 32.88154220581055 3.594015598297119 38.30183792114258 2.500002145767212 43.8906364440918 2.500002145767212 C 49.47943496704102 2.500002145767212 54.89973068237305 3.594015598297119 60.00096893310547 5.751655578613281 C 64.92943572998047 7.836228847503662 69.35618591308594 10.82098865509033 73.15822601318359 14.62304210662842 C 76.96027374267578 18.42508125305176 79.94503784179688 22.85182952880859 82.02960968017578 27.78029632568359 C 84.18724822998047 32.88153457641602 85.28126525878906 38.30183029174805 85.28126525878906 43.89062881469727 C 85.28126525878906 49.47942733764648 84.18724822998047 54.89972305297852 82.02960968017578 60.00096130371094 C 79.94503784179688 64.92942810058594 76.96027374267578 69.35617828369141 73.15822601318359 73.15821838378906 C 69.35618591308594 76.96026611328125 64.92943572998047 79.94503021240234 60.00096893310547 82.02960205078125 C 54.89973068237305 84.18724060058594 49.47943496704102 85.28125762939453 43.8906364440918 85.28125762939453 Z" stroke="none"/>
          <path d="M 43.8906364440918 4.999992370605469 C 38.63823699951172 4.999992370605469 33.54560470581055 6.027565002441406 28.75418472290039 8.054161071777344 C 24.12371826171875 10.0126953125 19.96407318115234 12.81754302978516 16.39080047607422 16.39079284667969 C 12.81755065917969 19.96406555175781 10.01270294189453 24.12371063232422 8.054168701171875 28.75417709350586 C 6.027572631835938 33.54559707641602 5 38.63822937011719 5 43.89062881469727 C 5 49.14302825927734 6.027572631835938 54.23566055297852 8.054168701171875 59.02707672119141 C 10.01270294189453 63.65754699707031 12.81755065917969 67.81719970703125 16.39080047607422 71.39046478271484 C 19.96407318115234 74.96371459960938 24.12371826171875 77.76856231689453 28.75418472290039 79.72709655761719 C 33.54560470581055 81.75369262695312 38.63823699951172 82.78126525878906 43.8906364440918 82.78126525878906 C 49.14303588867188 82.78126525878906 54.23566818237305 81.75369262695312 59.02708435058594 79.72709655761719 C 63.65755462646484 77.76856231689453 67.81719970703125 74.96371459960938 71.39047241210938 71.39046478271484 C 74.96372222900391 67.81719970703125 77.76856994628906 63.65754699707031 79.72710418701172 59.02707672119141 C 81.75370025634766 54.23566055297852 82.78127288818359 49.14302825927734 82.78127288818359 43.89062881469727 C 82.78127288818359 38.63822937011719 81.75370025634766 33.54559707641602 79.72710418701172 28.75417709350586 C 77.76856994628906 24.12371063232422 74.96372222900391 19.96406555175781 71.39047241210938 16.39079284667969 C 67.81719970703125 12.81754302978516 63.65755462646484 10.0126953125 59.02708435058594 8.054161071777344 C 54.23566818237305 6.027565002441406 49.14303588867188 4.999992370605469 43.8906364440918 4.999992370605469 M 43.8906364440918 -7.62939453125e-06 C 68.13075256347656 -7.62939453125e-06 87.78127288818359 19.6505126953125 87.78127288818359 43.89062881469727 C 87.78127288818359 68.13074493408203 68.13075256347656 87.78126525878906 43.8906364440918 87.78126525878906 C 19.65052032470703 87.78126525878906 0 68.13074493408203 0 43.89062881469727 C 0 19.6505126953125 19.65052032470703 -7.62939453125e-06 43.8906364440918 -7.62939453125e-06 Z" stroke="none" fill="#fff"/>
        </g>
      </g>
    </g>
    <g id="_3._Security_Code" data-name="3. Security Code" transform="translate(355.051 3215)">
      <path id="Trazado_990203" data-name="Trazado 990203" d="M3.306,17H37.9V50.058A2.306,2.306,0,0,1,35.6,52.365H3.306A2.306,2.306,0,0,1,1,50.058V19.306A2.306,2.306,0,0,1,3.306,17Z" transform="translate(-0.231 -3.93)" fill="#96a1c3"/>
      <path id="Trazado_990204" data-name="Trazado 990204" d="M25,12H47.3v6.15H25Z" transform="translate(-5.78 -2.774)" fill="#ccd3eb"/>
      <path id="Trazado_990205" data-name="Trazado 990205" d="M6,20H42.9V46.908A2.306,2.306,0,0,1,40.6,49.214H8.306A2.306,2.306,0,0,1,6,46.908Z" transform="translate(-1.387 -4.624)" fill="#f5f7ff"/>
      <path id="Trazado_990206" data-name="Trazado 990206" d="M40.6,54.306H8.306A2.306,2.306,0,0,1,6,52v2.306a2.306,2.306,0,0,0,2.306,2.306H40.6A2.306,2.306,0,0,0,42.9,54.306V52A2.306,2.306,0,0,1,40.6,54.306Z" transform="translate(-1.387 -12.022)" fill="#ccd3eb"/>
      <path id="Trazado_990207" data-name="Trazado 990207" d="M23.621,12H8.306A2.306,2.306,0,0,0,6,14.306V18.15H27.526l-1.745-4.613A2.306,2.306,0,0,0,23.621,12Z" transform="translate(-1.387 -2.774)" fill="#0074ff"/>
      <path id="Trazado_990208" data-name="Trazado 990208" d="M58.838,4.844V9.08a10.124,10.124,0,0,1-6.917,9.6A10.125,10.125,0,0,1,45,9.08V4.844l.823-.138A9.61,9.61,0,0,0,51.919,1a9.587,9.587,0,0,0,6.1,3.706Z" transform="translate(-10.404 -0.231)" fill="#0074ff"/>
      <path id="Trazado_990209" data-name="Trazado 990209" d="M53.769,14.613A.769.769,0,0,1,53,13.844V10.769a.769.769,0,0,1,1.538,0v3.075A.769.769,0,0,1,53.769,14.613Z" transform="translate(-12.254 -2.312)" fill="#f5f7ff"/>
      <path id="Trazado_990210" data-name="Trazado 990210" d="M27.769,16.538a.769.769,0,1,1,.769-.769A.769.769,0,0,1,27.769,16.538Z" transform="translate(-6.242 -3.468)" fill="#f5f7ff"/>
      <path id="Trazado_990211" data-name="Trazado 990211" d="M5.769,41A.769.769,0,0,0,5,41.769v1.538a.769.769,0,0,0,1.538,0V41.769A.769.769,0,0,0,5.769,41Z" transform="translate(-1.156 -9.479)" fill="#033c59"/>
      <path id="Trazado_990212" data-name="Trazado 990212" d="M48.557,3.844l-.815-.123A8.81,8.81,0,0,1,42.13.308a.769.769,0,0,0-1.23,0,8.81,8.81,0,0,1-5.612,3.413l-.815.123a.769.769,0,0,0-.646.769V8.457H6.919a3.075,3.075,0,0,0-3.075,3.075V12.3H3.075A3.075,3.075,0,0,0,0,15.376V46.128A3.075,3.075,0,0,0,3.075,49.2h32.29a3.075,3.075,0,0,0,3.075-3.075v-.769h.769a3.075,3.075,0,0,0,3.075-3.075V21.526a.769.769,0,0,0-1.538,0V42.284a1.538,1.538,0,0,1-1.538,1.538h-24.6V16.145H36.641a10.125,10.125,0,0,0,4.874,3.075.915.915,0,0,0,.246-.038A10.871,10.871,0,0,0,49.2,8.849V4.613a.769.769,0,0,0-.646-.769ZM5.382,11.532A1.538,1.538,0,0,1,6.919,9.994H22.234a1.538,1.538,0,0,1,1.438,1l1.361,3.613H5.382Zm7.688,32.29H6.919a1.538,1.538,0,0,1-1.538-1.538V36.9a.769.769,0,0,0-1.538,0v5.382a3.075,3.075,0,0,0,3.075,3.075H36.9v.769a1.538,1.538,0,0,1-1.538,1.538H3.075a1.538,1.538,0,0,1-1.538-1.538V15.376a1.538,1.538,0,0,1,1.538-1.538h.769V29.214a.769.769,0,0,0,1.538,0V16.145H13.07Zm13.6-29.214a45.611,45.611,0,0,0-1.776-4.613h9a10.817,10.817,0,0,0,1.538,4.613Zm21-5.758a9.333,9.333,0,0,1-6.15,8.787,9.333,9.333,0,0,1-6.15-8.787V5.266a10.348,10.348,0,0,0,6.15-3.29,10.348,10.348,0,0,0,6.15,3.29Z" transform="translate(0)" fill="#033c59"/>
      <path id="Trazado_990213" data-name="Trazado 990213" d="M39.851,47.222a.769.769,0,0,0-1.092,0l-1.538,1.538a.769.769,0,0,0,0,1.092l1.538,1.538A.772.772,0,0,0,39.851,50.3l-1-.992,1-.992a.769.769,0,0,0,0-1.092Z" transform="translate(-8.553 -10.865)" fill="#0074ff"/>
      <path id="Trazado_990214" data-name="Trazado 990214" d="M49.851,48.76l-1.538-1.538a.772.772,0,0,0-1.092,1.092l1,.992-1,.992a.772.772,0,0,0,1.092,1.092l1.538-1.538a.769.769,0,0,0,0-1.092Z" transform="translate(-10.866 -10.866)" fill="#0074ff"/>
      <path id="Trazado_990215" data-name="Trazado 990215" d="M44.489,44.993a.769.769,0,0,0-.93.561L42.021,51.7a.769.769,0,1,0,1.491.369l1.538-6.15A.769.769,0,0,0,44.489,44.993Z" transform="translate(-9.708 -10.397)" fill="#0074ff"/>
      <g id="Grupo_1162282" data-name="Grupo 1162282" transform="translate(6.919 5.382)">
        <path id="Trazado_990216" data-name="Trazado 990216" d="M9.769,24.538h3.075a.769.769,0,0,0,0-1.538H9.769a.769.769,0,0,0,0,1.538Z" transform="translate(-9 -10.699)" fill="#96a1c3"/>
        <path id="Trazado_990217" data-name="Trazado 990217" d="M12.844,27H9.769a.769.769,0,0,0,0,1.538h3.075a.769.769,0,0,0,0-1.538Z" transform="translate(-9 -11.624)" fill="#96a1c3"/>
        <path id="Trazado_990218" data-name="Trazado 990218" d="M12.844,31H9.769a.769.769,0,0,0,0,1.538h3.075a.769.769,0,0,0,0-1.538Z" transform="translate(-9 -12.549)" fill="#96a1c3"/>
        <path id="Trazado_990219" data-name="Trazado 990219" d="M12.844,35H9.769a.769.769,0,0,0,0,1.538h3.075a.769.769,0,0,0,0-1.538Z" transform="translate(-9 -13.474)" fill="#96a1c3"/>
        <path id="Trazado_990220" data-name="Trazado 990220" d="M12.844,39H9.769a.769.769,0,0,0,0,1.538h3.075a.769.769,0,0,0,0-1.538Z" transform="translate(-9 -14.398)" fill="#96a1c3"/>
        <path id="Trazado_990221" data-name="Trazado 990221" d="M12.844,43H9.769a.769.769,0,0,0,0,1.538h3.075a.769.769,0,0,0,0-1.538Z" transform="translate(-9 -15.323)" fill="#96a1c3"/>
        <path id="Trazado_990222" data-name="Trazado 990222" d="M12.844,47H9.769a.769.769,0,0,0,0,1.538h3.075a.769.769,0,0,0,0-1.538Z" transform="translate(-9 -16.248)" fill="#96a1c3"/>
        <path id="Trazado_990223" data-name="Trazado 990223" d="M21.769,24.538h4.613a.769.769,0,0,0,0-1.538H21.769a.769.769,0,0,0,0,1.538Z" transform="translate(-11.774 -10.699)" fill="#96a1c3"/>
        <path id="Trazado_990224" data-name="Trazado 990224" d="M31.769,24.538h9.994a.769.769,0,0,0,0-1.538H31.769a.769.769,0,0,0,0,1.538Z" transform="translate(-14.086 -10.699)" fill="#96a1c3"/>
        <path id="Trazado_990225" data-name="Trazado 990225" d="M21.769,28.538h1.538a.769.769,0,0,0,0-1.538H21.769a.769.769,0,0,0,0,1.538Z" transform="translate(-11.774 -11.624)" fill="#96a1c3"/>
        <path id="Trazado_990226" data-name="Trazado 990226" d="M38.532,27H27.769a.769.769,0,0,0,0,1.538H38.532a.769.769,0,0,0,0-1.538Z" transform="translate(-13.162 -11.624)" fill="#96a1c3"/>
        <path id="Trazado_990227" data-name="Trazado 990227" d="M21.769,32.538H35.607a.769.769,0,0,0,0-1.538H21.769a.769.769,0,0,0,0,1.538Z" transform="translate(-11.774 -12.549)" fill="#96a1c3"/>
        <path id="Trazado_990228" data-name="Trazado 990228" d="M43,31.769a.769.769,0,0,0,.769.769h3.075a.769.769,0,0,0,0-1.538H43.769A.769.769,0,0,0,43,31.769Z" transform="translate(-16.861 -12.549)" fill="#96a1c3"/>
        <path id="Trazado_990229" data-name="Trazado 990229" d="M21.769,36.538h2.306a.769.769,0,0,0,0-1.538H21.769a.769.769,0,0,0,0,1.538Z" transform="translate(-11.774 -13.474)" fill="#96a1c3"/>
        <path id="Trazado_990230" data-name="Trazado 990230" d="M28,35.769a.769.769,0,0,0,.769.769h12.3a.769.769,0,0,0,0-1.538h-12.3A.769.769,0,0,0,28,35.769Z" transform="translate(-13.393 -13.474)" fill="#96a1c3"/>
        <path id="Trazado_990231" data-name="Trazado 990231" d="M21.769,40.538h6.15a.769.769,0,0,0,0-1.538h-6.15a.769.769,0,0,0,0,1.538Z" transform="translate(-11.774 -14.398)" fill="#96a1c3"/>
        <path id="Trazado_990232" data-name="Trazado 990232" d="M44.532,39H33.769a.769.769,0,0,0,0,1.538H44.532a.769.769,0,0,0,0-1.538Z" transform="translate(-14.549 -14.398)" fill="#96a1c3"/>
        <path id="Trazado_990233" data-name="Trazado 990233" d="M30.226,43H21.769a.769.769,0,0,0,0,1.538h8.457a.769.769,0,0,0,0-1.538Z" transform="translate(-11.774 -15.323)" fill="#96a1c3"/>
        <path id="Trazado_990234" data-name="Trazado 990234" d="M24.844,47H21.769a.769.769,0,0,0,0,1.538h3.075a.769.769,0,0,0,0-1.538Z" transform="translate(-11.774 -16.248)" fill="#96a1c3"/>
        <path id="Trazado_990235" data-name="Trazado 990235" d="M40.769,7a.769.769,0,1,0,.769.769A.769.769,0,0,0,40.769,7Z" transform="translate(-16.167 -7)" fill="#96a1c3"/>
        <path id="Trazado_990236" data-name="Trazado 990236" d="M36.769,7a.769.769,0,1,0,.769.769A.769.769,0,0,0,36.769,7Z" transform="translate(-15.242 -7)" fill="#96a1c3"/>
      </g>
    </g>
  </g>
</svg>
