<svg xmlns="http://www.w3.org/2000/svg" xmlns:xlink="http://www.w3.org/1999/xlink" width="167.337" height="150" viewBox="0 0 167.337 150">
  <defs>
    <filter id="Trazado_979554" x="0" y="11.08" width="167.337" height="138.92" filterUnits="userSpaceOnUse">
      <feOffset dy="3" input="SourceAlpha"/>
      <feGaussianBlur stdDeviation="3" result="blur"/>
      <feFlood flood-opacity="0.161"/>
      <feComposite operator="in" in2="blur"/>
      <feComposite in="SourceGraphic"/>
    </filter>
    <filter id="Trazado_979554-2" x="0" y="11.08" width="167.337" height="138.92" filterUnits="userSpaceOnUse">
      <feOffset dy="3" input="SourceAlpha"/>
      <feGaussianBlur stdDeviation="3" result="blur-2"/>
      <feFlood flood-opacity="0.161"/>
      <feComposite operator="in" in2="blur-2"/>
      <feComposite in="SourceGraphic"/>
    </filter>
  </defs>
  <g id="Grupo_1162372" data-name="Grupo 1162372" transform="translate(-229.602 -2338.6)">
    <g id="Grupo_1162370" data-name="Grupo 1162370">
      <g id="Grupo_1160573" data-name="Grupo 1160573" transform="translate(45.551 -2335.4)">
        <rect id="Rect치ngulo_401557" data-name="Rect치ngulo 401557" width="144" height="138" rx="12" transform="translate(193.051 4674)" fill="#78b62e"/>
      </g>
      <g id="Grupo_1162369" data-name="Grupo 1162369">
        <g transform="matrix(1, 0, 0, 1, 229.6, 2338.6)" filter="url(#Trazado_979554)">
          <path id="Trazado_979554-3" data-name="Trazado 979554" d="M382.792,70.311q.8-2.174,1.752-4.323c8.094-18.227,24.45-34.72,44.17-40.975,20.675-6.558,45.1-3.885,61.778,9.46,20.66,16.53,30,56.858,2.169,71.832a32.926,32.926,0,0,1-24.89,2.39c-12.5-3.857-22.4-15.156-35.542-15.315-7.347-.091-14.123,3.412-20.89,6.137s-14.674,4.7-21.29,1.662c-5.473-2.517-8.873-8.126-9.741-13.85S380.789,75.771,382.792,70.311Z" transform="translate(-325.97 -108.42) rotate(16)" fill="#e3f0d4" opacity="0.85"/>
        </g>
        <g id="robot-industrial" transform="translate(246.051 2337.08)">
          <g id="Grupo_1162290" data-name="Grupo 1162290">
            <path id="Trazado_990300" data-name="Trazado 990300" d="M83,30.912A1,1,0,0,0,82,30H72a1,1,0,0,0-1,.912l-3,34A1,1,0,0,0,69,66H85a1,1,0,0,0,1-1.088Z" fill="#00cac8"/>
          </g>
          <g id="Grupo_1162291" data-name="Grupo 1162291">
            <path id="Trazado_990301" data-name="Trazado 990301" d="M115,104.21V118a1,1,0,0,1-1,1H100a1,1,0,0,1-1-1V99a1,1,0,0,1,1-1h8.79A6.222,6.222,0,0,1,115,104.21Z" fill="#00cac8"/>
          </g>
          <g id="Grupo_1162292" data-name="Grupo 1162292">
            <path id="Trazado_990302" data-name="Trazado 990302" d="M28.95,99v19a1,1,0,0,1-1,1h-14a1,1,0,0,1-1-1V104.21A6.222,6.222,0,0,1,19.16,98h8.79A1,1,0,0,1,28.95,99Z" fill="#00cac8"/>
          </g>
          <g id="Grupo_1162293" data-name="Grupo 1162293">
            <path id="Trazado_990303" data-name="Trazado 990303" d="M86.316,64H41.686A14.7,14.7,0,0,0,27,78.685V118a1,1,0,0,0,1,1h72a1,1,0,0,0,1-1V78.685A14.7,14.7,0,0,0,86.316,64Z" fill="#32cfff"/>
          </g>
          <g id="Grupo_1162294" data-name="Grupo 1162294">
            <path id="Trazado_990304" data-name="Trazado 990304" d="M55,68.5A4.5,4.5,0,0,1,59.5,64h19a4.5,4.5,0,0,1,0,9h-19A4.5,4.5,0,0,1,55,68.5Z" fill="#b3f1ff"/>
          </g>
          <g id="Grupo_1162295" data-name="Grupo 1162295">
            <path id="Trazado_990305" data-name="Trazado 990305" d="M31.5,106a4.5,4.5,0,0,1-4.5-4.5v-19a4.5,4.5,0,0,1,9,0v19A4.5,4.5,0,0,1,31.5,106Z" fill="#b3f1ff"/>
          </g>
          <g id="Grupo_1162296" data-name="Grupo 1162296">
            <path id="Trazado_990306" data-name="Trazado 990306" d="M41,68.5A4.5,4.5,0,0,1,45.5,64h1a4.5,4.5,0,0,1,0,9h-1A4.5,4.5,0,0,1,41,68.5Z" fill="#b3f1ff"/>
          </g>
          <g id="Grupo_1162297" data-name="Grupo 1162297">
            <path id="Trazado_990307" data-name="Trazado 990307" d="M101,78.69V118a1,1,0,0,1-1,1H28a1,1,0,0,1-1-1v-8H86a1,1,0,0,0,1-1V69.69A14.566,14.566,0,0,0,85.85,64h.47A14.7,14.7,0,0,1,101,78.69Z" fill="#268bdd"/>
          </g>
          <g id="Grupo_1162298" data-name="Grupo 1162298">
            <path id="Trazado_990308" data-name="Trazado 990308" d="M100,119H28a1,1,0,0,1-1-1V90.15a1,1,0,0,1,2,0V117H99V78.68A12.7,12.7,0,0,0,86.32,66H41.69A12.7,12.7,0,0,0,29,78.68v3.99a1,1,0,0,1-2,0V78.68A14.7,14.7,0,0,1,41.69,64H86.32A14.7,14.7,0,0,1,101,78.68V118A1,1,0,0,1,100,119Z"/>
          </g>
          <g id="Grupo_1162299" data-name="Grupo 1162299">
            <path id="Trazado_990309" data-name="Trazado 990309" d="M96,84.5A6.513,6.513,0,0,1,89.5,91h-51a6.5,6.5,0,0,1,0-13h51A6.513,6.513,0,0,1,96,84.5Z" fill="#e7e7e7"/>
          </g>
          <g id="Grupo_1162300" data-name="Grupo 1162300">
            <path id="Trazado_990310" data-name="Trazado 990310" d="M58.65,78,53.63,91H42.91l5.03-13Z" fill="#fff"/>
          </g>
          <g id="Grupo_1162301" data-name="Grupo 1162301">
            <path id="Trazado_990311" data-name="Trazado 990311" d="M69.38,78,64.35,91H59l5.02-13Z" fill="#fff"/>
          </g>
          <g id="Grupo_1162302" data-name="Grupo 1162302">
            <path id="Trazado_990312" data-name="Trazado 990312" d="M83.31,78,78.29,91H68.64l5.03-13Z" fill="#fff"/>
          </g>
          <g id="Grupo_1162303" data-name="Grupo 1162303">
            <path id="Trazado_990313" data-name="Trazado 990313" d="M96,84.5A6.513,6.513,0,0,1,89.5,91H87V78h2.5A6.513,6.513,0,0,1,96,84.5Z" fill="#a5a5a5"/>
          </g>
          <g id="Grupo_1162304" data-name="Grupo 1162304">
            <path id="Trazado_990314" data-name="Trazado 990314" d="M86,64.91A1,1,0,0,1,85,66H69a1,1,0,0,1-1-1.09L68.35,61H80a1,1,0,0,0,1-1.09L78.36,30H82a1.009,1.009,0,0,1,1,.91Z" fill="#067c76"/>
          </g>
          <g id="Grupo_1162305" data-name="Grupo 1162305">
            <path id="Trazado_990315" data-name="Trazado 990315" d="M84.32,45.91a1,1,0,0,1-1,1.09H70.68a1,1,0,0,1-1-1.09l.61-7a1.009,1.009,0,0,1,1-.91H82.71a1,1,0,0,1,.99.88Z" fill="#00a2da"/>
          </g>
          <g id="Grupo_1162306" data-name="Grupo 1162306">
            <path id="Trazado_990316" data-name="Trazado 990316" d="M71,103.83V118a1,1,0,0,1-1,1H57a1,1,0,0,1-1-1V103.83A4.84,4.84,0,0,1,60.83,99h5.34A4.84,4.84,0,0,1,71,103.83Z" fill="#ff7f00"/>
          </g>
          <g id="Grupo_1162307" data-name="Grupo 1162307">
            <path id="Trazado_990317" data-name="Trazado 990317" d="M57,30.912A1,1,0,0,0,56,30H46a1,1,0,0,0-1,.912l-3,34A1,1,0,0,0,43,66H59a1,1,0,0,0,1-1.088Z" fill="#00cac8"/>
          </g>
          <g id="Grupo_1162308" data-name="Grupo 1162308">
            <circle id="Elipse_11757" data-name="Elipse 11757" cx="2" cy="2" r="2" transform="translate(71 33)" fill="#71fffb"/>
          </g>
          <g id="Grupo_1162309" data-name="Grupo 1162309">
            <path id="Trazado_990318" data-name="Trazado 990318" d="M70.347,58.961A2,2,0,0,1,68.6,56.738l.831-6.951a2,2,0,0,1,3.971.475l-.831,6.951A2,2,0,0,1,70.347,58.961Z" fill="#71fffb"/>
          </g>
          <g id="Grupo_1162310" data-name="Grupo 1162310">
            <path id="Trazado_990319" data-name="Trazado 990319" d="M60,64.91A1,1,0,0,1,59,66H43a1,1,0,0,1-1-1.09L42.35,61H54a1,1,0,0,0,1-1.09L52.36,30H56a1.009,1.009,0,0,1,1,.91Z" fill="#067c76"/>
          </g>
          <g id="Grupo_1162316" data-name="Grupo 1162316">
            <g id="Grupo_1162311" data-name="Grupo 1162311">
              <path id="Trazado_990320" data-name="Trazado 990320" d="M93.922,8H82.194a6.279,6.279,0,0,0-6.272,6.273V21H74.546a3.628,3.628,0,0,0-3.624,3.624V32a1,1,0,0,0,2,0v-.1l8.02-.8a.989.989,0,0,0,.98.9,1,1,0,0,0,1-1V26h4.8a4.2,4.2,0,0,0,4.2-4.2V20h2a6,6,0,0,0,0-12Z" fill="#e7e7e7"/>
            </g>
            <g id="Grupo_1162312" data-name="Grupo 1162312">
              <path id="Trazado_990321" data-name="Trazado 990321" d="M99.9,14.424A6.153,6.153,0,0,1,93.691,20H91.92v1.8a4.2,4.2,0,0,1-4.2,4.2h-4.8v5a1,1,0,0,1-1,1,.989.989,0,0,1-.98-.9l-8.02.8V32a1,1,0,0,1-2,0V28h6.406A2.674,2.674,0,0,0,80,25.326V23h4.8A4.2,4.2,0,0,0,89,18.8V17h1.764a6.157,6.157,0,0,0,6.217-5.519,5.97,5.97,0,0,0-.491-2.9,5.994,5.994,0,0,1,3.415,5.844Z" fill="#a5a5a5"/>
            </g>
            <g id="Grupo_1162313" data-name="Grupo 1162313">
              <path id="Trazado_990322" data-name="Trazado 990322" d="M71.922,33a1,1,0,0,1-1-1V24.624A3.628,3.628,0,0,1,74.546,21h1.376V14.273A6.279,6.279,0,0,1,82.194,8H93.922a6,6,0,0,1,0,12h-2v1.8a4.2,4.2,0,0,1-4.2,4.2h-4.8v5a1,1,0,0,1-2,0V25a1,1,0,0,1,1-1h5.8a2.2,2.2,0,0,0,2.2-2.2V19a1,1,0,0,1,1-1h3a4,4,0,0,0,0-8H82.194a4.278,4.278,0,0,0-4.272,4.273V22a1,1,0,0,1-1,1H74.546a1.626,1.626,0,0,0-1.624,1.624V32A1,1,0,0,1,71.922,33Z"/>
            </g>
            <g id="Grupo_1162314" data-name="Grupo 1162314">
              <path id="Trazado_990323" data-name="Trazado 990323" d="M85,23a1,1,0,0,1,0-2,.96.96,0,0,0,.852-.316,3.574,3.574,0,0,0,.177-2.444,1,1,0,0,1,1.94-.483c.067.269.623,2.667-.54,4.156A2.919,2.919,0,0,1,85,23Z"/>
            </g>
            <g id="Grupo_1162315" data-name="Grupo 1162315">
              <path id="Trazado_990324" data-name="Trazado 990324" d="M94,17a1,1,0,0,1-.449-1.895c1.177-.588.5-2.771.5-2.793a1,1,0,0,1,1.9-.629c.474,1.42.69,4.115-1.5,5.211A.991.991,0,0,1,94,17Z"/>
            </g>
          </g>
          <g id="Grupo_1162317" data-name="Grupo 1162317">
            <circle id="Elipse_11758" data-name="Elipse 11758" cx="2" cy="2" r="2" transform="translate(45 33)" fill="#71fffb"/>
          </g>
          <g id="Grupo_1162318" data-name="Grupo 1162318">
            <path id="Trazado_990325" data-name="Trazado 990325" d="M44.347,58.961A2,2,0,0,1,42.6,56.738l.831-6.951a2,2,0,0,1,3.971.475l-.831,6.951A2,2,0,0,1,44.347,58.961Z" fill="#71fffb"/>
          </g>
          <g id="Grupo_1162319" data-name="Grupo 1162319">
            <path id="Trazado_990326" data-name="Trazado 990326" d="M84.32,45.91a1,1,0,0,1-1,1.09H79.86l-.79-9h3.64a1,1,0,0,1,.99.88Z" fill="#0a7a99"/>
          </g>
          <g id="Grupo_1162320" data-name="Grupo 1162320">
            <path id="Trazado_990327" data-name="Trazado 990327" d="M71,110v8a1,1,0,0,1-1,1H57a1,1,0,0,1-1-1v-8Z" fill="#e84800"/>
          </g>
          <g id="Grupo_1162321" data-name="Grupo 1162321">
            <path id="Trazado_990328" data-name="Trazado 990328" d="M89.5,91h-51a6.5,6.5,0,0,1,0-13h51a6.5,6.5,0,0,1,0,13Zm-51-11a4.5,4.5,0,0,0,0,9h51a4.5,4.5,0,0,0,0-9Z"/>
          </g>
          <g id="Grupo_1162322" data-name="Grupo 1162322">
            <path id="Trazado_990329" data-name="Trazado 990329" d="M70,119H57a1,1,0,0,1-1-1V103.832A4.836,4.836,0,0,1,60.831,99h5.338A4.836,4.836,0,0,1,71,103.832V118A1,1,0,0,1,70,119Zm-12-2H69V103.832A2.834,2.834,0,0,0,66.169,101H60.831A2.834,2.834,0,0,0,58,103.832Z"/>
          </g>
          <g id="Grupo_1162323" data-name="Grupo 1162323">
            <path id="Trazado_990330" data-name="Trazado 990330" d="M85,66H69a1,1,0,0,1-1-1.089l.73-8.25a1.01,1.01,0,0,1,1.084-.908,1,1,0,0,1,.908,1.085L70.093,64H83.907L81.085,32h-8.17L70.986,53.938a1,1,0,1,1-1.992-.174L71,30.913A1,1,0,0,1,72,30H82a1,1,0,0,1,1,.912l3,34A1,1,0,0,1,85,66Z"/>
          </g>
          <g id="Grupo_1162324" data-name="Grupo 1162324">
            <path id="Trazado_990331" data-name="Trazado 990331" d="M57.706,38.913a1,1,0,0,0-1-.913H45.29a1,1,0,0,0-1,.913l-.61,7a1,1,0,0,0,1,1.087H57.32a1,1,0,0,0,1-1.087Z" fill="#00a2da"/>
          </g>
          <g id="Grupo_1162325" data-name="Grupo 1162325">
            <path id="Trazado_990332" data-name="Trazado 990332" d="M83.32,47H70.68a1,1,0,0,1-1-1.087l.61-7a1,1,0,0,1,1-.913H82.71a1,1,0,0,1,1,.913l.61,7a1,1,0,0,1-1,1.087ZM71.77,45H82.229l-.436-5H72.207Z"/>
          </g>
          <g id="Grupo_1162326" data-name="Grupo 1162326">
            <path id="Trazado_990333" data-name="Trazado 990333" d="M115,106v6a1,1,0,0,1-1,1h-5a3.937,3.937,0,0,1-.6-.05,3.993,3.993,0,0,1,0-7.9,4.047,4.047,0,0,1,.6-.05h5a1,1,0,0,1,1,1Z" fill="#e7e7e7"/>
          </g>
          <g id="Grupo_1162332" data-name="Grupo 1162332">
            <g id="Grupo_1162327" data-name="Grupo 1162327">
              <path id="Trazado_990334" data-name="Trazado 990334" d="M67.922,8H56.194a6.279,6.279,0,0,0-6.272,6.273V21H48.546a3.628,3.628,0,0,0-3.624,3.624V32a1,1,0,0,0,2,0v-.1l8.02-.8a.989.989,0,0,0,.98.9,1,1,0,0,0,1-1V26h4.8a4.2,4.2,0,0,0,4.2-4.2V20h2a6,6,0,0,0,0-12Z" fill="#e7e7e7"/>
            </g>
            <g id="Grupo_1162328" data-name="Grupo 1162328">
              <path id="Trazado_990335" data-name="Trazado 990335" d="M73.9,14.424A6.153,6.153,0,0,1,67.691,20H65.92v1.8a4.2,4.2,0,0,1-4.2,4.2h-4.8v5a1,1,0,0,1-1,1,.989.989,0,0,1-.98-.9l-8.02.8V32a1,1,0,0,1-2,0V28h6.406A2.674,2.674,0,0,0,54,25.326V23h4.8A4.2,4.2,0,0,0,63,18.8V17h1.764a6.157,6.157,0,0,0,6.217-5.519,5.97,5.97,0,0,0-.491-2.9,5.994,5.994,0,0,1,3.415,5.844Z" fill="#a5a5a5"/>
            </g>
            <g id="Grupo_1162329" data-name="Grupo 1162329">
              <path id="Trazado_990336" data-name="Trazado 990336" d="M45.922,33a1,1,0,0,1-1-1V24.624A3.628,3.628,0,0,1,48.546,21h1.376V14.273A6.28,6.28,0,0,1,56.194,8H67.922a6,6,0,0,1,0,12h-2v1.8a4.2,4.2,0,0,1-4.2,4.2h-4.8v5a1,1,0,0,1-2,0V25a1,1,0,0,1,1-1h5.8a2.2,2.2,0,0,0,2.2-2.2V19a1,1,0,0,1,1-1h3a4,4,0,0,0,0-8H56.194a4.278,4.278,0,0,0-4.272,4.273V22a1,1,0,0,1-1,1H48.546a1.626,1.626,0,0,0-1.624,1.624V32a1,1,0,0,1-1,1Z"/>
            </g>
            <g id="Grupo_1162330" data-name="Grupo 1162330">
              <path id="Trazado_990337" data-name="Trazado 990337" d="M59,23a1,1,0,0,1,0-2,.96.96,0,0,0,.852-.316,3.574,3.574,0,0,0,.177-2.444,1,1,0,0,1,1.94-.483c.067.269.623,2.667-.54,4.156A2.919,2.919,0,0,1,59,23Z"/>
            </g>
            <g id="Grupo_1162331" data-name="Grupo 1162331">
              <path id="Trazado_990338" data-name="Trazado 990338" d="M68,17a1,1,0,0,1-.449-1.895c1.177-.588.5-2.771.5-2.793a1,1,0,0,1,1.9-.629c.474,1.42.691,4.115-1.5,5.211A.991.991,0,0,1,68,17Z"/>
            </g>
          </g>
          <g id="Grupo_1162333" data-name="Grupo 1162333">
            <path id="Trazado_990339" data-name="Trazado 990339" d="M33.14,44.58l-1.68-.24a7.9,7.9,0,0,0-.65-1.38l1.07-1.42a1,1,0,0,0-.09-1.31l-2.02-2.02a.985.985,0,0,0-.77-.29.922.922,0,0,0-.54.2l-1.68,1.26A11.056,11.056,0,0,0,25.73,39l-.31-2.14a1,1,0,0,0-.99-.86H21.57a1,1,0,0,0-.99.86l-.34,2.38a7.348,7.348,0,0,0-.76.34l-1.94-1.46a1,1,0,0,0-1.31.09l-2.02,2.02a1,1,0,0,0-.09,1.31l1.46,1.94a7.349,7.349,0,0,0-.34.76l-2.38.34a1,1,0,0,0-.86.99v2.86a1,1,0,0,0,.86.99l2.14.31a11.056,11.056,0,0,0,.38,1.05l-1.26,1.68a1,1,0,0,0,.09,1.31l2.02,2.02a1,1,0,0,0,1.31.09l1.42-1.07a7.9,7.9,0,0,0,1.38.65l.1.68.14,1a1,1,0,0,0,.99.86h2.86a1,1,0,0,0,.99-.86l.21-1.45a8.747,8.747,0,0,0,1.69-.67l1.14.86a1,1,0,0,0,1.31-.09l2.02-2.02a1,1,0,0,0,.09-1.31l-.86-1.14a8.747,8.747,0,0,0,.67-1.69l1.45-.21a1,1,0,0,0,.86-.99V45.57a1,1,0,0,0-.86-.99Zm-9.75,6.75h-.06a4,4,0,0,1,0-8,4.09,4.09,0,0,1,1.53.3,4.17,4.17,0,0,1,1.4.98v.01a3.991,3.991,0,0,1-2.87,6.71Z" fill="#ff7f00"/>
          </g>
          <g id="Grupo_1162334" data-name="Grupo 1162334">
            <path id="Trazado_990340" data-name="Trazado 990340" d="M115,114v4a1,1,0,0,1-1,1H100a1,1,0,0,1-1-1V99a1,1,0,0,1,1-1h3v13.15a2.855,2.855,0,0,0,2.85,2.85Z" fill="#067c76"/>
          </g>
          <g id="Grupo_1162335" data-name="Grupo 1162335">
            <path id="Trazado_990341" data-name="Trazado 990341" d="M110,103h-3a2,2,0,0,1,0-4h3a2,2,0,0,1,0,4Z" fill="#71fffb"/>
          </g>
          <g id="Grupo_1162336" data-name="Grupo 1162336">
            <path id="Trazado_990342" data-name="Trazado 990342" d="M28.57,99v19a1,1,0,0,1-1,1H13.95a1,1,0,0,1-1-1v-4h8.77a2.855,2.855,0,0,0,2.85-2.85V98h3a1,1,0,0,1,1,1Z" fill="#067c76"/>
          </g>
          <g id="Grupo_1162337" data-name="Grupo 1162337">
            <path id="Trazado_990343" data-name="Trazado 990343" d="M17.566,103h3a2,2,0,0,0,0-4h-3a2,2,0,0,0,0,4Z" fill="#71fffb"/>
          </g>
          <g id="Grupo_1162338" data-name="Grupo 1162338">
            <path id="Trazado_990344" data-name="Trazado 990344" d="M18.949,105h-5a1,1,0,0,0-1,1v6a1,1,0,0,0,1,1h5a4,4,0,0,0,0-8Z" fill="#e7e7e7"/>
          </g>
          <g id="Grupo_1162339" data-name="Grupo 1162339">
            <path id="Trazado_990345" data-name="Trazado 990345" d="M59,66H43a1,1,0,0,1-1-1.089l.96-10.82a1,1,0,1,1,1.992.176L44.093,64H57.907L55.085,32h-8.17L45.356,49.737a1,1,0,1,1-1.992-.174L45,30.912A1,1,0,0,1,46,30H56a1,1,0,0,1,1,.912l3,34A1,1,0,0,1,59,66Z"/>
          </g>
          <g id="Grupo_1162340" data-name="Grupo 1162340">
            <path id="Trazado_990346" data-name="Trazado 990346" d="M18.275,77.3a3.153,3.153,0,0,1-3.15-3.149,1,1,0,0,0-2,0A3.152,3.152,0,0,1,9.976,77.3a1,1,0,0,0,0,2,3.153,3.153,0,0,1,3.149,3.149,1,1,0,0,0,2,0,3.153,3.153,0,0,1,3.15-3.149,1,1,0,1,0,0-2Z" fill="#ff7f00"/>
          </g>
          <g id="Grupo_1162341" data-name="Grupo 1162341">
            <path id="Trazado_990347" data-name="Trazado 990347" d="M34,45.57v2.86a1,1,0,0,1-.86.99l-1.45.21a8.746,8.746,0,0,1-.67,1.69l.86,1.14a1,1,0,0,1-.09,1.31l-2.02,2.02a1,1,0,0,1-1.31.09l-1.14-.86a8.747,8.747,0,0,1-1.69.67l-.21,1.45a1,1,0,0,1-.99.86H21.57a1,1,0,0,1-.99-.86l-.14-1-.1-.68a7.9,7.9,0,0,1-1.38-.65l-1.42,1.07a1,1,0,0,1-1.31-.09l-1.41-1.41A11.812,11.812,0,0,1,16,54a13.612,13.612,0,0,0,5.53-3.1,4.014,4.014,0,0,0,1.8.43h.06a3.991,3.991,0,0,0,2.87-6.71v-.01A38.5,38.5,0,0,0,29,37.92a.985.985,0,0,1,.77.29l2.02,2.02a1,1,0,0,1,.09,1.31l-1.07,1.42a7.9,7.9,0,0,1,.65,1.38l1.68.24a1,1,0,0,1,.86.99Z" fill="#e84800"/>
          </g>
          <g id="Grupo_1162342" data-name="Grupo 1162342">
            <circle id="Elipse_11759" data-name="Elipse 11759" cx="4" cy="4" r="4" transform="translate(99 53)" fill="#004781"/>
          </g>
          <g id="Grupo_1162343" data-name="Grupo 1162343">
            <path id="Trazado_990348" data-name="Trazado 990348" d="M57.32,47H44.68a1,1,0,0,1-1-1.087l.61-7a1,1,0,0,1,1-.913H56.71a1,1,0,0,1,1,.913l.61,7a1,1,0,0,1-1,1.087ZM45.77,45H56.229l-.436-5H46.207Z"/>
          </g>
          <g id="Grupo_1162344" data-name="Grupo 1162344">
            <path id="Trazado_990349" data-name="Trazado 990349" d="M114,119H100a1,1,0,0,1-1-1V99a1,1,0,0,1,1-1h8.79a6.217,6.217,0,0,1,6.21,6.21V118A1,1,0,0,1,114,119Zm-13-2h12V104.21a4.215,4.215,0,0,0-4.21-4.21H101Z"/>
          </g>
          <g id="Grupo_1162345" data-name="Grupo 1162345">
            <path id="Trazado_990350" data-name="Trazado 990350" d="M23.81,36c-1.18,3.14-3.32,7.25-6.81,9a9,9,0,0,1-5,1.08v-.51a1,1,0,0,1,.86-.99l2.38-.34a7.349,7.349,0,0,1,.34-.76l-1.46-1.94a1,1,0,0,1,.09-1.31l2.02-2.02a1,1,0,0,1,1.31-.09l1.94,1.46a7.348,7.348,0,0,1,.76-.34l.34-2.38a1,1,0,0,1,.99-.86Z" fill="#ffb471"/>
          </g>
          <g id="Grupo_1162346" data-name="Grupo 1162346">
            <path id="Trazado_990351" data-name="Trazado 990351" d="M114,113h-5a4,4,0,0,1,0-8h5a1,1,0,0,1,1,1v6A1,1,0,0,1,114,113Zm-5-6a2,2,0,0,0,0,4h4v-4Z"/>
          </g>
          <g id="Grupo_1162347" data-name="Grupo 1162347">
            <path id="Trazado_990352" data-name="Trazado 990352" d="M27.949,119h-14a1,1,0,0,1-1-1V104.21A6.217,6.217,0,0,1,19.159,98h8.79a1,1,0,0,1,1,1v19a1,1,0,0,1-1,1Zm-13-2h12V100h-7.79a4.215,4.215,0,0,0-4.21,4.21Z"/>
          </g>
          <g id="Grupo_1162348" data-name="Grupo 1162348">
            <path id="Trazado_990353" data-name="Trazado 990353" d="M18.949,113h-5a1,1,0,0,1-1-1v-6a1,1,0,0,1,1-1h5a4,4,0,0,1,0,8Zm-4-2h4a2,2,0,0,0,0-4h-4Z"/>
          </g>
          <g id="Grupo_1162349" data-name="Grupo 1162349">
            <path id="Trazado_990354" data-name="Trazado 990354" d="M119,119H8a1,1,0,0,1,0-2H119a1,1,0,0,1,0,2Z"/>
          </g>
          <g id="Grupo_1162350" data-name="Grupo 1162350">
            <path id="Trazado_990355" data-name="Trazado 990355" d="M23.333,51.333a4,4,0,1,1,4-4A4,4,0,0,1,23.333,51.333Zm0-6a2,2,0,1,0,2,2A2,2,0,0,0,23.333,45.333Z"/>
          </g>
          <g id="Grupo_1162351" data-name="Grupo 1162351">
            <path id="Trazado_990356" data-name="Trazado 990356" d="M24.43,58H21.57a1,1,0,0,1-.99-.858l-.241-1.68a8.5,8.5,0,0,1-1.374-.646l-1.426,1.066a1,1,0,0,1-1.306-.094l-2.021-2.02a1,1,0,0,1-.093-1.308l1.265-1.683a8.581,8.581,0,0,1-.379-1.052l-2.146-.3A1,1,0,0,1,12,48.43V45.57a1,1,0,0,1,.857-.99l2.384-.343q.146-.375.333-.752l-.835-1.116a1,1,0,1,1,1.6-1.2l1.22,1.63a1,1,0,0,1,.06,1.108,6.506,6.506,0,0,0-.669,1.51,1,1,0,0,1-.818.711L14,46.437v1.125l1.961.278a1,1,0,0,1,.842.8,6.323,6.323,0,0,0,.63,1.779,1,1,0,0,1-.083,1.069l-1.108,1.476.794.794,1.286-.961a1,1,0,0,1,1.172-.019,6.506,6.506,0,0,0,2.011.955,1,1,0,0,1,.727.822l.2,1.443H23.56l.18-1.27a1,1,0,0,1,.808-.844,6.619,6.619,0,0,0,2.312-.9,1,1,0,0,1,1.13.047l.976.731.8-.795-.73-.976a1,1,0,0,1-.047-1.129,6.628,6.628,0,0,0,.9-2.312,1,1,0,0,1,.844-.808L32,47.561V46.436l-1.441-.207a1,1,0,0,1-.823-.725,6.5,6.5,0,0,0-.955-2.011,1,1,0,0,1,.018-1.172l.962-1.287-.8-.794L27.49,41.35a1,1,0,0,1-1.069.083,6.335,6.335,0,0,0-1.779-.631,1,1,0,0,1-.8-.841L23.561,38H22.436l-.256,1.783A1,1,0,0,1,20.2,39.5l.38-2.64A1,1,0,0,1,21.57,36h2.859a1,1,0,0,1,.99.859l.305,2.147a8.342,8.342,0,0,1,1.051.378l1.684-1.265a1,1,0,0,1,1.308.093l2.021,2.02a1,1,0,0,1,.094,1.306l-1.066,1.426a8.348,8.348,0,0,1,.647,1.375l1.68.241a1,1,0,0,1,.857.99v2.86a1,1,0,0,1-.86.99l-1.45.2a8.528,8.528,0,0,1-.666,1.691l.858,1.145a1,1,0,0,1-.094,1.306l-2.021,2.02a1,1,0,0,1-1.307.094l-1.145-.857a8.643,8.643,0,0,1-1.69.666l-.2,1.45a1,1,0,0,1-.99.861Z"/>
          </g>
          <g id="Grupo_1162352" data-name="Grupo 1162352">
            <path id="Trazado_990357" data-name="Trazado 990357" d="M12.88,80.49a1,1,0,0,1-.7-.288,3.11,3.11,0,0,0-2.2-.9,1,1,0,0,1,0-2,3.153,3.153,0,0,0,3.149-3.15,1,1,0,0,1,2,0,3.15,3.15,0,0,0,.969,2.275,1,1,0,0,1-1.377,1.451,5.079,5.079,0,0,1-.6-.675,5.205,5.205,0,0,1-1.1,1.1,5.33,5.33,0,0,1,.557.478,1,1,0,0,1-.7,1.71Z"/>
          </g>
          <g id="Grupo_1162355" data-name="Grupo 1162355">
            <g id="Grupo_1162353" data-name="Grupo 1162353">
              <path id="Trazado_990358" data-name="Trazado 990358" d="M108.272,72.008a1,1,0,0,1-1-1V65.821a1,1,0,0,1,2,0v5.187A1,1,0,0,1,108.272,72.008Z"/>
            </g>
            <g id="Grupo_1162354" data-name="Grupo 1162354">
              <path id="Trazado_990359" data-name="Trazado 990359" d="M110.865,69.415h-5.187a1,1,0,0,1,0-2h5.187a1,1,0,0,1,0,2Z"/>
            </g>
          </g>
          <g id="Grupo_1162356" data-name="Grupo 1162356">
            <path id="Trazado_990360" data-name="Trazado 990360" d="M101.049,60.27a1,1,0,0,1-.645-.236A3.964,3.964,0,0,1,99,57a4,4,0,0,1,7.453-2.014,1,1,0,1,1-1.726,1.008,2,2,0,1,0-3.032,2.512,1,1,0,0,1-.646,1.764Z"/>
          </g>
          <g id="Grupo_1162358" data-name="Grupo 1162358">
            <g id="Grupo_1162357" data-name="Grupo 1162357">
              <path id="Trazado_990361" data-name="Trazado 990361" d="M91.266,54.982a1.519,1.519,0,1,1,1.518-1.519A1.521,1.521,0,0,1,91.266,54.982Z"/>
            </g>
          </g>
          <g id="Grupo_1162363" data-name="Grupo 1162363">
            <g id="Grupo_1162359" data-name="Grupo 1162359">
              <path id="Trazado_990362" data-name="Trazado 990362" d="M110.144,41.657a1,1,0,0,1-.99-.865,10.756,10.756,0,0,0-4.548-6.941,11.224,11.224,0,0,0-8.773-1.391,1,1,0,1,1-.623-1.9,13.148,13.148,0,0,1,10.457,1.6,12.607,12.607,0,0,1,5.47,8.366,1,1,0,0,1-.855,1.126.954.954,0,0,1-.138.01Z"/>
            </g>
            <g id="Grupo_1162360" data-name="Grupo 1162360">
              <path id="Trazado_990363" data-name="Trazado 990363" d="M103.947,43.433a1,1,0,0,1-.99-.865,4.87,4.87,0,0,0-2.044-3.114,5.083,5.083,0,0,0-3.972-.642,1,1,0,0,1-.617-1.9,7.108,7.108,0,0,1,5.649.849,6.843,6.843,0,0,1,2.966,4.539,1,1,0,0,1-.855,1.126,1.062,1.062,0,0,1-.137.009Z"/>
            </g>
            <g id="Grupo_1162361" data-name="Grupo 1162361">
              <path id="Trazado_990364" data-name="Trazado 990364" d="M116.341,39.881a1,1,0,0,1-.989-.862c-.01-.07-1.048-7.014-7.053-10.771a17.487,17.487,0,0,0-13.584-2.136,1,1,0,0,1-.621-1.9,19.183,19.183,0,0,1,15.266,2.342,18.382,18.382,0,0,1,7.974,12.193,1,1,0,0,1-.855,1.125.915.915,0,0,1-.138.01Z"/>
            </g>
            <g id="Grupo_1162362" data-name="Grupo 1162362">
              <path id="Trazado_990365" data-name="Trazado 990365" d="M97.838,46.91a2.848,2.848,0,1,1,2.417-1.338h0a2.842,2.842,0,0,1-2.417,1.337Zm1.571-1.867h.01Zm-1.565-1.828a.848.848,0,0,0-.451,1.567.848.848,0,1,0,.451-1.567Z"/>
            </g>
          </g>
          <g id="Grupo_1162368" data-name="Grupo 1162368">
            <g id="Grupo_1162364" data-name="Grupo 1162364">
              <path id="Trazado_990366" data-name="Trazado 990366" d="M36.067,22a1,1,0,0,1-.994-.9l-1-10a1,1,0,0,1,1.991-.2l1,10a1,1,0,0,1-.9,1.095C36.134,22,36.1,22,36.067,22Z"/>
            </g>
            <g id="Grupo_1162365" data-name="Grupo 1162365">
              <path id="Trazado_990367" data-name="Trazado 990367" d="M30.011,25.95a.957.957,0,0,1-.23-.027l-9.788-2.3a1,1,0,0,1,.455-1.948l9.792,2.3a1,1,0,0,1-.229,1.974Z"/>
            </g>
            <g id="Grupo_1162366" data-name="Grupo 1162366">
              <path id="Trazado_990368" data-name="Trazado 990368" d="M28.63,19.12a1,1,0,0,1-.74-.328l-5.56-6.12a1,1,0,1,1,1.48-1.345l5.56,6.12a1,1,0,0,1-.74,1.673Z"/>
            </g>
            <g id="Grupo_1162367" data-name="Grupo 1162367">
              <path id="Trazado_990369" data-name="Trazado 990369" d="M33.07,24a1,1,0,0,1-.74-.328l-2.681-2.95a1,1,0,1,1,1.48-1.345l2.681,2.95A1,1,0,0,1,33.07,24Z"/>
            </g>
          </g>
        </g>
      </g>
    </g>
    <g id="Grupo_1162371" data-name="Grupo 1162371">
      <g id="Grupo_1160573-2" data-name="Grupo 1160573" transform="translate(45.551 -2335.4)">
        <rect id="Rect치ngulo_401557-2" data-name="Rect치ngulo 401557" width="144" height="138" rx="12" transform="translate(193.051 4674)" fill="#78b62e"/>
      </g>
      <g id="Grupo_1162369-2" data-name="Grupo 1162369">
        <g transform="matrix(1, 0, 0, 1, 229.6, 2338.6)" filter="url(#Trazado_979554-2)">
          <path id="Trazado_979554-4" data-name="Trazado 979554" d="M382.792,70.311q.8-2.174,1.752-4.323c8.094-18.227,24.45-34.72,44.17-40.975,20.675-6.558,45.1-3.885,61.778,9.46,20.66,16.53,30,56.858,2.169,71.832a32.926,32.926,0,0,1-24.89,2.39c-12.5-3.857-22.4-15.156-35.542-15.315-7.347-.091-14.123,3.412-20.89,6.137s-14.674,4.7-21.29,1.662c-5.473-2.517-8.873-8.126-9.741-13.85S380.789,75.771,382.792,70.311Z" transform="translate(-325.97 -108.42) rotate(16)" fill="#e3f0d4" opacity="0.85"/>
        </g>
        <g id="robot-industrial-2" data-name="robot-industrial" transform="translate(246.051 2337.08)">
          <g id="Grupo_1162290-2" data-name="Grupo 1162290">
            <path id="Trazado_990300-2" data-name="Trazado 990300" d="M83,30.912A1,1,0,0,0,82,30H72a1,1,0,0,0-1,.912l-3,34A1,1,0,0,0,69,66H85a1,1,0,0,0,1-1.088Z" fill="#00cac8"/>
          </g>
          <g id="Grupo_1162291-2" data-name="Grupo 1162291">
            <path id="Trazado_990301-2" data-name="Trazado 990301" d="M115,104.21V118a1,1,0,0,1-1,1H100a1,1,0,0,1-1-1V99a1,1,0,0,1,1-1h8.79A6.222,6.222,0,0,1,115,104.21Z" fill="#00cac8"/>
          </g>
          <g id="Grupo_1162292-2" data-name="Grupo 1162292">
            <path id="Trazado_990302-2" data-name="Trazado 990302" d="M28.95,99v19a1,1,0,0,1-1,1h-14a1,1,0,0,1-1-1V104.21A6.222,6.222,0,0,1,19.16,98h8.79A1,1,0,0,1,28.95,99Z" fill="#00cac8"/>
          </g>
          <g id="Grupo_1162293-2" data-name="Grupo 1162293">
            <path id="Trazado_990303-2" data-name="Trazado 990303" d="M86.316,64H41.686A14.7,14.7,0,0,0,27,78.685V118a1,1,0,0,0,1,1h72a1,1,0,0,0,1-1V78.685A14.7,14.7,0,0,0,86.316,64Z" fill="#32cfff"/>
          </g>
          <g id="Grupo_1162294-2" data-name="Grupo 1162294">
            <path id="Trazado_990304-2" data-name="Trazado 990304" d="M55,68.5A4.5,4.5,0,0,1,59.5,64h19a4.5,4.5,0,0,1,0,9h-19A4.5,4.5,0,0,1,55,68.5Z" fill="#b3f1ff"/>
          </g>
          <g id="Grupo_1162295-2" data-name="Grupo 1162295">
            <path id="Trazado_990305-2" data-name="Trazado 990305" d="M31.5,106a4.5,4.5,0,0,1-4.5-4.5v-19a4.5,4.5,0,0,1,9,0v19A4.5,4.5,0,0,1,31.5,106Z" fill="#b3f1ff"/>
          </g>
          <g id="Grupo_1162296-2" data-name="Grupo 1162296">
            <path id="Trazado_990306-2" data-name="Trazado 990306" d="M41,68.5A4.5,4.5,0,0,1,45.5,64h1a4.5,4.5,0,0,1,0,9h-1A4.5,4.5,0,0,1,41,68.5Z" fill="#b3f1ff"/>
          </g>
          <g id="Grupo_1162297-2" data-name="Grupo 1162297">
            <path id="Trazado_990307-2" data-name="Trazado 990307" d="M101,78.69V118a1,1,0,0,1-1,1H28a1,1,0,0,1-1-1v-8H86a1,1,0,0,0,1-1V69.69A14.566,14.566,0,0,0,85.85,64h.47A14.7,14.7,0,0,1,101,78.69Z" fill="#268bdd"/>
          </g>
          <g id="Grupo_1162298-2" data-name="Grupo 1162298">
            <path id="Trazado_990308-2" data-name="Trazado 990308" d="M100,119H28a1,1,0,0,1-1-1V90.15a1,1,0,0,1,2,0V117H99V78.68A12.7,12.7,0,0,0,86.32,66H41.69A12.7,12.7,0,0,0,29,78.68v3.99a1,1,0,0,1-2,0V78.68A14.7,14.7,0,0,1,41.69,64H86.32A14.7,14.7,0,0,1,101,78.68V118A1,1,0,0,1,100,119Z"/>
          </g>
          <g id="Grupo_1162299-2" data-name="Grupo 1162299">
            <path id="Trazado_990309-2" data-name="Trazado 990309" d="M96,84.5A6.513,6.513,0,0,1,89.5,91h-51a6.5,6.5,0,0,1,0-13h51A6.513,6.513,0,0,1,96,84.5Z" fill="#e7e7e7"/>
          </g>
          <g id="Grupo_1162300-2" data-name="Grupo 1162300">
            <path id="Trazado_990310-2" data-name="Trazado 990310" d="M58.65,78,53.63,91H42.91l5.03-13Z" fill="#fff"/>
          </g>
          <g id="Grupo_1162301-2" data-name="Grupo 1162301">
            <path id="Trazado_990311-2" data-name="Trazado 990311" d="M69.38,78,64.35,91H59l5.02-13Z" fill="#fff"/>
          </g>
          <g id="Grupo_1162302-2" data-name="Grupo 1162302">
            <path id="Trazado_990312-2" data-name="Trazado 990312" d="M83.31,78,78.29,91H68.64l5.03-13Z" fill="#fff"/>
          </g>
          <g id="Grupo_1162303-2" data-name="Grupo 1162303">
            <path id="Trazado_990313-2" data-name="Trazado 990313" d="M96,84.5A6.513,6.513,0,0,1,89.5,91H87V78h2.5A6.513,6.513,0,0,1,96,84.5Z" fill="#a5a5a5"/>
          </g>
          <g id="Grupo_1162304-2" data-name="Grupo 1162304">
            <path id="Trazado_990314-2" data-name="Trazado 990314" d="M86,64.91A1,1,0,0,1,85,66H69a1,1,0,0,1-1-1.09L68.35,61H80a1,1,0,0,0,1-1.09L78.36,30H82a1.009,1.009,0,0,1,1,.91Z" fill="#067c76"/>
          </g>
          <g id="Grupo_1162305-2" data-name="Grupo 1162305">
            <path id="Trazado_990315-2" data-name="Trazado 990315" d="M84.32,45.91a1,1,0,0,1-1,1.09H70.68a1,1,0,0,1-1-1.09l.61-7a1.009,1.009,0,0,1,1-.91H82.71a1,1,0,0,1,.99.88Z" fill="#00a2da"/>
          </g>
          <g id="Grupo_1162306-2" data-name="Grupo 1162306">
            <path id="Trazado_990316-2" data-name="Trazado 990316" d="M71,103.83V118a1,1,0,0,1-1,1H57a1,1,0,0,1-1-1V103.83A4.84,4.84,0,0,1,60.83,99h5.34A4.84,4.84,0,0,1,71,103.83Z" fill="#ff7f00"/>
          </g>
          <g id="Grupo_1162307-2" data-name="Grupo 1162307">
            <path id="Trazado_990317-2" data-name="Trazado 990317" d="M57,30.912A1,1,0,0,0,56,30H46a1,1,0,0,0-1,.912l-3,34A1,1,0,0,0,43,66H59a1,1,0,0,0,1-1.088Z" fill="#00cac8"/>
          </g>
          <g id="Grupo_1162308-2" data-name="Grupo 1162308">
            <circle id="Elipse_11757-2" data-name="Elipse 11757" cx="2" cy="2" r="2" transform="translate(71 33)" fill="#71fffb"/>
          </g>
          <g id="Grupo_1162309-2" data-name="Grupo 1162309">
            <path id="Trazado_990318-2" data-name="Trazado 990318" d="M70.347,58.961A2,2,0,0,1,68.6,56.738l.831-6.951a2,2,0,0,1,3.971.475l-.831,6.951A2,2,0,0,1,70.347,58.961Z" fill="#71fffb"/>
          </g>
          <g id="Grupo_1162310-2" data-name="Grupo 1162310">
            <path id="Trazado_990319-2" data-name="Trazado 990319" d="M60,64.91A1,1,0,0,1,59,66H43a1,1,0,0,1-1-1.09L42.35,61H54a1,1,0,0,0,1-1.09L52.36,30H56a1.009,1.009,0,0,1,1,.91Z" fill="#067c76"/>
          </g>
          <g id="Grupo_1162316-2" data-name="Grupo 1162316">
            <g id="Grupo_1162311-2" data-name="Grupo 1162311">
              <path id="Trazado_990320-2" data-name="Trazado 990320" d="M93.922,8H82.194a6.279,6.279,0,0,0-6.272,6.273V21H74.546a3.628,3.628,0,0,0-3.624,3.624V32a1,1,0,0,0,2,0v-.1l8.02-.8a.989.989,0,0,0,.98.9,1,1,0,0,0,1-1V26h4.8a4.2,4.2,0,0,0,4.2-4.2V20h2a6,6,0,0,0,0-12Z" fill="#e7e7e7"/>
            </g>
            <g id="Grupo_1162312-2" data-name="Grupo 1162312">
              <path id="Trazado_990321-2" data-name="Trazado 990321" d="M99.9,14.424A6.153,6.153,0,0,1,93.691,20H91.92v1.8a4.2,4.2,0,0,1-4.2,4.2h-4.8v5a1,1,0,0,1-1,1,.989.989,0,0,1-.98-.9l-8.02.8V32a1,1,0,0,1-2,0V28h6.406A2.674,2.674,0,0,0,80,25.326V23h4.8A4.2,4.2,0,0,0,89,18.8V17h1.764a6.157,6.157,0,0,0,6.217-5.519,5.97,5.97,0,0,0-.491-2.9,5.994,5.994,0,0,1,3.415,5.844Z" fill="#a5a5a5"/>
            </g>
            <g id="Grupo_1162313-2" data-name="Grupo 1162313">
              <path id="Trazado_990322-2" data-name="Trazado 990322" d="M71.922,33a1,1,0,0,1-1-1V24.624A3.628,3.628,0,0,1,74.546,21h1.376V14.273A6.279,6.279,0,0,1,82.194,8H93.922a6,6,0,0,1,0,12h-2v1.8a4.2,4.2,0,0,1-4.2,4.2h-4.8v5a1,1,0,0,1-2,0V25a1,1,0,0,1,1-1h5.8a2.2,2.2,0,0,0,2.2-2.2V19a1,1,0,0,1,1-1h3a4,4,0,0,0,0-8H82.194a4.278,4.278,0,0,0-4.272,4.273V22a1,1,0,0,1-1,1H74.546a1.626,1.626,0,0,0-1.624,1.624V32A1,1,0,0,1,71.922,33Z"/>
            </g>
            <g id="Grupo_1162314-2" data-name="Grupo 1162314">
              <path id="Trazado_990323-2" data-name="Trazado 990323" d="M85,23a1,1,0,0,1,0-2,.96.96,0,0,0,.852-.316,3.574,3.574,0,0,0,.177-2.444,1,1,0,0,1,1.94-.483c.067.269.623,2.667-.54,4.156A2.919,2.919,0,0,1,85,23Z"/>
            </g>
            <g id="Grupo_1162315-2" data-name="Grupo 1162315">
              <path id="Trazado_990324-2" data-name="Trazado 990324" d="M94,17a1,1,0,0,1-.449-1.895c1.177-.588.5-2.771.5-2.793a1,1,0,0,1,1.9-.629c.474,1.42.69,4.115-1.5,5.211A.991.991,0,0,1,94,17Z"/>
            </g>
          </g>
          <g id="Grupo_1162317-2" data-name="Grupo 1162317">
            <circle id="Elipse_11758-2" data-name="Elipse 11758" cx="2" cy="2" r="2" transform="translate(45 33)" fill="#71fffb"/>
          </g>
          <g id="Grupo_1162318-2" data-name="Grupo 1162318">
            <path id="Trazado_990325-2" data-name="Trazado 990325" d="M44.347,58.961A2,2,0,0,1,42.6,56.738l.831-6.951a2,2,0,0,1,3.971.475l-.831,6.951A2,2,0,0,1,44.347,58.961Z" fill="#71fffb"/>
          </g>
          <g id="Grupo_1162319-2" data-name="Grupo 1162319">
            <path id="Trazado_990326-2" data-name="Trazado 990326" d="M84.32,45.91a1,1,0,0,1-1,1.09H79.86l-.79-9h3.64a1,1,0,0,1,.99.88Z" fill="#0a7a99"/>
          </g>
          <g id="Grupo_1162320-2" data-name="Grupo 1162320">
            <path id="Trazado_990327-2" data-name="Trazado 990327" d="M71,110v8a1,1,0,0,1-1,1H57a1,1,0,0,1-1-1v-8Z" fill="#e84800"/>
          </g>
          <g id="Grupo_1162321-2" data-name="Grupo 1162321">
            <path id="Trazado_990328-2" data-name="Trazado 990328" d="M89.5,91h-51a6.5,6.5,0,0,1,0-13h51a6.5,6.5,0,0,1,0,13Zm-51-11a4.5,4.5,0,0,0,0,9h51a4.5,4.5,0,0,0,0-9Z"/>
          </g>
          <g id="Grupo_1162322-2" data-name="Grupo 1162322">
            <path id="Trazado_990329-2" data-name="Trazado 990329" d="M70,119H57a1,1,0,0,1-1-1V103.832A4.836,4.836,0,0,1,60.831,99h5.338A4.836,4.836,0,0,1,71,103.832V118A1,1,0,0,1,70,119Zm-12-2H69V103.832A2.834,2.834,0,0,0,66.169,101H60.831A2.834,2.834,0,0,0,58,103.832Z"/>
          </g>
          <g id="Grupo_1162323-2" data-name="Grupo 1162323">
            <path id="Trazado_990330-2" data-name="Trazado 990330" d="M85,66H69a1,1,0,0,1-1-1.089l.73-8.25a1.01,1.01,0,0,1,1.084-.908,1,1,0,0,1,.908,1.085L70.093,64H83.907L81.085,32h-8.17L70.986,53.938a1,1,0,1,1-1.992-.174L71,30.913A1,1,0,0,1,72,30H82a1,1,0,0,1,1,.912l3,34A1,1,0,0,1,85,66Z"/>
          </g>
          <g id="Grupo_1162324-2" data-name="Grupo 1162324">
            <path id="Trazado_990331-2" data-name="Trazado 990331" d="M57.706,38.913a1,1,0,0,0-1-.913H45.29a1,1,0,0,0-1,.913l-.61,7a1,1,0,0,0,1,1.087H57.32a1,1,0,0,0,1-1.087Z" fill="#00a2da"/>
          </g>
          <g id="Grupo_1162325-2" data-name="Grupo 1162325">
            <path id="Trazado_990332-2" data-name="Trazado 990332" d="M83.32,47H70.68a1,1,0,0,1-1-1.087l.61-7a1,1,0,0,1,1-.913H82.71a1,1,0,0,1,1,.913l.61,7a1,1,0,0,1-1,1.087ZM71.77,45H82.229l-.436-5H72.207Z"/>
          </g>
          <g id="Grupo_1162326-2" data-name="Grupo 1162326">
            <path id="Trazado_990333-2" data-name="Trazado 990333" d="M115,106v6a1,1,0,0,1-1,1h-5a3.937,3.937,0,0,1-.6-.05,3.993,3.993,0,0,1,0-7.9,4.047,4.047,0,0,1,.6-.05h5a1,1,0,0,1,1,1Z" fill="#e7e7e7"/>
          </g>
          <g id="Grupo_1162332-2" data-name="Grupo 1162332">
            <g id="Grupo_1162327-2" data-name="Grupo 1162327">
              <path id="Trazado_990334-2" data-name="Trazado 990334" d="M67.922,8H56.194a6.279,6.279,0,0,0-6.272,6.273V21H48.546a3.628,3.628,0,0,0-3.624,3.624V32a1,1,0,0,0,2,0v-.1l8.02-.8a.989.989,0,0,0,.98.9,1,1,0,0,0,1-1V26h4.8a4.2,4.2,0,0,0,4.2-4.2V20h2a6,6,0,0,0,0-12Z" fill="#e7e7e7"/>
            </g>
            <g id="Grupo_1162328-2" data-name="Grupo 1162328">
              <path id="Trazado_990335-2" data-name="Trazado 990335" d="M73.9,14.424A6.153,6.153,0,0,1,67.691,20H65.92v1.8a4.2,4.2,0,0,1-4.2,4.2h-4.8v5a1,1,0,0,1-1,1,.989.989,0,0,1-.98-.9l-8.02.8V32a1,1,0,0,1-2,0V28h6.406A2.674,2.674,0,0,0,54,25.326V23h4.8A4.2,4.2,0,0,0,63,18.8V17h1.764a6.157,6.157,0,0,0,6.217-5.519,5.97,5.97,0,0,0-.491-2.9,5.994,5.994,0,0,1,3.415,5.844Z" fill="#a5a5a5"/>
            </g>
            <g id="Grupo_1162329-2" data-name="Grupo 1162329">
              <path id="Trazado_990336-2" data-name="Trazado 990336" d="M45.922,33a1,1,0,0,1-1-1V24.624A3.628,3.628,0,0,1,48.546,21h1.376V14.273A6.28,6.28,0,0,1,56.194,8H67.922a6,6,0,0,1,0,12h-2v1.8a4.2,4.2,0,0,1-4.2,4.2h-4.8v5a1,1,0,0,1-2,0V25a1,1,0,0,1,1-1h5.8a2.2,2.2,0,0,0,2.2-2.2V19a1,1,0,0,1,1-1h3a4,4,0,0,0,0-8H56.194a4.278,4.278,0,0,0-4.272,4.273V22a1,1,0,0,1-1,1H48.546a1.626,1.626,0,0,0-1.624,1.624V32a1,1,0,0,1-1,1Z"/>
            </g>
            <g id="Grupo_1162330-2" data-name="Grupo 1162330">
              <path id="Trazado_990337-2" data-name="Trazado 990337" d="M59,23a1,1,0,0,1,0-2,.96.96,0,0,0,.852-.316,3.574,3.574,0,0,0,.177-2.444,1,1,0,0,1,1.94-.483c.067.269.623,2.667-.54,4.156A2.919,2.919,0,0,1,59,23Z"/>
            </g>
            <g id="Grupo_1162331-2" data-name="Grupo 1162331">
              <path id="Trazado_990338-2" data-name="Trazado 990338" d="M68,17a1,1,0,0,1-.449-1.895c1.177-.588.5-2.771.5-2.793a1,1,0,0,1,1.9-.629c.474,1.42.691,4.115-1.5,5.211A.991.991,0,0,1,68,17Z"/>
            </g>
          </g>
          <g id="Grupo_1162333-2" data-name="Grupo 1162333">
            <path id="Trazado_990339-2" data-name="Trazado 990339" d="M33.14,44.58l-1.68-.24a7.9,7.9,0,0,0-.65-1.38l1.07-1.42a1,1,0,0,0-.09-1.31l-2.02-2.02a.985.985,0,0,0-.77-.29.922.922,0,0,0-.54.2l-1.68,1.26A11.056,11.056,0,0,0,25.73,39l-.31-2.14a1,1,0,0,0-.99-.86H21.57a1,1,0,0,0-.99.86l-.34,2.38a7.348,7.348,0,0,0-.76.34l-1.94-1.46a1,1,0,0,0-1.31.09l-2.02,2.02a1,1,0,0,0-.09,1.31l1.46,1.94a7.349,7.349,0,0,0-.34.76l-2.38.34a1,1,0,0,0-.86.99v2.86a1,1,0,0,0,.86.99l2.14.31a11.056,11.056,0,0,0,.38,1.05l-1.26,1.68a1,1,0,0,0,.09,1.31l2.02,2.02a1,1,0,0,0,1.31.09l1.42-1.07a7.9,7.9,0,0,0,1.38.65l.1.68.14,1a1,1,0,0,0,.99.86h2.86a1,1,0,0,0,.99-.86l.21-1.45a8.747,8.747,0,0,0,1.69-.67l1.14.86a1,1,0,0,0,1.31-.09l2.02-2.02a1,1,0,0,0,.09-1.31l-.86-1.14a8.747,8.747,0,0,0,.67-1.69l1.45-.21a1,1,0,0,0,.86-.99V45.57a1,1,0,0,0-.86-.99Zm-9.75,6.75h-.06a4,4,0,0,1,0-8,4.09,4.09,0,0,1,1.53.3,4.17,4.17,0,0,1,1.4.98v.01a3.991,3.991,0,0,1-2.87,6.71Z" fill="#ff7f00"/>
          </g>
          <g id="Grupo_1162334-2" data-name="Grupo 1162334">
            <path id="Trazado_990340-2" data-name="Trazado 990340" d="M115,114v4a1,1,0,0,1-1,1H100a1,1,0,0,1-1-1V99a1,1,0,0,1,1-1h3v13.15a2.855,2.855,0,0,0,2.85,2.85Z" fill="#067c76"/>
          </g>
          <g id="Grupo_1162335-2" data-name="Grupo 1162335">
            <path id="Trazado_990341-2" data-name="Trazado 990341" d="M110,103h-3a2,2,0,0,1,0-4h3a2,2,0,0,1,0,4Z" fill="#71fffb"/>
          </g>
          <g id="Grupo_1162336-2" data-name="Grupo 1162336">
            <path id="Trazado_990342-2" data-name="Trazado 990342" d="M28.57,99v19a1,1,0,0,1-1,1H13.95a1,1,0,0,1-1-1v-4h8.77a2.855,2.855,0,0,0,2.85-2.85V98h3a1,1,0,0,1,1,1Z" fill="#067c76"/>
          </g>
          <g id="Grupo_1162337-2" data-name="Grupo 1162337">
            <path id="Trazado_990343-2" data-name="Trazado 990343" d="M17.566,103h3a2,2,0,0,0,0-4h-3a2,2,0,0,0,0,4Z" fill="#71fffb"/>
          </g>
          <g id="Grupo_1162338-2" data-name="Grupo 1162338">
            <path id="Trazado_990344-2" data-name="Trazado 990344" d="M18.949,105h-5a1,1,0,0,0-1,1v6a1,1,0,0,0,1,1h5a4,4,0,0,0,0-8Z" fill="#e7e7e7"/>
          </g>
          <g id="Grupo_1162339-2" data-name="Grupo 1162339">
            <path id="Trazado_990345-2" data-name="Trazado 990345" d="M59,66H43a1,1,0,0,1-1-1.089l.96-10.82a1,1,0,1,1,1.992.176L44.093,64H57.907L55.085,32h-8.17L45.356,49.737a1,1,0,1,1-1.992-.174L45,30.912A1,1,0,0,1,46,30H56a1,1,0,0,1,1,.912l3,34A1,1,0,0,1,59,66Z"/>
          </g>
          <g id="Grupo_1162340-2" data-name="Grupo 1162340">
            <path id="Trazado_990346-2" data-name="Trazado 990346" d="M18.275,77.3a3.153,3.153,0,0,1-3.15-3.149,1,1,0,0,0-2,0A3.152,3.152,0,0,1,9.976,77.3a1,1,0,0,0,0,2,3.153,3.153,0,0,1,3.149,3.149,1,1,0,0,0,2,0,3.153,3.153,0,0,1,3.15-3.149,1,1,0,1,0,0-2Z" fill="#ff7f00"/>
          </g>
          <g id="Grupo_1162341-2" data-name="Grupo 1162341">
            <path id="Trazado_990347-2" data-name="Trazado 990347" d="M34,45.57v2.86a1,1,0,0,1-.86.99l-1.45.21a8.746,8.746,0,0,1-.67,1.69l.86,1.14a1,1,0,0,1-.09,1.31l-2.02,2.02a1,1,0,0,1-1.31.09l-1.14-.86a8.747,8.747,0,0,1-1.69.67l-.21,1.45a1,1,0,0,1-.99.86H21.57a1,1,0,0,1-.99-.86l-.14-1-.1-.68a7.9,7.9,0,0,1-1.38-.65l-1.42,1.07a1,1,0,0,1-1.31-.09l-1.41-1.41A11.812,11.812,0,0,1,16,54a13.612,13.612,0,0,0,5.53-3.1,4.014,4.014,0,0,0,1.8.43h.06a3.991,3.991,0,0,0,2.87-6.71v-.01A38.5,38.5,0,0,0,29,37.92a.985.985,0,0,1,.77.29l2.02,2.02a1,1,0,0,1,.09,1.31l-1.07,1.42a7.9,7.9,0,0,1,.65,1.38l1.68.24a1,1,0,0,1,.86.99Z" fill="#e84800"/>
          </g>
          <g id="Grupo_1162342-2" data-name="Grupo 1162342">
            <circle id="Elipse_11759-2" data-name="Elipse 11759" cx="4" cy="4" r="4" transform="translate(99 53)" fill="#004781"/>
          </g>
          <g id="Grupo_1162343-2" data-name="Grupo 1162343">
            <path id="Trazado_990348-2" data-name="Trazado 990348" d="M57.32,47H44.68a1,1,0,0,1-1-1.087l.61-7a1,1,0,0,1,1-.913H56.71a1,1,0,0,1,1,.913l.61,7a1,1,0,0,1-1,1.087ZM45.77,45H56.229l-.436-5H46.207Z"/>
          </g>
          <g id="Grupo_1162344-2" data-name="Grupo 1162344">
            <path id="Trazado_990349-2" data-name="Trazado 990349" d="M114,119H100a1,1,0,0,1-1-1V99a1,1,0,0,1,1-1h8.79a6.217,6.217,0,0,1,6.21,6.21V118A1,1,0,0,1,114,119Zm-13-2h12V104.21a4.215,4.215,0,0,0-4.21-4.21H101Z"/>
          </g>
          <g id="Grupo_1162345-2" data-name="Grupo 1162345">
            <path id="Trazado_990350-2" data-name="Trazado 990350" d="M23.81,36c-1.18,3.14-3.32,7.25-6.81,9a9,9,0,0,1-5,1.08v-.51a1,1,0,0,1,.86-.99l2.38-.34a7.349,7.349,0,0,1,.34-.76l-1.46-1.94a1,1,0,0,1,.09-1.31l2.02-2.02a1,1,0,0,1,1.31-.09l1.94,1.46a7.348,7.348,0,0,1,.76-.34l.34-2.38a1,1,0,0,1,.99-.86Z" fill="#ffb471"/>
          </g>
          <g id="Grupo_1162346-2" data-name="Grupo 1162346">
            <path id="Trazado_990351-2" data-name="Trazado 990351" d="M114,113h-5a4,4,0,0,1,0-8h5a1,1,0,0,1,1,1v6A1,1,0,0,1,114,113Zm-5-6a2,2,0,0,0,0,4h4v-4Z"/>
          </g>
          <g id="Grupo_1162347-2" data-name="Grupo 1162347">
            <path id="Trazado_990352-2" data-name="Trazado 990352" d="M27.949,119h-14a1,1,0,0,1-1-1V104.21A6.217,6.217,0,0,1,19.159,98h8.79a1,1,0,0,1,1,1v19a1,1,0,0,1-1,1Zm-13-2h12V100h-7.79a4.215,4.215,0,0,0-4.21,4.21Z"/>
          </g>
          <g id="Grupo_1162348-2" data-name="Grupo 1162348">
            <path id="Trazado_990353-2" data-name="Trazado 990353" d="M18.949,113h-5a1,1,0,0,1-1-1v-6a1,1,0,0,1,1-1h5a4,4,0,0,1,0,8Zm-4-2h4a2,2,0,0,0,0-4h-4Z"/>
          </g>
          <g id="Grupo_1162349-2" data-name="Grupo 1162349">
            <path id="Trazado_990354-2" data-name="Trazado 990354" d="M119,119H8a1,1,0,0,1,0-2H119a1,1,0,0,1,0,2Z"/>
          </g>
          <g id="Grupo_1162350-2" data-name="Grupo 1162350">
            <path id="Trazado_990355-2" data-name="Trazado 990355" d="M23.333,51.333a4,4,0,1,1,4-4A4,4,0,0,1,23.333,51.333Zm0-6a2,2,0,1,0,2,2A2,2,0,0,0,23.333,45.333Z"/>
          </g>
          <g id="Grupo_1162351-2" data-name="Grupo 1162351">
            <path id="Trazado_990356-2" data-name="Trazado 990356" d="M24.43,58H21.57a1,1,0,0,1-.99-.858l-.241-1.68a8.5,8.5,0,0,1-1.374-.646l-1.426,1.066a1,1,0,0,1-1.306-.094l-2.021-2.02a1,1,0,0,1-.093-1.308l1.265-1.683a8.581,8.581,0,0,1-.379-1.052l-2.146-.3A1,1,0,0,1,12,48.43V45.57a1,1,0,0,1,.857-.99l2.384-.343q.146-.375.333-.752l-.835-1.116a1,1,0,1,1,1.6-1.2l1.22,1.63a1,1,0,0,1,.06,1.108,6.506,6.506,0,0,0-.669,1.51,1,1,0,0,1-.818.711L14,46.437v1.125l1.961.278a1,1,0,0,1,.842.8,6.323,6.323,0,0,0,.63,1.779,1,1,0,0,1-.083,1.069l-1.108,1.476.794.794,1.286-.961a1,1,0,0,1,1.172-.019,6.506,6.506,0,0,0,2.011.955,1,1,0,0,1,.727.822l.2,1.443H23.56l.18-1.27a1,1,0,0,1,.808-.844,6.619,6.619,0,0,0,2.312-.9,1,1,0,0,1,1.13.047l.976.731.8-.795-.73-.976a1,1,0,0,1-.047-1.129,6.628,6.628,0,0,0,.9-2.312,1,1,0,0,1,.844-.808L32,47.561V46.436l-1.441-.207a1,1,0,0,1-.823-.725,6.5,6.5,0,0,0-.955-2.011,1,1,0,0,1,.018-1.172l.962-1.287-.8-.794L27.49,41.35a1,1,0,0,1-1.069.083,6.335,6.335,0,0,0-1.779-.631,1,1,0,0,1-.8-.841L23.561,38H22.436l-.256,1.783A1,1,0,0,1,20.2,39.5l.38-2.64A1,1,0,0,1,21.57,36h2.859a1,1,0,0,1,.99.859l.305,2.147a8.342,8.342,0,0,1,1.051.378l1.684-1.265a1,1,0,0,1,1.308.093l2.021,2.02a1,1,0,0,1,.094,1.306l-1.066,1.426a8.348,8.348,0,0,1,.647,1.375l1.68.241a1,1,0,0,1,.857.99v2.86a1,1,0,0,1-.86.99l-1.45.2a8.528,8.528,0,0,1-.666,1.691l.858,1.145a1,1,0,0,1-.094,1.306l-2.021,2.02a1,1,0,0,1-1.307.094l-1.145-.857a8.643,8.643,0,0,1-1.69.666l-.2,1.45a1,1,0,0,1-.99.861Z"/>
          </g>
          <g id="Grupo_1162352-2" data-name="Grupo 1162352">
            <path id="Trazado_990357-2" data-name="Trazado 990357" d="M12.88,80.49a1,1,0,0,1-.7-.288,3.11,3.11,0,0,0-2.2-.9,1,1,0,0,1,0-2,3.153,3.153,0,0,0,3.149-3.15,1,1,0,0,1,2,0,3.15,3.15,0,0,0,.969,2.275,1,1,0,0,1-1.377,1.451,5.079,5.079,0,0,1-.6-.675,5.205,5.205,0,0,1-1.1,1.1,5.33,5.33,0,0,1,.557.478,1,1,0,0,1-.7,1.71Z"/>
          </g>
          <g id="Grupo_1162355-2" data-name="Grupo 1162355">
            <g id="Grupo_1162353-2" data-name="Grupo 1162353">
              <path id="Trazado_990358-2" data-name="Trazado 990358" d="M108.272,72.008a1,1,0,0,1-1-1V65.821a1,1,0,0,1,2,0v5.187A1,1,0,0,1,108.272,72.008Z"/>
            </g>
            <g id="Grupo_1162354-2" data-name="Grupo 1162354">
              <path id="Trazado_990359-2" data-name="Trazado 990359" d="M110.865,69.415h-5.187a1,1,0,0,1,0-2h5.187a1,1,0,0,1,0,2Z"/>
            </g>
          </g>
          <g id="Grupo_1162356-2" data-name="Grupo 1162356">
            <path id="Trazado_990360-2" data-name="Trazado 990360" d="M101.049,60.27a1,1,0,0,1-.645-.236A3.964,3.964,0,0,1,99,57a4,4,0,0,1,7.453-2.014,1,1,0,1,1-1.726,1.008,2,2,0,1,0-3.032,2.512,1,1,0,0,1-.646,1.764Z"/>
          </g>
          <g id="Grupo_1162358-2" data-name="Grupo 1162358">
            <g id="Grupo_1162357-2" data-name="Grupo 1162357">
              <path id="Trazado_990361-2" data-name="Trazado 990361" d="M91.266,54.982a1.519,1.519,0,1,1,1.518-1.519A1.521,1.521,0,0,1,91.266,54.982Z"/>
            </g>
          </g>
          <g id="Grupo_1162363-2" data-name="Grupo 1162363">
            <g id="Grupo_1162359-2" data-name="Grupo 1162359">
              <path id="Trazado_990362-2" data-name="Trazado 990362" d="M110.144,41.657a1,1,0,0,1-.99-.865,10.756,10.756,0,0,0-4.548-6.941,11.224,11.224,0,0,0-8.773-1.391,1,1,0,1,1-.623-1.9,13.148,13.148,0,0,1,10.457,1.6,12.607,12.607,0,0,1,5.47,8.366,1,1,0,0,1-.855,1.126.954.954,0,0,1-.138.01Z"/>
            </g>
            <g id="Grupo_1162360-2" data-name="Grupo 1162360">
              <path id="Trazado_990363-2" data-name="Trazado 990363" d="M103.947,43.433a1,1,0,0,1-.99-.865,4.87,4.87,0,0,0-2.044-3.114,5.083,5.083,0,0,0-3.972-.642,1,1,0,0,1-.617-1.9,7.108,7.108,0,0,1,5.649.849,6.843,6.843,0,0,1,2.966,4.539,1,1,0,0,1-.855,1.126,1.062,1.062,0,0,1-.137.009Z"/>
            </g>
            <g id="Grupo_1162361-2" data-name="Grupo 1162361">
              <path id="Trazado_990364-2" data-name="Trazado 990364" d="M116.341,39.881a1,1,0,0,1-.989-.862c-.01-.07-1.048-7.014-7.053-10.771a17.487,17.487,0,0,0-13.584-2.136,1,1,0,0,1-.621-1.9,19.183,19.183,0,0,1,15.266,2.342,18.382,18.382,0,0,1,7.974,12.193,1,1,0,0,1-.855,1.125.915.915,0,0,1-.138.01Z"/>
            </g>
            <g id="Grupo_1162362-2" data-name="Grupo 1162362">
              <path id="Trazado_990365-2" data-name="Trazado 990365" d="M97.838,46.91a2.848,2.848,0,1,1,2.417-1.338h0a2.842,2.842,0,0,1-2.417,1.337Zm1.571-1.867h.01Zm-1.565-1.828a.848.848,0,0,0-.451,1.567.848.848,0,1,0,.451-1.567Z"/>
            </g>
          </g>
          <g id="Grupo_1162368-2" data-name="Grupo 1162368">
            <g id="Grupo_1162364-2" data-name="Grupo 1162364">
              <path id="Trazado_990366-2" data-name="Trazado 990366" d="M36.067,22a1,1,0,0,1-.994-.9l-1-10a1,1,0,0,1,1.991-.2l1,10a1,1,0,0,1-.9,1.095C36.134,22,36.1,22,36.067,22Z"/>
            </g>
            <g id="Grupo_1162365-2" data-name="Grupo 1162365">
              <path id="Trazado_990367-2" data-name="Trazado 990367" d="M30.011,25.95a.957.957,0,0,1-.23-.027l-9.788-2.3a1,1,0,0,1,.455-1.948l9.792,2.3a1,1,0,0,1-.229,1.974Z"/>
            </g>
            <g id="Grupo_1162366-2" data-name="Grupo 1162366">
              <path id="Trazado_990368-2" data-name="Trazado 990368" d="M28.63,19.12a1,1,0,0,1-.74-.328l-5.56-6.12a1,1,0,1,1,1.48-1.345l5.56,6.12a1,1,0,0,1-.74,1.673Z"/>
            </g>
            <g id="Grupo_1162367-2" data-name="Grupo 1162367">
              <path id="Trazado_990369-2" data-name="Trazado 990369" d="M33.07,24a1,1,0,0,1-.74-.328l-2.681-2.95a1,1,0,1,1,1.48-1.345l2.681,2.95A1,1,0,0,1,33.07,24Z"/>
            </g>
          </g>
        </g>
      </g>
    </g>
  </g>
</svg>
