<svg xmlns="http://www.w3.org/2000/svg" width="93.959" height="93.959" viewBox="0 0 93.959 93.959">
  <g id="Grupo_1162377" data-name="Grupo 1162377" transform="translate(-723.208 -4913.268)">
    <g id="Grupo_1158165" data-name="Grupo 1158165" transform="translate(0 -4016.316)">
      <g id="Grupo_1153767" data-name="Grupo 1153767" transform="translate(723.208 8929.584)">
        <g id="Grupo_1103990" data-name="Grupo 1103990" transform="translate(0)">
          <g id="Trazado_874102" data-name="Trazado 874102" transform="translate(0)" fill="#e4f7fa">
            <path d="M 46.97949600219727 91.45897674560547 C 40.97370910644531 91.45897674560547 35.14888000488281 90.28328704833984 29.66683959960938 87.96457672119141 C 24.37055397033691 85.72444915771484 19.61348152160645 82.51696014404297 15.52775287628174 78.43122863769531 C 11.44202423095703 74.34550476074219 8.234539031982422 69.58843231201172 5.994410514831543 64.29214477539062 C 3.675695896148682 58.81010437011719 2.500010251998901 52.98527526855469 2.500010251998901 46.97948837280273 C 2.500010251998901 40.97369003295898 3.675695896148682 35.14887237548828 5.994410514831543 29.66683197021484 C 8.234539031982422 24.37054634094238 11.44202423095703 19.61346054077148 15.52775287628174 15.52774524688721 C 19.61348152160645 11.4420166015625 24.37055397033691 8.234531402587891 29.66683959960938 5.994388580322266 C 35.14888000488281 3.67568826675415 40.97370910644531 2.50000262260437 46.97949600219727 2.50000262260437 C 52.98529434204102 2.50000262260437 58.81011199951172 3.67568826675415 64.29215240478516 5.994388580322266 C 69.58843994140625 8.234531402587891 74.34552764892578 11.4420166015625 78.43123626708984 15.52774524688721 C 82.5169677734375 19.61346054077148 85.72445678710938 24.37054634094238 87.964599609375 29.66683197021484 C 90.28329467773438 35.14887237548828 91.458984375 40.97369003295898 91.458984375 46.97948837280273 C 91.458984375 52.98527526855469 90.28329467773438 58.81010437011719 87.964599609375 64.29214477539062 C 85.72445678710938 69.58843231201172 82.5169677734375 74.34550476074219 78.43123626708984 78.43122863769531 C 74.34552764892578 82.51696014404297 69.58843994140625 85.72444915771484 64.29215240478516 87.96457672119141 C 58.81011199951172 90.28328704833984 52.98529434204102 91.45897674560547 46.97949600219727 91.45897674560547 Z" stroke="none"/>
            <path d="M 46.97949600219727 5.000007629394531 C 41.31009674072266 5.000007629394531 35.81294631958008 6.109237670898438 30.64072799682617 8.296905517578125 C 25.64242553710938 10.41100311279297 21.1524658203125 13.43856811523438 17.29550933837891 17.29550170898438 C 13.43857574462891 21.15245819091797 10.4110107421875 25.64241790771484 8.296913146972656 30.64072036743164 C 6.109245300292969 35.81293869018555 5.000015258789062 41.31008911132812 5.000015258789062 46.97948837280273 C 5.000015258789062 52.64888763427734 6.109245300292969 58.14603805541992 8.296913146972656 63.31825256347656 C 10.4110107421875 68.31653594970703 13.43857574462891 72.8065185546875 17.29550933837891 76.6634521484375 C 21.1524658203125 80.52040100097656 25.64242553710938 83.5479736328125 30.64072799682617 85.66207122802734 C 35.81294631958008 87.84973907470703 41.31009674072266 88.95896911621094 46.97949600219727 88.95896911621094 C 52.64889526367188 88.95896911621094 58.14604568481445 87.84973907470703 63.31826019287109 85.66207122802734 C 68.31655883789062 83.5479736328125 72.80653381347656 80.52040100097656 76.66348266601562 76.6634521484375 C 80.52041625976562 72.8065185546875 83.54798126220703 68.31653594970703 85.66207885742188 63.31825256347656 C 87.84974670410156 58.14603805541992 88.95897674560547 52.64888763427734 88.95897674560547 46.97948837280273 C 88.95897674560547 41.31008911132812 87.84974670410156 35.81293869018555 85.66207885742188 30.64072036743164 C 83.54798126220703 25.64241790771484 80.52041625976562 21.15245819091797 76.66348266601562 17.29550170898438 C 72.80653381347656 13.43856811523438 68.31655883789062 10.41100311279297 63.31826019287109 8.296905517578125 C 58.14604568481445 6.109237670898438 52.64889526367188 5.000007629394531 46.97949600219727 5.000007629394531 M 46.97949600219727 7.62939453125e-06 C 72.92554473876953 7.62939453125e-06 93.95897674560547 21.03343963623047 93.95897674560547 46.97948837280273 C 93.95897674560547 72.92552185058594 72.92554473876953 93.95896911621094 46.97949600219727 93.95896911621094 C 21.033447265625 93.95896911621094 1.52587890625e-05 72.92552185058594 1.52587890625e-05 46.97948837280273 C 1.52587890625e-05 21.03343963623047 21.033447265625 7.62939453125e-06 46.97949600219727 7.62939453125e-06 Z" stroke="none" fill="#fff"/>
          </g>
        </g>
      </g>
    </g>
    <g id="Computer-Engineer-Gear-Monitor-Construction" transform="translate(741.051 4928)">
      <path id="Trazado_990370" data-name="Trazado 990370" d="M53,17V41H3V17a4,4,0,0,1,4-4H49A4,4,0,0,1,53,17Z" fill="#5aaae7"/>
      <path id="Trazado_990371" data-name="Trazado 990371" d="M53,41v4a4,4,0,0,1-4,4H7a4,4,0,0,1-4-4V41Z" fill="#c6c5ca"/>
      <path id="Trazado_990372" data-name="Trazado 990372" d="M53,17V29.53c-.17.05-.35.1-.53.15L52,33H48l-.47-3.32a9.8,9.8,0,0,1-2.62-1.09l-2.69,2.02-2.83-2.83,2.02-2.69a9.8,9.8,0,0,1-1.09-2.62L37,22V18l3.32-.47A9.427,9.427,0,0,1,41.36,15a.405.405,0,0,1,.05-.09L39.98,13H49a4,4,0,0,1,4,4Z" fill="#3d9ae2"/>
      <path id="Trazado_990373" data-name="Trazado 990373" d="M57.68,20.47a9.8,9.8,0,0,1-1.09,2.62l2.02,2.69-2.83,2.83-2.69-2.02a.405.405,0,0,1-.09.05,9.427,9.427,0,0,1-2.53,1.04L50,31H46l-.47-3.32a9.8,9.8,0,0,1-2.62-1.09l-2.69,2.02-2.83-2.83,2.02-2.69a9.8,9.8,0,0,1-1.09-2.62L35,20V16l3.32-.47A9.427,9.427,0,0,1,39.36,13a.4.4,0,0,1,.05-.09l-2.02-2.69,2.83-2.83,2.69,2.02a9.8,9.8,0,0,1,2.62-1.09L46,5h4l.47,3.32a9.8,9.8,0,0,1,2.62,1.09l2.69-2.02,2.83,2.83-2.02,2.69a9.8,9.8,0,0,1,1.09,2.62L61,16v4Z" fill="#ff9811"/>
      <circle id="Elipse_11760" data-name="Elipse 11760" cx="5" cy="5" r="5" transform="translate(43 13)" fill="#ffd422"/>
      <path id="Trazado_990374" data-name="Trazado 990374" d="M39.41,57.59A1.955,1.955,0,0,1,40,59a2.006,2.006,0,0,1-2,2H18a2,2,0,1,1,0-4H38A1.955,1.955,0,0,1,39.41,57.59Z" fill="#898890"/>
      <path id="Trazado_990375" data-name="Trazado 990375" d="M36,57H20l1-8H35Z" fill="#acabb1"/>
      <path id="Trazado_990376" data-name="Trazado 990376" d="M33,38.9V41H9V38.9a6,6,0,0,1,3.559-5.479L15.3,32.2,18,31V28.32A6.946,6.946,0,0,1,14.08,23H13a2,2,0,0,1,0-4h1V17a2,2,0,1,1,0-4H28a2,2,0,0,1,0,4v2h1a2,2,0,0,1,0,4H27.92A6.952,6.952,0,0,1,24,28.32V31l2.7,1.2,2.74,1.22A6,6,0,0,1,33,38.9Z" fill="#3d9ae2"/>
      <path id="Trazado_990377" data-name="Trazado 990377" d="M31,36.9V41H22l-1.82-8.18L21,32l3,1,.7-2.8,2.74,1.22A6,6,0,0,1,31,36.9Z" fill="#1e81ce"/>
      <path id="Trazado_990378" data-name="Trazado 990378" d="M27.41,11.59A1.955,1.955,0,0,1,28,13a2.006,2.006,0,0,1-2,2H12a2,2,0,1,1,0-4H26a1.955,1.955,0,0,1,1.41.59Z" fill="#f7910c"/>
      <path id="Trazado_990379" data-name="Trazado 990379" d="M26,11H21V5.09A5.984,5.984,0,0,1,25.91,10,5.47,5.47,0,0,1,26,11Z" fill="#ff9811"/>
      <path id="Trazado_990380" data-name="Trazado 990380" d="M24.7,30.2,24,33l-3-1-1-2,2-1Z" fill="#1a6fb0"/>
      <path id="Trazado_990381" data-name="Trazado 990381" d="M20.18,32.82,22,41H16l1.82-8.18L19,34Z" fill="#ed1c24"/>
      <path id="Trazado_990382" data-name="Trazado 990382" d="M21,5.09V11H17V4a1,1,0,0,1,1-1h2a1,1,0,0,1,1,1Z" fill="#ffa733"/>
      <path id="Trazado_990383" data-name="Trazado 990383" d="M20,30l1,2-.82.82L19,34l-1.18-1.18L17,32l1-2Z" fill="#ed1c24"/>
      <path id="Trazado_990384" data-name="Trazado 990384" d="M18,30l-1,2-3,1-.7-2.8L16,29Z" fill="#1a6fb0"/>
      <path id="Trazado_990385" data-name="Trazado 990385" d="M17.82,32.82,16,41H7V36.9a6,6,0,0,1,3.559-5.479L13.3,30.2,14,33l3-1Z" fill="#1e81ce"/>
      <path id="Trazado_990386" data-name="Trazado 990386" d="M17,5.09V11H12a5.47,5.47,0,0,1,.09-1A5.992,5.992,0,0,1,17,5.09Z" fill="#ff9811"/>
      <path id="Trazado_990387" data-name="Trazado 990387" d="M22,26v3l-2,1H18l-2-1V26Z" fill="#ffc477"/>
      <g id="Grupo_1162376" data-name="Grupo 1162376">
        <path id="Trazado_990388" data-name="Trazado 990388" d="M13,17v4H11a2,2,0,0,1,0-4Z" fill="#ffb655"/>
        <path id="Trazado_990389" data-name="Trazado 990389" d="M29,19a2.006,2.006,0,0,1-2,2H25V17h2a2.006,2.006,0,0,1,2,2Z" fill="#ffb655"/>
        <path id="Trazado_990390" data-name="Trazado 990390" d="M22,26v2.32a6.958,6.958,0,0,1-6,0V26Z" fill="#ffb655"/>
      </g>
      <path id="Trazado_990391" data-name="Trazado 990391" d="M26,17v3a5.474,5.474,0,0,1-.08,1,6.99,6.99,0,0,1-13.84,0A5.474,5.474,0,0,1,12,20V15H26Z" fill="#ffc477"/>
      <path id="Trazado_990392" data-name="Trazado 990392" d="M12,15H26v2H12Z" fill="#ffb655"/>
      <path id="Trazado_990393" data-name="Trazado 990393" d="M35.25,51H20.75L21,49H35Z" fill="#898890"/>
      <path id="Trazado_990394" data-name="Trazado 990394" d="M31,12h5v2H31Z"/>
      <path id="Trazado_990395" data-name="Trazado 990395" d="M52,30V40H32V36.9a7,7,0,0,0-4.15-6.39L23,28.35V26.92A8.06,8.06,0,0,0,26.74,22H27a3,3,0,0,0,0-6v-.18a2.983,2.983,0,0,0-.05-5.65,6.934,6.934,0,0,0-2-4.11A6.756,6.756,0,0,0,22,4.31V4a2.006,2.006,0,0,0-2-2H18a2.006,2.006,0,0,0-2,2v.3a6.96,6.96,0,0,0-4.95,5.87A2.983,2.983,0,0,0,11,15.82V16a3,3,0,0,0,0,6h.26A8.06,8.06,0,0,0,15,26.92v1.43l-4.85,2.16A7,7,0,0,0,6,36.9V40H4V17a3.009,3.009,0,0,1,3-3V12a5,5,0,0,0-5,5V45a5,5,0,0,0,5,5H19.87l-.75,6H18a3,3,0,0,0,0,6H38a3,3,0,1,0,0-6H36.88l-.75-6H49a5,5,0,0,0,5-5V30ZM11,20a1,1,0,0,1,0-2ZM24,34a1,1,0,0,0,.48-.12,1.017,1.017,0,0,0,.49-.64l.41-1.64,1.65.73A5,5,0,0,1,30,36.9V40H22.8l-1.52-6.85,2.4.8A1.185,1.185,0,0,0,24,34Zm-.47-3.23-.24.94-1.58-.53-.37-.73.69-.34ZM28,19a1,1,0,0,1-1,1V18A1,1,0,0,1,28,19ZM22,6.43a5.106,5.106,0,0,1,1.54,1.04A4.913,4.913,0,0,1,24.9,10H22ZM18,4h2v6H18ZM16,6.43V10H13.1A4.961,4.961,0,0,1,16,6.43ZM11,13a1,1,0,0,1,1-1H26a1,1,0,0,1,0,2H12A1,1,0,0,1,11,13Zm2,7V16H25v4a6,6,0,1,1-12,0Zm5.41,14.78a.9.9,0,0,0,1.18,0L20.75,40h-3.5Zm-.19-2.98.4-.8h.76l.4.8-.78.79ZM19.76,29H18.24L17,28.38v-.64a7.822,7.822,0,0,0,4,0v.64Zm-3.79,1.11.69.34-.37.73-1.58.53-.24-.94ZM8,36.9a5,5,0,0,1,2.971-4.57l1.649-.73.41,1.64a1.017,1.017,0,0,0,.49.64A1,1,0,0,0,14,34a1.185,1.185,0,0,0,.32-.05l2.4-.8L15.2,40H8ZM38,58a1,1,0,0,1,0,2H18a1,1,0,0,1,0-2ZM21.13,56l.75-6H34.12l.75,6ZM52,45a3.009,3.009,0,0,1-3,3H7a3.009,3.009,0,0,1-3-3V42H52Z"/>
      <path id="Trazado_990396" data-name="Trazado 990396" d="M46,44h2v2H46Z"/>
      <path id="Trazado_990397" data-name="Trazado 990397" d="M15,18h2v2H15Z"/>
      <path id="Trazado_990398" data-name="Trazado 990398" d="M21,18h2v2H21Z"/>
      <path id="Trazado_990399" data-name="Trazado 990399" d="M61.142,15.01l-2.682-.383a10.861,10.861,0,0,0-.679-1.639l1.625-2.166a1,1,0,0,0-.093-1.307L56.485,6.687a1,1,0,0,0-1.306-.093L53.012,8.218a10.9,10.9,0,0,0-1.639-.678L50.99,4.858A1,1,0,0,0,50,4H46a1,1,0,0,0-.99.858L44.627,7.54a10.855,10.855,0,0,0-1.639.678L40.821,6.594a1,1,0,0,0-1.306.093L36.687,9.515a1,1,0,0,0-.093,1.307l1.625,2.166a10.86,10.86,0,0,0-.679,1.639l-2.682.383A1,1,0,0,0,34,16v4a1,1,0,0,0,.858.99l2.682.383a10.86,10.86,0,0,0,.679,1.639l-1.625,2.166a1,1,0,0,0,.093,1.307l2.828,2.828a1,1,0,0,0,1.306.093l2.167-1.624a10.855,10.855,0,0,0,1.639.678l.383,2.682A1,1,0,0,0,46,32h4a1,1,0,0,0,.99-.858l.383-2.682a10.9,10.9,0,0,0,1.639-.678l2.167,1.624a1,1,0,0,0,1.306-.093l2.828-2.828a1,1,0,0,0,.093-1.307l-1.625-2.166a10.861,10.861,0,0,0,.679-1.639l2.682-.383A1,1,0,0,0,62,20V16a1,1,0,0,0-.858-.99ZM60,19.133l-2.463.352a1,1,0,0,0-.827.742,8.923,8.923,0,0,1-.977,2.357,1,1,0,0,0,.061,1.111l1.492,1.99-1.6,1.6-1.991-1.492a1,1,0,0,0-1.11-.06,8.859,8.859,0,0,1-2.356.975,1,1,0,0,0-.744.828L49.133,30H46.867l-.351-2.463a1,1,0,0,0-.744-.828,8.859,8.859,0,0,1-2.356-.975,1,1,0,0,0-1.11.06l-1.991,1.492-1.6-1.6,1.492-1.99a1,1,0,0,0,.061-1.111,8.923,8.923,0,0,1-.977-2.357,1,1,0,0,0-.827-.742L36,19.133V16.867l2.463-.352a1,1,0,0,0,.827-.742,8.923,8.923,0,0,1,.977-2.357,1,1,0,0,0-.061-1.111l-1.492-1.99,1.6-1.6,1.991,1.492a1,1,0,0,0,1.11.06,8.859,8.859,0,0,1,2.356-.975,1,1,0,0,0,.744-.828L46.867,6h2.266l.351,2.463a1,1,0,0,0,.744.828,8.859,8.859,0,0,1,2.356.975,1,1,0,0,0,1.11-.06l1.991-1.492,1.6,1.6L55.793,12.3a1,1,0,0,0-.061,1.111,8.923,8.923,0,0,1,.977,2.357,1,1,0,0,0,.827.742L60,16.867Z"/>
      <path id="Trazado_990400" data-name="Trazado 990400" d="M48,12a6,6,0,1,0,6,6,6,6,0,0,0-6-6Zm0,10a4,4,0,1,1,4-4A4,4,0,0,1,48,22Z"/>
      <path id="Trazado_990401" data-name="Trazado 990401" d="M36,32h8v2H36Z"/>
      <path id="Trazado_990402" data-name="Trazado 990402" d="M36,36h8v2H36Z"/>
    </g>
  </g>
</svg>
