<svg xmlns="http://www.w3.org/2000/svg" width="93.959" height="93.959" viewBox="0 0 93.959 93.959">
  <g id="Grupo_1162378" data-name="Grupo 1162378" transform="translate(-211.051 -434)">
    <g id="Grupo_1160604" data-name="Grupo 1160604" transform="translate(-509 -18)">
      <g id="Grupo_1154510" data-name="Grupo 1154510" transform="translate(720.051 452)">
        <g id="Grupo_1103990" data-name="Grupo 1103990" transform="translate(0)">
          <g id="Trazado_874102" data-name="Trazado 874102" transform="translate(0)" fill="#f0f7e8">
            <path d="M 46.97949600219727 91.45897674560547 C 40.97370910644531 91.45897674560547 35.14888000488281 90.28328704833984 29.66683959960938 87.96457672119141 C 24.37055397033691 85.72444915771484 19.61348152160645 82.51696014404297 15.52775287628174 78.43122863769531 C 11.44202423095703 74.34550476074219 8.234539031982422 69.58843231201172 5.994410514831543 64.29214477539062 C 3.675695896148682 58.81010437011719 2.500010251998901 52.98527526855469 2.500010251998901 46.97948837280273 C 2.500010251998901 40.97369003295898 3.675695896148682 35.14887237548828 5.994410514831543 29.66683197021484 C 8.234539031982422 24.37054634094238 11.44202423095703 19.61346054077148 15.52775287628174 15.52774524688721 C 19.61348152160645 11.4420166015625 24.37055397033691 8.234531402587891 29.66683959960938 5.994388580322266 C 35.14888000488281 3.67568826675415 40.97370910644531 2.50000262260437 46.97949600219727 2.50000262260437 C 52.98529434204102 2.50000262260437 58.81011199951172 3.67568826675415 64.29215240478516 5.994388580322266 C 69.58843994140625 8.234531402587891 74.34552764892578 11.4420166015625 78.43123626708984 15.52774524688721 C 82.5169677734375 19.61346054077148 85.72445678710938 24.37054634094238 87.964599609375 29.66683197021484 C 90.28329467773438 35.14887237548828 91.458984375 40.97369003295898 91.458984375 46.97948837280273 C 91.458984375 52.98527526855469 90.28329467773438 58.81010437011719 87.964599609375 64.29214477539062 C 85.72445678710938 69.58843231201172 82.5169677734375 74.34550476074219 78.43123626708984 78.43122863769531 C 74.34552764892578 82.51696014404297 69.58843994140625 85.72444915771484 64.29215240478516 87.96457672119141 C 58.81011199951172 90.28328704833984 52.98529434204102 91.45897674560547 46.97949600219727 91.45897674560547 Z" stroke="none"/>
            <path d="M 46.97949600219727 5.000007629394531 C 41.31009674072266 5.000007629394531 35.81294631958008 6.109237670898438 30.64072799682617 8.296905517578125 C 25.64242553710938 10.41100311279297 21.1524658203125 13.43856811523438 17.29550933837891 17.29550170898438 C 13.43857574462891 21.15245819091797 10.4110107421875 25.64241790771484 8.296913146972656 30.64072036743164 C 6.109245300292969 35.81293869018555 5.000015258789062 41.31008911132812 5.000015258789062 46.97948837280273 C 5.000015258789062 52.64888763427734 6.109245300292969 58.14603805541992 8.296913146972656 63.31825256347656 C 10.4110107421875 68.31653594970703 13.43857574462891 72.8065185546875 17.29550933837891 76.6634521484375 C 21.1524658203125 80.52040100097656 25.64242553710938 83.5479736328125 30.64072799682617 85.66207122802734 C 35.81294631958008 87.84973907470703 41.31009674072266 88.95896911621094 46.97949600219727 88.95896911621094 C 52.64889526367188 88.95896911621094 58.14604568481445 87.84973907470703 63.31826019287109 85.66207122802734 C 68.31655883789062 83.5479736328125 72.80653381347656 80.52040100097656 76.66348266601562 76.6634521484375 C 80.52041625976562 72.8065185546875 83.54798126220703 68.31653594970703 85.66207885742188 63.31825256347656 C 87.84974670410156 58.14603805541992 88.95897674560547 52.64888763427734 88.95897674560547 46.97948837280273 C 88.95897674560547 41.31008911132812 87.84974670410156 35.81293869018555 85.66207885742188 30.64072036743164 C 83.54798126220703 25.64241790771484 80.52041625976562 21.15245819091797 76.66348266601562 17.29550170898438 C 72.80653381347656 13.43856811523438 68.31655883789062 10.41100311279297 63.31826019287109 8.296905517578125 C 58.14604568481445 6.109237670898438 52.64889526367188 5.000007629394531 46.97949600219727 5.000007629394531 M 46.97949600219727 7.62939453125e-06 C 72.92554473876953 7.62939453125e-06 93.95897674560547 21.03343963623047 93.95897674560547 46.97948837280273 C 93.95897674560547 72.92552185058594 72.92554473876953 93.95896911621094 46.97949600219727 93.95896911621094 C 21.033447265625 93.95896911621094 1.52587890625e-05 72.92552185058594 1.52587890625e-05 46.97948837280273 C 1.52587890625e-05 21.03343963623047 21.033447265625 7.62939453125e-06 46.97949600219727 7.62939453125e-06 Z" stroke="none" fill="#fff"/>
          </g>
        </g>
      </g>
    </g>
    <g id="Layer_31" data-name="Layer 31" transform="translate(226.05 449)">
      <path id="Trazado_990403" data-name="Trazado 990403" d="M54,43h2V55H54Z" fill="#5b5b5b"/>
      <path id="Trazado_990404" data-name="Trazado 990404" d="M59,25,58,41H52L51,25Z" fill="#f89b1c"/>
      <path id="Trazado_990405" data-name="Trazado 990405" d="M54.813,36.006A3.194,3.194,0,0,0,58,39c.043,0,.083-.011.126-.013L59,25H54.125Z" fill="#fdb716"/>
      <path id="Trazado_990406" data-name="Trazado 990406" d="M29.663,22.12l12.375-13.1,3.2,5.216L33.986,28.484Z" fill="#cbcbcb"/>
      <path id="Trazado_990407" data-name="Trazado 990407" d="M42.038,9.019l-10.1,10.7a3.543,3.543,0,0,0,5.054-.518l6.356-8.051Z" fill="#e5e5e5"/>
      <path id="Trazado_990408" data-name="Trazado 990408" d="M55,14,48.036,7.036a3.536,3.536,0,1,0-5,5L49,18h5Z" fill="#f89b1c"/>
      <path id="Trazado_990409" data-name="Trazado 990409" d="M45.536,6c-.063,0-.12.015-.182.018a3.5,3.5,0,0,0,.682,4.018l4.738,4.738A4.184,4.184,0,0,0,53.733,16a4.1,4.1,0,0,0,.787-.081L55,14,48.036,7.036A3.535,3.535,0,0,0,45.536,6Z" fill="#fdb716"/>
      <path id="Trazado_990410" data-name="Trazado 990410" d="M60,16a2,2,0,0,0-2-2H52a2,2,0,0,0-2,2v8a2,2,0,0,0,2,2h6a2,2,0,0,0,2-2Z" fill="#4c4c4c"/>
      <path id="Trazado_990411" data-name="Trazado 990411" d="M58,14H52v8a2,2,0,0,0,2,2h6V16A2,2,0,0,0,58,14Z" fill="#5b5b5b"/>
      <path id="Trazado_990412" data-name="Trazado 990412" d="M13,31.318,8.628,33.107A7.448,7.448,0,0,0,4,40V52H35V32Z" fill="#f89b1c"/>
      <path id="Trazado_990413" data-name="Trazado 990413" d="M35,43V32l-22-.682L8.628,33.107a7.4,7.4,0,0,0-2.567,1.765,7.249,7.249,0,0,0-.061.81,11.95,11.95,0,0,0,3.287,8.235,7.986,7.986,0,0,1,10.986,3.765h7.454A8,8,0,0,1,35,43Z" fill="#fdb716"/>
      <path id="Trazado_990414" data-name="Trazado 990414" d="M6.291,53H4a2,2,0,1,1,0-4H6.291Z" fill="#cbcbcb"/>
      <path id="Trazado_990415" data-name="Trazado 990415" d="M6.291,49H4a1.95,1.95,0,0,0-.288.029,2,2,0,0,0,2,1.971h.582Z" fill="#e5e5e5"/>
      <path id="Trazado_990416" data-name="Trazado 990416" d="M35,44H13V27a6,6,0,0,1,6-6h8a3.736,3.736,0,0,1,3.109,1.664l3.782,5.672A6.608,6.608,0,0,1,35,32Z" fill="#cbcbcb"/>
      <path id="Trazado_990417" data-name="Trazado 990417" d="M35,32a6.608,6.608,0,0,0-1.109-3.664l-3.782-5.672A3.735,3.735,0,0,0,27,21H19a5.968,5.968,0,0,0-3.119.881A5.968,5.968,0,0,0,15,25v8.861A8.139,8.139,0,0,0,23.139,42H35Z" fill="#e5e5e5"/>
      <path id="Trazado_990418" data-name="Trazado 990418" d="M33.891,28.336l-3.782-5.672A3.735,3.735,0,0,0,27,21H19V34H35V32a6.608,6.608,0,0,0-1.109-3.664Z" fill="#62c1ea"/>
      <path id="Trazado_990419" data-name="Trazado 990419" d="M30.109,22.664A3.735,3.735,0,0,0,27,21H20V33H35V32a6.608,6.608,0,0,0-1.109-3.664Z" fill="#86ddfa"/>
      <path id="Trazado_990420" data-name="Trazado 990420" d="M20,51h8l1.256,4H18.744Z" fill="#cbcbcb"/>
      <path id="Trazado_990421" data-name="Trazado 990421" d="M20,51l-.628,2h9.256L28,51Z" fill="#e5e5e5"/>
      <circle id="Elipse_11761" data-name="Elipse 11761" cx="7" cy="7" r="7" transform="translate(6 44)" fill="#4c4c4c"/>
      <circle id="Elipse_11762" data-name="Elipse 11762" cx="7" cy="7" r="7" transform="translate(28 44)" fill="#4c4c4c"/>
      <path id="Trazado_990422" data-name="Trazado 990422" d="M13,44a6.963,6.963,0,0,0-3.846,1.154,7,7,0,0,0,9.692,9.692A7,7,0,0,0,13,44Z" fill="#5b5b5b"/>
      <path id="Trazado_990423" data-name="Trazado 990423" d="M35,44a6.963,6.963,0,0,0-3.846,1.154,7,7,0,0,0,9.692,9.692A7,7,0,0,0,35,44Z" fill="#5b5b5b"/>
      <path id="Trazado_990424" data-name="Trazado 990424" d="M22,25h2v9H22Z" fill="#e5e5e5"/>
      <path id="Trazado_990425" data-name="Trazado 990425" d="M22,37h4v2H22Z" fill="#cbcbcb"/>
      <circle id="Elipse_11763" data-name="Elipse 11763" cx="3" cy="3" r="3" transform="translate(10 48)" fill="#4c4c4c"/>
      <circle id="Elipse_11764" data-name="Elipse 11764" cx="3" cy="3" r="3" transform="translate(32 48)" fill="#4c4c4c"/>
      <path id="Trazado_990426" data-name="Trazado 990426" d="M30.109,22.664A3.735,3.735,0,0,0,27,21H19a6,6,0,0,0-5.651,4H31.667Z" fill="#f89b1c"/>
      <path id="Trazado_990427" data-name="Trazado 990427" d="M30.109,22.664A3.735,3.735,0,0,0,27,21H19a5.951,5.951,0,0,0-1.984.346A1.3,1.3,0,0,0,17,21.5,1.5,1.5,0,0,0,18.5,23H30.333Z" fill="#fdb716"/>
      <path id="Trazado_990428" data-name="Trazado 990428" d="M53,41v2a2,2,0,0,0,4,0V41Z" fill="#cbcbcb"/>
      <path id="Trazado_990429" data-name="Trazado 990429" d="M48,18H62v4H48Z" fill="#cbcbcb"/>
      <path id="Trazado_990430" data-name="Trazado 990430" d="M52,20H62V18H50A2,2,0,0,0,52,20Z" fill="#e5e5e5"/>
      <path id="Trazado_990431" data-name="Trazado 990431" d="M55,42a1.993,1.993,0,0,0,1.737,1.973A1.972,1.972,0,0,0,57,43V41H55Z" fill="#e5e5e5"/>
      <path id="Trazado_990432" data-name="Trazado 990432" d="M22,37h4v2H22ZM63,18v4a1,1,0,0,1-1,1H61v1a2.98,2.98,0,0,1-1.078,2.284L59,41.063A1,1,0,0,1,58,42v1a3,3,0,0,1-2,2.816V55H54V45.816A3,3,0,0,1,52,43V42a1,1,0,0,1-1-.937l-.924-14.778A2.98,2.98,0,0,1,49,24V23H48a1,1,0,0,1-1-1V18a.974.974,0,0,1,.126-.46l-1.8-1.8L35.179,28.587A7.575,7.575,0,0,1,36,32V43.069A8,8,0,1,1,28.765,56h-9.53A7.987,7.987,0,0,1,5.589,54H4a2.993,2.993,0,0,1-1-5.816V40a8.42,8.42,0,0,1,5.249-7.819L12,30.646V27a7.008,7.008,0,0,1,7-7h8a4.724,4.724,0,0,1,2.568.764L41.12,8.535a4.528,4.528,0,0,1,7.622-2.206L55.414,13H58a3,3,0,0,1,3,3v1h1a1,1,0,0,1,1,1Zm-5-3H52a1,1,0,0,0-1,1v1h8V16A1,1,0,0,0,58,15ZM43,9.536a2.523,2.523,0,0,0,.742,1.793L49,16.586V16a3,3,0,0,1,3-3h.586L47.328,7.743A2.535,2.535,0,0,0,43,9.536ZM33.059,28.891,31.132,26H24v7H34V32a5.582,5.582,0,0,0-.941-3.109ZM29.726,45H18.274a7.99,7.99,0,0,1,2.657,5h6.138a7.99,7.99,0,0,1,2.657-5ZM34,43V35H19a1,1,0,0,1-1-1V26H14.1a5,5,0,0,0-.1,1V43ZM22,33V26H20v7Zm-6.974-9H29.8l-.521-.781A2.731,2.731,0,0,0,27,22H19a4.977,4.977,0,0,0-3.974,2ZM5,40v8h.589A8.016,8.016,0,0,1,12,43.069V32.808L9.007,34.032A6.425,6.425,0,0,0,5,40Zm.069,12a7.281,7.281,0,0,1,0-2H4a1,1,0,0,0,0,2ZM19,51a6,6,0,1,0-6,6A6,6,0,0,0,19,51Zm8.589,3a7.965,7.965,0,0,1-.52-2H20.931a7.965,7.965,0,0,1-.52,2ZM35,45a6,6,0,1,0,6,6,6,6,0,0,0-6-6Zm8.9-30.687-1.571-1.57a4.528,4.528,0,0,1-1-1.518L30.985,22.175l3.071,4.606ZM57.061,40l.812-13H52.127l.812,13ZM56,42H54v1a1,1,0,0,0,2,0Zm3-19H51v1a.986.986,0,0,0,.764.952L52,24.938V25h6v-.062l.234.014A.986.986,0,0,0,59,24Zm2-4H49v2H61ZM17,51a4,4,0,1,1-4-4A4,4,0,0,1,17,51Zm-2,0a2,2,0,1,0-2,2A2,2,0,0,0,15,51Zm20-4a4,4,0,1,1-4,4A4,4,0,0,1,35,47Zm0,2a2,2,0,1,0,2,2A2,2,0,0,0,35,49Z"/>
    </g>
  </g>
</svg>
