<svg xmlns="http://www.w3.org/2000/svg" xmlns:xlink="http://www.w3.org/1999/xlink" width="105.781" height="105.781" viewBox="0 0 105.781 105.781">
  <defs>
    <filter id="Trazado_985596" x="0" y="0" width="105.781" height="105.781" filterUnits="userSpaceOnUse">
      <feOffset dy="3" input="SourceAlpha"/>
      <feGaussianBlur stdDeviation="3" result="blur"/>
      <feFlood flood-opacity="0.161"/>
      <feComposite operator="in" in2="blur"/>
      <feComposite in="SourceGraphic"/>
    </filter>
  </defs>
  <g id="Grupo_1162284" data-name="Grupo 1162284" transform="translate(-747.051 -3190)">
    <g id="Grupo_1159831" data-name="Grupo 1159831" transform="translate(-0.949 2081.332)">
      <g transform="matrix(1, 0, 0, 1, 748, 1108.67)" filter="url(#Trazado_985596)">
        <g id="Trazado_985596-2" data-name="Trazado 985596" transform="translate(9 6)" fill="#f3d02c">
          <path d="M 43.8906364440918 85.28125762939453 C 38.30183792114258 85.28125762939453 32.88154220581055 84.18724060058594 27.78030395507812 82.02960205078125 C 22.85183715820312 79.94503021240234 18.42508888244629 76.96026611328125 14.62304973602295 73.15821838378906 C 10.82099628448486 69.35617828369141 7.836236476898193 64.92942810058594 5.751663208007812 60.00096130371094 C 3.59402322769165 54.89972305297852 2.500009775161743 49.47942733764648 2.500009775161743 43.89062881469727 C 2.500009775161743 38.30183029174805 3.59402322769165 32.88153457641602 5.751663208007812 27.78029632568359 C 7.836236476898193 22.85182952880859 10.82099628448486 18.42508125305176 14.62304973602295 14.62304210662842 C 18.42508888244629 10.82098865509033 22.85183715820312 7.836228847503662 27.78030395507812 5.751655578613281 C 32.88154220581055 3.594015598297119 38.30183792114258 2.500002145767212 43.8906364440918 2.500002145767212 C 49.47943496704102 2.500002145767212 54.89973068237305 3.594015598297119 60.00096893310547 5.751655578613281 C 64.92943572998047 7.836228847503662 69.35618591308594 10.82098865509033 73.15822601318359 14.62304210662842 C 76.96027374267578 18.42508125305176 79.94503784179688 22.85182952880859 82.02960968017578 27.78029632568359 C 84.18724822998047 32.88153457641602 85.28126525878906 38.30183029174805 85.28126525878906 43.89062881469727 C 85.28126525878906 49.47942733764648 84.18724822998047 54.89972305297852 82.02960968017578 60.00096130371094 C 79.94503784179688 64.92942810058594 76.96027374267578 69.35617828369141 73.15822601318359 73.15821838378906 C 69.35618591308594 76.96026611328125 64.92943572998047 79.94503021240234 60.00096893310547 82.02960205078125 C 54.89973068237305 84.18724060058594 49.47943496704102 85.28125762939453 43.8906364440918 85.28125762939453 Z" stroke="none"/>
          <path d="M 43.8906364440918 4.999992370605469 C 38.63823699951172 4.999992370605469 33.54560470581055 6.027565002441406 28.75418472290039 8.054161071777344 C 24.12371826171875 10.0126953125 19.96407318115234 12.81754302978516 16.39080047607422 16.39079284667969 C 12.81755065917969 19.96406555175781 10.01270294189453 24.12371063232422 8.054168701171875 28.75417709350586 C 6.027572631835938 33.54559707641602 5 38.63822937011719 5 43.89062881469727 C 5 49.14302825927734 6.027572631835938 54.23566055297852 8.054168701171875 59.02707672119141 C 10.01270294189453 63.65754699707031 12.81755065917969 67.81719970703125 16.39080047607422 71.39046478271484 C 19.96407318115234 74.96371459960938 24.12371826171875 77.76856231689453 28.75418472290039 79.72709655761719 C 33.54560470581055 81.75369262695312 38.63823699951172 82.78126525878906 43.8906364440918 82.78126525878906 C 49.14303588867188 82.78126525878906 54.23566818237305 81.75369262695312 59.02708435058594 79.72709655761719 C 63.65755462646484 77.76856231689453 67.81719970703125 74.96371459960938 71.39047241210938 71.39046478271484 C 74.96372222900391 67.81719970703125 77.76856994628906 63.65754699707031 79.72710418701172 59.02707672119141 C 81.75370025634766 54.23566055297852 82.78127288818359 49.14302825927734 82.78127288818359 43.89062881469727 C 82.78127288818359 38.63822937011719 81.75370025634766 33.54559707641602 79.72710418701172 28.75417709350586 C 77.76856994628906 24.12371063232422 74.96372222900391 19.96406555175781 71.39047241210938 16.39079284667969 C 67.81719970703125 12.81754302978516 63.65755462646484 10.0126953125 59.02708435058594 8.054161071777344 C 54.23566818237305 6.027565002441406 49.14303588867188 4.999992370605469 43.8906364440918 4.999992370605469 M 43.8906364440918 -7.62939453125e-06 C 68.13075256347656 -7.62939453125e-06 87.78127288818359 19.6505126953125 87.78127288818359 43.89062881469727 C 87.78127288818359 68.13074493408203 68.13075256347656 87.78126525878906 43.8906364440918 87.78126525878906 C 19.65052032470703 87.78126525878906 0 68.13074493408203 0 43.89062881469727 C 0 19.6505126953125 19.65052032470703 -7.62939453125e-06 43.8906364440918 -7.62939453125e-06 Z" stroke="none" fill="#fff"/>
        </g>
      </g>
    </g>
    <g id="analitica" transform="translate(776.051 3216)">
      <path id="Trazado_990237" data-name="Trazado 990237" d="M16.588,48.589H13.66A3.66,3.66,0,0,1,10,44.929V13.66A3.66,3.66,0,0,1,13.66,10h37.7a3.66,3.66,0,0,1,3.66,3.66V44.929a3.66,3.66,0,0,1-3.66,3.66H16.588Z" transform="translate(-9.085 -9.085)" fill="#fff"/>
      <path id="Trazado_990238" data-name="Trazado 990238" d="M51.36,10H13.66A3.66,3.66,0,0,0,10,13.66v2.928H55.02V13.66A3.66,3.66,0,0,0,51.36,10Z" transform="translate(-9.085 -9.085)" fill="#ff5a5a"/>
      <path id="Trazado_990239" data-name="Trazado 990239" d="M21,82H64.469" transform="translate(-19.082 -74.497)" fill="#231f20"/>
      <rect id="Rectángulo_411770" data-name="Rectángulo 411770" width="5.818" height="9.309" transform="translate(4.655 36.073)" fill="#a5dc69"/>
      <rect id="Rectángulo_411771" data-name="Rectángulo 411771" width="5.818" height="11.637" transform="translate(25.6 33.746)" fill="#78d2fa"/>
      <rect id="Rectángulo_411772" data-name="Rectángulo 411772" width="5.856" height="20.183" transform="translate(15.373 25.752)" fill="#f5c86e"/>
      <rect id="Rectángulo_411773" data-name="Rectángulo 411773" width="5.856" height="21.549" transform="translate(35.87 24.386)" fill="#ff5a5a"/>
      <circle id="Elipse_11753" data-name="Elipse 11753" cx="2.379" cy="2.379" r="2.379" transform="translate(15.407 13.354)" fill="#f5c86e"/>
      <circle id="Elipse_11754" data-name="Elipse 11754" cx="2.379" cy="2.379" r="2.379" transform="translate(26.085 24.249)" fill="#78d2fa"/>
      <circle id="Elipse_11755" data-name="Elipse 11755" cx="2.379" cy="2.379" r="2.379" transform="translate(36.419 13.354)" fill="#ff5a5a"/>
      <circle id="Elipse_11756" data-name="Elipse 11756" cx="2.379" cy="2.379" r="2.379" transform="translate(5.613 23.373)" fill="#a5dc69"/>
      <path id="Trazado_990240" data-name="Trazado 990240" d="M43.656,40.308a3.2,3.2,0,0,0,3.2-3.2V4.575A4.58,4.58,0,0,0,42.275,0H4.575A4.58,4.58,0,0,0,0,4.575V37.113a3.2,3.2,0,0,0,3.2,3.2H4.209V45.02H.915a.915.915,0,0,0,0,1.83h45.02a.915.915,0,0,0,0-1.83H42.641V40.308ZM4.575,1.83h37.7A2.748,2.748,0,0,1,45.02,4.575V6.588H1.922c-.031,0-.062,0-.092,0V4.575A2.748,2.748,0,0,1,4.575,1.83ZM6.039,45.02V36.785h4.026V45.02Zm10.249,0V26.667h4.026V45.02Zm10.249,0V34.406h4.026V45.02Zm10.249,0v-9.86a.915.915,0,0,0-1.83,0v9.86H32.393V33.491a.915.915,0,0,0-.915-.915H25.621a.915.915,0,0,0-.915.915V45.02H22.144V25.752a.915.915,0,0,0-.915-.915H15.373a.915.915,0,0,0-.915.915V45.02H11.9V35.87a.915.915,0,0,0-.915-.915H5.124a.915.915,0,0,0-.915.915v2.608H3.2A1.367,1.367,0,0,1,1.83,37.113V8.414c.03,0,.061,0,.092,0h43.1V37.113a1.367,1.367,0,0,1-1.365,1.365H42.641V24.386a.915.915,0,0,0-.915-.915H35.87a.915.915,0,0,0-.915.915v4.621a.915.915,0,0,0,1.83,0V25.3h4.026V45.02Z"/>
      <path id="Trazado_990241" data-name="Trazado 990241" d="M212.98,37.83h20.674a.915.915,0,1,0,0-1.83H212.98a.915.915,0,1,0,0,1.83Z" transform="translate(-192.66 -32.706)"/>
      <path id="Trazado_990242" data-name="Trazado 990242" d="M94.915,37.83a.916.916,0,1,0-.647-.268A.922.922,0,0,0,94.915,37.83Z" transform="translate(-85.399 -32.706)"/>
      <path id="Trazado_990243" data-name="Trazado 990243" d="M54.915,37.83a.916.916,0,1,0-.647-.268A.922.922,0,0,0,54.915,37.83Z" transform="translate(-49.059 -32.706)"/>
      <path id="Trazado_990244" data-name="Trazado 990244" d="M134.915,37.83a.916.916,0,1,0-.647-.268A.922.922,0,0,0,134.915,37.83Z" transform="translate(-121.738 -32.706)"/>
      <path id="Trazado_990245" data-name="Trazado 990245" d="M382.915,342.64a.915.915,0,1,0,.647.268A.918.918,0,0,0,382.915,342.64Z" transform="translate(-347.045 -311.287)"/>
      <path id="Trazado_990246" data-name="Trazado 990246" d="M85.437,142.527a3.3,3.3,0,1,0-2.665-1.362l-6.078,6.078a3.286,3.286,0,0,0-3.038-.074l-6.347-6.347a3.294,3.294,0,1,0-5.685.142l-5.4,5.4a3.3,3.3,0,1,0,1.294,1.294l5.468-5.468a3.287,3.287,0,0,0,3.032-.077L72.3,148.4a3.294,3.294,0,1,0,5.688.136l6.241-6.241A3.273,3.273,0,0,0,85.437,142.527Zm0-4.758a1.464,1.464,0,1,1-1.464,1.464A1.466,1.466,0,0,1,85.437,137.769ZM54.63,150.716a1.464,1.464,0,1,1,1.464-1.464A1.466,1.466,0,0,1,54.63,150.716ZM64.424,140.7a1.464,1.464,0,1,1,1.464-1.464A1.466,1.466,0,0,1,64.424,140.7ZM75.1,151.592a1.464,1.464,0,1,1,1.464-1.464A1.466,1.466,0,0,1,75.1,151.592Z" transform="translate(-46.638 -123.5)"/>
      <path id="Trazado_990247" data-name="Trazado 990247" d="M132.175,127.85a.914.914,0,1,0-.648-.268A.923.923,0,0,0,132.175,127.85Z" transform="translate(-119.249 -114.489)"/>
      <path id="Trazado_990248" data-name="Trazado 990248" d="M46.915,127.851h4.392a.915.915,0,0,0,0-1.83H46.915a.915.915,0,0,0,0,1.83Z" transform="translate(-41.791 -114.489)"/>
      <path id="Trazado_990249" data-name="Trazado 990249" d="M51.307,175.851a.915.915,0,0,0,0-1.83H46.915a.915.915,0,0,0,0,1.83Z" transform="translate(-41.791 -158.097)"/>
    </g>
  </g>
</svg>
