<svg xmlns="http://www.w3.org/2000/svg" xmlns:xlink="http://www.w3.org/1999/xlink" width="105.781" height="105.781" viewBox="0 0 105.781 105.781">
  <defs>
    <filter id="Trazado_985595" x="0" y="0" width="105.781" height="105.781" filterUnits="userSpaceOnUse">
      <feOffset dy="3" input="SourceAlpha"/>
      <feGaussianBlur stdDeviation="3" result="blur"/>
      <feFlood flood-opacity="0.161"/>
      <feComposite operator="in" in2="blur"/>
      <feComposite in="SourceGraphic"/>
    </filter>
  </defs>
  <g id="Grupo_1162286" data-name="Grupo 1162286" transform="translate(-1167.051 -3190)">
    <g id="Grupo_1159832" data-name="Grupo 1159832" transform="translate(-1 2081)">
      <g transform="matrix(1, 0, 0, 1, 1168.05, 1109)" filter="url(#Trazado_985595)">
        <g id="Trazado_985595-2" data-name="Trazado 985595" transform="translate(9 6)" fill="#f3d02c">
          <path d="M 43.8906364440918 85.28125762939453 C 38.30183792114258 85.28125762939453 32.88154220581055 84.18724060058594 27.78030395507812 82.02960205078125 C 22.85183715820312 79.94503021240234 18.42508888244629 76.96026611328125 14.62304973602295 73.15821838378906 C 10.82099628448486 69.35617828369141 7.836236476898193 64.92942810058594 5.751663208007812 60.00096130371094 C 3.59402322769165 54.89972305297852 2.500009775161743 49.47942733764648 2.500009775161743 43.89062881469727 C 2.500009775161743 38.30183029174805 3.59402322769165 32.88153457641602 5.751663208007812 27.78029632568359 C 7.836236476898193 22.85182952880859 10.82099628448486 18.42508125305176 14.62304973602295 14.62304210662842 C 18.42508888244629 10.82098865509033 22.85183715820312 7.836228847503662 27.78030395507812 5.751655578613281 C 32.88154220581055 3.594015598297119 38.30183792114258 2.500002145767212 43.8906364440918 2.500002145767212 C 49.47943496704102 2.500002145767212 54.89973068237305 3.594015598297119 60.00096893310547 5.751655578613281 C 64.92943572998047 7.836228847503662 69.35618591308594 10.82098865509033 73.15822601318359 14.62304210662842 C 76.96027374267578 18.42508125305176 79.94503784179688 22.85182952880859 82.02960968017578 27.78029632568359 C 84.18724822998047 32.88153457641602 85.28126525878906 38.30183029174805 85.28126525878906 43.89062881469727 C 85.28126525878906 49.47942733764648 84.18724822998047 54.89972305297852 82.02960968017578 60.00096130371094 C 79.94503784179688 64.92942810058594 76.96027374267578 69.35617828369141 73.15822601318359 73.15821838378906 C 69.35618591308594 76.96026611328125 64.92943572998047 79.94503021240234 60.00096893310547 82.02960205078125 C 54.89973068237305 84.18724060058594 49.47943496704102 85.28125762939453 43.8906364440918 85.28125762939453 Z" stroke="none"/>
          <path d="M 43.8906364440918 4.999992370605469 C 38.63823699951172 4.999992370605469 33.54560470581055 6.027565002441406 28.75418472290039 8.054161071777344 C 24.12371826171875 10.0126953125 19.96407318115234 12.81754302978516 16.39080047607422 16.39079284667969 C 12.81755065917969 19.96406555175781 10.01270294189453 24.12371063232422 8.054168701171875 28.75417709350586 C 6.027572631835938 33.54559707641602 5 38.63822937011719 5 43.89062881469727 C 5 49.14302825927734 6.027572631835938 54.23566055297852 8.054168701171875 59.02707672119141 C 10.01270294189453 63.65754699707031 12.81755065917969 67.81719970703125 16.39080047607422 71.39046478271484 C 19.96407318115234 74.96371459960938 24.12371826171875 77.76856231689453 28.75418472290039 79.72709655761719 C 33.54560470581055 81.75369262695312 38.63823699951172 82.78126525878906 43.8906364440918 82.78126525878906 C 49.14303588867188 82.78126525878906 54.23566818237305 81.75369262695312 59.02708435058594 79.72709655761719 C 63.65755462646484 77.76856231689453 67.81719970703125 74.96371459960938 71.39047241210938 71.39046478271484 C 74.96372222900391 67.81719970703125 77.76856994628906 63.65754699707031 79.72710418701172 59.02707672119141 C 81.75370025634766 54.23566055297852 82.78127288818359 49.14302825927734 82.78127288818359 43.89062881469727 C 82.78127288818359 38.63822937011719 81.75370025634766 33.54559707641602 79.72710418701172 28.75417709350586 C 77.76856994628906 24.12371063232422 74.96372222900391 19.96406555175781 71.39047241210938 16.39079284667969 C 67.81719970703125 12.81754302978516 63.65755462646484 10.0126953125 59.02708435058594 8.054161071777344 C 54.23566818237305 6.027565002441406 49.14303588867188 4.999992370605469 43.8906364440918 4.999992370605469 M 43.8906364440918 -7.62939453125e-06 C 68.13075256347656 -7.62939453125e-06 87.78127288818359 19.6505126953125 87.78127288818359 43.89062881469727 C 87.78127288818359 68.13074493408203 68.13075256347656 87.78126525878906 43.8906364440918 87.78126525878906 C 19.65052032470703 87.78126525878906 0 68.13074493408203 0 43.89062881469727 C 0 19.6505126953125 19.65052032470703 -7.62939453125e-06 43.8906364440918 -7.62939453125e-06 Z" stroke="none" fill="#fff"/>
        </g>
      </g>
    </g>
    <g id="formula" transform="translate(1194.051 3215.977)">
      <path id="Trazado_990250" data-name="Trazado 990250" d="M9.769,40.023H51.348a1.769,1.769,0,0,1,1.769,1.769V71.871a1.769,1.769,0,0,1-1.769,1.769H9.769A1.769,1.769,0,0,1,8,71.871V41.793a1.769,1.769,0,0,1,1.769-1.769Zm0,0" transform="translate(-7.115 -35.577)" fill="#4799cf"/>
      <path id="Trazado_990251" data-name="Trazado 990251" d="M51.348,130.563H9.769A1.769,1.769,0,0,1,8,128.793v-24.77H53.117v24.77A1.769,1.769,0,0,1,51.348,130.563Zm0,0" transform="translate(-7.115 -92.499)" fill="#c0f5f9"/>
      <path id="Trazado_990252" data-name="Trazado 990252" d="M8,104.023h5.308v26.54H9.769A1.769,1.769,0,0,1,8,128.793Zm0,0" transform="translate(-7.115 -92.499)" fill="#6cbae5"/>
      <path id="Trazado_990253" data-name="Trazado 990253" d="M8,104.023h5.308v5.308H8Zm0,0" transform="translate(-7.115 -92.499)" fill="#6cbae5"/>
      <path id="Trazado_990254" data-name="Trazado 990254" d="M8,152.023h5.308v5.308H8Zm0,0" transform="translate(-7.115 -135.191)" fill="#4799cf"/>
      <path id="Trazado_990255" data-name="Trazado 990255" d="M8,248.023h5.308v5.308H8Zm0,0" transform="translate(-7.115 -220.575)" fill="#4799cf"/>
      <path id="Trazado_990256" data-name="Trazado 990256" d="M32,64.023h1.769v1.769H32Zm0,0" transform="translate(-28.461 -56.923)" fill="#3775a4"/>
      <path id="Trazado_990257" data-name="Trazado 990257" d="M64,64.023h4.423v1.769H64Zm0,0" transform="translate(-56.923 -56.923)" fill="#3775a4"/>
      <path id="Trazado_990258" data-name="Trazado 990258" d="M120,64.023h1.769v1.769H120Zm0,0" transform="translate(-106.73 -56.923)" fill="#3775a4"/>
      <path id="Trazado_990259" data-name="Trazado 990259" d="M112,304.023h3.539v1.769H112Zm0,0" transform="translate(-99.615 -270.383)" fill="#8aced8"/>
      <path id="Trazado_990260" data-name="Trazado 990260" d="M160,304.023h3.539v1.769H160Zm0,0" transform="translate(-142.307 -270.383)" fill="#8aced8"/>
      <g id="Grupo_1162285" data-name="Grupo 1162285" transform="translate(1.769 0.023)">
        <path id="Trazado_990261" data-name="Trazado 990261" d="M96,.023h1.769V1.793H96Zm0,0" transform="translate(-87.153 -0.023)" fill="#c0f5f9"/>
        <path id="Trazado_990262" data-name="Trazado 990262" d="M64,.023h1.769V1.793H64Zm0,0" transform="translate(-58.692 -0.023)" fill="#c0f5f9"/>
        <path id="Trazado_990263" data-name="Trazado 990263" d="M16,.023h3.539V1.793H16Zm0,0" transform="translate(-16 -0.023)" fill="#c0f5f9"/>
      </g>
      <path id="Trazado_990264" data-name="Trazado 990264" d="M440,216.023h1.769v1.769H440Zm0,0" transform="translate(-391.344 -192.114)" fill="#fbedbf"/>
      <path id="Trazado_990265" data-name="Trazado 990265" d="M440,184.023h1.769v1.769H440Zm0,0" transform="translate(-391.344 -163.653)" fill="#fbedbf"/>
      <path id="Trazado_990266" data-name="Trazado 990266" d="M440,136.023h1.769v3.539H440Zm0,0" transform="translate(-391.344 -120.96)" fill="#fbedbf"/>
      <path id="Trazado_990267" data-name="Trazado 990267" d="M264.6,232.288a10.507,10.507,0,0,0-.257,6.193h14.691a1.769,1.769,0,0,0,1.769-1.769v-9.495a10.583,10.583,0,0,0-4.423-1.858l-.885,6.93Zm0,0" transform="translate(-234.807 -200.417)" fill="#b9edf0"/>
      <path id="Trazado_990268" data-name="Trazado 990268" d="M133.194,144.023H104.885a.885.885,0,0,0-.885.885v14.154a.885.885,0,0,0,.885.885h28.309a.885.885,0,0,0,.885-.885V144.908A.885.885,0,0,0,133.194,144.023Zm-.885,10.616h-4.423V152.87h4.423Zm-23,0V152.87h16.808v1.769Zm16.808,1.769v1.769H109.308v-1.769Zm0-7.077V151.1H109.308v-1.769Zm6.193,1.769h-4.423v-1.769h4.423Zm-24.77,0h-1.769v-1.769h1.769Zm-1.769,1.769h1.769v1.769h-1.769Zm26.54-7.077v1.769h-4.423v-1.769Zm-26.54,0h20.347v1.769H105.769Zm0,12.385v-1.769h1.769v1.769Zm22.116,0v-1.769h4.423v1.769Zm0,0" transform="translate(-92.5 -128.076)" fill="#8aced8"/>
      <path id="Trazado_990269" data-name="Trazado 990269" d="M279.574,224.023v1.769H275.15V225a10.612,10.612,0,0,0-3.473,2.565h1.7v1.769h-2.992a10.616,10.616,0,0,0-.815,1.769h10.884a.885.885,0,0,0,.885-.885v-6.041A10.512,10.512,0,0,0,279.574,224.023Zm0,5.308H275.15v-1.769h4.423Zm0,0" transform="translate(-239.764 -199.229)" fill="#82c2cb"/>
      <path id="Trazado_990270" data-name="Trazado 990270" d="M299.462,249.754a9.731,9.731,0,1,1-9.731-9.731A9.731,9.731,0,0,1,299.462,249.754Zm0,0" transform="translate(-249.037 -213.46)" fill="#f3f3f3"/>
      <path id="Trazado_990271" data-name="Trazado 990271" d="M325.3,269.322h-.885v-2.654a.885.885,0,0,1,1.327-.766.885.885,0,1,0,.885-1.533,2.654,2.654,0,0,0-3.981,2.3v2.654h-.885a.885.885,0,0,0,0,1.769h.885v2.654a.885.885,0,0,1-1.327.766.885.885,0,1,0-.885,1.533,2.654,2.654,0,0,0,3.981-2.3v-2.654h.885a.885.885,0,1,0,0-1.769Zm0,0" transform="translate(-284.61 -234.797)" fill="#fd9226"/>
      <path id="Trazado_990272" data-name="Trazado 990272" d="M379.376,338.322l.7-.7a.885.885,0,0,0-1.251-1.251l-.7.7-.7-.7a.885.885,0,0,0-1.251,1.251l.7.7-.7.7a.885.885,0,1,0,1.251,1.251l.7-.7.7.7a.885.885,0,0,0,1.251-1.251Zm0,0" transform="translate(-334.335 -298.932)" fill="#fd9226"/>
      <path id="Trazado_990273" data-name="Trazado 990273" d="M325.3,269.322h-.885v-2.654a.885.885,0,0,1,1.327-.766.885.885,0,1,0,.885-1.533,2.654,2.654,0,0,0-3.981,2.3v2.654h-.885a.885.885,0,0,0,0,1.769h.885v2.654a.885.885,0,0,1-1.327.766.885.885,0,1,0-.885,1.533,2.654,2.654,0,0,0,3.981-2.3v-2.654h.885a.885.885,0,1,0,0-1.769Zm0,0" transform="translate(-284.61 -234.797)"/>
      <path id="Trazado_990274" data-name="Trazado 990274" d="M380.077,336.282a.884.884,0,0,0-1.251,0l-.7.7-.7-.7a.885.885,0,0,0-1.251,1.251l.7.7-.7.7a.885.885,0,1,0,1.251,1.251l.7-.7.7.7a.885.885,0,0,0,1.251-1.251l-.7-.7.7-.7A.885.885,0,0,0,380.077,336.282Zm0,0" transform="translate(-334.334 -298.844)"/>
      <path id="Trazado_990275" data-name="Trazado 990275" d="M46.887,56.15V34.677a2.654,2.654,0,0,0-2.654-2.654H2.654A2.654,2.654,0,0,0,0,34.677V64.755a2.654,2.654,0,0,0,2.654,2.654H30.432A10.608,10.608,0,1,0,46.887,56.15ZM2.654,33.792H44.233a.885.885,0,0,1,.885.885V39.1H1.769V34.677A.885.885,0,0,1,2.654,33.792ZM1.769,51.485H5.308v3.539H1.769Zm3.539-1.769H1.769V46.177H5.308ZM1.769,56.793H5.308v3.539H1.769ZM5.308,44.408H1.769V40.87H5.308ZM2.654,65.64a.885.885,0,0,1-.885-.885V62.1H5.308V65.64Zm4.423,0V40.87h38.04V55.113a10.512,10.512,0,0,0-3.539-.933V45.293a.885.885,0,0,0-.885-.885H12.385a.885.885,0,0,0-.885.885V59.447a.885.885,0,0,0,.885.885H31.051a10.54,10.54,0,0,0-.973,4.423c0,.3.02.592.045.885ZM36.463,55.024H35.386V53.255h4.423v.93A10.516,10.516,0,0,0,36.463,55.024Zm-4.374,3.539H16.808V56.793H33.617v.072a10.657,10.657,0,0,0-1.528,1.7Zm-17.05-7.077H13.27V49.716h1.769ZM13.27,53.255h1.769v1.769H13.27Zm3.539,0H33.617v1.769H16.808Zm0-1.769V49.716H33.617v1.769Zm18.578-1.769h4.423v1.769H35.386Zm4.423-1.769H35.386V46.177h4.423Zm-6.193,0H13.27V46.177H33.617ZM13.27,56.793h1.769v1.769H13.27ZM40.694,73.6a8.847,8.847,0,1,1,8.847-8.847A8.846,8.846,0,0,1,40.694,73.6Zm0,0" transform="translate(0 -28.461)"/>
      <path id="Trazado_990276" data-name="Trazado 990276" d="M32,64.023h1.769v1.769H32Zm0,0" transform="translate(-28.461 -56.923)"/>
      <path id="Trazado_990277" data-name="Trazado 990277" d="M64,64.023h4.423v1.769H64Zm0,0" transform="translate(-56.923 -56.923)"/>
      <path id="Trazado_990278" data-name="Trazado 990278" d="M120,64.023h1.769v1.769H120Zm0,0" transform="translate(-106.73 -56.923)"/>
      <path id="Trazado_990279" data-name="Trazado 990279" d="M112,304.023h3.539v1.769H112Zm0,0" transform="translate(-99.615 -270.383)"/>
      <path id="Trazado_990280" data-name="Trazado 990280" d="M160,304.023h3.539v1.769H160Zm0,0" transform="translate(-142.307 -270.383)"/>
      <path id="Trazado_990281" data-name="Trazado 990281" d="M96,.023h1.769V1.793H96Zm0,0" transform="translate(-85.384 0)"/>
      <path id="Trazado_990282" data-name="Trazado 990282" d="M64,.023h1.769V1.793H64Zm0,0" transform="translate(-56.923 0)"/>
      <path id="Trazado_990283" data-name="Trazado 990283" d="M16,.023h3.539V1.793H16Zm0,0" transform="translate(-14.231 0)"/>
      <path id="Trazado_990284" data-name="Trazado 990284" d="M440,216.023h1.769v1.769H440Zm0,0" transform="translate(-391.344 -192.114)"/>
      <path id="Trazado_990285" data-name="Trazado 990285" d="M440,184.023h1.769v1.769H440Zm0,0" transform="translate(-391.344 -163.653)"/>
      <path id="Trazado_990286" data-name="Trazado 990286" d="M440,136.023h1.769v3.539H440Zm0,0" transform="translate(-391.344 -120.96)"/>
    </g>
  </g>
</svg>
