<svg xmlns="http://www.w3.org/2000/svg" width="93.959" height="93.959" viewBox="0 0 93.959 93.959">
  <g id="Grupo_1162288" data-name="Grupo 1162288" transform="translate(-736.051 -440)">
    <g id="Grupo_1159858" data-name="Grupo 1159858" transform="translate(16 -12)">
      <g id="Grupo_1154510" data-name="Grupo 1154510" transform="translate(720.051 452)">
        <g id="Grupo_1103990" data-name="Grupo 1103990" transform="translate(0)">
          <g id="Trazado_874102" data-name="Trazado 874102" transform="translate(0)" fill="#fbfbf9">
            <path d="M 46.97949600219727 91.45897674560547 C 40.97370910644531 91.45897674560547 35.14888000488281 90.28328704833984 29.66683959960938 87.96457672119141 C 24.37055397033691 85.72444915771484 19.61348152160645 82.51696014404297 15.52775287628174 78.43122863769531 C 11.44202423095703 74.34550476074219 8.234539031982422 69.58843231201172 5.994410514831543 64.29214477539062 C 3.675695896148682 58.81010437011719 2.500010251998901 52.98527526855469 2.500010251998901 46.97948837280273 C 2.500010251998901 40.97369003295898 3.675695896148682 35.14887237548828 5.994410514831543 29.66683197021484 C 8.234539031982422 24.37054634094238 11.44202423095703 19.61346054077148 15.52775287628174 15.52774524688721 C 19.61348152160645 11.4420166015625 24.37055397033691 8.234531402587891 29.66683959960938 5.994388580322266 C 35.14888000488281 3.67568826675415 40.97370910644531 2.50000262260437 46.97949600219727 2.50000262260437 C 52.98529434204102 2.50000262260437 58.81011199951172 3.67568826675415 64.29215240478516 5.994388580322266 C 69.58843994140625 8.234531402587891 74.34552764892578 11.4420166015625 78.43123626708984 15.52774524688721 C 82.5169677734375 19.61346054077148 85.72445678710938 24.37054634094238 87.964599609375 29.66683197021484 C 90.28329467773438 35.14887237548828 91.458984375 40.97369003295898 91.458984375 46.97948837280273 C 91.458984375 52.98527526855469 90.28329467773438 58.81010437011719 87.964599609375 64.29214477539062 C 85.72445678710938 69.58843231201172 82.5169677734375 74.34550476074219 78.43123626708984 78.43122863769531 C 74.34552764892578 82.51696014404297 69.58843994140625 85.72444915771484 64.29215240478516 87.96457672119141 C 58.81011199951172 90.28328704833984 52.98529434204102 91.45897674560547 46.97949600219727 91.45897674560547 Z" stroke="none"/>
            <path d="M 46.97949600219727 5.000007629394531 C 41.31009674072266 5.000007629394531 35.81294631958008 6.109237670898438 30.64072799682617 8.296905517578125 C 25.64242553710938 10.41100311279297 21.1524658203125 13.43856811523438 17.29550933837891 17.29550170898438 C 13.43857574462891 21.15245819091797 10.4110107421875 25.64241790771484 8.296913146972656 30.64072036743164 C 6.109245300292969 35.81293869018555 5.000015258789062 41.31008911132812 5.000015258789062 46.97948837280273 C 5.000015258789062 52.64888763427734 6.109245300292969 58.14603805541992 8.296913146972656 63.31825256347656 C 10.4110107421875 68.31653594970703 13.43857574462891 72.8065185546875 17.29550933837891 76.6634521484375 C 21.1524658203125 80.52040100097656 25.64242553710938 83.5479736328125 30.64072799682617 85.66207122802734 C 35.81294631958008 87.84973907470703 41.31009674072266 88.95896911621094 46.97949600219727 88.95896911621094 C 52.64889526367188 88.95896911621094 58.14604568481445 87.84973907470703 63.31826019287109 85.66207122802734 C 68.31655883789062 83.5479736328125 72.80653381347656 80.52040100097656 76.66348266601562 76.6634521484375 C 80.52041625976562 72.8065185546875 83.54798126220703 68.31653594970703 85.66207885742188 63.31825256347656 C 87.84974670410156 58.14603805541992 88.95897674560547 52.64888763427734 88.95897674560547 46.97948837280273 C 88.95897674560547 41.31008911132812 87.84974670410156 35.81293869018555 85.66207885742188 30.64072036743164 C 83.54798126220703 25.64241790771484 80.52041625976562 21.15245819091797 76.66348266601562 17.29550170898438 C 72.80653381347656 13.43856811523438 68.31655883789062 10.41100311279297 63.31826019287109 8.296905517578125 C 58.14604568481445 6.109237670898438 52.64889526367188 5.000007629394531 46.97949600219727 5.000007629394531 M 46.97949600219727 7.62939453125e-06 C 72.92554473876953 7.62939453125e-06 93.95897674560547 21.03343963623047 93.95897674560547 46.97948837280273 C 93.95897674560547 72.92552185058594 72.92554473876953 93.95896911621094 46.97949600219727 93.95896911621094 C 21.033447265625 93.95896911621094 1.52587890625e-05 72.92552185058594 1.52587890625e-05 46.97948837280273 C 1.52587890625e-05 21.03343963623047 21.033447265625 7.62939453125e-06 46.97949600219727 7.62939453125e-06 Z" stroke="none" fill="#fff"/>
          </g>
        </g>
      </g>
    </g>
    <g id="ingenieria" transform="translate(724.788 454)">
      <path id="Trazado_990287" data-name="Trazado 990287" d="M81.942,285.1a16.253,16.253,0,0,1-32.507,0H37.07V288.5a1.026,1.026,0,0,0,.828,1.016l5.75,1.113A22.58,22.58,0,0,0,46.2,296.78l-3.28,4.854a1.035,1.035,0,0,0,.126,1.311l4.8,4.8a1.035,1.035,0,0,0,1.311.126l4.854-3.28a22.579,22.579,0,0,0,6.155,2.551l1.113,5.75a1.035,1.035,0,0,0,1.016.838h6.789a1.035,1.035,0,0,0,1.016-.838l1.113-5.75a22.581,22.581,0,0,0,6.155-2.551l4.854,3.28a1.035,1.035,0,0,0,1.311-.126l4.8-4.8a1.035,1.035,0,0,0,.126-1.311l-3.28-4.854a22.58,22.58,0,0,0,2.551-6.155l5.75-1.113a1.007,1.007,0,0,0,.806-1.016V285.1Z" transform="translate(-6.787 -247.848)" fill="#afb4bc"/>
      <path id="Trazado_990288" data-name="Trazado 990288" d="M94.285,232.332H37.07V226.9a2.492,2.492,0,0,1,2.49-2.5h52.2a2.524,2.524,0,0,1,2.527,2.5v5.432Z" transform="translate(-6.787 -195.078)" fill="#ff8d27"/>
      <path id="Trazado_990289" data-name="Trazado 990289" d="M91.757,224.4H84.368a2.5,2.5,0,0,1,2.5,2.5h0a2.53,2.53,0,0,1-2.53,2.53H37.07v2.9H94.285V226.9A2.523,2.523,0,0,0,91.757,224.4Z" transform="translate(-6.787 -195.078)" fill="#ff7610"/>
      <path id="Trazado_990290" data-name="Trazado 990290" d="M94,45.419H91.306A23.184,23.184,0,0,0,68.122,68.6v.2h49.062v-.2A23.184,23.184,0,0,0,94,45.419Z" transform="translate(-33.781 -39.484)" fill="#ffdc48"/>
      <path id="Trazado_990291" data-name="Trazado 990291" d="M237.023,45.419h-2.288q-.939,0-1.859.073A23.389,23.389,0,0,1,254.4,68.806h6.006A23.387,23.387,0,0,0,237.023,45.419Z" transform="translate(-177.007 -39.484)" fill="#ffce00"/>
      <path id="Trazado_990292" data-name="Trazado 990292" d="M171.052,37.761l-1.623-5.314A1.123,1.123,0,0,1,170.5,31a45.808,45.808,0,0,1,20.352,0,1.17,1.17,0,0,1,.9.455,1.117,1.117,0,0,1,.171,1L190.385,37.5" transform="translate(-121.807 -25.95)" fill="#ffb82e"/>
      <path id="Trazado_990293" data-name="Trazado 990293" d="M192.01,30.619l2.072,7.126,12.541-.223,2.072-6.9a45.759,45.759,0,0,0-16.686,0Z" transform="translate(-141.481 -25.951)" fill="#ffa910"/>
      <path id="Trazado_990294" data-name="Trazado 990294" d="M207.869,22.622V9.393a1.586,1.586,0,0,1,1.586-1.586h9.37a1.586,1.586,0,0,1,1.586,1.586V22.622" transform="translate(-155.268 -6.787)" fill="#ffb82e"/>
      <g id="Grupo_1162287" data-name="Grupo 1162287" transform="translate(34.341 25.082)">
        <path id="Trazado_990295" data-name="Trazado 990295" d="M224.462,196.192h-9.727v-3.06a1.18,1.18,0,0,1,1.18-1.18h7.367a1.18,1.18,0,0,1,1.18,1.18Z" transform="translate(-195.577 -191.952)" fill="#ff5122"/>
        <path id="Trazado_990296" data-name="Trazado 990296" d="M72.947,191.953H68.505a23.523,23.523,0,0,0-.384,4.24h6.006v-3.06A1.18,1.18,0,0,0,72.947,191.953Z" transform="translate(-68.121 -191.953)" fill="#ff5122"/>
        <path id="Trazado_990297" data-name="Trazado 990297" d="M398.812,191.953h4.441a23.526,23.526,0,0,1,.384,4.24h-6.006v-3.06A1.18,1.18,0,0,1,398.812,191.953Z" transform="translate(-354.575 -191.953)" fill="#ff5122"/>
      </g>
      <path id="Trazado_990298" data-name="Trazado 990298" d="M94.285,285.1H81.942a16.255,16.255,0,0,1-32.2,3.174h.03a16.332,16.332,0,0,1-.311-3.174H37.07v3.174H41.1a6.43,6.43,0,0,1,5.987,4.093,19.969,19.969,0,0,0,37.2,0,6.43,6.43,0,0,1,5.987-4.093h4.012V285.1Z" transform="translate(-6.787 -247.848)" fill="#808791"/>
      <path id="Trazado_990299" data-name="Trazado 990299" d="M85,28.3h-.4c-.029,0-.143.019-.165,0s-.01-.089-.012-.118c0-.093-.009-.185-.015-.277-.036-.64-.1-1.279-.185-1.914a24.245,24.245,0,0,0-1.092-4.6,1.02,1.02,0,0,0-1.93.663c.227.661.419,1.332.583,2.01H78.607a2.2,2.2,0,0,0-2.2,2.2V28.3H64.275v-2.04a2.2,2.2,0,0,0-2.2-2.2H54.708a2.2,2.2,0,0,0-2.2,2.2V28.3H41.4v-2.04a2.2,2.2,0,0,0-2.2-2.2H36.024A22.441,22.441,0,0,1,47.487,9.451l.812,2.658a1.02,1.02,0,1,0,1.951-.6L48.627,6.2a.1.1,0,0,1,.1-.133,1.015,1.015,0,0,0,.226-.025c.877-.2,1.767-.373,2.659-.52V15.835a1.02,1.02,0,0,0,2.04,0V2.606a.566.566,0,0,1,.565-.565h9.37a.566.566,0,0,1,.565.565V15.835a1.02,1.02,0,0,0,2.04,0V5.52c.892.147,1.782.32,2.659.52a1.014,1.014,0,0,0,.213.025.159.159,0,0,1,.1.042.1.1,0,0,1,.016.091l-1.544,5.055a1.02,1.02,0,1,0,1.951.6l.733-2.4a22.642,22.642,0,0,1,9.1,8.678A1.02,1.02,0,0,0,81.179,17.1,24.693,24.693,0,0,0,70.921,7.467l.206-.673a2.123,2.123,0,0,0-.327-1.9,2.185,2.185,0,0,0-1.587-.864c-1-.225-2.009-.418-3.022-.577V2.606A2.608,2.608,0,0,0,63.586,0h-9.37a2.609,2.609,0,0,0-2.606,2.606v.847c-1.011.159-2.022.352-3.017.576a2.144,2.144,0,0,0-1.919,2.766l.205.672A24.488,24.488,0,0,0,33.776,24.8a1.008,1.008,0,0,0-.024.1,24.54,24.54,0,0,0-.324,2.5q-.035.45-.055.9H32.8a3.534,3.534,0,0,0-3.54,3.52v8.826a2.053,2.053,0,0,0,1.655,2.017l5.121.991a23.589,23.589,0,0,0,2.17,5.234l-2.921,4.324a2.058,2.058,0,0,0,.25,2.6l4.8,4.8a2.058,2.058,0,0,0,2.6.25l4.323-2.921A23.587,23.587,0,0,0,52.5,60.117l.991,5.121A2.058,2.058,0,0,0,55.507,66.9H62.3a2.058,2.058,0,0,0,2.017-1.664l.424-2.193a1.02,1.02,0,1,0-2-.388L62.31,64.85a.014.014,0,0,1-.014.012H55.507a.015.015,0,0,1-.014-.012L54.379,59.1a1.02,1.02,0,0,0-.754-.8,21.546,21.546,0,0,1-5.877-2.436,1.021,1.021,0,0,0-1.1.029L41.8,59.178a.014.014,0,0,1-.018,0l-4.8-4.8a.014.014,0,0,1,0-.018l3.28-4.854a1.021,1.021,0,0,0,.029-1.1,21.56,21.56,0,0,1-2.436-5.877,1.02,1.02,0,0,0-.8-.754l-5.748-1.111a.024.024,0,0,1,0-.016V38.274H41.657a17.274,17.274,0,0,0,34.488,0H86.478v2.374a.114.114,0,0,1,0,.018l-5.728,1.109a1.02,1.02,0,0,0-.8.754,21.554,21.554,0,0,1-2.436,5.877,1.021,1.021,0,0,0,.029,1.1l3.28,4.854a.015.015,0,0,1,0,.018l-4.8,4.8a.014.014,0,0,1-.018,0L71.151,55.9a1.021,1.021,0,0,0-1.1-.029A21.552,21.552,0,0,1,64.178,58.3a1.02,1.02,0,1,0,.494,1.979,23.589,23.589,0,0,0,5.867-2.337l4.323,2.921a2.058,2.058,0,0,0,2.6-.249l4.8-4.8a2.058,2.058,0,0,0,.25-2.6l-2.921-4.324a23.579,23.579,0,0,0,2.17-5.234l5.121-.991a2.017,2.017,0,0,0,1.632-2.017V31.822A3.523,3.523,0,0,0,85,28.3Zm-6.553-2.04a.16.16,0,0,1,.16-.16H82.18c.1.729.177,1.464.209,2.2H78.447Zm-23.9,0a.16.16,0,0,1,.16-.16h7.367a.16.16,0,0,1,.16.16V28.3H54.548v-2.04ZM39.2,26.1a.16.16,0,0,1,.16.16V28.3H35.414c.011-.245.027-.49.047-.734,0-.034.006-.068.008-.1q.057-.687.157-1.364ZM75.155,36.234H52.266a1.02,1.02,0,0,0,0,2.04H74.1a15.232,15.232,0,0,1-30.4,0h3.326a1.02,1.02,0,1,0,0-2.04H31.3V31.822a1.491,1.491,0,0,1,1.5-1.48H85a1.48,1.48,0,0,1,1.477,1.48v4.412Z"/>
    </g>
  </g>
</svg>
