<svg xmlns="http://www.w3.org/2000/svg" xmlns:xlink="http://www.w3.org/1999/xlink" width="105.781" height="105.781" viewBox="0 0 105.781 105.781">
  <defs>
    <filter id="Trazado_874102" x="0" y="0" width="105.781" height="105.781" filterUnits="userSpaceOnUse">
      <feOffset dy="3" input="SourceAlpha"/>
      <feGaussianBlur stdDeviation="3" result="blur"/>
      <feFlood flood-opacity="0.161"/>
      <feComposite operator="in" in2="blur"/>
      <feComposite in="SourceGraphic"/>
    </filter>
  </defs>
  <g id="Grupo_1162049" data-name="Grupo 1162049" transform="translate(-590.051 -2273)">
    <g id="Grupo_1158430" data-name="Grupo 1158430" transform="translate(0.051 1064.057)">
      <g id="Grupo_1148224" data-name="Grupo 1148224" transform="translate(599 1214.943)">
        <g id="Grupo_1103990" data-name="Grupo 1103990" transform="translate(0 0)">
          <g transform="matrix(1, 0, 0, 1, -9, -6)" filter="url(#Trazado_874102)">
            <g id="Trazado_874102-2" data-name="Trazado 874102" transform="translate(9 6)" fill="#f3d02c">
              <path d="M 43.8906364440918 85.28125762939453 C 38.30183792114258 85.28125762939453 32.88154220581055 84.18724060058594 27.78030395507812 82.02960205078125 C 22.85183715820312 79.94503021240234 18.42508888244629 76.96026611328125 14.62304973602295 73.15821838378906 C 10.82099628448486 69.35617828369141 7.836236476898193 64.92942810058594 5.751663208007812 60.00096130371094 C 3.59402322769165 54.89972305297852 2.500009775161743 49.47942733764648 2.500009775161743 43.89062881469727 C 2.500009775161743 38.30183029174805 3.59402322769165 32.88153457641602 5.751663208007812 27.78029632568359 C 7.836236476898193 22.85182952880859 10.82099628448486 18.42508125305176 14.62304973602295 14.62304210662842 C 18.42508888244629 10.82098865509033 22.85183715820312 7.836228847503662 27.78030395507812 5.751655578613281 C 32.88154220581055 3.594015598297119 38.30183792114258 2.500002145767212 43.8906364440918 2.500002145767212 C 49.47943496704102 2.500002145767212 54.89973068237305 3.594015598297119 60.00096893310547 5.751655578613281 C 64.92943572998047 7.836228847503662 69.35618591308594 10.82098865509033 73.15822601318359 14.62304210662842 C 76.96027374267578 18.42508125305176 79.94503784179688 22.85182952880859 82.02960968017578 27.78029632568359 C 84.18724822998047 32.88153457641602 85.28126525878906 38.30183029174805 85.28126525878906 43.89062881469727 C 85.28126525878906 49.47942733764648 84.18724822998047 54.89972305297852 82.02960968017578 60.00096130371094 C 79.94503784179688 64.92942810058594 76.96027374267578 69.35617828369141 73.15822601318359 73.15821838378906 C 69.35618591308594 76.96026611328125 64.92943572998047 79.94503021240234 60.00096893310547 82.02960205078125 C 54.89973068237305 84.18724060058594 49.47943496704102 85.28125762939453 43.8906364440918 85.28125762939453 Z" stroke="none"/>
              <path d="M 43.8906364440918 4.999992370605469 C 38.63823699951172 4.999992370605469 33.54560470581055 6.027565002441406 28.75418472290039 8.054161071777344 C 24.12371826171875 10.0126953125 19.96407318115234 12.81754302978516 16.39080047607422 16.39079284667969 C 12.81755065917969 19.96406555175781 10.01270294189453 24.12371063232422 8.054168701171875 28.75417709350586 C 6.027572631835938 33.54559707641602 5 38.63822937011719 5 43.89062881469727 C 5 49.14302825927734 6.027572631835938 54.23566055297852 8.054168701171875 59.02707672119141 C 10.01270294189453 63.65754699707031 12.81755065917969 67.81719970703125 16.39080047607422 71.39046478271484 C 19.96407318115234 74.96371459960938 24.12371826171875 77.76856231689453 28.75418472290039 79.72709655761719 C 33.54560470581055 81.75369262695312 38.63823699951172 82.78126525878906 43.8906364440918 82.78126525878906 C 49.14303588867188 82.78126525878906 54.23566818237305 81.75369262695312 59.02708435058594 79.72709655761719 C 63.65755462646484 77.76856231689453 67.81719970703125 74.96371459960938 71.39047241210938 71.39046478271484 C 74.96372222900391 67.81719970703125 77.76856994628906 63.65754699707031 79.72710418701172 59.02707672119141 C 81.75370025634766 54.23566055297852 82.78127288818359 49.14302825927734 82.78127288818359 43.89062881469727 C 82.78127288818359 38.63822937011719 81.75370025634766 33.54559707641602 79.72710418701172 28.75417709350586 C 77.76856994628906 24.12371063232422 74.96372222900391 19.96406555175781 71.39047241210938 16.39079284667969 C 67.81719970703125 12.81754302978516 63.65755462646484 10.0126953125 59.02708435058594 8.054161071777344 C 54.23566818237305 6.027565002441406 49.14303588867188 4.999992370605469 43.8906364440918 4.999992370605469 M 43.8906364440918 -7.62939453125e-06 C 68.13075256347656 -7.62939453125e-06 87.78127288818359 19.6505126953125 87.78127288818359 43.89062881469727 C 87.78127288818359 68.13074493408203 68.13075256347656 87.78126525878906 43.8906364440918 87.78126525878906 C 19.65052032470703 87.78126525878906 0 68.13074493408203 0 43.89062881469727 C 0 19.6505126953125 19.65052032470703 -7.62939453125e-06 43.8906364440918 -7.62939453125e-06 Z" stroke="none" fill="#fff"/>
            </g>
          </g>
        </g>
      </g>
    </g>
    <g id="database" transform="translate(617.051 2297)">
      <path id="Trazado_989601" data-name="Trazado 989601" d="M32.173,28v8.1c0,2.237-6.531,4.052-14.586,4.052S3,38.34,3,36.1V28c0,2.237,6.531,4.052,14.586,4.052S32.173,30.237,32.173,28Z" transform="translate(-0.19 -4.931)" fill="#c0ab91"/>
      <path id="Trazado_989602" data-name="Trazado 989602" d="M56.828,27.345v4.862l-3.7.616a10.6,10.6,0,0,1-.794,1.929L54.51,37.8l-3.436,3.436-2.585-1.839a1.632,1.632,0,0,0,1.045-1.515V31.4a1.6,1.6,0,0,0-.089-.527,6.952,6.952,0,0,0,.089-1.094A6.483,6.483,0,0,0,39,24.719V20.052a10.542,10.542,0,0,1,1-.357l.616-3.7h4.862l.616,3.7a10.6,10.6,0,0,1,1.929.794l3.047-2.172,3.436,3.436L52.338,24.8a10.6,10.6,0,0,1,.794,1.929Z" transform="translate(-7.017 -2.655)" fill="#ffeb99"/>
      <rect id="Rect치ngulo_411766" data-name="Rect치ngulo 411766" width="33" height="10" rx="2" transform="translate(10 39.621)" fill="#57a4ff"/>
      <path id="Trazado_989603" data-name="Trazado 989603" d="M50.862,50.621V57.1a1.626,1.626,0,0,1-1.621,1.621H46A1.626,1.626,0,0,0,47.621,57.1V50.621A1.626,1.626,0,0,0,46,49h3.241A1.626,1.626,0,0,1,50.862,50.621Z" transform="translate(-8.345 -8.913)" fill="#2488ff"/>
      <path id="Trazado_989604" data-name="Trazado 989604" d="M49.535,31.484a6.952,6.952,0,0,1-.089,1.094,1.631,1.631,0,0,0-1.532-1.094H39V26.427a6.483,6.483,0,0,1,10.535,5.057Z" transform="translate(-7.017 -4.363)" fill="#c6c5ca"/>
      <path id="Trazado_989605" data-name="Trazado 989605" d="M50.107,31.483a6.952,6.952,0,0,1-.089,1.094,1.631,1.631,0,0,0-1.532-1.094H46.866A6.5,6.5,0,0,0,42.02,25.2a6.483,6.483,0,0,1,8.087,6.28Z" transform="translate(-7.59 -4.362)" fill="#acabb1"/>
      <path id="Trazado_989606" data-name="Trazado 989606" d="M42,45h4.862v3.241H42Z" transform="translate(-7.586 -8.155)" fill="#c6c5ca"/>
      <path id="Trazado_989607" data-name="Trazado 989607" d="M32.173,18v8.1c0,2.237-6.531,4.052-14.586,4.052S3,28.34,3,26.1V18c0,2.237,6.531,4.052,14.586,4.052S32.173,20.237,32.173,18Z" transform="translate(-0.19 -3.034)" fill="#c0ab91"/>
      <path id="Trazado_989608" data-name="Trazado 989608" d="M32.173,8v8.1c0,2.237-6.531,4.052-14.586,4.052S3,18.34,3,16.1V8c0,2.237,6.531,4.052,14.586,4.052S32.173,10.237,32.173,8Z" transform="translate(-0.19 -1.138)" fill="#c0ab91"/>
      <ellipse id="Elipse_11708" data-name="Elipse 11708" cx="14.5" cy="4" rx="14.5" ry="4" transform="translate(3 2.621)" fill="#ffcd00"/>
      <g id="Grupo_1162048" data-name="Grupo 1162048" transform="translate(15.776 6.862)">
        <path id="Trazado_989609" data-name="Trazado 989609" d="M35.207,28v8.1c0,2.237-6.531,4.052-14.586,4.052-.551,0-1.086-.008-1.621-.032,7.293-.219,12.966-1.937,12.966-4.019V30.545C33.992,29.848,35.207,28.964,35.207,28Z" transform="translate(-19 -11.793)" fill="#b39a7c"/>
        <path id="Trazado_989610" data-name="Trazado 989610" d="M38.241,18v8.1c0,.964-1.216,1.848-3.241,2.545v-8.1C37.026,19.848,38.241,18.964,38.241,18Z" transform="translate(-22.034 -9.896)" fill="#b39a7c"/>
        <path id="Trazado_989611" data-name="Trazado 989611" d="M38.241,8v8.1c0,.964-1.216,1.848-3.241,2.545v-8.1c2.026-.7,3.241-1.58,3.241-2.545Z" transform="translate(-22.034 -8)" fill="#b39a7c"/>
      </g>
      <path id="Trazado_989612" data-name="Trazado 989612" d="M35.207,7.052c0,2.237-6.531,4.052-14.586,4.052-.551,0-1.086-.008-1.621-.032,7.293-.219,12.966-1.937,12.966-4.019S26.293,3.251,19,3.032C19.535,3.008,20.07,3,20.621,3,28.676,3,35.207,4.815,35.207,7.052Z" transform="translate(-3.224 -0.19)" fill="#ebbf00"/>
      <path id="Trazado_989613" data-name="Trazado 989613" d="M24,53h3.241v3.241H24Z" transform="translate(-4.172 -9.672)" fill="#ffeb99"/>
      <rect id="Rect치ngulo_411767" data-name="Rect치ngulo 411767" width="33" height="10" rx="2" transform="translate(10 26.621)" fill="#57a4ff"/>
      <path id="Trazado_989614" data-name="Trazado 989614" d="M50.862,34.621V41.1a1.626,1.626,0,0,1-1.621,1.621H46A1.626,1.626,0,0,0,47.621,41.1V34.621A1.626,1.626,0,0,0,46,33h3.241A1.626,1.626,0,0,1,50.862,34.621Z" transform="translate(-8.345 -5.879)" fill="#2488ff"/>
      <path id="Trazado_989615" data-name="Trazado 989615" d="M24,37h3.241v3.241H24Z" transform="translate(-4.172 -6.638)" fill="#ffeb99"/>
      <path id="Trazado_989616" data-name="Trazado 989616" d="M16,45h4.862v3.241H16Z" transform="translate(-2.655 -8.155)" fill="#c6c5ca"/>
      <path id="Trazado_989617" data-name="Trazado 989617" d="M16,53h3.241v3.241H16Z" transform="translate(-2.655 -9.672)" fill="#ffeb99"/>
      <path id="Trazado_989618" data-name="Trazado 989618" d="M16,37h3.241v3.241H16Z" transform="translate(-2.655 -6.638)" fill="#ffeb99"/>
      <path id="Trazado_989619" data-name="Trazado 989619" d="M19.052,36H15.81a.81.81,0,0,0-.81.81v3.241a.81.81,0,0,0,.81.81h3.241a.81.81,0,0,0,.81-.81V36.81A.81.81,0,0,0,19.052,36Zm-.81,3.241H16.621V37.621h1.621Z" transform="translate(-2.465 -6.448)"/>
      <path id="Trazado_989620" data-name="Trazado 989620" d="M27.052,36H23.81a.81.81,0,0,0-.81.81v3.241a.81.81,0,0,0,.81.81h3.241a.81.81,0,0,0,.81-.81V36.81A.81.81,0,0,0,27.052,36Zm-.81,3.241H24.621V37.621h1.621Z" transform="translate(-3.983 -6.448)"/>
      <path id="Trazado_989621" data-name="Trazado 989621" d="M31,36H42.345v1.621H31Z" transform="translate(-5.5 -6.448)"/>
      <path id="Trazado_989622" data-name="Trazado 989622" d="M47,36h1.621v1.621H47Z" transform="translate(-8.534 -6.448)"/>
      <path id="Trazado_989623" data-name="Trazado 989623" d="M31,40H42.345v1.621H31Z" transform="translate(-5.5 -7.207)"/>
      <path id="Trazado_989624" data-name="Trazado 989624" d="M47,40h1.621v1.621H47Z" transform="translate(-8.534 -7.207)"/>
      <path id="Trazado_989625" data-name="Trazado 989625" d="M15.81,56.862h3.241a.81.81,0,0,0,.81-.81V52.81a.81.81,0,0,0-.81-.81H15.81a.81.81,0,0,0-.81.81v3.241A.81.81,0,0,0,15.81,56.862Zm.81-3.241h1.621v1.621H16.621Z" transform="translate(-2.465 -9.482)"/>
      <path id="Trazado_989626" data-name="Trazado 989626" d="M23.81,56.862h3.241a.81.81,0,0,0,.81-.81V52.81a.81.81,0,0,0-.81-.81H23.81a.81.81,0,0,0-.81.81v3.241A.81.81,0,0,0,23.81,56.862Zm.81-3.241h1.621v1.621H24.621Z" transform="translate(-3.983 -9.482)"/>
      <path id="Trazado_989627" data-name="Trazado 989627" d="M31,52H42.345v1.621H31Z" transform="translate(-5.5 -9.482)"/>
      <path id="Trazado_989628" data-name="Trazado 989628" d="M47,52h1.621v1.621H47Z" transform="translate(-8.534 -9.482)"/>
      <path id="Trazado_989629" data-name="Trazado 989629" d="M31,56H42.345v1.621H31Z" transform="translate(-5.5 -10.241)"/>
      <path id="Trazado_989630" data-name="Trazado 989630" d="M47,56h1.621v1.621H47Z" transform="translate(-8.534 -10.241)"/>
      <path id="Trazado_989631" data-name="Trazado 989631" d="M49.94,23.888l-3.209-.535a9.279,9.279,0,0,0-.47-1.134l1.888-2.65a.81.81,0,0,0-.081-1.045l-3.436-3.436a.81.81,0,0,0-1.045-.081l-2.65,1.888a11.528,11.528,0,0,0-1.134-.47l-.535-3.209a.81.81,0,0,0-.8-.681H33.6a.81.81,0,0,0-.8.681l-.008.065V6.862C32.793,3.669,25.046,2,17.4,2S2,3.669,2,6.862V31.173c0,2.455,4.311,3.655,7.309,4.2a2.424,2.424,0,0,0,2.415,2.285h.81v1.621h-.81a2.438,2.438,0,0,0-2.431,2.431V48.19a2.438,2.438,0,0,0,2.431,2.431H40.9a2.438,2.438,0,0,0,2.431-2.431V41.707A2.438,2.438,0,0,0,40.9,39.276h-.81V37.655h.81a2.215,2.215,0,0,0,.405-.041l2.285,1.629a.844.844,0,0,0,.47.146.83.83,0,0,0,.575-.235l3.436-3.436a.81.81,0,0,0,.081-1.045l-1.888-2.65a9.279,9.279,0,0,0,.47-1.134l3.209-.535a.81.81,0,0,0,.681-.8V24.69a.81.81,0,0,0-.681-.8ZM32.793,22.494a5.639,5.639,0,0,1,8.873,3.955,2.441,2.441,0,0,0-.77-.138h-8.1ZM17.4,3.621c8.914,0,13.776,2.139,13.776,3.241S26.311,10.1,17.4,10.1,3.621,7.964,3.621,6.862,8.483,3.621,17.4,3.621ZM3.621,9.147c2.666,1.694,8.233,2.577,13.776,2.577s11.11-.883,13.776-2.577v5.818c0,1.1-4.862,3.241-13.776,3.241S3.621,16.068,3.621,14.966ZM9.293,28.742v4.976c-4.108-.778-5.672-1.953-5.672-2.545V25.354a17.408,17.408,0,0,0,6.126,1.977,2.419,2.419,0,0,0-.454,1.41ZM3.621,23.069V17.251c2.666,1.694,8.233,2.577,13.776,2.577s11.11-.883,13.776-2.577v5.818c0,1.1-4.862,3.241-13.776,3.241S3.621,24.171,3.621,23.069Zm27.552,2.285v.956h-2.01a10.1,10.1,0,0,0,2.01-.956ZM40.9,40.9a.81.81,0,0,1,.81.81V48.19a.81.81,0,0,1-.81.81H11.724a.81.81,0,0,1-.81-.81V41.707a.81.81,0,0,1,.81-.81ZM14.155,39.276V37.655H17.4v1.621Zm4.862,0V37.655H33.6v1.621Zm16.207,0V37.655h3.241v1.621Zm6.483-4.052a.81.81,0,0,1-.81.81H11.724a.81.81,0,0,1-.81-.81V28.742a.81.81,0,0,1,.81-.81H40.9a.81.81,0,0,1,.81.81ZM49,28.863l-3.015.5a.831.831,0,0,0-.648.567,9.57,9.57,0,0,1-.729,1.783.791.791,0,0,0,.057.851l1.767,2.488-2.463,2.463L42.817,36.7a2.408,2.408,0,0,0,.511-1.475V28.742a2.3,2.3,0,0,0-.081-.583,7.55,7.55,0,0,0,.081-1.037A7.277,7.277,0,0,0,32.793,20.6V17.972a4,4,0,0,1,.438-.154.833.833,0,0,0,.559-.648l.5-3.015h3.485l.5,3.015a.831.831,0,0,0,.567.648,9.805,9.805,0,0,1,1.783.729.81.81,0,0,0,.851-.057l2.488-1.767,2.463,2.463-1.767,2.488a.791.791,0,0,0-.057.851,9.57,9.57,0,0,1,.729,1.783.831.831,0,0,0,.648.567l3.015.5Z"/>
      <path id="Trazado_989632" data-name="Trazado 989632" d="M5.621,48H4v6.483a.81.81,0,0,0,.81.81H8.052V53.672H5.621Z" transform="translate(-0.379 -8.724)"/>
      <path id="Trazado_989633" data-name="Trazado 989633" d="M57.966,4H45V5.621H57.155v7.768l-2.194,2.194,1.146,1.146L58.539,14.3a.81.81,0,0,0,.237-.573V4.81A.81.81,0,0,0,57.966,4Z" transform="translate(-8.155 -0.379)"/>
      <path id="Trazado_989634" data-name="Trazado 989634" d="M41,4h1.621V5.621H41Z" transform="translate(-7.396 -0.379)"/>
      <path id="Trazado_989635" data-name="Trazado 989635" d="M4,44H5.621v1.621H4Z" transform="translate(-0.379 -7.965)"/>
    </g>
  </g>
</svg>
