<svg xmlns="http://www.w3.org/2000/svg" xmlns:xlink="http://www.w3.org/1999/xlink" width="154" height="154" viewBox="0 0 154 154">
  <defs>
    <clipPath id="clip-path">
      <rect id="Rect치ngulo_411768" data-name="Rect치ngulo 411768" width="154" height="154" transform="translate(-3429.091 -9442.685)" fill="#fff" stroke="#707070" stroke-width="1" opacity="0.48"/>
    </clipPath>
  </defs>
  <g id="Grupo_1162280" data-name="Grupo 1162280" transform="translate(3454 9085)">
    <g id="Grupo_1106236" data-name="Grupo 1106236" transform="translate(-3688.051 -13760)">
      <rect id="Rect치ngulo_401557" data-name="Rect치ngulo 401557" width="144" height="138" rx="12" transform="translate(239.051 4683)" fill="#78b62e"/>
    </g>
    <g id="Enmascarar_grupo_1098796" data-name="Enmascarar grupo 1098796" transform="translate(-24.909 357.685)" clip-path="url(#clip-path)">
      <g id="Layer_1" transform="translate(-3453.951 -9467.975)">
        <g id="Grupo_1162272" data-name="Grupo 1162272" transform="translate(0 0)">
          <circle id="Elipse_11751" data-name="Elipse 11751" cx="72.19" cy="72.19" r="72.19" transform="translate(0 102.077) rotate(-45)" fill="#e8b586"/>
          <g id="Grupo_1162271" data-name="Grupo 1162271" transform="translate(29.903 29.887)">
            <path id="Trazado_990078" data-name="Trazado 990078" d="M61.361,96.073l-.194-.368c.165-.2.328-.409.5-.611Z" transform="translate(-45.115 -68.897)" fill="#e4ab75" fill-rule="evenodd"/>
            <path id="Trazado_990079" data-name="Trazado 990079" d="M8.251,247.473l1.6,2.817L8.63,254.708Q8.264,251.139,8.251,247.473Z" transform="translate(-8.248 -175.06)" fill="#edc5a0" fill-rule="evenodd"/>
            <path id="Trazado_990080" data-name="Trazado 990080" d="M9.849,241.986l-1.6-2.817c0-.074,0-.148,0-.223,0-1.137.029-2.268.082-3.393Z" transform="translate(-8.242 -166.756)" fill="#ebc097" fill-rule="evenodd"/>
            <path id="Trazado_990081" data-name="Trazado 990081" d="M86.207,415.7l16.926-3.14-1.952,13.628A72.367,72.367,0,0,1,86.207,415.7Z" transform="translate(-62.56 -290.075)" fill="#f3d7bd" fill-rule="evenodd"/>
            <path id="Trazado_990082" data-name="Trazado 990082" d="M63.928,287.852l12.421-48.7,11.263,52.594-16.927,3.14A72.666,72.666,0,0,1,63.928,287.852Z" transform="translate(-47.038 -169.263)" fill="#f1d3b5" fill-rule="evenodd"/>
            <path id="Trazado_990083" data-name="Trazado 990083" d="M42.377,179.058l-27.21-15.034q.634-2.57,1.448-5.065L43.956,152.9Z" transform="translate(-13.067 -109.169)" fill="#ecc59e" fill-rule="evenodd"/>
            <path id="Trazado_990084" data-name="Trazado 990084" d="M60.336,97.109l.194.368-.555.082q.18-.226.362-.45Z" transform="translate(-44.284 -70.301)" fill="#e5ad77" fill-rule="evenodd"/>
            <path id="Trazado_990085" data-name="Trazado 990085" d="M51.958,98.4l.555-.082-4.045,4.847Q50.117,100.713,51.958,98.4Z" transform="translate(-36.268 -71.146)" fill="#e8b586" fill-rule="evenodd"/>
            <path id="Trazado_990086" data-name="Trazado 990086" d="M28.593,103.169l4.045-4.847,14.644,16.552-27.341,6.062A71.926,71.926,0,0,1,28.593,103.169Z" transform="translate(-16.393 -71.146)" fill="#eabc90" fill-rule="evenodd"/>
            <path id="Trazado_990087" data-name="Trazado 990087" d="M10.036,209.96l-1.525-6.432a72.162,72.162,0,0,1,2.019-13.942l27.21,15.034Z" transform="translate(-8.429 -134.729)" fill="#edc5a0" fill-rule="evenodd"/>
            <path id="Trazado_990088" data-name="Trazado 990088" d="M15.69,259.439l27.052-20.286-12.421,48.7A71.98,71.98,0,0,1,15.69,259.439Z" transform="translate(-13.431 -169.263)" fill="#f0d0b2" fill-rule="evenodd"/>
            <path id="Trazado_990089" data-name="Trazado 990089" d="M9.5,248.911l1.226-4.418,27.7-5.341L11.377,259.439A71.932,71.932,0,0,1,9.5,248.911Z" transform="translate(-9.118 -169.263)" fill="#efccaa" fill-rule="evenodd"/>
            <path id="Trazado_990090" data-name="Trazado 990090" d="M134.164,255.373l-29.282-29.1,19.373-5.607Z" transform="translate(-75.571 -156.384)" fill="#f1d2b5" fill-rule="evenodd"/>
            <path id="Trazado_990091" data-name="Trazado 990091" d="M127.881,124.39l-17.794-20.555,12.388-21.358Z" transform="translate(-79.198 -60.107)" fill="#ecc39c" fill-rule="evenodd"/>
            <path id="Trazado_990092" data-name="Trazado 990092" d="M104.882,179.058l1.579-26.162,17.794,20.555Z" transform="translate(-75.571 -109.168)" fill="#eecba9" fill-rule="evenodd"/>
            <path id="Trazado_990093" data-name="Trazado 990093" d="M303.485,88.293,289.07,62.4l24.884-18.322q1.558.962,3.063,2Z" transform="translate(-203.895 -33.353)" fill="#eabb8e" fill-rule="evenodd"/>
            <path id="Trazado_990094" data-name="Trazado 990094" d="M61.805,69.078l.3-.979A72.638,72.638,0,0,1,74.423,56.347l14.414,7.925Z" transform="translate(-45.559 -41.902)" fill="#e6b07d" fill-rule="evenodd"/>
            <path id="Trazado_990095" data-name="Trazado 990095" d="M76.449,103.835,61.805,87.283l27.032-4.806Z" transform="translate(-45.559 -60.107)" fill="#e9b98c" fill-rule="evenodd"/>
            <path id="Trazado_990096" data-name="Trazado 990096" d="M117.821,45.117l-14.414-7.925a72.161,72.161,0,0,1,14.238-8.339Z" transform="translate(-74.544 -22.747)" fill="#e5ad77" fill-rule="evenodd"/>
            <path id="Trazado_990097" data-name="Trazado 990097" d="M116.145,291.747l-11.263-52.594,29.282,29.1Z" transform="translate(-75.571 -169.263)" fill="#f2d4b9" fill-rule="evenodd"/>
            <path id="Trazado_990098" data-name="Trazado 990098" d="M270.114,226.97l-18.919-12.813,25.9-24.294Z" transform="translate(-177.508 -134.923)" fill="#f0d1b3" fill-rule="evenodd"/>
            <path id="Trazado_990099" data-name="Trazado 990099" d="M135.58,426.186l1.952-13.628,13.137,19.506A71.767,71.767,0,0,1,135.58,426.186Z" transform="translate(-96.958 -290.075)" fill="#f3d9c0" fill-rule="evenodd"/>
            <path id="Trazado_990100" data-name="Trazado 990100" d="M251.2,154.674l11.488-50.189,14.415,25.9Z" transform="translate(-177.508 -75.44)" fill="#edc8a5" fill-rule="evenodd"/>
            <path id="Trazado_990101" data-name="Trazado 990101" d="M150.527,38.444l-.176-16.264a71.744,71.744,0,0,1,7.772-2.9l23.714,5.019Z" transform="translate(-107.249 -16.074)" fill="#e5ad79" fill-rule="evenodd"/>
            <path id="Trazado_990102" data-name="Trazado 990102" d="M178.664,255.373l-9.909-34.706,25,14.951Z" transform="translate(-120.072 -156.384)" fill="#f1d3b5" fill-rule="evenodd"/>
            <path id="Trazado_990103" data-name="Trazado 990103" d="M178.283,379.143l-36.267-20.553L160.035,335.1Z" transform="translate(-101.442 -236.106)" fill="#f3dac2" fill-rule="evenodd"/>
            <path id="Trazado_990104" data-name="Trazado 990104" d="M155.153,432.063l-13.137-19.506,36.267,20.553-2.559,1.312c-.695.02-1.391.032-2.091.032A72.272,72.272,0,0,1,155.153,432.063Z" transform="translate(-101.442 -290.074)" fill="#f3dcc4" fill-rule="evenodd"/>
            <path id="Trazado_990105" data-name="Trazado 990105" d="M193.759,154.674l-25-14.951,36.492-35.238Z" transform="translate(-120.072 -75.44)" fill="#eecba9" fill-rule="evenodd"/>
            <path id="Trazado_990106" data-name="Trazado 990106" d="M156.336,124.39,150.93,82.477l41.9,6.675Z" transform="translate(-107.653 -60.107)" fill="#ebc097" fill-rule="evenodd"/>
            <path id="Trazado_990107" data-name="Trazado 990107" d="M192.828,56.647l-41.9-6.675,31.31-14.15Z" transform="translate(-107.653 -27.602)" fill="#e8b585" fill-rule="evenodd"/>
            <path id="Trazado_990108" data-name="Trazado 990108" d="M253.152,481.635l2.559-1.312.567,1.155Q254.724,481.589,253.152,481.635Z" transform="translate(-178.871 -337.287)" fill="#f5e1cc" fill-rule="evenodd"/>
            <path id="Trazado_990109" data-name="Trazado 990109" d="M219.674,379.143,201.426,335.1l31.989,36.039Z" transform="translate(-142.833 -236.106)" fill="#f4ddc7" fill-rule="evenodd"/>
            <path id="Trazado_990110" data-name="Trazado 990110" d="M233.415,355.188,201.426,319.15l34.014-6.942Z" transform="translate(-142.833 -220.161)" fill="#f3dac2" fill-rule="evenodd"/>
            <path id="Trazado_990111" data-name="Trazado 990111" d="M262.156,463.082l-.567-1.155,13.741-8.009-.836,7.2A72.042,72.042,0,0,1,262.156,463.082Z" transform="translate(-184.749 -318.89)" fill="#f6e3d0" fill-rule="evenodd"/>
            <path id="Trazado_990112" data-name="Trazado 990112" d="M201.426,289.716l15.095-19.755,18.919,12.814Z" transform="translate(-142.833 -190.727)" fill="#f2d4b9" fill-rule="evenodd"/>
            <path id="Trazado_990113" data-name="Trazado 990113" d="M264.751,54.853,254.163,34.028l29.543-.782q3.048,1.506,5.928,3.285Z" transform="translate(-179.575 -25.808)" fill="#e6b17e" fill-rule="evenodd"/>
            <path id="Trazado_990114" data-name="Trazado 990114" d="M306.9,355.188l2.025-42.98L330.1,326.091Z" transform="translate(-216.314 -220.161)" fill="#f3dcc4" fill-rule="evenodd"/>
            <path id="Trazado_990115" data-name="Trazado 990115" d="M199.689,22.409,175.975,17.39q1.426-.44,2.877-.82l47.483,3.705q1.466.645,2.9,1.352Z" transform="translate(-125.102 -14.189)" fill="#e4ab75" fill-rule="evenodd"/>
            <path id="Trazado_990116" data-name="Trazado 990116" d="M393.3,338.032l-9.909-16.841,14.641-16.016,2.1,24.8A72.564,72.564,0,0,1,393.3,338.032Z" transform="translate(-269.607 -215.261)" fill="#f3dbc3" fill-rule="evenodd"/>
            <path id="Trazado_990117" data-name="Trazado 990117" d="M334.747,321.191l-21.175-13.883,35.817-2.133Z" transform="translate(-220.966 -215.261)" fill="#f3d6bc" fill-rule="evenodd"/>
            <path id="Trazado_990118" data-name="Trazado 990118" d="M365.432,166.389,336.6,131.415l30.812-25.445q1.752,2.385,3.311,4.915Z" transform="translate(-237.009 -76.474)" fill="#edc6a2" fill-rule="evenodd"/>
            <path id="Trazado_990119" data-name="Trazado 990119" d="M336.6,92.888,350.13,50.671a72.6,72.6,0,0,1,17.28,16.772Z" transform="translate(-237.009 -37.948)" fill="#e9b98c" fill-rule="evenodd"/>
            <path id="Trazado_990120" data-name="Trazado 990120" d="M322.268,388.06l-15.373-.981,23.2-29.1L340,374.823A72.441,72.441,0,0,1,322.268,388.06Z" transform="translate(-216.314 -252.051)" fill="#f5e1cc" fill-rule="evenodd"/>
            <path id="Trazado_990121" data-name="Trazado 990121" d="M313.572,226.97l6.984-37.107,28.833,34.974Z" transform="translate(-220.966 -134.923)" fill="#f0d0b2" fill-rule="evenodd"/>
            <path id="Trazado_990122" data-name="Trazado 990122" d="M304.138,461.117l.836-7.2,15.373.981A71.706,71.706,0,0,1,304.138,461.117Z" transform="translate(-214.393 -318.89)" fill="#f7e6d6" fill-rule="evenodd"/>
            <path id="Trazado_990123" data-name="Trazado 990123" d="M226.22,9.554l-24.512.435a72.815,72.815,0,0,1,24.512-.435Z" transform="translate(-143.03 -8.721)" fill="#e3a56a" fill-rule="evenodd"/>
            <path id="Trazado_990124" data-name="Trazado 990124" d="M232.945,16.72l-47.483-3.705q2.431-.64,4.927-1.113l24.512-.435A71.741,71.741,0,0,1,232.945,16.72Z" transform="translate(-131.711 -10.634)" fill="#e4aa73" fill-rule="evenodd"/>
            <path id="Trazado_990125" data-name="Trazado 990125" d="M431.662,177.679l5.29-55.5a71.826,71.826,0,0,1,10.656,36.871Z" transform="translate(-303.239 -87.765)" fill="#ecc49d" fill-rule="evenodd"/>
            <path id="Trazado_990126" data-name="Trazado 990126" d="M431.662,262.375l15.946-18.632c0,.3.012.6.012.908a72.508,72.508,0,0,1-1.414,14.276Z" transform="translate(-303.239 -172.461)" fill="#edc7a3" fill-rule="evenodd"/>
            <path id="Trazado_990127" data-name="Trazado 990127" d="M433.765,329.976l-2.1-24.8,10.649,9.484A72.1,72.1,0,0,1,433.765,329.976Z" transform="translate(-303.239 -215.261)" fill="#f3d9c0" fill-rule="evenodd"/>
            <path id="Trazado_990128" data-name="Trazado 990128" d="M442.311,306.739l-10.649-9.484,14.543-3.448A71.738,71.738,0,0,1,442.311,306.739Z" transform="translate(-303.239 -207.341)" fill="#f0d1b3" fill-rule="evenodd"/>
          </g>
          <path id="Trazado_990129" data-name="Trazado 990129" d="M75.256,1.292a74.444,74.444,0,1,1-52.64,21.8,74.21,74.21,0,0,1,52.64-21.8Zm49.45,24.994a69.933,69.933,0,1,0,20.482,49.45,69.713,69.713,0,0,0-20.482-49.45Z" transform="translate(26.837 26.341)" fill="#12263f"/>
        </g>
        <g id="Grupo_1162274" data-name="Grupo 1162274" transform="translate(58.419 64.6)">
          <g id="Grupo_1162273" data-name="Grupo 1162273">
            <path id="Trazado_990130" data-name="Trazado 990130" d="M340.865,258.157h-4.22l3.742,9.619a.961.961,0,0,1,.066.349v21.69a.682.682,0,0,0,1.095.543.679.679,0,0,0,.262-.439l2.415-21.691Z" transform="translate(-265.557 -217.217)" fill="#12263f" fill-rule="evenodd"/>
            <path id="Trazado_990131" data-name="Trazado 990131" d="M134.243,258.156l-3.359,10.072,2.415,21.691a.678.678,0,0,0,.261.439.682.682,0,0,0,1.1-.543v-21.69a.967.967,0,0,1,.065-.349l3.743-9.619h-4.22Z" transform="translate(-122.203 -217.216)" fill="#12263f" fill-rule="evenodd"/>
            <path id="Trazado_990132" data-name="Trazado 990132" d="M229.487,285.456h10.175v6.707H229.487Z" transform="translate(-190.899 -236.236)" fill="#12263f" fill-rule="evenodd"/>
            <path id="Trazado_990133" data-name="Trazado 990133" d="M206.775,317.141V327.8A3.225,3.225,0,0,0,210,331.021h17.509a3.225,3.225,0,0,0,3.221-3.222V317.141a3.225,3.225,0,0,0-3.221-3.222H210A3.225,3.225,0,0,0,206.775,317.141Zm11.976-.474a5.8,5.8,0,1,1-5.8,5.8A5.81,5.81,0,0,1,218.751,316.666Z" transform="translate(-175.076 -256.067)" fill="#12263f" fill-rule="evenodd"/>
            <path id="Trazado_990134" data-name="Trazado 990134" d="M356.636,196.006a2.839,2.839,0,0,0-5.679,0v1.767l5.679,1.049Z" transform="translate(-275.528 -171.938)" fill="#12263f" fill-rule="evenodd"/>
            <path id="Trazado_990135" data-name="Trazado 990135" d="M124.933,213.807a.963.963,0,0,1,.963.963,7.325,7.325,0,0,0,7.317,7.317h25.446a7.325,7.325,0,0,0,7.317-7.317.963.963,0,0,1,.963-.963h21.144l1.528-9.016-37.761-6.982a32.412,32.412,0,0,0-11.828,0l-37.761,6.982,1.528,9.016Zm54.969-6.569h1.854a.963.963,0,0,1,0,1.926H179.9a.963.963,0,1,1,0-1.926Zm-8.216,0h1.854a.963.963,0,0,1,0,1.926h-1.854a.963.963,0,0,1,0-1.926Zm-17.919,9.7H138.105a.963.963,0,0,1,0-1.926h15.661a.963.963,0,0,1,0,1.926Zm-23.784-7.621,8.448-5.871a8.073,8.073,0,0,1,4.628-1.45h6.274a8.165,8.165,0,0,1,4.828,1.594l7.754,5.744a.963.963,0,0,1-.574,1.737H130.531a.963.963,0,0,1-.55-1.754Zm-18.012-.152h-1.854a.963.963,0,1,1,0-1.926h1.854a.963.963,0,1,1,0,1.926Zm5.4-.963a.963.963,0,0,1,.963-.963h1.854a.963.963,0,1,1,0,1.926h-1.854A.963.963,0,0,1,117.369,208.2Z" transform="translate(-102.261 -174.794)" fill="#12263f" fill-rule="evenodd"/>
            <path id="Trazado_990136" data-name="Trazado 990136" d="M205.6,224.435h24.817l-5.409-4.007a6.226,6.226,0,0,0-3.681-1.215h-6.274a6.157,6.157,0,0,0-3.529,1.106Z" transform="translate(-174.261 -190.085)" fill="#12263f" fill-rule="evenodd"/>
            <path id="Trazado_990137" data-name="Trazado 990137" d="M237.353,337.083a3.877,3.877,0,1,0-3.878-3.877A3.882,3.882,0,0,0,237.353,337.083Z" transform="translate(-193.678 -266.803)" fill="#12263f" fill-rule="evenodd"/>
            <path id="Trazado_990138" data-name="Trazado 990138" d="M128.519,196.006a2.839,2.839,0,0,0-5.678,0v2.817l5.678-1.049Z" transform="translate(-116.599 -171.938)" fill="#12263f" fill-rule="evenodd"/>
            <path id="Trazado_990139" data-name="Trazado 990139" d="M121.79,156.332h-5.359v-1.185a.963.963,0,0,0-1.926,0v1.185h-5.36a.963.963,0,0,0,0,1.926h5.36v5.921a4.8,4.8,0,0,1,1.926,0v-5.921h5.36a.963.963,0,1,0,0-1.926Z" transform="translate(-106.386 -144.779)" fill="#12263f" fill-rule="evenodd"/>
            <path id="Trazado_990140" data-name="Trazado 990140" d="M349.9,156.332h-5.36v-1.185a.963.963,0,0,0-1.926,0v1.185h-5.36a.963.963,0,0,0,0,1.926h5.36v5.922a4.788,4.788,0,0,1,1.926,0v-5.921h5.36a.963.963,0,1,0,0-1.926Z" transform="translate(-265.313 -144.779)" fill="#12263f" fill-rule="evenodd"/>
            <path id="Trazado_990141" data-name="Trazado 990141" d="M225.581,167.576a.963.963,0,0,0,1.362,1.362,6.784,6.784,0,0,1,9.583,0,.963.963,0,0,0,1.362-1.362A8.712,8.712,0,0,0,225.581,167.576Z" transform="translate(-187.982 -152.337)" fill="#12263f" fill-rule="evenodd"/>
            <path id="Trazado_990142" data-name="Trazado 990142" d="M234.249,149.224a.963.963,0,0,0,.681-1.644,11.927,11.927,0,0,0-16.867,0,.963.963,0,1,0,1.362,1.362,10,10,0,0,1,14.143,0A.961.961,0,0,0,234.249,149.224Z" transform="translate(-182.744 -137.744)" fill="#12263f" fill-rule="evenodd"/>
            <path id="Trazado_990143" data-name="Trazado 990143" d="M211.651,128.975a13.241,13.241,0,0,1,18.7,0,.963.963,0,0,0,1.362-1.362,15.152,15.152,0,0,0-21.427,0,.963.963,0,0,0,1.362,1.362Z" transform="translate(-177.328 -123.175)" fill="#12263f" fill-rule="evenodd"/>
          </g>
        </g>
      </g>
    </g>
  </g>
</svg>
