<svg xmlns="http://www.w3.org/2000/svg" xmlns:xlink="http://www.w3.org/1999/xlink" width="153" height="154" viewBox="0 0 153 154">
  <defs>
    <clipPath id="clip-path">
      <rect id="Rect치ngulo_411769" data-name="Rect치ngulo 411769" width="153" height="154" transform="translate(-3458 -8348)" fill="#fff" stroke="#707070" stroke-width="1" opacity="0.55"/>
    </clipPath>
  </defs>
  <g id="Grupo_1162281" data-name="Grupo 1162281" transform="translate(3460 8743)">
    <g id="Grupo_1159850" data-name="Grupo 1159850" transform="translate(-3694.051 -13418)">
      <rect id="Rect치ngulo_401557" data-name="Rect치ngulo 401557" width="144" height="138" rx="12" transform="translate(239.051 4683)" fill="#78b62e"/>
    </g>
    <g id="Enmascarar_grupo_1098797" data-name="Enmascarar grupo 1098797" transform="translate(-2 -395)" clip-path="url(#clip-path)">
      <g id="Layer_1" transform="translate(-3390.524 -8282.863)">
        <g id="Grupo_1162276" data-name="Grupo 1162276" transform="translate(-90.349 -89.818)">
          <circle id="Elipse_11752" data-name="Elipse 11752" cx="72.046" cy="72.046" r="72.046" transform="translate(0 101.874) rotate(-45)" fill="#cfcb88"/>
          <g id="Grupo_1162275" data-name="Grupo 1162275" transform="translate(29.843 29.827)">
            <path id="Trazado_990144" data-name="Trazado 990144" d="M61.355,96.082l-.192-.365c.164-.2.325-.406.491-.607Z" transform="translate(-45.144 -68.962)" fill="#d8d277" fill-rule="evenodd"/>
            <path id="Trazado_990145" data-name="Trazado 990145" d="M8.251,247.483l1.6,2.808-1.222,4.4Q8.263,251.138,8.251,247.483Z" transform="translate(-8.248 -175.211)" fill="#e4e0a2" fill-rule="evenodd"/>
            <path id="Trazado_990146" data-name="Trazado 990146" d="M9.844,241.989l-1.6-2.808c0-.075,0-.15,0-.225,0-1.133.029-2.258.081-3.378Z" transform="translate(-8.242 -166.909)" fill="#e3dd99" fill-rule="evenodd"/>
            <path id="Trazado_990147" data-name="Trazado 990147" d="M86.206,415.691l16.894-3.133-1.949,13.6A72.234,72.234,0,0,1,86.206,415.691Z" transform="translate(-62.607 -290.319)" fill="#edeabe" fill-rule="evenodd"/>
            <path id="Trazado_990148" data-name="Trazado 990148" d="M63.921,287.751l12.4-48.6L87.561,291.64l-16.894,3.133A72.453,72.453,0,0,1,63.921,287.751Z" transform="translate(-47.067 -169.401)" fill="#ebe7b7" fill-rule="evenodd"/>
            <path id="Trazado_990149" data-name="Trazado 990149" d="M42.32,179,15.165,164q.632-2.566,1.446-5.057l27.284-6.05Z" transform="translate(-13.069 -109.254)" fill="#e4e0a1" fill-rule="evenodd"/>
            <path id="Trazado_990150" data-name="Trazado 990150" d="M60.335,97.115l.192.365-.551.081C60.095,97.411,60.215,97.263,60.335,97.115Z" transform="translate(-44.316 -70.359)" fill="#d9d37a" fill-rule="evenodd"/>
            <path id="Trazado_990151" data-name="Trazado 990151" d="M51.98,98.4l.551-.081-4.022,4.82q1.64-2.443,3.472-4.739Z" transform="translate(-36.32 -71.199)" fill="#ddd889" fill-rule="evenodd"/>
            <path id="Trazado_990152" data-name="Trazado 990152" d="M28.589,103.14l4.022-4.82,14.615,16.519-27.284,6.05a71.775,71.775,0,0,1,8.647-17.749Z" transform="translate(-16.4 -71.199)" fill="#e0db93" fill-rule="evenodd"/>
            <path id="Trazado_990153" data-name="Trazado 990153" d="M10.031,209.92,8.51,203.508a72.008,72.008,0,0,1,2.015-13.921l27.155,15Z" transform="translate(-8.429 -134.84)" fill="#e4e0a2" fill-rule="evenodd"/>
            <path id="Trazado_990154" data-name="Trazado 990154" d="M15.689,259.4l27-20.245-12.4,48.6a71.833,71.833,0,0,1-14.6-28.356Z" transform="translate(-13.435 -169.401)" fill="#eae5b4" fill-rule="evenodd"/>
            <path id="Trazado_990155" data-name="Trazado 990155" d="M9.5,248.885l1.222-4.4,27.649-5.33-27,20.245A71.823,71.823,0,0,1,9.5,248.885Z" transform="translate(-9.117 -169.401)" fill="#e8e4ac" fill-rule="evenodd"/>
            <path id="Trazado_990156" data-name="Trazado 990156" d="M134.1,255.3l-29.224-29.041,19.331-5.6Z" transform="translate(-75.625 -156.512)" fill="#ebe7b6" fill-rule="evenodd"/>
            <path id="Trazado_990157" data-name="Trazado 990157" d="M127.834,124.3,110.078,103.79l12.367-21.315Z" transform="translate(-79.253 -60.15)" fill="#e4df9e" fill-rule="evenodd"/>
            <path id="Trazado_990158" data-name="Trazado 990158" d="M104.876,179l1.575-26.11,17.756,20.514Z" transform="translate(-75.625 -109.254)" fill="#e7e3ab" fill-rule="evenodd"/>
            <path id="Trazado_990159" data-name="Trazado 990159" d="M303.453,88.2,289.066,62.358,313.9,44.072q1.555.96,3.057,2Z" transform="translate(-204.062 -33.372)" fill="#e0db91" fill-rule="evenodd"/>
            <path id="Trazado_990160" data-name="Trazado 990160" d="M61.8,69.051l.3-.971a72.464,72.464,0,0,1,12.3-11.734l14.386,7.909Z" transform="translate(-45.585 -41.93)" fill="#dbd580" fill-rule="evenodd"/>
            <path id="Trazado_990161" data-name="Trazado 990161" d="M76.411,103.79,61.8,87.271l26.981-4.8Z" transform="translate(-45.585 -60.15)" fill="#dfda8e" fill-rule="evenodd"/>
            <path id="Trazado_990162" data-name="Trazado 990162" d="M117.793,45.085l-14.386-7.909a72.005,72.005,0,0,1,14.208-8.322Z" transform="translate(-74.601 -22.76)" fill="#d9d37a" fill-rule="evenodd"/>
            <path id="Trazado_990163" data-name="Trazado 990163" d="M116.119,291.64l-11.243-52.489L134.1,268.192Z" transform="translate(-75.625 -169.401)" fill="#ece8bb" fill-rule="evenodd"/>
            <path id="Trazado_990164" data-name="Trazado 990164" d="M270.074,226.895,251.19,214.106l25.852-24.245Z" transform="translate(-177.651 -135.031)" fill="#eae6b5" fill-rule="evenodd"/>
            <path id="Trazado_990165" data-name="Trazado 990165" d="M135.58,426.159l1.949-13.6,13.106,19.467A71.619,71.619,0,0,1,135.58,426.159Z" transform="translate(-97.035 -290.318)" fill="#edebc1" fill-rule="evenodd"/>
            <path id="Trazado_990166" data-name="Trazado 990166" d="M251.19,154.572l11.465-50.089,14.387,25.843Z" transform="translate(-177.651 -75.497)" fill="#e5e2a6" fill-rule="evenodd"/>
            <path id="Trazado_990167" data-name="Trazado 990167" d="M150.524,38.4l-.177-16.231a71.634,71.634,0,0,1,7.758-2.9l23.665,5.008Z" transform="translate(-107.333 -16.08)" fill="#dad37c" fill-rule="evenodd"/>
            <path id="Trazado_990168" data-name="Trazado 990168" d="M178.631,255.3l-9.893-34.637L193.7,235.587Z" transform="translate(-120.157 -156.512)" fill="#ebe7b7" fill-rule="evenodd"/>
            <path id="Trazado_990169" data-name="Trazado 990169" d="M178.211,379.054l-36.192-20.512L160,335.094Z" transform="translate(-101.525 -236.303)" fill="#edebc3" fill-rule="evenodd"/>
            <path id="Trazado_990170" data-name="Trazado 990170" d="M155.125,432.024l-13.106-19.467,36.192,20.513-2.555,1.31c-.693.02-1.387.032-2.084.032a72.141,72.141,0,0,1-18.447-2.388Z" transform="translate(-101.525 -290.318)" fill="#efecc5" fill-rule="evenodd"/>
            <path id="Trazado_990171" data-name="Trazado 990171" d="M193.7,154.572l-24.958-14.921,36.423-35.168Z" transform="translate(-120.157 -75.497)" fill="#e7e3ab" fill-rule="evenodd"/>
            <path id="Trazado_990172" data-name="Trazado 990172" d="M156.322,124.3l-5.389-41.83,41.812,6.662Z" transform="translate(-107.741 -60.15)" fill="#e3dd99" fill-rule="evenodd"/>
            <path id="Trazado_990173" data-name="Trazado 990173" d="M192.745,56.6l-41.812-6.662L182.179,35.82Z" transform="translate(-107.741 -27.618)" fill="#ddd786" fill-rule="evenodd"/>
            <path id="Trazado_990174" data-name="Trazado 990174" d="M253.145,481.633l2.555-1.31.566,1.153Q254.714,481.588,253.145,481.633Z" transform="translate(-179.014 -337.573)" fill="#f1efce" fill-rule="evenodd"/>
            <path id="Trazado_990175" data-name="Trazado 990175" d="M219.632,379.054l-18.211-43.96,31.925,35.967Z" transform="translate(-142.947 -236.303)" fill="#efecc8" fill-rule="evenodd"/>
            <path id="Trazado_990176" data-name="Trazado 990176" d="M233.346,355.1l-31.925-35.967,33.949-6.927Z" transform="translate(-142.947 -220.344)" fill="#edebc3" fill-rule="evenodd"/>
            <path id="Trazado_990177" data-name="Trazado 990177" d="M262.151,463.064l-.566-1.153,13.714-7.993-.835,7.185A71.938,71.938,0,0,1,262.151,463.064Z" transform="translate(-184.899 -319.16)" fill="#f2efd1" fill-rule="evenodd"/>
            <path id="Trazado_990178" data-name="Trazado 990178" d="M201.421,289.675l15.065-19.716,18.884,12.789Z" transform="translate(-142.947 -190.884)" fill="#ece8bb" fill-rule="evenodd"/>
            <path id="Trazado_990179" data-name="Trazado 990179" d="M264.724,54.807,254.158,34.023l29.484-.78q3.042,1.5,5.916,3.278Z" transform="translate(-179.721 -25.821)" fill="#dbd581" fill-rule="evenodd"/>
            <path id="Trazado_990180" data-name="Trazado 990180" d="M306.891,355.1l2.023-42.895,21.13,13.855Z" transform="translate(-216.492 -220.344)" fill="#efecc5" fill-rule="evenodd"/>
            <path id="Trazado_990181" data-name="Trazado 990181" d="M199.643,22.4l-23.665-5.008q1.423-.439,2.873-.819l47.385,3.7q1.462.644,2.891,1.349Z" transform="translate(-125.205 -14.193)" fill="#d8d277" fill-rule="evenodd"/>
            <path id="Trazado_990182" data-name="Trazado 990182" d="M393.273,337.966l-9.892-16.808,14.612-15.984,2.1,24.752A72.457,72.457,0,0,1,393.273,337.966Z" transform="translate(-269.829 -215.44)" fill="#eeecc5" fill-rule="evenodd"/>
            <path id="Trazado_990183" data-name="Trazado 990183" d="M334.706,321.158,313.576,307.3l35.742-2.129Z" transform="translate(-221.153 -215.44)" fill="#ece9bd" fill-rule="evenodd"/>
            <path id="Trazado_990184" data-name="Trazado 990184" d="M365.369,166.264,336.6,131.36l30.75-25.395q1.749,2.38,3.3,4.9Z" transform="translate(-237.204 -76.53)" fill="#e5e0a4" fill-rule="evenodd"/>
            <path id="Trazado_990185" data-name="Trazado 990185" d="M336.6,92.8l13.5-42.133a72.475,72.475,0,0,1,17.247,16.738Z" transform="translate(-237.204 -37.97)" fill="#dfda8e" fill-rule="evenodd"/>
            <path id="Trazado_990186" data-name="Trazado 990186" d="M322.235,388l-15.344-.979,23.153-29.04,9.892,16.808A72.3,72.3,0,0,1,322.235,388Z" transform="translate(-216.492 -252.262)" fill="#f1efce" fill-rule="evenodd"/>
            <path id="Trazado_990187" data-name="Trazado 990187" d="M313.576,226.895l6.968-37.034,28.774,34.9Z" transform="translate(-221.153 -135.031)" fill="#eae5b4" fill-rule="evenodd"/>
            <path id="Trazado_990188" data-name="Trazado 990188" d="M304.133,461.1l.835-7.185,15.344.979A71.546,71.546,0,0,1,304.133,461.1Z" transform="translate(-214.568 -319.159)" fill="#f3f2d6" fill-rule="evenodd"/>
            <path id="Trazado_990189" data-name="Trazado 990189" d="M226.178,9.552l-24.454.434a72.68,72.68,0,0,1,24.454-.434Z" transform="translate(-143.158 -8.722)" fill="#d5ce6e" fill-rule="evenodd"/>
            <path id="Trazado_990190" data-name="Trazado 990190" d="M232.853,16.707l-47.385-3.7q2.428-.639,4.92-1.111l24.454-.434A71.592,71.592,0,0,1,232.853,16.707Z" transform="translate(-131.823 -10.634)" fill="#d8d277" fill-rule="evenodd"/>
            <path id="Trazado_990191" data-name="Trazado 990191" d="M431.656,177.561l5.28-55.4a71.686,71.686,0,0,1,10.637,36.8Z" transform="translate(-303.491 -87.826)" fill="#e4df9f" fill-rule="evenodd"/>
            <path id="Trazado_990192" data-name="Trazado 990192" d="M431.656,262.333l15.917-18.6c0,.3.011.605.011.909a72.36,72.36,0,0,1-1.411,14.247Z" transform="translate(-303.491 -172.599)" fill="#e5e1a5" fill-rule="evenodd"/>
            <path id="Trazado_990193" data-name="Trazado 990193" d="M433.757,329.926l-2.1-24.752,10.63,9.466A71.972,71.972,0,0,1,433.757,329.926Z" transform="translate(-303.491 -215.44)" fill="#edebc1" fill-rule="evenodd"/>
            <path id="Trazado_990194" data-name="Trazado 990194" d="M442.285,306.712l-10.63-9.466,14.517-3.441A71.581,71.581,0,0,1,442.285,306.712Z" transform="translate(-303.49 -207.512)" fill="#eae6b5" fill-rule="evenodd"/>
          </g>
          <path id="Trazado_990195" data-name="Trazado 990195" d="M75.107,1.292A74.3,74.3,0,1,1,22.573,23.053,74.063,74.063,0,0,1,75.107,1.292Zm49.351,24.944A69.794,69.794,0,1,0,144.9,75.587a69.574,69.574,0,0,0-20.442-49.351Z" transform="translate(26.782 26.286)" fill="#12263f"/>
        </g>
        <g id="Grupo_1162278" data-name="Grupo 1162278" transform="translate(-32.048 -31.532)">
          <g id="Grupo_1162277" data-name="Grupo 1162277">
            <path id="Trazado_990196" data-name="Trazado 990196" d="M230.813,197.267a9.731,9.731,0,0,0-15.6,11.292l8.616,16.435,8.616-16.435A9.744,9.744,0,0,0,230.813,197.267Zm-6.989,12.977a5.977,5.977,0,1,1,5.977-5.977A5.984,5.984,0,0,1,223.825,210.244Z" transform="translate(-180.237 -166.594)" fill="#12263f" fill-rule="evenodd"/>
            <path id="Trazado_990197" data-name="Trazado 990197" d="M236.719,213.515a4.142,4.142,0,1,0,4.141,4.141A4.146,4.146,0,0,0,236.719,213.515Z" transform="translate(-193.131 -179.984)" fill="#12263f" fill-rule="evenodd"/>
            <path id="Trazado_990198" data-name="Trazado 990198" d="M193.559,162.49a.918.918,0,0,1,.918-.918h4.106a36.629,36.629,0,0,0-35.654-35.654v4.106a.918.918,0,1,1-1.835,0v-4.106a36.629,36.629,0,0,0-35.654,35.654h4.106a.918.918,0,0,1,0,1.836h-4.106a36.629,36.629,0,0,0,35.654,35.654v-4.106a.918.918,0,1,1,1.835,0v4.106a36.629,36.629,0,0,0,35.654-35.654h-4.106A.918.918,0,0,1,193.559,162.49Zm-21.307-.772L162.824,179.7a.918.918,0,0,1-1.625,0l-9.429-17.985A11.567,11.567,0,0,1,170.322,148.3a11.8,11.8,0,0,1,3.116,6.2,11.43,11.43,0,0,1-1.185,7.212Z" transform="translate(-118.423 -118.902)" fill="#12263f" fill-rule="evenodd"/>
            <path id="Trazado_990199" data-name="Trazado 990199" d="M245.064,107.919v-4.263a.918.918,0,0,0-1.836,0v4.263q.458-.01.918-.011T245.064,107.919Z" transform="translate(-200.558 -102.739)" fill="#12263f" fill-rule="evenodd"/>
            <path id="Trazado_990200" data-name="Trazado 990200" d="M243.229,373.626v4.263a.918.918,0,0,0,1.836,0v-4.263q-.458.01-.918.011T243.229,373.626Z" transform="translate(-200.558 -291.63)" fill="#12263f" fill-rule="evenodd"/>
            <path id="Trazado_990201" data-name="Trazado 990201" d="M377.41,243.708h-4.263q.01.458.011.918t-.011.918h4.263a.918.918,0,1,0,0-1.836Z" transform="translate(-291.151 -201.037)" fill="#12263f" fill-rule="evenodd"/>
            <path id="Trazado_990202" data-name="Trazado 990202" d="M107.44,243.708h-4.263a.918.918,0,1,0,0,1.836h4.263q-.011-.458-.011-.918T107.44,243.708Z" transform="translate(-102.26 -201.037)" fill="#12263f" fill-rule="evenodd"/>
          </g>
        </g>
      </g>
    </g>
  </g>
</svg>
