<svg xmlns="http://www.w3.org/2000/svg" width="93.959" height="93.959" viewBox="0 0 93.959 93.959">
  <g id="Grupo_1162045" data-name="Grupo 1162045" transform="translate(-200 -906)">
    <g id="Grupo_1158088" data-name="Grupo 1158088" transform="translate(-419 -59)">
      <g id="Grupo_1147968" data-name="Grupo 1147968" transform="translate(619 965)">
        <g id="Grupo_1103990" data-name="Grupo 1103990" transform="translate(0)">
          <g id="Trazado_874102" data-name="Trazado 874102" transform="translate(0)" fill="#e4f7fa">
            <path d="M 46.97949600219727 91.45897674560547 C 40.97370910644531 91.45897674560547 35.14888000488281 90.28328704833984 29.66683959960938 87.96457672119141 C 24.37055397033691 85.72444915771484 19.61348152160645 82.51696014404297 15.52775287628174 78.43122863769531 C 11.44202423095703 74.34550476074219 8.234539031982422 69.58843231201172 5.994410514831543 64.29214477539062 C 3.675695896148682 58.81010437011719 2.500010251998901 52.98527526855469 2.500010251998901 46.97948837280273 C 2.500010251998901 40.97369003295898 3.675695896148682 35.14887237548828 5.994410514831543 29.66683197021484 C 8.234539031982422 24.37054634094238 11.44202423095703 19.61346054077148 15.52775287628174 15.52774524688721 C 19.61348152160645 11.4420166015625 24.37055397033691 8.234531402587891 29.66683959960938 5.994388580322266 C 35.14888000488281 3.67568826675415 40.97370910644531 2.50000262260437 46.97949600219727 2.50000262260437 C 52.98529434204102 2.50000262260437 58.81011199951172 3.67568826675415 64.29215240478516 5.994388580322266 C 69.58843994140625 8.234531402587891 74.34552764892578 11.4420166015625 78.43123626708984 15.52774524688721 C 82.5169677734375 19.61346054077148 85.72445678710938 24.37054634094238 87.964599609375 29.66683197021484 C 90.28329467773438 35.14887237548828 91.458984375 40.97369003295898 91.458984375 46.97948837280273 C 91.458984375 52.98527526855469 90.28329467773438 58.81010437011719 87.964599609375 64.29214477539062 C 85.72445678710938 69.58843231201172 82.5169677734375 74.34550476074219 78.43123626708984 78.43122863769531 C 74.34552764892578 82.51696014404297 69.58843994140625 85.72444915771484 64.29215240478516 87.96457672119141 C 58.81011199951172 90.28328704833984 52.98529434204102 91.45897674560547 46.97949600219727 91.45897674560547 Z" stroke="none"/>
            <path d="M 46.97949600219727 5.000007629394531 C 41.31009674072266 5.000007629394531 35.81294631958008 6.109237670898438 30.64072799682617 8.296905517578125 C 25.64242553710938 10.41100311279297 21.1524658203125 13.43856811523438 17.29550933837891 17.29550170898438 C 13.43857574462891 21.15245819091797 10.4110107421875 25.64241790771484 8.296913146972656 30.64072036743164 C 6.109245300292969 35.81293869018555 5.000015258789062 41.31008911132812 5.000015258789062 46.97948837280273 C 5.000015258789062 52.64888763427734 6.109245300292969 58.14603805541992 8.296913146972656 63.31825256347656 C 10.4110107421875 68.31653594970703 13.43857574462891 72.8065185546875 17.29550933837891 76.6634521484375 C 21.1524658203125 80.52040100097656 25.64242553710938 83.5479736328125 30.64072799682617 85.66207122802734 C 35.81294631958008 87.84973907470703 41.31009674072266 88.95896911621094 46.97949600219727 88.95896911621094 C 52.64889526367188 88.95896911621094 58.14604568481445 87.84973907470703 63.31826019287109 85.66207122802734 C 68.31655883789062 83.5479736328125 72.80653381347656 80.52040100097656 76.66348266601562 76.6634521484375 C 80.52041625976562 72.8065185546875 83.54798126220703 68.31653594970703 85.66207885742188 63.31825256347656 C 87.84974670410156 58.14603805541992 88.95897674560547 52.64888763427734 88.95897674560547 46.97948837280273 C 88.95897674560547 41.31008911132812 87.84974670410156 35.81293869018555 85.66207885742188 30.64072036743164 C 83.54798126220703 25.64241790771484 80.52041625976562 21.15245819091797 76.66348266601562 17.29550170898438 C 72.80653381347656 13.43856811523438 68.31655883789062 10.41100311279297 63.31826019287109 8.296905517578125 C 58.14604568481445 6.109237670898438 52.64889526367188 5.000007629394531 46.97949600219727 5.000007629394531 M 46.97949600219727 7.62939453125e-06 C 72.92554473876953 7.62939453125e-06 93.95897674560547 21.03343963623047 93.95897674560547 46.97948837280273 C 93.95897674560547 72.92552185058594 72.92554473876953 93.95896911621094 46.97949600219727 93.95896911621094 C 21.033447265625 93.95896911621094 1.52587890625e-05 72.92552185058594 1.52587890625e-05 46.97948837280273 C 1.52587890625e-05 21.03343963623047 21.033447265625 7.62939453125e-06 46.97949600219727 7.62939453125e-06 Z" stroke="none" fill="#fff"/>
          </g>
        </g>
      </g>
    </g>
    <g id="automatizacion" transform="translate(218 923.961)">
      <g id="Grupo_1162043" data-name="Grupo 1162043" transform="translate(0.849 0.886)">
        <g id="Grupo_1162037" data-name="Grupo 1162037" transform="translate(0 21.948)">
          <g id="Grupo_1162036" data-name="Grupo 1162036">
            <path id="Trazado_989556" data-name="Trazado 989556" d="M97.194,231.46H56a2.22,2.22,0,0,1-2.22-2.22V204.309a2.22,2.22,0,0,1,2.22-2.22H97.194a2.22,2.22,0,0,1,2.22,2.22V229.24A2.22,2.22,0,0,1,97.194,231.46Z" transform="translate(-48.563 -202.089)" fill="#be80e1"/>
            <path id="Trazado_989557" data-name="Trazado 989557" d="M83.645,254.772V232.194H122.54v22.578H98.695l-5.5-2.683-5.5,2.683Z" transform="translate(-75.057 -228.798)" fill="#f6f3f5"/>
            <path id="Trazado_989558" data-name="Trazado 989558" d="M60.265,467.178H10.855a3.33,3.33,0,0,1-3.33-3.33v-.311a1.11,1.11,0,0,1,1.11-1.11h53.85a1.11,1.11,0,0,1,1.11,1.11v.311a3.33,3.33,0,0,1-3.33,3.33Z" transform="translate(-7.525 -433.056)" fill="#d6abec"/>
            <path id="Trazado_989559" data-name="Trazado 989559" d="M441.744,462.428h-4.513a1.11,1.11,0,0,1,1.11,1.11v.311a3.33,3.33,0,0,1-3.33,3.33h4.513a3.33,3.33,0,0,0,3.33-3.33v-.311A1.11,1.11,0,0,0,441.744,462.428Z" transform="translate(-386.784 -433.057)" fill="#ca97e7"/>
          </g>
        </g>
        <g id="Grupo_1162041" data-name="Grupo 1162041" transform="translate(0 0)">
          <g id="Grupo_1162040" data-name="Grupo 1162040">
            <g id="Grupo_1162038" data-name="Grupo 1162038" transform="translate(0 6.808)">
              <path id="Trazado_989560" data-name="Trazado 989560" d="M7.525,70.353a2.463,2.463,0,0,0,2.463,2.463H30.709V67.89H9.988A2.463,2.463,0,0,0,7.525,70.353Z" transform="translate(-7.525 -67.89)" fill="#ffcd55"/>
              <path id="Trazado_989561" data-name="Trazado 989561" d="M8.247,68.611a2.463,2.463,0,0,0,0,3.483L23.852,87.7a2.463,2.463,0,0,0,3.483-3.483L11.73,68.611A2.463,2.463,0,0,0,8.247,68.611Z" transform="translate(-7.525 -67.89)" fill="#fff4ca"/>
              <path id="Trazado_989562" data-name="Trazado 989562" d="M130.471,206.545H119.462V183.4a5.5,5.5,0,1,1,11.009-.043Z" transform="translate(-106.834 -165.431)" fill="#ffcd55"/>
              <path id="Trazado_989563" data-name="Trazado 989563" d="M150.363,177.835a5.5,5.5,0,0,0-2.256.482,5.521,5.521,0,0,1,3.264,5.039v23.189h4.513v-23.19A5.521,5.521,0,0,0,150.363,177.835Z" transform="translate(-132.247 -165.431)" fill="#ffbe46"/>
              <circle id="Elipse_11707" data-name="Elipse 11707" cx="2.463" cy="2.463" r="2.463" transform="translate(15.627 15.7)" fill="#f6f3f5"/>
            </g>
            <path id="Trazado_989564" data-name="Trazado 989564" d="M205.363,26.083a1.232,1.232,0,0,1-.612-.163l-6.977-4a1.233,1.233,0,0,1-.618-1.063l-.025-8.042a1.234,1.234,0,0,1,.612-1.067l6.952-4.043a1.231,1.231,0,0,1,1.23,0l6.058,3.473a1.24,1.24,0,0,1,.007,2.13l-.916.532a1.23,1.23,0,0,1-1.23,0l-4.22-2.419a.6.6,0,0,0-.6,0l-4.205,2.446a.606.606,0,0,0-.3.524l.015,4.865a.606.606,0,0,0,.3.522l4.22,2.419a.6.6,0,0,0,.6,0l4.205-2.446a1.23,1.23,0,0,1,1.23,0l.919.527a1.24,1.24,0,0,1,.007,2.131l-6.036,3.51A1.233,1.233,0,0,1,205.363,26.083Z" transform="translate(-175.74 -7.54)" fill="#ffcd55"/>
            <g id="Grupo_1162039" data-name="Grupo 1162039" transform="translate(26.19)">
              <path id="Trazado_989565" data-name="Trazado 989565" d="M243.289,11.388a.734.734,0,0,1,.075.035l4.22,2.419a1.23,1.23,0,0,0,1.23,0l.916-.532a1.24,1.24,0,0,0-.007-2.13L243.665,7.7a1.23,1.23,0,0,0-1.23,0l-2.764,1.607Z" transform="translate(-239.671 -7.54)" fill="#ffbe46"/>
              <path id="Trazado_989566" data-name="Trazado 989566" d="M249.927,115.007l-.919-.527a1.23,1.23,0,0,0-1.23,0l-4.205,2.446a.686.686,0,0,1-.178.067l-3.527,2.051,2.8,1.6a1.23,1.23,0,0,0,1.23,0l6.036-3.51a1.24,1.24,0,0,0-.007-2.13Z" transform="translate(-239.846 -102.271)" fill="#ffbe46"/>
            </g>
          </g>
          <path id="Trazado_989567" data-name="Trazado 989567" d="M159.153,66.177H162.5V59.352h-3.349a1.128,1.128,0,0,0-1.128,1.128v4.569A1.128,1.128,0,0,0,159.153,66.177Z" transform="translate(-141.046 -53.507)" fill="#fff4ca"/>
        </g>
        <g id="Grupo_1162042" data-name="Grupo 1162042" transform="translate(27.372 28.705)">
          <path id="Trazado_989568" data-name="Trazado 989568" d="M266,270.566v-1.375a.7.7,0,0,0-.55-.68l-1.418-.3a.028.028,0,0,1-.021-.02,6.142,6.142,0,0,0-.555-1.321.028.028,0,0,1,0-.029l.781-1.2a.7.7,0,0,0-.092-.87l-.973-.973a.7.7,0,0,0-.87-.092l-1.217.79a.028.028,0,0,1-.029,0,6.137,6.137,0,0,0-1.326-.542.028.028,0,0,1-.02-.021l-.3-1.4a.7.7,0,0,0-.68-.55h-1.375a.7.7,0,0,0-.68.55l-.3,1.419a.028.028,0,0,1-.02.021,6.142,6.142,0,0,0-1.321.555.028.028,0,0,1-.029,0l-1.2-.781a.7.7,0,0,0-.87.091l-.973.973a.7.7,0,0,0-.092.87l.79,1.217a.028.028,0,0,1,0,.029,6.138,6.138,0,0,0-.542,1.326.028.028,0,0,1-.021.02l-1.4.3a.7.7,0,0,0-.55.68v1.375a.7.7,0,0,0,.55.68l1.418.3a.028.028,0,0,1,.021.02,6.142,6.142,0,0,0,.555,1.321.028.028,0,0,1,0,.029l-.781,1.2a.7.7,0,0,0,.092.87l.973.973a.7.7,0,0,0,.87.091l1.217-.79a.028.028,0,0,1,.029,0,6.141,6.141,0,0,0,1.326.542.028.028,0,0,1,.02.021l.3,1.4a.7.7,0,0,0,.68.55h1.375a.7.7,0,0,0,.68-.55l.3-1.419a.028.028,0,0,1,.02-.021,6.141,6.141,0,0,0,1.321-.555.028.028,0,0,1,.029,0l1.2.781a.7.7,0,0,0,.87-.092l.973-.973a.7.7,0,0,0,.091-.87l-.79-1.217a.028.028,0,0,1,0-.029,6.138,6.138,0,0,0,.542-1.326.028.028,0,0,1,.021-.02l1.4-.3A.7.7,0,0,0,266,270.566Zm-7.929,2.128a2.789,2.789,0,1,1,2.789-2.789A2.789,2.789,0,0,1,258.074,272.694Z" transform="translate(-250.145 -261.976)" fill="#9ad4fe"/>
        </g>
      </g>
      <g id="Grupo_1162044" data-name="Grupo 1162044" transform="translate(0 0.039)">
        <path id="Trazado_989569" data-name="Trazado 989569" d="M55.809,51.359H52.221a3.047,3.047,0,0,0,.326-1.374V25.054a3.069,3.069,0,0,0-3.066-3.066H24.191A6.373,6.373,0,0,0,17.3,19.47l-6-6H17.28a1.973,1.973,0,0,0,1.676.936H21.43A2.081,2.081,0,0,0,22.463,16l6.977,4a2.077,2.077,0,0,0,2.076-.006l6.036-3.51a2.111,2.111,0,0,0-.011-3.6l-.919-.527-.023-.013a2.062,2.062,0,0,0-2.03.006l-.024.013-4.085,2.375-3.978-2.28-.014-4.585,3.964-2.305,4.1,2.35.023.013a2.062,2.062,0,0,0,2.029-.006l.024-.013.915-.532a2.11,2.11,0,0,0-.011-3.6L31.454.314a2.076,2.076,0,0,0-2.076.006L27.111,1.639A.846.846,0,0,0,27.962,3.1l2.266-1.318a.391.391,0,0,1,.384,0l6.058,3.473a.394.394,0,0,1,0,.665l-.9.524a.384.384,0,0,1-.411,0L31.153,4.034a1.449,1.449,0,0,0-1.45,0L25.5,6.484a1.454,1.454,0,0,0-.721,1.258l.015,4.865a1.454,1.454,0,0,0,.729,1.254l4.221,2.419a1.448,1.448,0,0,0,1.45,0l4.192-2.438a.385.385,0,0,1,.411,0l.906.519a.394.394,0,0,1,0,.665l-6.036,3.51a.391.391,0,0,1-.384,0l-6.977-4a.411.411,0,0,1-.218-.332V6.16a.385.385,0,0,1,.191-.333l1.814-1.055a.846.846,0,0,0-.851-1.463L22.426,4.363a2.082,2.082,0,0,0-1.014,1.521H18.956a1.973,1.973,0,0,0-1.693.963H3.312a3.331,3.331,0,0,0-2.34.969,3.357,3.357,0,0,0,0,4.68l9.491,9.491H8.287a3.069,3.069,0,0,0-3.066,3.066V49.985a3.046,3.046,0,0,0,.326,1.374H1.959A1.958,1.958,0,0,0,0,53.315,4.264,4.264,0,0,0,4.179,57.8H41.828a.846.846,0,1,0,0-1.692H4.179A2.556,2.556,0,0,1,1.7,53.315a.264.264,0,0,1,.264-.264h53.85a.264.264,0,0,1,.264.264A2.556,2.556,0,0,1,53.59,56.11H45.183a.846.846,0,0,0,0,1.692H53.59a4.258,4.258,0,0,0,4.176-4.487,1.958,1.958,0,0,0-1.956-1.956ZM47.485,27.077V47.962H25.332V27.077ZM23.64,25.619V47.962H14.324v-22.3a4.658,4.658,0,1,1,9.316-.039Zm-11,1.458V47.962H10.283V27.077ZM6.375,8.54H16.982v3.234H9.609Zm12.581-.963h2.438V12.71H18.956a.282.282,0,0,1-.282-.282V7.859A.282.282,0,0,1,18.956,7.577ZM1.7,10.157A1.617,1.617,0,0,1,4.456,9.014L15.632,20.19A6.433,6.433,0,0,0,14.376,21.2a6.138,6.138,0,0,0-.972,1.331L2.169,11.3A1.607,1.607,0,0,1,1.7,10.157Zm5.218,14.9A1.375,1.375,0,0,1,8.287,23.68h3.868l.612.612a6.653,6.653,0,0,0-.131,1.092h-3.2a.846.846,0,0,0-.846.846V48.808a.846.846,0,0,0,.846.846H48.331a.846.846,0,0,0,.846-.846V26.23a.846.846,0,0,0-.846-.846H25.326a6.332,6.332,0,0,0-.3-1.7H49.481a1.375,1.375,0,0,1,1.374,1.374V49.985a1.375,1.375,0,0,1-1.374,1.374H8.287a1.375,1.375,0,0,1-1.374-1.374V25.054Z" transform="translate(0 -0.039)"/>
        <path id="Trazado_989570" data-name="Trazado 989570" d="M138.543,202.859a3.309,3.309,0,1,0,3.309-3.309A3.313,3.313,0,0,0,138.543,202.859Zm4.926,0a1.617,1.617,0,1,1-1.617-1.617A1.619,1.619,0,0,1,143.469,202.859Z" transform="translate(-122.913 -177.042)"/>
        <path id="Trazado_989571" data-name="Trazado 989571" d="M243.864,265.476l.959.2q.108.294.243.578l-.522.8a1.549,1.549,0,0,0,.2,1.929l.973.973a1.549,1.549,0,0,0,1.929.2l.823-.534q.285.132.58.238l.2.938a1.549,1.549,0,0,0,1.508,1.22h1.375a1.549,1.549,0,0,0,1.507-1.22l.2-.959q.294-.108.578-.243l.8.522a1.549,1.549,0,0,0,1.929-.2l.973-.973a1.549,1.549,0,0,0,.2-1.929l-.534-.823q.132-.285.237-.58l.938-.2a1.549,1.549,0,0,0,1.22-1.507V262.54a1.549,1.549,0,0,0-1.22-1.507l-.959-.2q-.108-.294-.243-.578l.522-.8a1.549,1.549,0,0,0-.2-1.929l-.973-.973a1.549,1.549,0,0,0-1.929-.2l-.823.534q-.284-.131-.58-.237l-.2-.938a1.549,1.549,0,0,0-1.507-1.22H250.7a1.549,1.549,0,0,0-1.507,1.22l-.2.959q-.294.108-.578.243l-.8-.522a1.55,1.55,0,0,0-1.929.2l-.973.973a1.549,1.549,0,0,0-.2,1.929l.534.823q-.132.285-.237.58l-.938.2a1.549,1.549,0,0,0-1.22,1.507v1.375a1.549,1.549,0,0,0,1.221,1.507Zm.472-2.761,1.285-.273a.873.873,0,0,0,.658-.621,5.3,5.3,0,0,1,.469-1.146.872.872,0,0,0-.033-.9l-.724-1.115.8-.8,1.1.714a.87.87,0,0,0,.906.028,5.312,5.312,0,0,1,1.138-.479.871.871,0,0,0,.614-.658l.276-1.3h1.131l.273,1.285a.87.87,0,0,0,.621.658,5.316,5.316,0,0,1,1.147.47.875.875,0,0,0,.895-.034l1.115-.724.8.8-.716,1.1a.871.871,0,0,0-.026.9,5.307,5.307,0,0,1,.479,1.139.87.87,0,0,0,.658.612l1.3.276v1.131l-1.285.273a.873.873,0,0,0-.659.621,5.3,5.3,0,0,1-.467,1.142.872.872,0,0,0,.031.9l.724,1.115-.8.8-1.1-.714a.871.871,0,0,0-.906-.028,5.314,5.314,0,0,1-1.138.479.872.872,0,0,0-.614.658l-.276,1.3h-1.131l-.273-1.285a.875.875,0,0,0-.621-.659,5.319,5.319,0,0,1-1.147-.47.874.874,0,0,0-.895.034l-1.115.724-.8-.8.714-1.1a.873.873,0,0,0,.029-.908,5.3,5.3,0,0,1-.479-1.139.875.875,0,0,0-.658-.612l-1.3-.276v-1.131Z" transform="translate(-215.269 -225.774)"/>
        <path id="Trazado_989572" data-name="Trazado 989572" d="M291.835,307.3a3.635,3.635,0,1,0-3.635-3.635A3.639,3.639,0,0,0,291.835,307.3Zm0-5.578a1.943,1.943,0,1,1-1.943,1.943A1.945,1.945,0,0,1,291.835,301.726Z" transform="translate(-255.686 -266.19)"/>
      </g>
    </g>
  </g>
</svg>
